<?xml version="1.0" encoding="UTF-8" standalone="no"?>
<svg
   xmlns:dc="http://purl.org/dc/elements/1.1/"
   xmlns:cc="http://creativecommons.org/ns#"
   xmlns:rdf="http://www.w3.org/1999/02/22-rdf-syntax-ns#"
   xmlns:svg="http://www.w3.org/2000/svg"
   xmlns="http://www.w3.org/2000/svg"
   id="svg113"
   version="1.1"
   viewBox="0 0 563.92156 496.40173"
   height="496.40173"
   width="563.92157">
  <metadata
     id="metadata117">
    <rdf:RDF>
      <cc:Work
         rdf:about="">
        <dc:format>image/svg+xml</dc:format>
        <dc:type
           rdf:resource="http://purl.org/dc/dcmitype/StillImage" />
      </cc:Work>
    </rdf:RDF>
  </metadata>
  <defs
     id="defs5">
    <clipPath
       id="a">
      <path
         style="opacity:0;fill:#bff0ea"
         id="path2"
         transform="translate(563.919,0.598)"
         d="m -549.61,228.962 c -6.528,-19.114 -11.418,-155.787 -6.028,-175.38 17.31,-62.946 105.521,-64.045 182.719,-36.024 70.779,25.693 168.153,11.523 222.5,0 C -22.6,-9.543 5.823,271.784 -0.919,345.918 -5.275,393.8 -112.164,453.684 -197.993,447.464 a 124.909,124.909 0 0 0 -71.471,16.74 c -36.522,21.113 -94.573,26.061 -154.874,9.494 -90.706,-24.922 -152.152,-89.084 -137.239,-143.307 a 62.263,62.263 0 0 1 5.086,-12.762 111.659,111.659 0 0 0 6.881,-88.667 z" />
    </clipPath>
  </defs>
  <g
     id="g111"
     transform="translate(0.00233804,-0.5982753)">
    <path
       style="fill:#bff0ea"
       id="path7"
       transform="translate(497,79)"
       d="m -489.681,238.918 a 111.77,111.77 0 0 0 6.881,-88.728 c -6.53,-19.127 -7.554,-48.673 -2.162,-68.28 17.316,-62.99 97.407,-100.52 174.633,-72.48 70.8,25.711 88.139,131.781 142.506,120.25 C -39.95,102.561 6.106,193.692 -0.639,267.879 -5,315.8 -45.191,375.068 -131.051,368.843 a 124.921,124.921 0 0 0 -71.5,16.752 c -36.535,21.127 -94.607,26.079 -154.931,9.5 -90.74,-24.939 -152.208,-89.146 -137.289,-143.407 a 62.315,62.315 0 0 1 5.088,-12.771" />
    <path
       style="opacity:0.22000002;fill:#bff0ea"
       id="path9"
       transform="translate(51,102)"
       d="M 397,197.5 C 397,306.575 308.13,395 198.5,395 88.87,395 0,306.575 0,197.5 0,88.425 88.872,0 198.5,0 308.128,0 397,88.424 397,197.5" />
    <path
       style="opacity:0;fill:#bff0ea"
       id="path11"
       transform="translate(563.919,0.598)"
       d="m -549.61,228.962 c -6.528,-19.114 -11.418,-155.787 -6.028,-175.38 17.31,-62.946 105.521,-64.045 182.719,-36.024 70.779,25.693 168.153,11.523 222.5,0 C -22.6,-9.543 5.823,271.784 -0.919,345.918 -5.275,393.8 -112.164,453.684 -197.993,447.464 a 124.909,124.909 0 0 0 -71.471,16.74 c -36.522,21.113 -94.573,26.061 -154.874,9.494 -90.706,-24.922 -152.152,-89.084 -137.239,-143.307 a 62.263,62.263 0 0 1 5.086,-12.762 111.659,111.659 0 0 0 6.881,-88.667 z" />
    <g
       id="g109"
       clip-path="url(#a)">
      <g
         id="g107"
         transform="rotate(180,238,30)">
        <path
           style="fill:#75d4c4"
           id="path13"
           transform="rotate(-180,0,-7.5)"
           d="M 0,261 H -221 V 0 H 0 Z" />
        <path
           style="fill:#b4ede6"
           id="path15"
           transform="scale(-1)"
           d="M 0,17 H -221 V 0 H 0 Z" />
        <path
           style="fill:#339d89"
           id="path17"
           transform="rotate(-180,3,-3)"
           d="M -6,3 A 3,3 0 0 0 -3,6 3,3 0 0 0 0,3 3,3 0 0 0 -3,0 3,3 0 0 0 -6,3" />
        <path
           style="fill:#339d89"
           id="path19"
           transform="rotate(-180,8.5,-3)"
           d="M -6,3 A 3,3 0 0 0 -3,6 3,3 0 0 0 0,3 3,3 0 0 0 -3,0 3,3 0 0 0 -6,3" />
        <path
           style="fill:#339d89"
           id="path21"
           transform="rotate(-180,14,-3)"
           d="M -6,3 A 3,3 0 0 0 -3,6 3,3 0 0 0 0,3 3,3 0 0 0 -3,0 3,3 0 0 0 -6,3" />
        <path
           style="fill:#ffffff"
           id="path23"
           transform="rotate(-180,3.5,-16)"
           d="M 0,226 H -205 V 0 H 0 Z" />
        <path
           style="fill:#339d89"
           id="path25"
           transform="rotate(-180,72,-33)"
           d="M 39.794,106 H 29.564 V 95.221 A 43.089,43.089 0 0 1 18.5,92.676 30.783,30.783 0 0 1 9.737,87.56 26.272,26.272 0 0 1 3.492,79.847 34.954,34.954 0 0 1 0,69.5 l 18.411,-1.663 a 18.28,18.28 0 0 0 4.242,8.177 18.621,18.621 0 0 0 6.911,4.97 V 56.168 A 57.426,57.426 0 0 1 17.576,52 29.7,29.7 0 0 1 9.276,46.127 23,23 0 0 1 4.434,38.681 24.019,24.019 0 0 1 2.816,29.8 a 21.766,21.766 0 0 1 1.826,-8.947 22.206,22.206 0 0 1 5.476,-7.381 27.67,27.67 0 0 1 8.515,-5.206 38.686,38.686 0 0 1 10.93,-2.4 V 0 h 10.23 v 5.865 a 42.223,42.223 0 0 1 10.074,2.162 26.919,26.919 0 0 1 7.773,4.263 22.982,22.982 0 0 1 5.436,6.2 25.773,25.773 0 0 1 3.04,7.986 l -17.86,1.957 a 12.605,12.605 0 0 0 -8.463,-9.474 v 23.158 a 82.514,82.514 0 0 1 14.236,4.422 28.325,28.325 0 0 1 8.831,5.571 20.172,20.172 0 0 1 4.608,6.99 23.966,23.966 0 0 1 1.532,8.738 25,25 0 0 1 -1.933,9.883 24.713,24.713 0 0 1 -5.794,8.19 30.148,30.148 0 0 1 -9.232,5.929 46.007,46.007 0 0 1 -12.246,3.077 V 106 Z M 39.573,59 v 23 a 15.644,15.644 0 0 0 8.785,-4.1 10.329,10.329 0 0 0 3.391,-7.713 9.427,9.427 0 0 0 -2.84,-6.818 C 47,61.465 43.861,59.994 39.574,59 Z M 29.42,19 v 0 a 13.606,13.606 0 0 0 -6.648,3.936 9.065,9.065 0 0 0 -2.478,6.13 8.547,8.547 0 0 0 2.265,5.686 A 15.439,15.439 0 0 0 29.42,39 V 19 h 0.006 z" />
        <path
           style="fill:#d6edfe"
           id="path27"
           transform="rotate(-180,26.5,-46)"
           d="m -0.545,22 h 0.09 V 0.029 L -0.5,0 h -0.05 v 22" />
        <path
           style="fill:#d6edfe"
           id="path29"
           transform="rotate(-180,26.5,-45.5)"
           d="M -0.47,0.56 V 0.44 l -0.06,0.06 0.02,0.03 0.04,0.03" />
        <path
           style="fill:#d6edfe"
           id="path31"
           transform="rotate(-180,74,-68)"
           d="M 0,0.54 H -46 V 0.46 H 0 Z" />
        <path
           style="fill:#d6edfe"
           id="path33"
           transform="rotate(-180,26.5,-68.5)"
           d="m -0.545,22 h 0.09 V 0.039 L -0.5,0 h -0.05 v 22" />
        <path
           style="fill:#d6edfe"
           id="path35"
           transform="rotate(-180,26.5,-68)"
           d="M -0.47,0.56 V 0.44 l -0.06,0.06 0.02,0.02 0.04,0.04" />
        <path
           style="fill:#d6edfe"
           id="path37"
           transform="rotate(-180,26.5,-91.5)"
           d="M -0.47,0.56 V 0.44 l -0.06,0.06 0.02,0.02 0.04,0.04" />
        <path
           style="fill:#b4ede6"
           id="path39"
           transform="rotate(-180,26.5,-103)"
           d="M 0,3 H -46 V 0 H 0 Z" />
        <path
           style="fill:#339d89"
           id="path41"
           transform="rotate(-180,26.5,-107.5)"
           d="M 0,4 H -95 V 0 H 0 Z" />
        <path
           style="fill:#75d4c4"
           id="path43"
           transform="rotate(-180,26.5,-112)"
           d="M 0,4 H -78 V 0 H 0 Z" />
        <path
           style="fill:#ff987f"
           id="path45"
           transform="rotate(-180,72.944,-60.659)"
           d="M -70.586,61.646 -3.172,0 c 0,0 4.482,5.422 2.791,10.373 C -5,23.78 -21.551,50.68 -32.066,62.047 a 239.288,239.288 0 0 1 -31.667,27.964 l -6.853,-28.365" />
        <path
           style="fill:#ff987f"
           id="path47"
           transform="rotate(-180,65.4755,-51.1225)"
           d="m -18,35.7 8.51,-7.235 A 38.507,38.507 0 0 0 -1.787,19.8 C 1.718,14.4 -0.27,9.135 -4.821,4.812 -9.355,0.488 -12.773,0 -12.773,0 c 0,0 -7.324,3.26 -6.4,9.815 0.942,6.538 -5.685,21.008 -3.174,22.054 A 11.527,11.527 0 0 1 -18,35.7" />
        <path
           style="fill:#ff987f"
           id="path49"
           transform="rotate(-180,64.547,-43.138)"
           d="M -17.787,17.277 -9.312,8.142 -1.046,0 0,2.388 l -5.057,6.59 -2.7,13.773 -3.331,-1.831 -6.7,-3.644" />
        <path
           style="fill:#ff987f"
           id="path51"
           transform="rotate(-180,60.231,-46.9385)"
           d="M -10.777,4.759 -1.657,0 0,2 l -8.143,6.333 -5.894,9.257 -5.685,-4.271 8.946,-8.56" />
        <path
           style="fill:#ff987f"
           id="path53"
           transform="rotate(-180,59.3765,-50.007)"
           d="m 0,0 -7.5,3.312 -5.284,1.534 -3.627,4.864 3.383,4.812 L -9.259,9.17 -0.14,3.1 0,0" />
        <path
           style="fill:#ff987f"
           id="path55"
           transform="rotate(-180,58.548,-54.0255)"
           d="m 0,0 -14.334,3.679 -2.354,3.609 2.145,3.434 L -8.736,6.695 -1.028,2.354 0,0" />
        <path
           style="fill:#ff987f"
           id="path57"
           transform="rotate(-180,71.015,-47.3825)"
           d="m -15.505,42.993 c 4.638,-4.707 3.61,-11.7 3.61,-11.7 0,0 -2.093,-17.5 0.471,-20.4 2.563,-2.872 4.167,-10.351 4.167,-10.351 0,0 2.2,-2.789 3.139,4.289 A 29.2,29.2 0 0 1 -4.38,13.6 c 0,0 4.726,9.536 4.36,12.639 -0.715,6.381 -12.207,17.591 -12.207,17.591 0,0 -3.871,-0.227 -3.278,-0.837" />
        <path
           style="fill:#ffffff"
           id="path59"
           transform="rotate(-180,102.727,-77.8125)"
           d="m -91.688,9.783 74.965,13.86 2.877,4.881 L -9.5,24.951 0,53.682 -21.588,69.913 -123.617,49.149 c 0,0 -22.3,-10.46 -29.871,-39.627 -5.493,-21.13 55.592,-0.628 61.8,0.262" />
        <path
           style="fill:#d9e6f9"
           id="path61"
           transform="rotate(-180,132.7095,-81.0785)"
           d="m -53.8,5.779 c 0,0 19.182,24.407 25.285,57.532 6.103,33.125 6.975,121.165 16.566,176.081 9.591,54.916 23.541,118.55 -5.231,110.7 -28.772,-7.85 -73.239,-4.358 -70.623,-58.4 2.616,-54.042 13.078,-276.324 18.31,-285.041 5.232,-8.717 7.847,-8.717 15.694,-0.872" />
        <path
           style="fill:#e88067"
           id="path63"
           transform="rotate(-180,166.633,-31.374)"
           d="m -0.007,82.28 c 0.207,9.536 -4.029,18.27 -9.312,19.229 -5.074,0.54 -10.149,1.063 -15.223,1.6 -5.406,0.157 -11.352,-7.5 -13.131,-16.858 q -4.342,-23.2 -8.684,-46.391 c -1.814,-9.275 -0.139,-28.417 7.376,-34.833 A 20.352,20.352 0 0 1 -15.667,2.572 C -7,7.279 -1.35,25.655 -1.193,35.1 q 0.575,23.566 1.186,47.18" />
        <path
           style="fill:#ff987f"
           id="path65"
           transform="rotate(-180,101.478,-139.6705)"
           d="m -62.463,7.633 c 28.046,-2.292 47.886,-7.959 59.425,-7.618 6.076,0.179 0,9.243 0,9.243 0,0 -62.6,36.067 -85.341,17.064 -22.756,-19.02 0.854,-21.182 0.854,-21.182 0,0 17.325,3.126 25.062,2.493 z" />
        <path
           style="fill:#161711"
           id="path67"
           transform="rotate(-180,164.8405,-386.1745)"
           d="M 0,15.847 -0.174,24.424 -47.866,23.413 -48.495,0.331 -19.722,0 C -19.722,0 -4.5,14.522 0,15.847" />
        <path
           style="fill:#194866"
           id="path69"
           transform="rotate(-180,134.49,-163.6315)"
           d="m -95.891,55.736 c 0,0 21.691,141.841 46.123,204.411 C -28.11,315.587 0,244.666 0,244.666 L -36.6,6.677 -105.133,0 c 0,0 -4.761,1.656 9.242,55.736" />
        <path
           style="fill:#153f59"
           id="path71"
           transform="rotate(-180,156.7145,-165.1835)"
           d="m -6.5,9.362 6.5,91.3 -12.05,6.747 c 0,0 -9.765,135.2 -12.154,142 -13.706,38.891 -46.506,14.678 -50.779,1.533 -4.255,-13.163 -9.783,-109.972 -6.766,-180.457 L -78.749,0 -6.5,9.362" />
        <path
           style="fill:#194866"
           id="path73"
           transform="rotate(-180,168.07,-266.147)"
           d="m -3.6,11.1 c 0,0 4.985,24.212 3.223,69.8 -1.116,28.87 -5.563,105.318 -12.084,162.169 -0.4,3.469 -28.79,0.227 -28.79,0.227 0,0 -13.392,-185.233 -14.159,-221.042 C -55.637,11.463 -25.784,-14.88 -3.6,11.1" />
        <path
           style="fill:#75d4c4"
           id="path75"
           transform="rotate(-180,148.1525,-70.5875)"
           d="M -34.265,9.99 -78.889,0 l -22.9,25.75 c 0,0 -16.984,22.769 -17.351,73.884 -0.366,51.255 16.984,146.182 16.984,146.182 L 0,212.989 c 0,0 -4.761,-179.9 -34.265,-203" />
        <path
           style="fill:#339d89"
           id="path77"
           transform="rotate(-180,167.4565,-69.062)"
           d="M 0,11.419 -7.655,32.985 -47.849,11.942 -43.647,0 0,11.419" />
        <path
           style="fill:#339d89"
           id="path79"
           transform="rotate(-180,162.373,-72.087)"
           d="M -8.091,0 -9.033,4.812 0,17.939 -0.244,7.165 -8.091,0" />
        <path
           style="fill:#163f59"
           id="path81"
           transform="rotate(-180,124.6985,-279.27)"
           d="m -31,9.937 c 0,0 -8,2.441 -33.393,2.789 -25.267,0.384 28.232,204.812 28.232,204.812 L 0,205.126 -21.5,0 -31,9.937" />
        <path
           style="fill:#161711"
           id="path83"
           transform="rotate(-180,110.26,-380.866)"
           d="m -62.2,12.169 3.017,17.887 18.17,0.384 c 0,0 13.619,0.3 17.037,0.366 3.4,0.07 23.838,0.506 23.838,0.506 L 0,24.773 c 0,0 -28.18,-10.425 -33.62,-21.443 -5.44,-11.018 -28.58,8.839 -28.58,8.839" />
        <path
           style="fill:#163f59"
           id="path85"
           transform="rotate(-180,155.0775,-21.921)"
           d="M -37.383,10.826 -36.354,0 l 4.482,0.418 11.805,1.133 7.115,0.68 a 14.32,14.32 0 0 1 12.886,15.621 l -1.028,10.809 -4.482,-0.436 -11.805,-1.115 -7.115,-0.68 a 14.3,14.3 0 0 1 -12.887,-15.6" />
        <path
           style="fill:#ff987f"
           id="path87"
           transform="rotate(-180,158.2975,-24.6295)"
           d="m -59.628,69.008 a 12.7,12.7 0 0 0 11.457,13.86 l 28.738,2.755 A 12.722,12.722 0 0 0 -5.553,74.169 L -0.06,16.689 A 12.734,12.734 0 0 0 -11.517,2.795 L -40.272,0.058 a 12.742,12.742 0 0 0 -13.881,11.454 l -5.475,57.5" />
        <path
           style="fill:#163f59"
           id="path89"
           transform="rotate(-180,161.013,-21.843)"
           d="m -25.389,0.068 a 14.3,14.3 0 0 0 -12.52,5.3 l -4.9,-0.471 a 11.1,11.1 0 0 0 -12.084,9.99 l -2.617,27.267 7.777,0.75 1.064,-11.104 a 7.8,7.8 0 0 1 8.51,-7.008 l 4.534,0.436 11.788,1.116 7.115,0.68 A 14.307,14.307 0 0 0 -1.1,14.137 L 0,2.492 -25.389,0.068" />
        <path
           style="fill:#ff987f"
           id="path91"
           transform="rotate(-180,184.975,-43.21)"
           d="M -0.03,7.474 A 6.786,6.786 0 0 0 -6.151,0.082 L -6.709,0.03 a 6.79,6.79 0 0 0 -7.411,6.1 l -0.785,8.211 a 6.8,6.8 0 0 0 6.121,7.409 l 0.558,0.052 A 6.8,6.8 0 0 0 -1.652,18.35 L -0.03,7.474" />
        <path
           style="fill:#ff987f"
           id="path93"
           transform="rotate(-180,84.6625,-127.0815)"
           d="m -46.156,33.961 c 0,0 -1.622,-14.679 1.133,-17.782 2.738,-3.086 13.5,-13.72 13.5,-13.72 L -28.561,0 c 0,0 4.272,1.953 -3.034,9.013 -7.306,7.06 -2.04,5.649 -2.04,5.649 l 8.824,-3.766 11.125,-3.731 4.761,-2.319 c 0,0 2.614,-1.516 3.504,-1.324 2.6,0.558 1.186,2.493 1.186,2.493 L -22.057,16.7 -3.242,11.557 c 0,0 2.511,-0.227 3.069,1.029 0.506,1.2 -0.262,1.464 -0.262,1.464 l -20.158,11.14 9.974,-1.482 c 0,0 2.459,-0.157 3.034,1.046 0.645,1.325 0.854,1.656 0.854,1.656 L -44.5,37.8 -46.157,33.965" />
        <path
           style="fill:#ff987f"
           id="path95"
           transform="rotate(-180,84.99,-135.32)"
           d="M -19.449,3.432 -6.022,0.643 c 0,0 2.93,-0.976 4.551,-0.523 a 1.885,1.885 0 0 1 1.43,2.266 l -19.9,6.328 0.488,-5.282" />
        <path
           style="fill:#ffffff"
           id="path97"
           transform="rotate(-180,166.12,-69.062)"
           d="m -46.319,0 c 0,0 29.086,24.372 39.287,45.5 10.201,21.149 10.463,130.756 -6.975,169.11 -17.438,38.354 -33.132,135.984 -33.132,156.9 0,20.916 -59.289,-13.947 -59.289,-13.947 0,0 12.206,-95.886 13.95,-132.5 1.744,-36.614 10.464,-148.18 12.207,-177.817 C -78.528,17.609 -46.319,0 -46.319,0" />
        <path
           style="fill:#d9e6f9"
           id="path99"
           transform="rotate(-180,163.237,-67.8415)"
           d="m -49.417,0 c 0,0 34.457,38.459 40.979,54.045 13.008,31.171 9.59,107.218 -0.872,135.112 -10.462,27.894 -12.206,33.124 -12.206,33.124 L -20.644,87.169 -25,59.275 -17.153,54.917 -25,50.558 -55.521,5.23 -49.421,0" />
        <path
           style="fill:#ffffff"
           id="path101"
           transform="rotate(-180,140.349,-81.632)"
           d="m -104.871,0 c 0,0 -19.722,10.146 -10.253,39.435 16.113,49.948 49.785,91.109 56.115,99.338 6.347,8.246 28.476,28.19 43.246,21.583 l 14.77,-6.59 0.993,-33.298 -9.783,-0.994 -5.807,-1.1 c 0,0 -20.454,-32.443 -37.543,-64.033 C -70.222,22.734 -104.871,0 -104.871,0" />
        <path
           style="fill:#f0f6ff"
           id="path103"
           transform="rotate(-180,140.567,-105.346)"
           d="m -79.063,16.519 c 13.95,24.407 41.851,74.094 51.442,76.709 C -21.152,95.006 -7.917,90.8 0,87.893 l -0.558,18.445 -14.77,6.59 c -14.77,6.607 -36.9,-13.337 -43.246,-21.583 -5.179,-6.747 -28.7,-35.565 -45.9,-73.222 -2.6,-23.605 12.5,-24.163 25.407,-1.6" />
        <path
           style="fill:#f0f6ff"
           id="path105"
           transform="rotate(-180,192.305,-207.748)"
           d="M 0,12.2 -30.516,0 -32.26,13.075 -2.616,26.151 0,12.2" />
      </g>
    </g>
  </g>
</svg>
