<svg xmlns="http://www.w3.org/2000/svg" xmlns:xlink="http://www.w3.org/1999/xlink" width="497" height="509.323" viewBox="0 0 497 509.323"><defs><style>.a,.e,.f{fill:#bff0ea;}.a{opacity:0;}.b,.c{fill:#ff987f;}.c{stroke:#979797;stroke-miterlimit:10;}.d{fill:#d8d8d8;}.f{opacity:0.22;}.g{clip-path:url(#a);}.h{clip-path:url(#b);}.i{fill:#f87c69;}.j{clip-path:url(#c);}.k{fill:#f57d65;}.l{clip-path:url(#d);}.m{fill:#ff977f;}.n{fill:#eff1f8;}.o{fill:#416888;}.p{fill:#fff;}.q{clip-path:url(#e);}.r{fill:#01e9b5;}.s{clip-path:url(#f);}</style><clipPath id="a"><path class="a" d="M-482.621,241.883C-489.149,222.77-494.038,86.1-488.649,66.5c17.31-62.946,101.607-81.91,178.8-53.889,70.779,25.693,87.739,220.3,142.086,208.774C-39.935,194.288,6.1,285.356-.639,359.491-4.994,407.377-45.174,466.606-131,460.385a124.908,124.908,0,0,0-71.471,16.74c-36.522,21.113-94.573,26.061-154.874,9.494C-448.056,461.7-509.5,397.536-494.588,343.313A62.262,62.262,0,0,1-489.5,330.55,111.66,111.66,0,0,0-482.621,241.883Z" transform="translate(496.93 0.677)"/></clipPath><clipPath id="b"><path class="b" d="M50.657.792,9.677,0S-3.055.207.964,7.482,19.593,19.858,19.593,19.858,42.425,26.7,55.253,26.7C55.484,26.641,50.657.792,50.657.792Z" transform="translate(0.006 0.376)"/></clipPath><clipPath id="c"><path class="b" d="M52.425,58.155S17.891,33.216,12,26.828-1.859,15.348.39,5.746,18.49.691,26.213,4.258a139.163,139.163,0,0,1,17.75,9.751C48.565,16.97,52.425,58.155,52.425,58.155Z" transform="translate(0.095)"/></clipPath><clipPath id="d"><path class="c" d="M35.4,43.147S0,17.414,0,7.765,11.8.456,11.8.456s9.944,2.508,15.775,5.923,5.742,6.98,5.742,6.98l3.718,29.787Z" transform="translate(0.747)"/></clipPath><clipPath id="e"><circle class="d" cx="60.5" cy="60.5" r="60.5" transform="translate(0.004 0.056)"/></clipPath><clipPath id="f"><path class="b" d="M178.89,371.686s36.405-22.7,45.4-26.162,37.354-17.352,52.019-44.7c.584-.237-75.726-69.9-86.574-83.563-6.247-7.869-19.819-23.359-32.522-37.334-14.281-15.711-17.3-22.653-18.112-34.668-1.907-28.334-3.443-47.7-4.659-59.961s-.3-17.34-3.665-23.942c-3.068-6.021-9.058-10.225-14.815-14.465C97.86,33.553,70.935,7.464,69.15,5.825s-3.349-4.5-20.959-4.5S5.859.148,5.859.148-3.435-1.054,2.014,7.5,20.956,25.473,31.473,27.779s18.9,3.452,20.947,7.716S65.448,57.271,65.448,57.271l8.716,15.462S79.528,82.218,71.323,96A146.287,146.287,0,0,0,56.8,164.563c1.22,31.832,3.734,33.623,3.734,33.623l-52.886,10.1s12.88,13.21,26.71,16.467S56.848,230.2,69.15,237.265s21.7,19.375,30.127,28.954S165.47,343.1,176.212,366.337C178.448,371.234,178.89,371.686,178.89,371.686Z" transform="translate(0.284)"/></clipPath></defs><g transform="translate(0 -19.677)"><path class="e" d="M-489.681,238.918A111.77,111.77,0,0,0-482.8,150.19c-6.53-19.127-7.554-48.673-2.162-68.28,17.316-62.99,97.407-100.52,174.633-72.48,70.8,25.711,88.139,131.781,142.506,120.25C-39.95,102.561,6.106,193.692-.639,267.879-5,315.8-45.191,375.068-131.051,368.843a124.921,124.921,0,0,0-71.5,16.752c-36.535,21.127-94.607,26.079-154.931,9.5-90.74-24.939-152.208-89.146-137.289-143.407a62.315,62.315,0,0,1,5.088-12.771" transform="translate(497 111)"/><path class="f" d="M397,197.5C397,306.575,308.13,395,198.5,395S0,306.575,0,197.5,88.872,0,198.5,0,397,88.424,397,197.5" transform="translate(51 134)"/><g transform="translate(0 19)"><path class="a" d="M-482.621,241.883C-489.149,222.77-494.038,86.1-488.649,66.5c17.31-62.946,101.607-81.91,178.8-53.889,70.779,25.693,87.739,220.3,142.086,208.774C-39.935,194.288,6.1,285.356-.639,359.491-4.994,407.377-45.174,466.606-131,460.385a124.908,124.908,0,0,0-71.471,16.74c-36.522,21.113-94.573,26.061-154.874,9.494C-448.056,461.7-509.5,397.536-494.588,343.313A62.262,62.262,0,0,1-489.5,330.55,111.66,111.66,0,0,0-482.621,241.883Z" transform="translate(496.93 0.677)"/><g class="g"><g transform="translate(22.094 67.18)"><g transform="translate(12.091 210.058)"><path class="b" d="M50.657.792,9.677,0S-3.055.207.964,7.482,19.593,19.858,19.593,19.858,42.425,26.7,55.253,26.7C55.484,26.641,50.657.792,50.657.792Z" transform="translate(0.006 0.376)"/><g class="h"><path class="i" d="M.643,14.416s25.631,10.768,47.2,8.8C47.63,21.778,43.91,11.681,40.137,9.7s0-9.7,0-9.7H55.119l9.036,9.7V32.849s.759,10.4-4.139,10.4H47.842c-11.979,0-19.149,3.31-23.245,0S10.65,37.788,10.65,32.849s-1.458-6.074-1.458-6.074S3.095,25.9.643,22.358C-.643,20.5.643,14.416.643,14.416Z" transform="translate(0 -8.592)"/></g></g><g transform="translate(0 101.18)"><path class="b" d="M52.425,58.155S17.891,33.216,12,26.828-1.859,15.348.39,5.746,18.49.691,26.213,4.258a139.163,139.163,0,0,1,17.75,9.751C48.565,16.97,52.425,58.155,52.425,58.155Z" transform="translate(0.095)"/><g class="j"><path class="k" d="M8.4,0S6.718,12.034,17.713,18.454,38.98,32.944,50.77,33.744c1.053.215-3.914-19.346-8.618-26.545s15.994,5.767,15.994,5.767L68.674,63.678s-7.071,8.54-18.659,0S22.992,53.339,16.706,41.785,9.6,32.083,7.084,25.268-1.169,12.874.211,6.437,8.4,0,8.4,0Z" transform="translate(-6.054 1.726)"/></g></g><g transform="translate(5.496 63.787)"><path class="c" d="M35.4,43.147S0,17.414,0,7.765,11.8.456,11.8.456s9.944,2.508,15.775,5.923,5.742,6.98,5.742,6.98l3.718,29.787Z" transform="translate(0.747)"/><g class="l"><path class="i" d="M4.63,1.255S4.667,13.128,12.121,17.7,30.365,27.811,30.365,27.811V6.212c0-2.891,6.822,9.272,9.415,26.63s5.463,18.867,0,16.755S17.348,43.551,12.121,36.757,0,21.316,0,14.257.464,1.553,1.771.415,4.63,1.255,4.63,1.255Z" transform="translate(-2.565 0.637)"/></g></g><g transform="translate(25.281 0)"><path class="m" d="M2.07,12.748S-1.373,3.455.911,1.541,11.7-2.333,22,7.812,3.588,19.4,3.588,19.4Z" transform="translate(23.993 13.633)"/><path class="n" d="M0,19.2A17,17,0,0,1,16.73,1.908L136.848,0a17,17,0,0,1,17.264,16.564l6.55,256.81a17,17,0,0,1-16.81,17.432L21.628,292.136a17,17,0,0,1-17.182-16.7Z" transform="matrix(0.985, -0.174, 0.174, 0.985, 0.336, 28.794)"/><path class="o" d="M0,19.1A17,17,0,0,1,16.741,1.744L131.085,0a17,17,0,0,1,17.252,16.514l7.13,250.133a17,17,0,0,1-16.674,17.481L22.559,286.315A17,17,0,0,1,5.243,269.674Z" transform="matrix(0.985, -0.174, 0.174, 0.985, 6.496, 27.702)"/><path class="p" d="M.005,18.716A17,17,0,0,1,16.793,1.3L123.624,0a17,17,0,0,1,17.2,16.666l2.959,151.018a17,17,0,0,1-16.867,17.333L20.8,185.83A17,17,0,0,1,3.673,169.244Z" transform="matrix(0.985, -0.174, 0.174, 0.985, 11.248, 31.653)"/><g transform="translate(36.621 49.764)"><circle class="d" cx="60.5" cy="60.5" r="60.5" transform="translate(0.004 0.056)"/><g class="q"><image width="310.545" height="232.909" transform="matrix(0.985, -0.174, 0.174, 0.985, -111.287, -27.723)" xlink:href="asset-image.png"/></g></g><path class="r" d="M1.018,19.743A17,17,0,0,1,17.648.759l40.583-.6C67.9.01,78.8,10.717,78.821,20.391h0L16.806,21.91A17,17,0,0,1-.493,6.9Z" transform="matrix(0.985, -0.174, 0.174, 0.985, 81.547, 220.514)"/></g><g transform="translate(140.692 94.581)"><path class="b" d="M178.89,371.686s36.405-22.7,45.4-26.162,37.354-17.352,52.019-44.7c.584-.237-75.726-69.9-86.574-83.563-6.247-7.869-19.819-23.359-32.522-37.334-14.281-15.711-17.3-22.653-18.112-34.668-1.907-28.334-3.443-47.7-4.659-59.961s-.3-17.34-3.665-23.942c-3.068-6.021-9.058-10.225-14.815-14.465C97.86,33.553,70.935,7.464,69.15,5.825s-3.349-4.5-20.959-4.5S5.859.148,5.859.148-3.435-1.054,2.014,7.5,20.956,25.473,31.473,27.779s18.9,3.452,20.947,7.716S65.448,57.271,65.448,57.271l8.716,15.462S79.528,82.218,71.323,96A146.287,146.287,0,0,0,56.8,164.563c1.22,31.832,3.734,33.623,3.734,33.623l-52.886,10.1s12.88,13.21,26.71,16.467S56.848,230.2,69.15,237.265s21.7,19.375,30.127,28.954S165.47,343.1,176.212,366.337C178.448,371.234,178.89,371.686,178.89,371.686Z" transform="translate(0.284)"/><g class="s"><path class="i" d="M54.875,0S68.72,20.114,82.969,24.959s18.892,10.6,24.593,19.463S194.938,148.11,210.37,153.762s3.325,17.447,3.325,17.447l-42.29,3.621L121.7,131.075,68.178,61.856,0,0Z" transform="translate(-7.718 199.912)"/><path class="i" d="M49.961,145.157s8.923,21.854,11.462,23.663-7.863-18.767-9.663-34.974S57.378,103,57.378,103s16.231-24.247,18.1-25.32,9.584,12.167,12.712,12.167c.314-.128-10.457-13.326-10.457-15.868s-.144-6.87.506-7.636,5.615,4.931,7.005,5.355-1.546-2.7-3.677-4.918a34.972,34.972,0,0,1-7.036-8.99A145.32,145.32,0,0,0,63.12,41.254c-1.7-1.861-9.56-11.578-11.359-17.6s-8.3-10.322-17.981-11.918S3.064,2.213.806.275s1.807,9.759,1.807,9.759Z" transform="translate(6.692 12.209)"/></g></g></g></g></g></g></svg>