<svg xmlns="http://www.w3.org/2000/svg" xmlns:xlink="http://www.w3.org/1999/xlink" width="19.588" height="19.6" viewBox="0 0 19.588 19.6">
  <defs>
    <clipPath id="clip-path">
      <path id="Clip_2" data-name="Clip 2" d="M0,0H19.587V19.6H0Z" transform="translate(0.003)" fill="none"/>
    </clipPath>
  </defs>
  <g id="city" transform="translate(-0.002 0)">
    <g id="Group_3" data-name="Group 3">
      <path id="Clip_2-2" data-name="Clip 2" d="M0,0H19.587V19.6H0Z" transform="translate(0.003)" fill="none"/>
      <g id="Group_3-2" data-name="Group 3" clip-path="url(#clip-path)">
        <path id="Fill_1" data-name="Fill 1" d="M19.228,19.6H.363a.332.332,0,1,1,0-.661h.6V6.5a.348.348,0,0,1,.363-.33H4.353V3.414a.348.348,0,0,1,.363-.33H5.8V1.652a.348.348,0,0,1,.363-.33H7.739V.33a.364.364,0,0,1,.725,0v.991h1.572a.348.348,0,0,1,.363.33V3.083h.725V1.652a.348.348,0,0,1,.363-.33H18.26a.348.348,0,0,1,.363.33V18.94h.6a.332.332,0,1,1,0,.661ZM4.111,17.838v1.1h.241v-.552a.364.364,0,0,1,.725,0v.551h.242v-1.1ZM1.693,6.827V18.94H3.385V17.508a.348.348,0,0,1,.363-.33H5.683a.348.348,0,0,1,.363.33V18.94H7.739V6.827ZM14.874,9.69a.348.348,0,0,1,.363.33V18.94H17.9V1.982H11.85V10.13h1.21v-.11a.364.364,0,0,1,.725,0v.11h.725v-.11A.349.349,0,0,1,14.874,9.69Zm-6.41,1.1V18.94H14.51V10.791Zm0-1.762v1.1h2.66V3.744H5.079V6.166H8.1a.348.348,0,0,1,.363.33v.111H9.554a.332.332,0,1,1,0,.661H8.464v1.1H9.554a.332.332,0,1,1,0,.661ZM6.53,1.982v1.1H9.673v-1.1Z" fill="#b8c1cd"/>
      </g>
    </g>
    <path id="Fill_4" data-name="Fill 4" d="M.363,0A.348.348,0,0,0,0,.33V6.5a.348.348,0,0,0,.363.33A.348.348,0,0,0,.726,6.5V.33A.348.348,0,0,0,.363,0" transform="translate(9.674 11.452)" fill="#b8c1cd"/>
    <path id="Fill_5" data-name="Fill 5" d="M.363,0A.348.348,0,0,0,0,.33V6.5a.348.348,0,0,0,.363.33A.348.348,0,0,0,.726,6.5V.33A.348.348,0,0,0,.363,0" transform="translate(11.125 11.452)" fill="#b8c1cd"/>
    <path id="Fill_6" data-name="Fill 6" d="M.363,0A.348.348,0,0,0,0,.33V6.5a.348.348,0,0,0,.363.33A.348.348,0,0,0,.726,6.5V.33A.348.348,0,0,0,.363,0" transform="translate(12.576 11.452)" fill="#b8c1cd"/>
    <path id="Fill_7" data-name="Fill 7" d="M.363,1.1A.348.348,0,0,0,.726.771V.33A.348.348,0,0,0,.363,0,.348.348,0,0,0,0,.33v.44a.348.348,0,0,0,.363.33" transform="translate(13.06 3.083)" fill="#b8c1cd"/>
    <path id="Fill_8" data-name="Fill 8" d="M.363,1.1A.348.348,0,0,0,.726.771V.33A.348.348,0,0,0,.363,0,.348.348,0,0,0,0,.33v.44a.348.348,0,0,0,.363.33" transform="translate(14.511 3.083)" fill="#b8c1cd"/>
    <path id="Fill_9" data-name="Fill 9" d="M.363,1.1A.348.348,0,0,0,.726.771V.33A.348.348,0,0,0,.363,0,.348.348,0,0,0,0,.33v.44a.348.348,0,0,0,.363.33" transform="translate(15.962 3.083)" fill="#b8c1cd"/>
    <path id="Fill_10" data-name="Fill 10" d="M.363,1.1A.348.348,0,0,0,.726.771V.33A.348.348,0,0,0,.363,0,.348.348,0,0,0,0,.33v.44a.348.348,0,0,0,.363.33" transform="translate(13.06 5.285)" fill="#b8c1cd"/>
    <path id="Fill_11" data-name="Fill 11" d="M.363,1.1A.348.348,0,0,0,.726.771V.33A.348.348,0,0,0,.363,0,.348.348,0,0,0,0,.33v.44a.348.348,0,0,0,.363.33" transform="translate(14.511 5.285)" fill="#b8c1cd"/>
    <path id="Fill_12" data-name="Fill 12" d="M.363,1.1A.348.348,0,0,0,.726.771V.33A.348.348,0,0,0,.363,0,.348.348,0,0,0,0,.33v.44a.348.348,0,0,0,.363.33" transform="translate(15.962 5.285)" fill="#b8c1cd"/>
    <path id="Fill_13" data-name="Fill 13" d="M.363,1.1A.348.348,0,0,0,.726.771V.33A.348.348,0,0,0,.363,0,.348.348,0,0,0,0,.33v.44a.348.348,0,0,0,.363.33" transform="translate(13.06 7.488)" fill="#b8c1cd"/>
    <path id="Fill_14" data-name="Fill 14" d="M.363,1.1A.348.348,0,0,0,.726.771V.33A.348.348,0,0,0,.363,0,.348.348,0,0,0,0,.33v.44a.348.348,0,0,0,.363.33" transform="translate(14.511 7.488)" fill="#b8c1cd"/>
    <path id="Fill_15" data-name="Fill 15" d="M.363,1.1A.348.348,0,0,0,.726.771V.33A.348.348,0,0,0,.363,0,.348.348,0,0,0,0,.33v.44a.348.348,0,0,0,.363.33" transform="translate(15.962 7.488)" fill="#b8c1cd"/>
    <path id="Fill_16" data-name="Fill 16" d="M.363,1.1A.348.348,0,0,0,.726.771V.33A.348.348,0,0,0,.363,0,.348.348,0,0,0,0,.33v.44a.348.348,0,0,0,.363.33" transform="translate(2.902 8.369)" fill="#b8c1cd"/>
    <path id="Fill_17" data-name="Fill 17" d="M.363,1.1A.348.348,0,0,0,.726.771V.33A.348.348,0,0,0,.363,0,.348.348,0,0,0,0,.33v.44a.348.348,0,0,0,.363.33" transform="translate(4.353 8.369)" fill="#b8c1cd"/>
    <path id="Fill_18" data-name="Fill 18" d="M.363,1.1A.348.348,0,0,0,.726.771V.33A.348.348,0,0,0,.363,0,.348.348,0,0,0,0,.33v.44a.348.348,0,0,0,.363.33" transform="translate(5.804 8.369)" fill="#b8c1cd"/>
    <path id="Fill_19" data-name="Fill 19" d="M.363,1.1A.348.348,0,0,0,.726.771V.33A.348.348,0,0,0,.363,0,.348.348,0,0,0,0,.33v.44a.348.348,0,0,0,.363.33" transform="translate(2.902 10.571)" fill="#b8c1cd"/>
    <path id="Fill_20" data-name="Fill 20" d="M.363,1.1A.348.348,0,0,0,.726.771V.33A.348.348,0,0,0,.363,0,.348.348,0,0,0,0,.33v.44a.348.348,0,0,0,.363.33" transform="translate(4.353 10.571)" fill="#b8c1cd"/>
    <path id="Fill_21" data-name="Fill 21" d="M.363,1.1A.348.348,0,0,0,.726.771V.33A.348.348,0,0,0,.363,0,.348.348,0,0,0,0,.33v.44a.348.348,0,0,0,.363.33" transform="translate(5.804 10.571)" fill="#b8c1cd"/>
    <path id="Fill_22" data-name="Fill 22" d="M.363,1.1A.348.348,0,0,0,.726.771V.33A.348.348,0,0,0,.363,0,.348.348,0,0,0,0,.33v.44a.348.348,0,0,0,.363.33" transform="translate(2.902 12.773)" fill="#b8c1cd"/>
    <path id="Fill_23" data-name="Fill 23" d="M.363,1.1A.348.348,0,0,0,.726.771V.33A.348.348,0,0,0,.363,0,.348.348,0,0,0,0,.33v.44a.348.348,0,0,0,.363.33" transform="translate(4.353 12.773)" fill="#b8c1cd"/>
    <path id="Fill_24" data-name="Fill 24" d="M.363,1.1A.348.348,0,0,0,.726.771V.33A.348.348,0,0,0,.363,0,.348.348,0,0,0,0,.33v.44a.348.348,0,0,0,.363.33" transform="translate(5.804 12.773)" fill="#b8c1cd"/>
    <path id="Fill_25" data-name="Fill 25" d="M.726.771V.33A.348.348,0,0,0,.363,0,.348.348,0,0,0,0,.33v.44a.348.348,0,0,0,.363.33A.348.348,0,0,0,.726.771" transform="translate(2.902 14.975)" fill="#b8c1cd"/>
    <path id="Fill_26" data-name="Fill 26" d="M.363,1.1A.348.348,0,0,0,.726.771V.33A.348.348,0,0,0,.363,0,.348.348,0,0,0,0,.33v.44a.348.348,0,0,0,.363.33" transform="translate(4.353 14.975)" fill="#b8c1cd"/>
    <path id="Fill_27" data-name="Fill 27" d="M.363,1.1A.348.348,0,0,0,.726.771V.33A.348.348,0,0,0,.363,0,.348.348,0,0,0,0,.33v.44a.348.348,0,0,0,.363.33" transform="translate(5.804 14.975)" fill="#b8c1cd"/>
    <path id="Fill_28" data-name="Fill 28" d="M.363,1.1A.348.348,0,0,0,.726.771V.33A.348.348,0,0,0,.363,0,.348.348,0,0,0,0,.33v.44a.348.348,0,0,0,.363.33" transform="translate(15.962 9.69)" fill="#b8c1cd"/>
    <path id="Fill_29" data-name="Fill 29" d="M.363,1.1A.348.348,0,0,0,.726.771V.33A.348.348,0,0,0,.363,0,.348.348,0,0,0,0,.33v.44a.348.348,0,0,0,.363.33" transform="translate(15.962 11.892)" fill="#b8c1cd"/>
    <path id="Fill_30" data-name="Fill 30" d="M.363,1.1A.348.348,0,0,0,.726.771V.33A.348.348,0,0,0,.363,0,.348.348,0,0,0,0,.33v.44a.348.348,0,0,0,.363.33" transform="translate(15.962 14.094)" fill="#b8c1cd"/>
    <path id="Fill_31" data-name="Fill 31" d="M.363,1.1A.348.348,0,0,0,.726.771V.33A.348.348,0,0,0,.363,0,.348.348,0,0,0,0,.33v.44a.348.348,0,0,0,.363.33" transform="translate(15.962 16.297)" fill="#b8c1cd"/>
    <path id="Fill_32" data-name="Fill 32" d="M3.628.33A.348.348,0,0,0,3.265,0H.363A.348.348,0,0,0,0,.33a.348.348,0,0,0,.363.33h2.9A.348.348,0,0,0,3.628.33" transform="translate(6.288 4.845)" fill="#b8c1cd"/>
  </g>
</svg>
