<?xml version="1.0" encoding="UTF-8" standalone="no"?>
<svg
   xmlns:dc="http://purl.org/dc/elements/1.1/"
   xmlns:cc="http://creativecommons.org/ns#"
   xmlns:rdf="http://www.w3.org/1999/02/22-rdf-syntax-ns#"
   xmlns:svg="http://www.w3.org/2000/svg"
   xmlns="http://www.w3.org/2000/svg"
   id="svg15"
   version="1.1"
   viewBox="0 0 21.506 19.6"
   height="19.6"
   width="21.506001">
  <metadata
     id="metadata19">
    <rdf:RDF>
      <cc:Work
         rdf:about="">
        <dc:format>image/svg+xml</dc:format>
        <dc:type
           rdf:resource="http://purl.org/dc/dcmitype/StillImage" />
      </cc:Work>
    </rdf:RDF>
  </metadata>
  <defs
     id="defs5">
    <clipPath
       id="a">
      <path
         style="fill:none"
         id="path2"
         d="M 0,0 H 21.506 V 19.6 H 0 Z" />
    </clipPath>
  </defs>
  <g
     id="g13">
    <path
       style="fill:none"
       id="path7"
       d="M 0,0 H 21.506 V 19.6 H 0 Z" />
    <g
       id="g11"
       clip-path="url(#a)">
      <path
         style="fill:#b8c1cd"
         id="path9"
         d="M 9.5,19.6 A 4.548,4.548 0 0 1 5.017,15 v -0.586 c -0.519,0 -1.075,-0.361 -1.075,-1.372 V 12.179 A 4.907,4.907 0 0 1 0,7.576 V 6.862 H 0.716 V 2.4 A 1.737,1.737 0 0 1 2.207,0.715 1.053,1.053 0 0 1 2.839,0.072 1.117,1.117 0 0 1 3.234,0 1.075,1.075 0 0 1 4.24,0.656 0.988,0.988 0 0 1 4.232,1.432 1.051,1.051 0 0 1 3.63,2 1.117,1.117 0 0 1 3.236,2.072 1.074,1.074 0 0 1 2.23,1.415 1.04,1.04 0 0 0 1.43,2.405 v 4.46 H 2.509 V 7.59 a 2.736,2.736 0 0 0 2.058,2.56 3.391,3.391 0 0 0 1.972,0 A 2.74,2.74 0 0 0 8.6,7.588 V 6.862 H 9.316 L 9.3,2.4 A 1.043,1.043 0 0 0 8.52,1.417 1.052,1.052 0 0 1 7.859,2.009 1.111,1.111 0 0 1 7.527,2.06 1.065,1.065 0 0 1 6.51,1.353 0.98,0.98 0 0 1 6.568,0.588 1.048,1.048 0 0 1 7.2,0.062 1.113,1.113 0 0 1 7.53,0.011 1.064,1.064 0 0 1 8.546,0.717 1.742,1.742 0 0 1 10.021,2.4 l 0.015,4.466 h 0.716 v 0.715 a 4.906,4.906 0 0 1 -3.942,4.6 v 0.863 c 0,1.012 -0.556,1.372 -1.076,1.372 V 15 A 3.847,3.847 0 0 0 9.5,18.913 3.847,3.847 0 0 0 13.261,15 V 8.235 h 0.021 -0.021 a 3.047,3.047 0 1 1 6.093,0.094 v 0.624 a 2.471,2.471 0 0 1 2.125,2.034 2.312,2.312 0 0 1 -0.443,1.741 2.506,2.506 0 0 1 -1.682,0.979 2.649,2.649 0 0 1 -0.362,0.025 2.487,2.487 0 0 1 -2.479,-2.059 2.312,2.312 0 0 1 0.443,-1.741 2.506,2.506 0 0 1 1.682,-0.979 V 8.326 A 2.331,2.331 0 1 0 13.979,8.251 V 15 A 4.548,4.548 0 0 1 9.5,19.6 Z M 4.659,12.31 v 0.728 c 0,0.206 0.035,0.687 0.358,0.687 h 0.717 c 0.323,0 0.358,-0.48 0.358,-0.687 V 12.31 H 6.049 6.027 6.005 5.964 5.942 5.908 5.9 C 5.7,12.326 5.535,12.334 5.389,12.334 H 5.367 c -0.137,0 -0.3,-0.008 -0.513,-0.024 H 4.846 l -0.1,-0.008 H 4.724 4.702 Z M 19,9.607 A 1.717,1.717 0 1 0 20.792,11.322 1.757,1.757 0 0 0 19,9.607 Z M 0.716,7.548 v 0.028 a 4.268,4.268 0 0 0 3.657,3.993 c 0.167,0.033 0.334,0.057 0.5,0.072 0.166,0.015 0.337,0.024 0.508,0.024 a 5.432,5.432 0 0 0 1,-0.1 4.269,4.269 0 0 0 3.656,-3.994 V 7.548 H 9.319 v 0.04 A 3.419,3.419 0 0 1 6.758,10.8 4.155,4.155 0 0 1 4.35,10.8 3.421,3.421 0 0 1 1.792,7.588 V 7.548 Z M 7.527,0.687 A 0.351,0.351 0 0 0 7.169,1.03 0.359,0.359 0 0 0 7.885,1.03 0.351,0.351 0 0 0 7.527,0.687 Z m -4.3,0 A 0.351,0.351 0 0 0 2.869,1.03 0.359,0.359 0 0 0 3.585,1.03 0.351,0.351 0 0 0 3.226,0.687 Z" />
    </g>
  </g>
</svg>
