<svg xmlns="http://www.w3.org/2000/svg" xmlns:xlink="http://www.w3.org/1999/xlink" width="100" height="100" viewBox="0 0 100 100"><defs><filter id="a" x="0" y="0" width="100" height="100" filterUnits="userSpaceOnUse"><feOffset dx="10" dy="10" input="SourceAlpha"/><feGaussianBlur stdDeviation="10" result="b"/><feFlood flood-color="#416888" flood-opacity="0.102"/><feComposite operator="in" in2="b"/><feComposite in="SourceGraphic"/></filter></defs><g transform="translate(20 20)"><g transform="matrix(1, 0, 0, 1, -20, -20)" filter="url(#a)"><circle cx="20" cy="20" r="20" transform="translate(20 20)" fill="#fff"/></g><path d="M7.257,6.947V0h9.459V1.975A13.369,13.369,0,0,1,15.48,7.4c-1.236,2.8-2.9,4.334-4.567,6.932a11.164,11.164,0,0,0-1.7,6.065h5.581V13.387A7.1,7.1,0,0,1,17,8.526q1.667-1.662,5.132-1.662H24V16.02H18.679V14.051h3.386V9.039a5.669,5.669,0,0,0-3.745,1.387,4.893,4.893,0,0,0-1.6,3.625v2.258l.005,6.091H7.257V20.393a14.147,14.147,0,0,1,3.016-8.125,24.519,24.519,0,0,0,3.475-5.4,9.778,9.778,0,0,0,1.042-4.889H9.209V8.526q-.16,4.017-2.374,5.8A7.331,7.331,0,0,1,1.848,16.02H0V6.947H5.306V8.938H1.935v5.013a5.628,5.628,0,0,0,3.728-1.387A5.06,5.06,0,0,0,7.257,8.938V6.947Z" transform="translate(8 8.8)" fill="#01e9b5"/></g></svg>