<?xml version="1.0" encoding="UTF-8" standalone="no"?>
<svg
   xmlns:dc="http://purl.org/dc/elements/1.1/"
   xmlns:cc="http://creativecommons.org/ns#"
   xmlns:rdf="http://www.w3.org/1999/02/22-rdf-syntax-ns#"
   xmlns:svg="http://www.w3.org/2000/svg"
   xmlns="http://www.w3.org/2000/svg"
   id="svg378"
   version="1.1"
   viewBox="0 0 584.99934 577.10168"
   height="577.10168"
   width="584.99933">
  <metadata
     id="metadata382">
    <rdf:RDF>
      <cc:Work
         rdf:about="">
        <dc:format>image/svg+xml</dc:format>
        <dc:type
           rdf:resource="http://purl.org/dc/dcmitype/StillImage" />
      </cc:Work>
    </rdf:RDF>
  </metadata>
  <defs
     id="defs84">
    <filter
       filterUnits="userSpaceOnUse"
       height="109.43"
       width="109.16"
       y="64.181999"
       x="211.007"
       id="a">
      <feOffset
         id="feOffset2"
         input="SourceAlpha"
         dy="10"
         dx="-10" />
      <feGaussianBlur
         id="feGaussianBlur4"
         result="b"
         stdDeviation="5" />
      <feFlood
         id="feFlood6"
         flood-opacity="0.078"
         flood-color="#416888" />
      <feComposite
         result="result1"
         id="feComposite8"
         in2="b"
         operator="in" />
      <feComposite
         id="feComposite10"
         in2="result1"
         in="SourceGraphic" />
    </filter>
    <clipPath
       id="c">
      <path
         style="fill:none"
         id="path13"
         transform="translate(0.174,0.22)"
         d="M 79.3,39.649 A 39.649,39.649 0 1 1 39.652,0" />
    </clipPath>
    <filter
       filterUnits="userSpaceOnUse"
       height="110"
       width="110"
       y="160"
       x="212"
       id="d">
      <feOffset
         id="feOffset16"
         input="SourceAlpha"
         dy="10"
         dx="-10" />
      <feGaussianBlur
         id="feGaussianBlur18"
         result="e"
         stdDeviation="5" />
      <feFlood
         id="feFlood20"
         flood-opacity="0.078"
         flood-color="#416888" />
      <feComposite
         result="result1"
         id="feComposite22"
         in2="e"
         operator="in" />
      <feComposite
         id="feComposite24"
         in2="result1"
         in="SourceGraphic" />
    </filter>
    <clipPath
       id="f">
      <path
         style="fill:none"
         id="path27"
         transform="translate(0.174,0.593)"
         d="M 79.3,39.649 A 39.649,39.649 0 1 1 39.645,0" />
    </clipPath>
    <filter
       filterUnits="userSpaceOnUse"
       height="110"
       width="110"
       y="256"
       x="212"
       id="g">
      <feOffset
         id="feOffset30"
         input="SourceAlpha"
         dy="10"
         dx="-10" />
      <feGaussianBlur
         id="feGaussianBlur32"
         result="h"
         stdDeviation="5" />
      <feFlood
         id="feFlood34"
         flood-opacity="0.078"
         flood-color="#416888" />
      <feComposite
         result="result1"
         id="feComposite36"
         in2="h"
         operator="in" />
      <feComposite
         id="feComposite38"
         in2="result1"
         in="SourceGraphic" />
    </filter>
    <clipPath
       id="i">
      <path
         style="fill:none"
         id="path41"
         transform="translate(0.174,0.223)"
         d="M 79.3,39.649 A 39.649,39.649 0 1 1 39.652,0" />
    </clipPath>
    <filter
       filterUnits="userSpaceOnUse"
       height="90"
       width="90"
       y="265"
       x="489"
       id="j">
      <feOffset
         id="feOffset44"
         input="SourceAlpha"
         dy="10" />
      <feGaussianBlur
         id="feGaussianBlur46"
         result="k"
         stdDeviation="5" />
      <feFlood
         id="feFlood48"
         flood-opacity="0.161"
         flood-color="#3dedab" />
      <feComposite
         result="result1"
         id="feComposite50"
         in2="k"
         operator="in" />
      <feComposite
         id="feComposite52"
         in2="result1"
         in="SourceGraphic" />
    </filter>
    <clipPath
       id="l">
      <path
         style="fill:none"
         id="path55"
         transform="translate(0.149,0.041)"
         d="m 0,3.387 c 0,0 20.021,-10.373 29.5,5.187 9.479,15.56 10.538,21.784 15.81,41.493 C 50.582,69.776 13.7,68.738 0,3.387 Z" />
    </clipPath>
    <clipPath
       id="m">
      <path
         style="fill:none"
         id="path58"
         transform="translate(0.385,0.503)"
         d="m 0,3.386 c 0,0 20.146,-10.372 29.688,5.188 C 39.23,24.134 40.292,30.359 45.6,50.067 50.908,69.775 13.787,68.739 0,3.386 Z" />
    </clipPath>
    <filter
       filterUnits="userSpaceOnUse"
       height="108"
       width="108"
       y="348"
       x="213"
       id="n">
      <feOffset
         id="feOffset61"
         input="SourceAlpha"
         dy="10"
         dx="-10" />
      <feGaussianBlur
         id="feGaussianBlur63"
         result="o"
         stdDeviation="5" />
      <feFlood
         id="feFlood65"
         flood-opacity="0.078"
         flood-color="#416888" />
      <feComposite
         result="result1"
         id="feComposite67"
         in2="o"
         operator="in" />
      <feComposite
         id="feComposite69"
         in2="result1"
         in="SourceGraphic" />
    </filter>
    <clipPath
       id="p">
      <path
         style="fill:none"
         id="path72"
         transform="translate(0.168,0.409)"
         d="M 79.3,39.649 A 39.649,39.649 0 1 1 39.649,0" />
    </clipPath>
    <clipPath
       id="q">
      <path
         style="fill:none"
         id="path75"
         transform="translate(0.516,0.686)"
         d="M 24.375,39.1 C 5.783,39.1 -4.152,24.845 1.653,3.361 L 2.557,0 H 129.341 A 114.916,114.916 0 0 1 161.31,4.168 L 36.035,37.465 A 45.581,45.581 0 0 1 24.375,39.1" />
    </clipPath>
    <clipPath
       id="r">
      <path
         style="fill:#ff987f"
         id="path78"
         transform="translate(472.492,302.121)"
         d="M 80.049,283.721 C 49.649,274.099 48.904,245.234 33.19,210.836 12.691,165.962 0,143.525 0,143.525 c 0,0 10.738,-9.755 19.522,-2.926 8.784,6.829 19.522,20.485 31.237,32.192 11.715,11.707 15.622,4.877 18.552,-2.928 2.93,-7.805 6.831,-145.351 10.738,-155.106 3.907,-9.755 11.709,-24.388 14.639,-5.857 2.93,18.531 12.691,94.625 15.622,111.209 2.931,16.584 35.138,20.487 56.613,34.143 21.475,13.656 23.429,11.706 26.36,40.972 2.56,25.629 19.455,66.315 -11.736,82.024 -31.191,15.709 -71.101,16.095 -101.498,6.473 z" />
    </clipPath>
    <clipPath
       id="s">
      <path
         style="fill:#416888"
         id="path81"
         d="m 44.985,5.167 -0.206,3.433 -0.3,4.855 -0.122,2.017 -0.291,4.855 -0.127,2.017 -0.3,4.855 L 40.3,82.251 A 9.228,9.228 0 0 1 31.177,91 H 13.8 A 9.223,9.223 0 0 1 4.677,82.251 L 1.35,27.158 1.05,22.303 0.933,20.286 0.633,15.431 0.515,13.413 0.215,8.558 0.008,5.128 A 4.911,4.911 0 0 1 1.3,1.517 4.716,4.716 0 0 1 4.768,0 h 35.545 a 4.687,4.687 0 0 1 3.434,1.552 4.881,4.881 0 0 1 1.241,3.616 z" />
    </clipPath>
  </defs>
  <path
     style="fill:#bff0ea"
     id="path86"
     d="M 234.13172,508.70028 13.699721,125.87928 c -32.1,-55.750004 -5.8350001,-101.365004 58.368,-101.365004 H 512.93172 c 64.2,0 90.469,45.612 58.368,101.363004 l -220.432,382.823 c -32.102,55.752 -84.634,55.752 -116.736,0 z" />
  <path
     style="opacity:0.222;fill:#bff0ea"
     id="path88"
     d="M 132.51991,486.03451 39.150904,80.007614 C 25.556618,20.878362 61.83346,-13.009034 119.76545,4.7025517 L 517.58822,126.32918 c 57.93486,17.71246 69.06072,66.09023 24.72302,107.50789 L 237.85688,518.23926 c -44.338,41.41862 -91.74011,26.92634 -105.33697,-32.20475 z" />
  <g
     transform="translate(-90.279279,-15.178724)"
     style="filter:url(#a)"
     id="g92">
    <path
       style="fill:#40c1a8"
       id="path90"
       transform="translate(236.01,69.18)"
       d="M 79.16,39.714 A 39.58,39.58 0 1 1 39.583,0 39.649,39.649 0 0 1 79.16,39.714" />
  </g>
  <g
     id="g130"
     transform="translate(146.72072,53.821276)">
    <path
       style="fill:none"
       id="path94"
       transform="translate(0.174,0.22)"
       d="M 79.3,39.649 A 39.649,39.649 0 1 1 39.652,0" />
    <g
       id="g128"
       clip-path="url(#c)">
      <path
         style="fill:#ffffff"
         id="path96"
         transform="translate(16.779,52.71)"
         d="M 46.289,22.724 44.612,5.237 C 44.403,3.091 41.475,1.613 37.864,1.084 a 100.447,100.447 0 0 0 -29.433,0 C 4.814,1.613 1.885,3.09 1.676,5.237 L 0,22.724 a 61.329,61.329 0 0 0 23.144,4.444 61.3,61.3 0 0 0 23.145,-4.444 z" />
      <path
         style="fill:#6dffe3"
         id="path98"
         transform="translate(24.07,52.966)"
         d="M 15.9,26.912 8.8,0 Q 5.21,0.255 1.607,0.768 C 1.05,3.373 0,8.042 0,8.042 c 0,0 3.27,1.152 3.464,1.729 0.194,0.577 -2.504,3.074 -2.504,3.074 l 3.833,13.084 a 63.076,63.076 0 0 0 11.061,0.984 H 15.9" />
      <path
         style="fill:#6dffe3"
         id="path100"
         transform="translate(39.395,52.938)"
         d="m 15.9,8.069 c 0,0 -1.076,-4.747 -1.625,-7.339 Q 10.685,0.237 7.11,0 L 0,26.928 c 0.181,0 0.355,0.012 0.529,0.012 a 63.379,63.379 0 0 0 10.553,-0.9 l 3.854,-13.172 c 0,0 -2.692,-2.5 -2.5,-3.073 C 12.628,9.222 15.9,8.069 15.9,8.069" />
      <path
         style="fill:#42dec0"
         id="path102"
         transform="translate(30.206,52.557)"
         d="m 14.518,27.178 q 0.334,-0.018 0.668,-0.041 A 150.76,150.76 0 0 0 18.692,10.981 54.953,54.953 0 0 0 19.415,0.481 97.147,97.147 0 0 0 0.02,0.486 54.938,54.938 0 0 0 0.743,10.986 150.867,150.867 0 0 0 4.25,27.138 c 0.223,0.013 0.438,0.028 0.654,0.04 0.563,0.031 1.127,0.061 1.69,0.082 1.037,0.035 2.073,0.062 3.123,0.062 1.05,0 2.087,-0.026 3.123,-0.062 0.563,-0.022 1.12,-0.051 1.677,-0.082" />
      <path
         style="fill:#f2efdc"
         id="path104"
         transform="translate(33.037,41.378)"
         d="M 12.661,15.64 A 6.3305,6.3305 0 1 1 0,15.64 V 6.33 a 6.3305,6.3305 0 0 1 12.661,0 v 9.31" />
      <path
         style="fill:#c0beae"
         id="path106"
         transform="translate(33.037,41.378)"
         d="M 6.33,0 A 6.331,6.331 0 0 0 0,6.33 V 9.91 L 10.49,20.4 a 6.3,6.3 0 0 0 2.17,-4.762 V 6.33 A 6.327,6.327 0 0 0 6.33,0" />
      <path
         style="fill:#2c5871"
         id="path108"
         transform="translate(19.002,14.126)"
         d="m 41,28.762 c 0.835,2.412 -1.315,4.6 -4.8,4.792 a 277.781,277.781 0 0 1 -31.214,0 C 1.5,33.359 -0.651,31.174 0.177,28.762 Q 3.767,17.833 7.343,6.905 C 8.171,4.495 10.327,2.657 12.15,2.76 17.77,3.075 19.12,0.317 24.748,0 c 1.823,-0.1 8.355,3.558 9.1,6.9 Q 37.416,17.831 41,28.762" />
      <path
         style="fill:#0e303f"
         id="path110"
         transform="translate(25.812,14.126)"
         d="M 23.976,2.961 C 21.771,1.217 19.023,-0.059 17.938,0 12.31,0.317 10.96,3.075 5.34,2.76 A 3.449,3.449 0 0 0 3.552,3.225 Q 1.84,16.612 0.122,30 a 12.322,12.322 0 0 0 0.028,3.652 c 9.078,0.445 18.184,0.445 27.263,0 A 12.56,12.56 0 0 0 27.44,30 L 23.976,2.961" />
      <path
         style="fill:#f2efdc"
         id="path112"
         transform="translate(26.905,19.016)"
         d="m 23.377,18.114 c -1.906,10.712 -6.518,15.7 -11.52,15.7 -5.002,0 -9.614,-4.987 -11.513,-15.7 C -1.576,7 4.865,-0.449 11.857,0.021 18.848,-0.45 25.3,7 23.377,18.114" />
      <path
         style="fill:#2c5871"
         id="path114"
         transform="translate(24.479,15.509)"
         d="M 3.041,6.844 C 0.891,10.176 -0.312,13.811 0.07,16.936 A 11.91,11.91 0 0 0 9.309,10.9 11.911,11.911 0 0 0 11.02,0 C 8.015,0.931 5.19,3.521 3.041,6.844" />
      <path
         style="fill:#dcdac8"
         id="path116"
         transform="translate(37.99,19.016)"
         d="M 0.772,0.021 C 0.515,0 0.257,0.018 0,0.022 v 33.74 a 7.376,7.376 0 0 0 0.772,0.049 c 5,0 9.614,-4.985 11.52,-15.7 C 14.212,7 7.763,-0.45 0.772,0.021" />
      <path
         style="fill:#2c5871"
         id="path118"
         transform="translate(28.675,13.493)"
         d="M 10.435,17.739 A 17.294,17.294 0 0 0 26.546,16.878 C 26.372,8.984 22.956,3.119 17.516,1.307 12.466,-1.4 5.857,0.149 0,5.451 a 17.282,17.282 0 0 0 10.435,12.288" />
      <path
         style="fill:#157663"
         id="path120"
         transform="translate(33.037,53.988)"
         d="M 6.887,17.485 7.04,9.672 3.485,5.648 0,0 0.543,7.583 3.715,9.361 6.887,17.484" />
      <path
         style="fill:#1cb295"
         id="path122"
         transform="translate(31.798,51.288)"
         d="m 1.238,1.54 3.485,6.808 -4.1,3.4 L 0,1.771 1.238,0 v 1.54" />
      <path
         style="fill:#157663"
         id="path124"
         transform="translate(39.534,53.679)"
         d="M 0,15.473 0.237,9.9 2.553,5.647 6.038,0 5.5,7.583 0.779,9.98 0,15.473" />
      <path
         style="fill:#1cb295"
         id="path126"
         transform="translate(42.129,51.288)"
         d="M 3.6,1.54 0,8.086 4.216,11.752 4.835,1.771 3.6,0 v 1.54" />
    </g>
  </g>
  <g
     transform="translate(-90.279279,-15.178724)"
     style="filter:url(#d)"
     id="g134">
    <path
       style="fill:#40c1a8"
       id="path132"
       transform="translate(237,165)"
       d="M 80,40 A 40,40 0 1 1 40,0 40,40 0 0 1 80,40" />
  </g>
  <g
     id="g174"
     transform="translate(146.72072,149.82128)">
    <path
       style="fill:none"
       id="path136"
       transform="translate(0.174,0.593)"
       d="M 79.3,39.649 A 39.649,39.649 0 1 1 39.645,0" />
    <g
       id="g172"
       clip-path="url(#f)">
      <path
         style="fill:#1cb295"
         id="path138"
         transform="translate(11.52,51.375)"
         d="M 28.264,31.521 A 79.566,79.566 0 0 0 56.521,26.454 L 54.477,6.525 c -0.25,-2.447 -3.805,-4.4 -8.243,-4.733 a 91.023,91.023 0 0 0 -35.944,0 C 5.85,2.12 2.3,4.076 2.045,6.525 L 0,26.454 a 79.6,79.6 0 0 0 28.264,5.067" />
      <path
         style="fill:#dcdac8"
         id="path140"
         transform="translate(32.668,40.501)"
         d="M 14.915,15.114 A 7.4575,7.4575 0 0 1 0,15.114 V 7.456 a 7.4575,7.4575 0 0 1 14.915,0 v 7.658" />
      <path
         style="fill:#c0beae"
         id="path142"
         transform="translate(32.682,40.501)"
         d="m 12.536,19.763 c 0.132,0.132 0.264,0.254 0.4,0.385 A 7.422,7.422 0 0 0 14.9,15.114 V 7.456 A 7.452,7.452 0 0 0 0,7.229 l 12.536,12.534" />
      <path
         style="fill:#dcdac8"
         id="path144"
         transform="translate(25.307,31.75)"
         d="M 3.9,5.114 C 4.422,8.155 4.088,10.176 3.316,10.437 2.544,10.698 1.4,9.159 0.551,6.221 -0.298,3.283 -0.166,0.37 0.947,0.045 2.039,-0.362 3.389,2.054 3.9,5.114" />
      <path
         style="fill:#dcdac8"
         id="path146"
         transform="translate(50.075,31.971)"
         d="M 0.061,5.34 C -0.183,8.416 0.332,10.4 1.125,10.587 1.918,10.774 2.913,9.144 3.49,6.141 4.067,3.138 3.678,0.249 2.537,0.025 1.417,-0.282 0.29,2.246 0.061,5.34" />
      <path
         style="fill:#f2efdc"
         id="path148"
         transform="translate(26.948,17.023)"
         d="M 12.836,0.025 C 5.268,-0.528 -1.7,8.23 0.37,21.292 a 42.387,42.387 0 0 0 2.713,9.842 c 0.995,1.471 2.247,1.662 4.153,-2.862 0.57,-1.037 3.04,-1.951 5.377,-1.951 h 0.452 c 2.337,0 4.807,0.914 5.37,1.951 1.906,4.518 3.158,4.333 4.16,2.867 A 42.416,42.416 0 0 0 25.3,21.292 C 27.389,8.23 20.405,-0.531 12.836,0.025" />
      <path
         style="fill:#dcdac8"
         id="path150"
         transform="translate(40.077,17.04)"
         d="m 0,0.008 v 26.3 c 2.317,0.017 4.751,0.922 5.308,1.949 1.906,4.518 3.158,4.333 4.16,2.867 a 42.416,42.416 0 0 0 2.706,-9.847 C 14.226,8.38 7.45,-0.3 0,0.008" />
      <path
         style="fill:#2c5871"
         id="path152"
         transform="translate(26.689,37.798)"
         d="M 25.659,0.006 A 14.77,14.77 0 0 1 25.367,1.753 22.772,22.772 0 0 1 22.7,8.529 C 21.719,9.539 20.481,9.666 18.61,6.558 18.053,5.846 15.619,5.215 13.323,5.215 h -0.452 c -2.3,0 -4.73,0.631 -5.287,1.343 -1.878,3.113 -3.11,2.981 -4.1,1.969 A 22.776,22.776 0 0 1 0.824,1.754 16.343,16.343 0 0 1 0.539,0 9.461,9.461 0 0 0 0.372,5.793 c 2.1,7.589 1.976,11.29 12.723,11.123 11.443,-0.178 10.623,-3.532 12.73,-11.123 A 9.442,9.442 0 0 0 25.659,0.006" />
      <path
         style="fill:#0e303f"
         id="path154"
         transform="translate(40.522,37.804)"
         d="M 11.534,1.747 A 22.772,22.772 0 0 1 8.87,8.523 C 7.889,9.533 6.651,9.66 4.78,6.552 4.264,5.892 2.136,5.309 0,5.225 V 16.89 C 10.664,16.578 9.934,13.209 11.993,5.79 A 9.442,9.442 0 0 0 11.826,0 14.77,14.77 0 0 1 11.534,1.747" />
      <path
         style="fill:#f2efdc"
         id="path156"
         transform="translate(36.215,45.807)"
         d="M 6.324,0.039 6.317,0 H 6.31 V 0 H 6.3 0.828 V 0 C 0.828,0 -0.2,2.341 0.035,2.9 0.27,3.459 0.758,3.508 1.392,2.483 A 7.154,7.154 0 0 1 2.046,1.6 2.156,2.156 0 0 0 2.575,1.67 h 2 A 2.289,2.289 0 0 0 5.093,1.6 6.521,6.521 0 0 1 5.74,2.489 C 6.38,3.514 6.86,3.469 7.097,2.906 7.319,2.381 6.449,0.332 6.324,0.039" />
      <path
         style="fill:#8fc4d7"
         id="path158"
         transform="translate(18.122,65.009)"
         d="M 3.583,13.755 A 34.293,34.293 0 0 0 0,0 45.177,45.177 0 0 1 0.522,6.864 44.232,44.232 0 0 1 0.084,13.126 c 1.155,0.232 2.317,0.442 3.5,0.629" />
      <path
         style="fill:#ffffff"
         id="path160"
         transform="translate(7.805,52.197)"
         d="M 19.84,0 A 101.346,101.346 0 0 0 9.523,1.62 C 5.141,2.049 1.677,3.9 1.5,6.085 L 0,23.9 a 85.442,85.442 0 0 0 23.388,3.682 L 19.84,0" />
      <path
         style="fill:#d1ecfb"
         id="path162"
         transform="translate(19.875,52.442)"
         d="M 13.635,31.224 8.793,0 C 6.4,0.177 4.9,0.388 2.5,0.742 A 63.441,63.441 0 0 1 0,8.349 c 0,0 6.915,1.657 7.11,2.251 0.195,0.594 -6.15,2.734 -6.15,2.734 l 2.685,16.48 c 3.569,0.659 0.3,2.049 4.1,2.049 0.014,0 4.146,0.47 5.885,-0.64" />
      <path
         style="fill:#ffffff"
         id="path164"
         transform="translate(20.515,51.802)"
         d="M 12.744,32.759 8.793,0 C 6.4,0.175 4.39,0.772 1.983,1.125 1.433,3.83 0,8.348 0,8.348 0,8.348 6.915,10 7.11,10.6 7.305,11.2 0.96,14.189 0.96,14.189 l 2.692,15.624 c 3.562,0.659 0.292,2.05 4.1,2.05 0.014,0 3.249,2.006 4.995,0.9" />
      <path
         style="fill:#ffffff"
         id="path166"
         transform="translate(49.628,51.689)"
         d="m 2.72,0 a 100.729,100.729 0 0 1 10.358,1.311 c 4.4,0.3 7.91,2.04 8.16,4.221 L 23.27,23.291 A 85.455,85.455 0 0 1 0,27.672 L 2.72,0" />
      <path
         style="fill:#d1ecfb"
         id="path168"
         transform="translate(46.901,51.673)"
         d="M 0,31.224 4.842,0 c 2.393,0.177 3.9,0.388 6.3,0.742 a 63.415,63.415 0 0 0 2.5,7.606 c 0,0 -6.922,1.658 -7.11,2.252 -0.188,0.594 6.143,2.73 6.143,2.73 L 9.99,29.815 c -3.569,0.658 -0.3,2.049 -4.1,2.049 -0.021,0 -4.153,0.47 -5.892,-0.64" />
      <path
         style="fill:#ffffff"
         id="path170"
         transform="translate(47.151,51.034)"
         d="M 0,32.76 3.951,0 c 2.393,0.175 4.41,0.772 6.81,1.126 0.557,2.7 1.983,7.222 1.983,7.222 0,0 -6.914,1.652 -7.102,2.252 -0.188,0.6 6.143,3.587 6.143,3.587 L 9.1,29.814 c -3.569,0.658 -0.3,2.049 -4.1,2.049 -0.014,0 -3.249,2.006 -4.995,0.9" />
    </g>
  </g>
  <g
     transform="translate(-90.279279,-15.178724)"
     style="filter:url(#g)"
     id="g178">
    <path
       style="fill:#40c1a8"
       id="path176"
       transform="translate(237,261)"
       d="M 80,40 A 40,40 0 1 1 40,0 40,40 0 0 1 80,40" />
  </g>
  <g
     id="g210"
     transform="translate(146.72072,245.82128)">
    <path
       style="fill:none"
       id="path180"
       transform="translate(0.174,0.223)"
       d="M 79.3,39.649 A 39.649,39.649 0 1 1 39.652,0" />
    <g
       id="g208"
       clip-path="url(#i)">
      <path
         style="fill:#ffffff"
         id="path182"
         transform="translate(25.315,30.497)"
         d="m 0,8.864 a 2.529,2.529 0 0 0 2.275,2.726 h 0.57 A 2.529,2.529 0 0 0 5.12,8.864 V 2.727 A 2.53,2.53 0 0 0 2.845,0 H 2.275 A 2.53,2.53 0 0 0 0,2.727 v 6.137" />
      <path
         style="fill:#ffffff"
         id="path184"
         transform="translate(9.301,49.535)"
         d="M 0,19.08 6.852,4.472 31.9,0 55.45,4.173 64.1,15.2 56.64,23.553 33.586,33.986 3.277,25.341 0,19.08" />
      <path
         style="fill:#23bd9f"
         id="path186"
         transform="translate(31.304,50.765)"
         d="m 5.892,31.25 8.71,1.281 0.508,-8.965 0.515,-12.04 L 18.7,0 0,3.33 Z" />
      <path
         style="fill:#60fadd"
         id="path188"
         transform="translate(43.597,49.741)"
         d="M 6.407,0 1.537,16.138 0,34.068 5.169,33.868 9.482,18.443 5.382,14.088 11.525,11.527 8.452,1.793 6.407,0" />
      <path
         style="fill:#0e9279"
         id="path190"
         transform="translate(35.993,54.817)"
         d="M 2.01,6.965 0,1.871 2.01,0 h 4.021 l 2.01,1.871 -2.01,5.094 H 2.01" />
      <path
         style="fill:#0e9279"
         id="path192"
         transform="translate(35.993,61.862)"
         d="M 2.01,0 0,22.166 2.01,30.312 H 6.031 L 8.041,22.166 6.031,0 H 2.01" />
      <path
         style="fill:#60fadd"
         id="path194"
         transform="translate(26.177,51.125)"
         d="M 5.976,0 9.224,16.033 10.379,33.516 3.993,32.993 1.03,16.289 5.384,12.7 0,8.093 2.567,1.177 5.976,0" />
      <path
         style="fill:#f2efdc"
         id="path196"
         transform="translate(26.156,20.81)"
         d="m 25.461,25.357 c 0.591,5.828 -5.092,11.124 -12.71,11.12 -7.618,-0.004 -13.3,-5.292 -12.709,-11.12 q 0.647,-7.59 1.294,-15.186 a 11.492,11.492 0 0 1 22.831,0 q 0.647,7.594 1.294,15.186" />
      <path
         style="fill:#dcdac8"
         id="path198"
         transform="translate(38.908,20.81)"
         d="M 12.71,25.357 Q 12.063,17.767 11.416,10.171 A 11.491,11.491 0 0 0 0,0 v 36.477 c 7.617,0 13.3,-5.292 12.71,-11.12" />
      <path
         style="fill:#f2efdc"
         id="path200"
         transform="translate(34.755,52.478)"
         d="M 8.306,3 C 8.306,4.659 6.449,6 4.153,6 1.857,6 0,4.659 0,3 0,1.341 1.864,0 4.153,0 6.442,0 8.306,1.343 8.306,3" />
      <path
         style="fill:#dcdac8"
         id="path202"
         transform="translate(36.577,52.478)"
         d="M 6.483,2.479 C 6.483,3.848 5.036,4.958 3.241,4.958 1.446,4.958 0,3.848 0,2.479 0,1.11 1.454,0 3.242,0 5.03,0 6.483,1.11 6.483,2.479" />
      <path
         style="fill:#dcdac8"
         id="path204"
         transform="translate(34.588,36.64)"
         d="M 5.231,0 C 2.24,0.9 0,4.737 0,9.329 A 14.306,14.306 0 0 0 0.09,10.89 H 5.231 V 0" />
      <path
         style="fill:#ffffff"
         id="path206"
         transform="translate(48.438,30.497)"
         d="M 2.845,0 H 2.275 A 2.53,2.53 0 0 0 0,2.727 c 0,0 2.087,3.231 2.087,4.659 v 4.182 a 1.573,1.573 0 0 0 0.188,0.023 h 0.57 A 2.534,2.534 0 0 0 5.12,8.864 V 2.727 A 2.535,2.535 0 0 0 2.845,0" />
    </g>
  </g>
  <g
     id="g288"
     transform="translate(240.72072,73.821276)">
    <path
       style="opacity:0.15700001;fill:#416888"
       id="path212"
       transform="translate(0,20.36)"
       d="M 0,5.315 H 43.323 V 0 H 0 Z" />
    <path
       style="opacity:0.15700001;fill:#416888"
       id="path214"
       transform="translate(49.509,20.36)"
       d="M 0,5.315 H 42.4 V 0 H 0 Z" />
    <path
       style="opacity:0.15700001;fill:#416888"
       id="path216"
       transform="translate(0,31.91)"
       d="M 0,5.316 H 81.3 V 0 H 0 Z" />
    <path
       style="opacity:0.15700001;fill:#416888"
       id="path218"
       transform="translate(98.638,20.36)"
       d="M 0,5.315 H 42.4 V 0 H 0 Z" />
    <path
       style="opacity:0.15700001;fill:#416888"
       id="path220"
       transform="translate(87.186,31.91)"
       d="M 0,5.316 H 48.264 V 0 H 0 Z" />
    <path
       style="opacity:0.15700001;fill:#416888"
       id="path222"
       transform="translate(0,0.238)"
       d="M 0,7.973 H 70.053 V 0 H 0 Z" />
    <path
       style="opacity:0.15700001;fill:#416888"
       id="path224"
       transform="translate(75.9,0.238)"
       d="M 0,7.973 H 50.554 V 0 H 0 Z" />
    <path
       style="opacity:0.15700001;fill:#416888"
       id="path226"
       transform="translate(0,113.635)"
       d="M 0,5.315 H 43.323 V 0 H 0 Z" />
    <path
       style="opacity:0.15700001;fill:#416888"
       id="path228"
       transform="translate(49.509,113.635)"
       d="M 0,5.315 H 42.4 V 0 H 0 Z" />
    <path
       style="opacity:0.15700001;fill:#416888"
       id="path230"
       transform="translate(0,125.185)"
       d="M 0,5.316 H 81.3 V 0 H 0 Z" />
    <path
       style="opacity:0.15700001;fill:#416888"
       id="path232"
       transform="translate(98.638,113.635)"
       d="M 0,5.315 H 42.4 V 0 H 0 Z" />
    <path
       style="opacity:0.15700001;fill:#416888"
       id="path234"
       transform="translate(87.186,125.185)"
       d="M 0,5.316 H 48.264 V 0 H 0 Z" />
    <path
       style="opacity:0.15700001;fill:#416888"
       id="path236"
       transform="translate(0,93.513)"
       d="M 0,7.973 H 70.053 V 0 H 0 Z" />
    <path
       style="opacity:0.15700001;fill:#416888"
       id="path238"
       transform="translate(75.9,93.513)"
       d="M 0,7.973 H 50.554 V 0 H 0 Z" />
    <path
       style="opacity:0.15700001;fill:#416888"
       id="path240"
       transform="translate(0,302.968)"
       d="M 0,5.315 H 43.323 V 0 H 0 Z" />
    <path
       style="opacity:0.15700001;fill:#416888"
       id="path242"
       transform="translate(49.509,302.968)"
       d="M 0,5.315 H 42.4 V 0 H 0 Z" />
    <path
       style="opacity:0.15700001;fill:#416888"
       id="path244"
       transform="translate(0,314.518)"
       d="M 0,5.316 H 81.3 V 0 H 0 Z" />
    <path
       style="opacity:0.15700001;fill:#416888"
       id="path246"
       transform="translate(98.638,302.968)"
       d="M 0,5.315 H 42.4 V 0 H 0 Z" />
    <path
       style="opacity:0.15700001;fill:#416888"
       id="path248"
       transform="translate(87.186,314.518)"
       d="M 0,5.316 H 48.264 V 0 H 0 Z" />
    <path
       style="opacity:0.15700001;fill:#416888"
       id="path250"
       transform="translate(0,282.846)"
       d="M 0,7.973 H 70.053 V 0 H 0 Z" />
    <path
       style="opacity:0.15700001;fill:#416888"
       id="path252"
       transform="translate(75.9,282.846)"
       d="M 0,7.973 H 50.554 V 0 H 0 Z" />
    <path
       style="opacity:0.15700001;fill:#416888"
       id="path254"
       transform="translate(0,213.174)"
       d="M 0,5.315 H 38 V 0 H 0 Z" />
    <path
       style="opacity:0.15700001;fill:#416888"
       id="path256"
       transform="translate(43.42,213.174)"
       d="M 0,5.315 H 37.179 V 0 H 0 Z" />
    <path
       style="opacity:0.15700001;fill:#416888"
       id="path258"
       transform="translate(0,224.724)"
       d="M 0,5.316 H 71.306 V 0 H 0 Z" />
    <path
       style="opacity:0.15700001;fill:#416888"
       id="path260"
       transform="translate(86.508,213.174)"
       d="M 0,5.315 H 37.179 V 0 H 0 Z" />
    <path
       style="opacity:0.15700001;fill:#416888"
       id="path262"
       transform="translate(76.468,224.724)"
       d="M 0,5.316 H 42.32 V 0 H 0 Z" />
    <path
       style="opacity:0.15700001;fill:#416888"
       id="path264"
       transform="translate(0,193.052)"
       d="M 0,7.973 H 61.439 V 0 H 0 Z" />
    <path
       style="opacity:0.15700001;fill:#416888"
       id="path266"
       transform="translate(66.566,193.052)"
       d="M 0,7.973 H 44.333 V 0 H 0 Z" />
    <path
       style="fill:#b6d2f8"
       id="path268"
       transform="translate(100.52,67.187)"
       d="M 0,18.016 H 5.453 V 0 H 0 Z" />
    <path
       style="fill:#b6d2f8"
       id="path270"
       transform="translate(100.52,102.092)"
       d="M 0,30.395 H 5.453 V 0 H 0 Z" />
    <path
       style="fill:#b6d2f8"
       id="path272"
       transform="translate(100.52,139.53)"
       d="M 0,28.988 H 5.453 V 0 H 0 Z" />
    <path
       style="fill:#b2e1e0"
       id="path274"
       transform="translate(102.575,13.799)"
       d="m 198.12,382.459 a 29.28,29.28 0 0 1 -29.1,29.276 H 29.111 A 29.281,29.281 0 0 1 0,382.459 V 29.274 A 29.279,29.279 0 0 1 29.111,0 h 139.906 a 29.278,29.278 0 0 1 29.1,29.274 v 353.185" />
    <path
       style="fill:#abdada"
       id="path276"
       transform="translate(106.685,17.927)"
       d="M 25,403.478 A 25.1,25.1 0 0 1 0,378.33 V 25.146 A 25.1,25.1 0 0 1 25,0 h 139.906 a 25.1,25.1 0 0 1 25,25.146 V 378.33 a 25.1,25.1 0 0 1 -25,25.148 H 25" />
    <path
       style="fill:#40c1a8"
       id="path278"
       transform="translate(115.446,65.776)"
       d="M 0,309.083 H 172.387 V 0 H 0 Z" />
    <g
       id="g286"
       transform="translate(173,181)">
      <g
         style="filter:url(#j)"
         id="g282"
         transform="translate(-504,-270)">
        <circle
           style="fill:#ffffff"
           id="circle280"
           transform="translate(504,270)"
           r="30"
           cy="30"
           cx="30" />
      </g>
      <path
         style="fill:#416888"
         id="path284"
         transform="translate(15,16)"
         d="M 9.072,8.684 V 0 H 20.9 v 2.469 a 16.711,16.711 0 0 1 -1.545,6.776 c -1.545,3.495 -3.619,5.418 -5.708,8.665 a 13.955,13.955 0 0 0 -2.131,7.581 h 6.977 v -8.757 a 8.874,8.874 0 0 1 2.763,-6.076 Q 23.335,8.58 27.667,8.58 H 30 V 20.025 H 23.348 V 17.564 H 27.58 V 11.3 a 7.087,7.087 0 0 0 -4.68,1.732 6.116,6.116 0 0 0 -2,4.532 V 20.386 28 H 9.072 v -2.509 a 17.683,17.683 0 0 1 3.77,-10.156 30.649,30.649 0 0 0 4.344,-6.755 12.223,12.223 0 0 0 1.3,-6.111 h -6.974 v 8.188 q -0.2,5.021 -2.967,7.252 A 9.163,9.163 0 0 1 2.311,20.025 H 0 V 8.684 h 6.632 v 2.489 H 2.419 v 6.266 A 7.035,7.035 0 0 0 7.079,15.7 6.325,6.325 0 0 0 9.071,11.168 V 8.684 Z" />
    </g>
  </g>
  <g
     id="g292"
     transform="translate(535.72072,345.82128)">
    <path
       style="fill:none"
       id="path290"
       transform="translate(0.149,0.041)"
       d="m 0,3.387 c 0,0 20.021,-10.373 29.5,5.187 9.479,15.56 10.538,21.784 15.81,41.493 C 50.582,69.776 13.7,68.738 0,3.387 Z" />
  </g>
  <g
     id="g296"
     transform="translate(502.72072,329.82128)">
    <path
       style="fill:none"
       id="path294"
       transform="translate(0.385,0.503)"
       d="m 0,3.386 c 0,0 20.146,-10.372 29.688,5.188 C 39.23,24.134 40.292,30.359 45.6,50.067 50.908,69.775 13.787,68.739 0,3.386 Z" />
  </g>
  <g
     transform="translate(-90.279279,-15.178724)"
     style="filter:url(#n)"
     id="g300">
    <path
       style="fill:#40c1a8"
       id="path298"
       transform="translate(238,353)"
       d="M 78,39 A 39,39 0 1 1 39,0 39,39 0 0 1 78,39" />
  </g>
  <g
     id="g340"
     transform="translate(146.72072,338.82128)">
    <path
       style="fill:none"
       id="path302"
       transform="translate(0.168,0.409)"
       d="M 79.3,39.649 A 39.649,39.649 0 1 1 39.649,0" />
    <g
       id="g338"
       clip-path="url(#p)">
      <path
         style="fill:#2c5871"
         id="path304"
         transform="translate(48.456,35.946)"
         d="m 4.828,7.549 c 0,2.084 -1.081,3.775 -2.414,3.775 C 1.081,11.324 0,9.634 0,7.549 V 3.775 C 0,1.69 1.081,0 2.414,0 3.747,0 4.828,1.69 4.828,3.775 v 3.774" />
      <path
         style="fill:#18c2a1"
         id="path306"
         transform="translate(11.326,59.055)"
         d="M 28.491,20.652 A 39.518,39.518 0 0 0 56.87,8.681 C 52.26,3.587 41.242,0 28.379,0 15.621,0 4.674,3.528 0,8.556 a 39.509,39.509 0 0 0 28.491,12.1" />
      <path
         style="fill:#2c5871"
         id="path308"
         transform="translate(31.003,43.434)"
         d="M 17.6,17.883 A 8.6,8.6 0 0 1 8.814,26.946 8.61,8.61 0 0 1 0.022,17.883 L 0.611,8.458 C 0.962,3.636 4.632,0.007 8.815,0 c 4.183,-0.007 7.853,3.636 8.2,8.458 q 0.295,4.713 0.582,9.425" />
      <path
         style="fill:#0e303f"
         id="path310"
         transform="translate(31.003,37.671)"
         d="M 17.6,17.884 A 8.6,8.6 0 0 1 8.814,26.947 8.61,8.61 0 0 1 0.022,17.884 L 0.611,8.46 C 0.962,3.637 4.632,0.008 8.815,0 c 4.182,0.008 7.853,3.637 8.2,8.46 q 0.295,4.712 0.582,9.424" />
      <path
         style="fill:#0e303f"
         id="path312"
         transform="translate(39.881,43.44)"
         d="M 8.14,8.452 C 7.789,3.663 4.161,0.055 0.021,0 0.014,0.181 0,0.359 0,0.542 v 24.664 a 15.521,15.521 0 0 0 0.105,1.726 8.588,8.588 0 0 0 8.618,-9.055 Q 8.439,13.165 8.141,8.452" />
      <path
         style="fill:#2c5871"
         id="path314"
         transform="translate(25.705,35.946)"
         d="m 4.828,7.549 c 0,2.084 -1.081,3.775 -2.414,3.775 C 1.081,11.324 0,9.634 0,7.549 V 3.775 C 0,1.69 1.081,0 2.414,0 3.747,0 4.828,1.69 4.828,3.775 v 3.774" />
      <path
         style="fill:#0e303f"
         id="path316"
         transform="translate(26.863,33.236)"
         d="M 0,8.886 A 2.308,2.308 0 0 0 2.154,11.325 2.314,2.314 0 0 0 4.316,8.886 V 2.441 A 2.315,2.315 0 0 0 2.154,0 2.309,2.309 0 0 0 0,2.441 v 6.445" />
      <path
         style="fill:#0e303f"
         id="path318"
         transform="translate(48.456,33.236)"
         d="M 0,8.886 A 2.314,2.314 0 0 0 2.161,11.325 2.308,2.308 0 0 0 4.316,8.886 V 2.441 A 2.309,2.309 0 0 0 2.161,0 2.315,2.315 0 0 0 0,2.441 v 6.445" />
      <path
         style="fill:#0e303f"
         id="path320"
         transform="translate(24.905,14.685)"
         d="m 29.825,16.013 c 0,8.845 -6.681,16.015 -14.912,16.015 C 6.682,32.028 0,24.858 0,16.013 0,7.168 6.674,0 14.912,0 23.15,0 29.825,7.168 29.825,16.013" />
      <path
         style="fill:#2c5871"
         id="path322"
         transform="translate(27.428,24.053)"
         d="M 24.747,25.142 A 12.1,12.1 0 0 1 12.389,37.885 12.1,12.1 0 0 1 0.031,25.142 L 0.852,11.892 C 1.35,5.112 6.508,0.009 12.389,0 18.263,0.009 23.428,5.112 23.926,11.893 l 0.821,13.25" />
      <path
         style="fill:#24495d"
         id="path324"
         transform="translate(39.902,24.059)"
         d="M 11.453,11.887 C 10.954,5.152 5.86,0.078 0.035,0 0.028,0.255 0,0.507 0,0.765 v 34.677 a 22.939,22.939 0 0 0 0.147,2.425 12.081,12.081 0 0 0 12.127,-12.73 l -0.821,-13.25" />
      <path
         style="fill:#ffffff"
         id="path326"
         transform="translate(47.074,59.372)"
         d="M 3.551,0 A 100.789,100.789 0 0 1 13.86,1.62 c 4.386,0.429 7.846,2.276 8.028,4.465 l 1.5,17.809 A 85.465,85.465 0 0 1 0,27.576 L 3.551,0" />
      <path
         style="fill:#a6dae9"
         id="path328"
         transform="translate(44.751,59.618)"
         d="M 0,31.222 4.842,0 c 2.393,0.176 3.9,0.387 6.3,0.741 a 63.044,63.044 0 0 0 2.5,7.607 c 0,0 -6.919,1.652 -7.109,2.252 -0.19,0.6 6.147,2.731 6.147,2.731 L 9.993,29.812 c -3.565,0.66 -0.3,2.05 -4.1,2.05 -0.014,0 -4.147,0.469 -5.895,-0.64" />
      <path
         style="fill:#ffffff"
         id="path330"
         transform="translate(45.011,58.978)"
         d="M 0,32.757 3.944,0 c 2.393,0.175 4.407,0.772 6.814,1.126 0.554,2.7 1.986,7.222 1.986,7.222 0,0 -6.919,1.652 -7.109,2.252 -0.19,0.6 6.147,3.586 6.147,3.586 L 9.088,29.813 c -3.565,0.658 -0.295,2.049 -4.1,2.049 -0.014,0 -3.249,2 -4.989,0.9" />
      <path
         style="fill:#ffffff"
         id="path332"
         transform="translate(9.6,59.372)"
         d="M 19.839,0 A 101.227,101.227 0 0 0 9.523,1.62 C 5.144,2.049 1.677,3.9 1.495,6.085 L 0,23.894 a 85.422,85.422 0 0 0 23.389,3.682 L 19.839,0" />
      <path
         style="fill:#a6dae9"
         id="path334"
         transform="translate(21.67,59.618)"
         d="M 13.635,31.222 8.793,0 C 6.4,0.176 4.9,0.387 2.491,0.741 A 62.155,62.155 0 0 1 0,8.348 c 0,0 6.912,1.652 7.1,2.252 0.188,0.6 -6.139,2.733 -6.139,2.733 l 2.688,16.479 c 3.565,0.66 0.295,2.05 4.1,2.05 0.014,0 4.147,0.469 5.888,-0.64" />
      <path
         style="fill:#ffffff"
         id="path336"
         transform="translate(22.309,58.978)"
         d="M 12.744,32.757 8.793,0 C 6.4,0.175 4.386,0.772 1.986,1.126 1.432,3.83 0,8.347 0,8.347 0,8.347 6.912,10 7.109,10.6 7.306,11.2 0.961,14.188 0.961,14.188 l 2.688,15.625 c 3.565,0.658 0.295,2.049 4.1,2.049 0.014,0 3.249,2 5,0.9" />
    </g>
  </g>
  <g
     id="g344"
     transform="translate(417.72072,24.821276)">
    <path
       style="fill:none"
       id="path342"
       transform="translate(0.516,0.686)"
       d="M 24.375,39.1 C 5.783,39.1 -4.152,24.845 1.653,3.361 L 2.557,0 H 129.341 A 114.916,114.916 0 0 1 161.31,4.168 L 36.035,37.465 A 45.581,45.581 0 0 1 24.375,39.1" />
  </g>
  <path
     style="fill:#ff987f"
     id="path346"
     d="m 462.26172,570.66328 c -30.4,-9.622 -31.145,-38.487 -46.859,-72.885 -20.499,-44.874 -33.19,-67.311 -33.19,-67.311 0,0 10.738,-9.755 19.522,-2.926 8.784,6.829 19.522,20.485 31.237,32.192 11.715,11.707 15.622,4.877 18.552,-2.928 2.93,-7.805 6.831,-145.351 10.738,-155.106 3.907,-9.755 11.709,-24.388 14.639,-5.857 2.93,18.531 12.691,94.625 15.622,111.209 2.931,16.584 35.138,20.487 56.613,34.143 21.475,13.656 23.429,11.706 26.36,40.972 2.56,25.629 19.455,66.315 -11.736,82.024 -31.191,15.709 -71.101,16.095 -101.498,6.473 z" />
  <g
     id="g376"
     transform="translate(20.720721,348.82128)">
    <ellipse
       style="opacity:0.05700001;fill:#416888"
       id="ellipse348"
       transform="translate(18,160)"
       ry="8.5"
       rx="52.5"
       cy="8.5"
       cx="52.5" />
    <rect
       style="fill:#416888"
       y="0"
       x="0"
       id="rect350"
       transform="translate(69,8)"
       height="75"
       width="3" />
    <g
       id="g362"
       transform="translate(48,78)">
      <path
         style="fill:#416888"
         id="path352"
         d="m 44.985,5.167 -0.206,3.433 -0.3,4.855 -0.122,2.017 -0.291,4.855 -0.127,2.017 -0.3,4.855 L 40.3,82.251 A 9.228,9.228 0 0 1 31.177,91 H 13.8 A 9.223,9.223 0 0 1 4.677,82.251 L 1.35,27.158 1.05,22.303 0.933,20.286 0.633,15.431 0.515,13.413 0.215,8.558 0.008,5.128 A 4.911,4.911 0 0 1 1.3,1.517 4.716,4.716 0 0 1 4.768,0 h 35.545 a 4.687,4.687 0 0 1 3.434,1.552 4.881,4.881 0 0 1 1.241,3.616 z" />
      <g
         id="g360"
         clip-path="url(#s)">
        <path
           style="fill:#d5d2f6"
           id="path354"
           transform="translate(0,8.483)"
           d="M 45,0 44.7,5.4 H 0.3 L 0,0 Z" />
        <path
           style="fill:#d5d2f6"
           id="path356"
           transform="translate(0,15.424)"
           d="M 45,0 44.7,5.4 H 0.3 L 0,0 Z" />
        <path
           style="fill:#d5d2f6"
           id="path358"
           transform="translate(0.776,22.364)"
           d="M 43.448,0 43.153,5.4 H 0.3 L 0,0 Z" />
      </g>
    </g>
    <path
       style="fill:#40c1a8"
       id="path364"
       transform="translate(0,22)"
       d="M 43.217,15.177 C 62.818,29.539 71,52 71,52 71,52 47.374,51.179 27.772,36.818 8.17,22.457 0,0 0,0 0,0 23.612,0.815 43.217,15.177 Z" />
    <path
       style="fill:none;stroke-width:2;stroke-miterlimit:10"
       id="path366"
       stroke-miterlimit="10"
       stroke="rgba(0,0,0,0.2)"
       transform="translate(0,22)"
       d="M 0,0 C 0,0 24.518,13.78 32.381,25.19 40.244,36.6 71,52 71,52" />
    <path
       style="fill:#40c1a8"
       id="path368"
       transform="translate(33)"
       d="M 23.127,8.175 C 33.615,15.9 38,28 38,28 38,28 25.359,27.559 14.867,19.831 4.375,12.103 0,0 0,0 0,0 12.635,0.441 23.127,8.175 Z" />
    <path
       style="fill:none;stroke-width:2;stroke-miterlimit:10"
       id="path370"
       stroke-miterlimit="10"
       stroke="rgba(0,0,0,0.2)"
       transform="translate(33)"
       d="M 0,0 C 0,0 13.12,7.423 17.327,13.566 21.534,19.709 38,28 38,28" />
    <path
       style="fill:#40c1a8"
       id="path372"
       transform="translate(72,9)"
       d="M 14.388,17.429 C 2.513,30.681 0,48 0,48 0,48 16.745,43.827 28.61,30.57 40.475,17.313 43,0 43,0 43,0 26.264,4.178 14.388,17.429 Z" />
    <path
       style="fill:none;stroke-width:2;stroke-miterlimit:10"
       id="path374"
       stroke-miterlimit="10"
       stroke="rgba(0,0,0,0.2)"
       transform="translate(72,9)"
       d="M 43,0 C 43,0 27.531,13.586 23.6,22.946 19.669,32.306 0,48 0,48" />
  </g>
</svg>
