<?xml version="1.0" encoding="UTF-8" standalone="no"?>
<svg
   xmlns:dc="http://purl.org/dc/elements/1.1/"
   xmlns:cc="http://creativecommons.org/ns#"
   xmlns:rdf="http://www.w3.org/1999/02/22-rdf-syntax-ns#"
   xmlns:svg="http://www.w3.org/2000/svg"
   xmlns="http://www.w3.org/2000/svg"
   id="svg131"
   version="1.1"
   viewBox="0 0 499.02866 498.79715"
   height="498.79715"
   width="499.02866">
  <metadata
     id="metadata135">
    <rdf:RDF>
      <cc:Work
         rdf:about="">
        <dc:format>image/svg+xml</dc:format>
        <dc:type
           rdf:resource="http://purl.org/dc/dcmitype/StillImage" />
      </cc:Work>
    </rdf:RDF>
  </metadata>
  <defs
     id="defs5">
    <clipPath
       id="a">
      <path
         style="opacity:0;fill:#bff0ea"
         id="path2"
         transform="rotate(-180,249.513,-0.1015)"
         d="m 484.822,230.986 c 6.53,-19.127 7.554,-48.673 2.162,-68.28 C 469.668,99.716 399.184,-23.968 321.96,4.073 251.16,29.784 174.392,117.573 120.025,106.047 -7.845,78.927 -4.081,274.489 2.664,348.675 7.021,396.6 47.216,455.865 133.077,449.64 a 124.921,124.921 0 0 1 71.5,16.752 c 36.535,21.127 94.607,26.079 154.931,9.5 90.74,-24.939 152.207,-89.146 137.289,-143.407 a 62.317,62.317 0 0 0 -5.088,-12.771 111.77,111.77 0 0 1 -6.887,-88.728 z" />
    </clipPath>
  </defs>
  <g
     id="g129"
     transform="rotate(180,249.51316,-0.10142262)">
    <path
       style="fill:#bff0ea"
       id="path7"
       transform="rotate(-180,248.5,-40.5)"
       d="M 489.681,238.918 A 111.77,111.77 0 0 1 482.8,150.19 c 6.53,-19.127 7.554,-48.673 2.162,-68.28 C 467.646,18.92 387.555,-18.61 310.329,9.43 239.529,35.141 222.19,141.211 167.823,129.68 39.95,102.561 -6.106,193.692 0.639,267.879 5,315.8 45.191,375.068 131.051,368.843 a 124.921,124.921 0 0 1 71.5,16.752 c 36.535,21.127 94.607,26.079 154.931,9.5 90.74,-24.939 152.208,-89.146 137.289,-143.407 a 62.315,62.315 0 0 0 -5.088,-12.771" />
    <path
       style="opacity:0.22000002;fill:#bff0ea"
       id="path9"
       transform="rotate(-180,25.5,-52)"
       d="M -198.5,395 C -88.872,395 0,306.575 0,197.5 0,88.425 -88.872,0 -198.5,0 -308.128,0 -397,88.424 -397,197.5 c 0,109.076 88.87,197.5 198.5,197.5 z" />
    <path
       style="opacity:0;fill:#bff0ea"
       id="path11"
       transform="rotate(-180,249.513,-0.1015)"
       d="m 484.822,230.986 c 6.53,-19.127 7.554,-48.673 2.162,-68.28 C 469.668,99.716 399.184,-23.968 321.96,4.073 251.16,29.784 174.392,117.573 120.025,106.047 -7.845,78.927 -4.081,274.489 2.664,348.675 7.021,396.6 47.216,455.865 133.077,449.64 a 124.921,124.921 0 0 1 71.5,16.752 c 36.535,21.127 94.607,26.079 154.931,9.5 90.74,-24.939 152.207,-89.146 137.289,-143.407 a 62.317,62.317 0 0 0 -5.088,-12.771 111.77,111.77 0 0 1 -6.887,-88.728 z" />
    <g
       id="g127"
       clip-path="url(#a)">
      <g
         id="g125"
         transform="translate(20,-49)">
        <path
           style="fill:#339d89"
           id="path13"
           transform="rotate(-180,0.1535,-107.989)"
           d="m -26.823,159.67 a 24.459,24.459 0 0 0 16.153,-5.836 C -2.552,146.765 0.948,134.206 -0.219,116.518 -1.024,104.567 -5.719,92.485 -10.703,79.662 -19.067,58.128 -28.565,33.716 -23.6,1.43 L -32.821,0 c -5.34,34.768 5.061,61.53 13.421,83.049 4.913,12.641 9.153,23.573 9.859,34.078 0.953,14.351 -1.528,24.592 -7.165,29.59 a 15.471,15.471 0 0 1 -12.341,3.452 l -1.873,9.156 a 22.121,22.121 0 0 0 4.092,0.345" />
        <path
           style="fill:#88bdda"
           id="path15"
           transform="rotate(-180,15.399,-224.844)"
           d="m -67.862,0 -9.087,13.858 76.312,24.461 c 0,0 5.11,-4.882 -13.622,-14.663 C -36.049,12.23 -67.862,0 -67.862,0" />
        <path
           style="fill:#88bdda"
           id="path17"
           transform="rotate(-180,51.557,-224.844)"
           d="M -9.087,0 0,13.858 -76.312,38.319 c 0,0 -5.094,-4.882 13.622,-14.663 C -40.884,12.23 -9.087,0 -9.087,0" />
        <path
           style="fill:#77d6c5"
           id="path19"
           transform="rotate(-180,48.7305,-204.23)"
           d="M 0,56.8 H -15.939 V 0 H 0 Z" />
        <path
           style="fill:#acd5f4"
           id="path21"
           transform="rotate(-180,19.775,-226.307)"
           d="m -58.075,0 -7.789,13.217 65.319,23.343 c 0,0 4.371,-4.652 -11.655,-14.006 C -30.863,11.672 -58.075,0 -58.075,0" />
        <path
           style="fill:#acd5f4"
           id="path23"
           transform="rotate(-180,52.7235,-226.307)"
           d="M -7.773,0 0,13.217 -65.319,36.56 c 0,0 -4.371,-4.652 11.651,-14.006 C -35,11.672 -7.773,0 -7.773,0" />
        <path
           style="fill:#001f46"
           id="path25"
           transform="rotate(-180,18.199,-244.439)"
           d="M -11.075,5.54 A 5.545,5.545 0 0 0 -5.538,11.1 5.545,5.545 0 0 0 0,5.54 5.541,5.541 0 0 0 -5.538,0 5.541,5.541 0 0 0 -11.076,5.54" />
        <path
           style="fill:#001f46"
           id="path27"
           transform="rotate(-180,81.48,-244.439)"
           d="M -11.092,5.54 A 5.548,5.548 0 0 0 -5.538,11.1 5.545,5.545 0 0 0 0,5.54 5.541,5.541 0 0 0 -5.538,0 5.545,5.545 0 0 0 -11.092,5.54" />
        <path
           style="fill:#367082"
           id="path29"
           transform="rotate(-180,11.4945,-244.439)"
           d="M -11.075,5.54 A 5.545,5.545 0 0 0 -5.538,11.1 5.545,5.545 0 0 0 0,5.54 5.541,5.541 0 0 0 -5.538,0 5.541,5.541 0 0 0 -11.076,5.54" />
        <path
           style="fill:#367082"
           id="path31"
           transform="rotate(-180,88.193,-244.439)"
           d="M -11.075,5.54 A 5.545,5.545 0 0 0 -5.538,11.1 5.545,5.545 0 0 0 0,5.54 5.541,5.541 0 0 0 -5.538,0 5.541,5.541 0 0 0 -11.076,5.54" />
        <path
           style="fill:#339d89"
           id="path33"
           transform="rotate(-180,49.6915,-193.824)"
           d="M 0,20.417 H -11.667 V 0 H 0 Z" />
        <path
           style="fill:#339d89"
           id="path35"
           transform="rotate(-180,45.3205,-182.736)"
           d="M -29.168,11.376 A 11.381,11.381 0 0 0 -17.8,22.768 h 6.425 A 11.381,11.381 0 0 0 0,11.376 11.377,11.377 0 0 0 -11.371,0 H -17.8 a 11.377,11.377 0 0 0 -11.368,11.376" />
        <path
           style="fill:#75d4c4"
           id="path37"
           transform="rotate(-180,9.046,-169.322)"
           d="m -173.822,27.814 c -0.279,-1.348 -0.444,-9.748 -0.444,-11.195 C -174.266,7.43 -168.334,0 -161,0 H -13.261 C -5.932,0 0,7.43 0,16.62 c 0,1.447 -0.164,9.847 -0.444,11.195 h -173.378" />
        <path
           style="fill:#339d89"
           id="path39"
           transform="rotate(-180,8.364,-182.9335)"
           d="m 0,5.1 c 0,2.811 -1.643,5.08 -3.681,5.08 h -169.632 c -2.021,0 -3.681,-2.269 -3.681,-5.08 0,-2.827 1.66,-5.1 3.681,-5.1 H -3.681 C -1.643,0 0,2.269 0,5.1" />
        <path
           style="fill:#75d4c4"
           id="path41"
           transform="rotate(-180,12.152,-90.951)"
           d="m -0.707,99.206 c -3.632,0.279 -26.8,0.674 -30.794,0.723 -25.339,0.312 -47.178,-4.455 -48.394,-10.685 A 216.839,216.839 0 0 1 -80.552,10.7 C -79.467,4.453 -57.3,-0.3 -31.419,0.015 -27.344,0.064 -3.714,0.475 0,0.754 a 212.519,212.519 0 0 0 -0.707,98.452" />
        <path
           style="fill:#339d89"
           id="path43"
           transform="rotate(-180,8.52,-91.32)"
           d="m -4.487,0 c 2.843,0.033 4.832,1.381 4.437,3.025 a 212.222,212.222 0 0 0 -0.805,92.452 c 0.362,1.627 -1.594,2.975 -4.371,3.008 -2.777,0.033 -5.341,-1.266 -5.7,-2.893 A 212.506,212.506 0 0 1 -10.32,2.91 C -9.942,1.266 -7.329,-0.032 -4.487,0" />
        <path
           style="fill:#64c2b2"
           id="path45"
           transform="rotate(-180,9.802,-91.131)"
           d="m -0.789,98.8 a 57.951,57.951 0 0 1 -6.639,0.444 c -5.521,0.066 -11.207,-4.8 -12.308,-10.948 a 213.184,213.184 0 0 1 0.345,-77.344 C -18.24,4.8 -12.406,-0.065 -6.77,0 A 64.687,64.687 0 0 1 0,0.461 212.474,212.474 0 0 0 -0.789,98.8" />
        <path
           style="fill:#ed8a72"
           id="path47"
           transform="rotate(-180,87.059,-99.517)"
           d="m 0,8.068 c 0,0 -0.181,6.46 -31.5,6.493 -31.3,0.033 -77.282,-7.677 -77.282,-7.677 l 72.236,-6.822 c 0,0 27.738,-1.299 36.546,8.006" />
        <path
           style="fill:#e2c59c"
           id="path49"
           transform="rotate(-180,126.58,-101.8825)"
           d="m -5.109,4.438 c -14.871,0.46 -21.034,8.137 -26.867,10.636 a 100.67,100.67 0 0 0 -11.6,6.165 c 3.106,-6.493 7.9,-6.822 10.254,-8.959 2.333,-2.137 1.742,-1.085 -3.566,-1.3 -3.024,-0.132 -8.15,5.343 -11.881,8.417 -3.221,2.647 -5.275,2.91 -5.275,2.91 a 66.17,66.17 0 0 1 8.463,-9.978 77.5,77.5 0 0 1 14.674,-10.752 C -27.769,0.246 -17.811,-0.428 -10.7,0.3 -2.665,1.122 5.617,4.1 -5.113,4.443" />
        <path
           style="fill:#e2c59c"
           id="path51"
           transform="rotate(-180,141.631,-102.811)"
           d="m 0,0 c 0,0 -11.306,3.255 -13.261,4.817 -1.364,1.1 -6.984,7.4 -6.984,7.4 0,0 4.24,-0.822 6.622,-3.222 C -11.223,6.608 0,0 0,0" />
        <path
           style="fill:#d9e6f9"
           id="path53"
           transform="rotate(-180,80.3795,-96.9915)"
           d="m -27.524,0 c 0,0 28.872,0.822 27.475,17.984 -0.789,9.748 -7.251,13.348 -15.972,12.937 -16.235,-0.756 -34.64,-2.482 -34.64,-2.482 L -59.761,2.153 -27.524,0" />
        <path
           style="fill:#d9e6f9"
           id="path55"
           transform="rotate(-180,69.962,-48.0365)"
           d="M -42.246,100.063 -17.056,11.1 c 0,0 3.698,-13.039 10.649,-10.853 10.007,3.14 5.472,13.858 4.814,20.153 -1.331,12.806 0.049,18.313 -8.019,49.366 -4.963,19.135 -9.071,41.146 -13.557,53.771 -3.073,8.713 -9.251,-3.4 -18.076,-6.526 -16.482,-5.852 -1,-16.948 -1,-16.948" />
        <path
           style="fill:#282723"
           id="path57"
           transform="rotate(-180,30.422,-17.224)"
           d="m -72.456,44 c 4.338,19.365 23.893,31.464 43.661,27.042 C -9.027,66.607 3.478,47.324 -0.86,27.943 -5.2,8.578 -24.736,-3.521 -44.5,0.917 -64.272,5.339 -76.794,24.638 -72.456,44" />
        <path
           style="fill:#282723"
           id="path59"
           transform="rotate(-180,54.3495,-0.257)"
           d="m -58.369,58.047 a 27.592,27.592 0 0 0 32.947,20.893 l 3.862,-14.3 A 27.594,27.594 0 0 0 -0.675,31.679 L -2.943,21.569 A 27.567,27.567 0 0 0 -35.89,0.675 l -6.721,1.512 A 27.578,27.578 0 0 0 -63.5,35.148 l 5.127,22.9" />
        <path
           style="fill:#ff987f"
           id="path61"
           transform="rotate(-180,54.4335,-8.2715)"
           d="m -56.311,0 a 52.608,52.608 0 0 0 2.35,7.447 c 6.589,16.685 20.031,27.453 31.879,26.5 a 84.019,84.019 0 0 0 8.482,20.005 c 3.677,6.348 13.274,11.754 13.274,11.754 4.65,11.639 -41.936,50.631 -43.924,49.612 -4.223,-2.17 3.352,-30.165 10.96,-38.845 3.582,-4.06 7.214,-8.86 7.3,-11.589 0.279,-9.617 -2.777,-11.655 -7.411,-16.061 a 22.589,22.589 0 0 0 -17.4,-3.929 3.121,3.121 0 0 1 -2.481,-0.477 19.106,19.106 0 0 1 -2.1,-5.441 L -60.37,16.768 A 19.477,19.477 0 0 1 -56.311,0" />
        <path
           style="fill:#75d4c4"
           id="path63"
           transform="rotate(-180,58.442,-49.261)"
           d="m 0,165.7 c 0,0 -11.93,10.817 -15.3,11.77 -4.486,1.282 -17.057,-4.143 -17.057,-4.143 0,0 3.467,-56.056 2.186,-78.265 -1.3,-22.225 -6.507,-28.653 -5.916,-35.508 0.97,-10.965 -7.937,-16.57 -5.308,-24.921 2.614,-8.363 9.237,-38.413 9.68,-34.233 3.878,35.524 17.5,8.121 20.212,3.83 C -10.007,1.875 0,165.7 0,165.7" />
        <path
           style="fill:#ffffff"
           id="path65"
           transform="rotate(-180,69.4725,-44.256)"
           d="m -2.867,0.871 c 0,0 -15.792,11.573 -15.578,16.929 0.214,5.343 -8.167,21.157 -4.765,44.927 3.878,27.124 5.308,45.355 4.519,62.665 -0.789,17.31 -8.775,32.3 -9.038,53.623 -0.214,16.685 3.6,18.181 3.6,18.181 a 13.86,13.86 0 0 0 13.557,-2.975 c 6.2,-5.7 5.094,-62.845 4.157,-77.229 -0.953,-14.384 -5.423,-48.248 -6.458,-58.144 a 105.351,105.351 0 0 1 1.282,-27.782 117.852,117.852 0 0 1 6.637,-24.079 c 0.312,-0.773 4.4,-4.06 4.667,-4.669 1.117,-2.597 -1.298,-2.91 -2.58,-1.447" />
        <path
           style="fill:#282723"
           id="path67"
           transform="rotate(-180,23.5855,-40.6455)"
           d="m -75.678,45.951 c 4.535,20.236 24.944,32.878 45.6,28.242 C -9.438,69.573 3.625,49.419 -0.894,29.2 -5.429,8.963 -25.838,-3.678 -46.494,0.958 -67.133,5.577 -80.2,25.731 -75.678,45.951" />
        <path
           style="fill:#e9d6b8"
           id="path69"
           transform="rotate(-180,97.2555,-228.0005)"
           d="M -7.165,0 0,54.971 -30.975,69.191 -48.163,72.808 -17.663,50.024 -27.639,0.427 -7.165,0" />
        <path
           style="fill:#161711"
           id="path71"
           transform="rotate(-180,96.245,-253.0145)"
           d="m 0,13.228 -6.721,1.759 -4.5,-4.077 -24.75,12.034 -21.937,5.014 a 4.1,4.1 0 0 1 0.46,-2.647 c 2.761,-3.469 18.125,-11.244 18.125,-11.244 0,0 0.246,5.112 2.432,5.244 2.186,0.148 21.149,-9.469 25.52,-12.148 7.559,-4.62 8.971,-7.48 9.547,-7.135 C -0.312,0.982 0,13.228 0,13.228" />
        <path
           style="fill:#ff987f"
           id="path73"
           transform="rotate(-180,138.213,-186.928)"
           d="m 0,5.7 -24.6,46.838 -34.032,-1.66 -16.925,-4.7 L -37.976,40.03 -17.451,0 0,5.7" />
        <path
           style="fill:#161711"
           id="path75"
           transform="rotate(-180,149.244,-208.7425)"
           d="M -4.559,17.211 -11.329,15.666 -13.465,9.978 -43.98,9.551 -62.188,5.408 a 15.731,15.731 0 0 1 3.549,-2.943 C -54.58,0.838 -40.168,0 -40.168,0 c 0,0 -1.512,3.978 0.362,5.129 1.873,1.134 22.841,1.808 27.968,1.447 C -3.015,5.967 -0.451,4.077 -0.106,4.669 0.814,6.2 -4.559,17.211 -4.559,17.211" />
        <path
           style="fill:#194866"
           id="path77"
           transform="rotate(-180,26.6555,-119.7345)"
           d="M -43.361,0 -61.716,7.989 -69.7,31.941 -187.769,12.493 c 0,0 -12.029,-3.7 -19.686,15.3 -10.911,27.063 -38.645,111.164 -38.645,111.164 l 17.566,18.362 55.082,-95.033 c 0,0 112.837,52.966 150.052,41.525 C -9.116,99.422 1.779,74.2 -0.242,48.708 a 328.77,328.77 0 0 0 -5.6,-38.319 L -43.361,0" />
        <path
           style="fill:#163f59"
           id="path79"
           transform="rotate(-180,56.314,-146.0705)"
           d="m 0,50.531 -90.313,-6.51 7.756,139.4 -26.621,0.855 -19.67,-163.253 c 0,0 5.309,-24.312 22.548,-20.647 17.253,3.666 58.991,35.656 106.3,50.155" />
        <path
           style="fill:#ffffff"
           id="path81"
           transform="rotate(-180,19.752,-38.791)"
           d="m -34.508,294.762 c 0,0 -40.687,-56.762 -49.297,-87.125 -10.287,-36.231 -3.648,-79.334 -4.552,-93.964 -1.676,-26.91 -1.3,-78.824 -1.66,-85.284 -0.362,-6.477 4.568,-13.085 4.568,-13.085 0,0 5.012,-16.456 14.116,-15.24 8.019,1.069 20.36,12.214 28.116,17.392 7.575,5.047 6.721,99.882 7.1,104.649 1.364,17.228 12.259,33.963 19.374,50.8 C 0,212.568 0,256.953 0,256.953 c 0,0 -6.606,31.957 -34.508,37.809" />
        <path
           style="fill:#ff987f"
           id="path83"
           transform="rotate(-180,50.653,-102.9015)"
           d="m 0,15.633 c 0,0 -0.986,6.921 -38.107,2.827 C -75.228,14.366 -128.83,0 -128.83,0 l 86.451,2.153 c 0,0 33.045,2.269 42.379,13.48" />
        <path
           style="fill:#ff987f"
           id="path85"
           transform="rotate(-180,97.51,-102.261)"
           d="m -6.179,6.985 c -17.714,-1.463 -25.914,5.984 -33.128,7.923 A 130.792,130.792 0 0 0 -53.8,20 c 4.47,-6.559 10.2,-6.28 13.228,-8.285 3.04,-1.989 2.2,-0.937 -4.059,-1.89 -3.566,-0.526 -10.3,4.7 -15.085,7.513 -4.125,2.433 -6.606,2.449 -6.606,2.449 a 73.556,73.556 0 0 1 11.222,-9.63 c 7.477,-5.063 16.547,-9.074 18.667,-9.65 3.88,-1.035 15.761,-0.427 24.109,1.283 9.432,1.94 18.9,6.247 6.146,5.195" />
        <path
           style="fill:#e9d6b8"
           id="path87"
           transform="rotate(-180,115.2655,-102.712)"
           d="m 0,0 c 0,0 -13.787,2.022 -16.285,3.452 -1.742,1 -9.153,7.052 -9.153,7.052 0,0 5.11,-0.329 8.233,-2.6 C -14.083,5.655 0,0 0,0" />
        <path
           style="fill:#d9e6f9"
           id="path89"
           transform="rotate(-180,40.843,-103.156)"
           d="M -47.26,16.948 0,0 c 0,0 -3.286,27.4 -4.387,37.809 -1.085,10.422 1.643,25.76 -7.113,26.861 -8.758,1.085 -13.146,-0.559 -4.93,5.474 8.216,6.033 5.472,10.965 1.643,14.795 -3.829,3.83 8.758,46.571 8.758,46.571 0,0 -1.232,0.641 -4.93,2.745 -11.667,-18.461 -26.144,-39.4 -30.663,-55.349 -5.85,-20.6 -6.228,-43.415 -5.636,-61.958" />
        <path
           style="fill:#ffffff"
           id="path91"
           transform="rotate(-180,39.083,-46.7765)"
           d="m -38.389,111.855 4.125,-87.767 c 0,0 4.733,-18.379 11.618,-22.6 8.183,-5.017 19.422,4.271 19.422,4.271 0,0 5.751,13.71 1.89,78.413 -2.58,43.283 -6.573,65.706 -27.081,62.533 -19.144,-2.943 -40.769,-7.233 -40.769,-7.233 l -7.674,-29.524 38.468,1.907" />
        <path
           style="fill:#339d89"
           id="path93"
           transform="rotate(-180,95.1355,-111.359)"
           d="M -0.082,4.5 0,4.356 -0.082,0 h -180.182 v 4.5 l 0.46,0.806 c 2.317,3.764 6.474,4.455 11.223,4.455 h 156.815 c 4.749,0 8.906,-0.69 11.223,-4.455 L -0.083,4.5" />
        <path
           style="opacity:0.17700004"
           id="path95"
           transform="rotate(-180,95.99,-112.214)"
           d="M -41.788,3.518 V 3.65 l 0.444,0.641 a 7.08,7.08 0 0 0 2.629,2.219 h 27.393 c 4.585,0 8.578,-0.542 10.813,-3.6 L -0.082,2.252 0,2.137 -0.049,0 h -41.739 v 3.518" />
        <path
           style="opacity:0.17700004"
           id="path97"
           transform="rotate(-180,129.052,-111.8605)"
           d="M 0,3.09 H -90.017 V 0 H 0 Z" />
        <path
           style="fill:#339d89"
           id="path99"
           transform="rotate(-180,117.385,-64.8785)"
           d="M -23.367,4.241 A 5.866,5.866 0 0 0 -28.707,0 h -126.415 a 3.147,3.147 0 0 0 -3.106,4.241 l 23.35,89.572 H 0 Z" />
        <path
           style="fill:#93cef5"
           id="path101"
           transform="rotate(-180,275.1695,-120.9675)"
           d="M -38.715,294.8 H -57.168 L -26.736,0 H 0 l -38.715,294.8" />
        <path
           style="fill:#86bbd8"
           id="path103"
           transform="rotate(-180,276.0565,-120.9675)"
           d="M 0,13.595 -11.733,102.874 -25.651,6.641 -24.961,0 H -1.594 L 0,13.595" />
        <path
           style="fill:#75d4c4"
           id="path105"
           transform="rotate(-180,151.622,-120.9675)"
           d="M -38.731,294.8 H -57.168 L -26.752,0 H 0 l -38.731,294.8" />
        <path
           style="fill:#339d89"
           id="path107"
           transform="rotate(-180,152.5175,-120.9675)"
           d="M 0,13.595 -11.733,102.874 -25.651,6.641 -24.961,0 H -1.578 L 0,13.595" />
        <path
           style="fill:#75d4c4"
           id="path109"
           transform="rotate(-180,64.9575,-120.9675)"
           d="M -18.437,294.8 H 0 L -30.416,0 h -26.752 l 38.731,294.8" />
        <path
           style="fill:#339d89"
           id="path111"
           transform="rotate(-180,74.751,-120.9675)"
           d="M -35.79,13.595 0,104.567 -10.155,6.641 -10.829,0 h -23.383 l -1.578,13.595" />
        <path
           style="fill:#64c2b2"
           id="path113"
           transform="rotate(-180,67.266,-116.184)"
           d="M 0,17.228 H -222.331 V 0 H 0 Z" />
        <path
           style="fill:#88ebdb"
           id="path115"
           transform="rotate(-180,173.2965,-116.184)"
           d="M 0,17.228 H -252.468 V 0 H 0 Z" />
        <path
           style="fill:#d9e6f9"
           id="path117"
           transform="rotate(-180,53.7175,-36.0365)"
           d="m -9.3,0 c 0,0 -12.062,15.88 -14.248,30.675 -2.186,14.795 3.829,94.8 3.829,94.8 l 4.305,-70.309 -3.2,-10.784 5.472,-1.1 c 0,0 4.93,-27.4 8.775,-31.776 C -0.542,7.118 0,5.474 0,5.474 L -9.3,0" />
        <path
           style="fill:#d9e6f9"
           id="path119"
           transform="rotate(-180,68.2275,-42.878)"
           d="m 0,0.011 c 0,0 -14.247,30.689 -14.789,48.215 -0.559,17.54 5.472,61.925 5.472,61.925 0,0 -8.216,-58.637 -10.4,-58.637 -2.2,0 2.186,-8.762 2.186,-8.762 l -3.286,-2.745 c 0,0 3.829,-27.387 9.859,-33.963 C -4.928,-0.532 0,0.011 0,0.011" />
        <path
           style="fill:#d9e6f9"
           id="path121"
           transform="rotate(-180,25.4545,-140.965)"
           d="m -18.173,0 -19.719,21.37 c 0,0 16.433,37.81 26.292,36.166 C -1.741,55.892 -1.741,46.029 -0.1,37.809 1.541,29.589 -18.173,0 -18.173,0" />
        <path
           style="fill:#d9e6f9"
           id="path123"
           transform="rotate(-180,48.488,-51.941)"
           d="m -57.67,101.1 c 0.411,-0.444 0.838,-0.921 1.282,-1.4 l 36.809,1.825 4.125,-87.767 A 86.782,86.782 0 0 1 -10.46,0 v 88.194 c 0,9.863 8.216,11.507 9.859,14.795 1.643,3.288 0,3.83 -6.014,2.186 -6.031,-1.644 -3.845,-0.542 -2.744,2.745 1.101,3.287 -2.186,2.186 -13.688,-2.745 -8.364,-3.584 -25.125,-1.66 -33.654,-0.345 l -0.97,-3.732" />
      </g>
    </g>
  </g>
</svg>
