<svg xmlns="http://www.w3.org/2000/svg" xmlns:xlink="http://www.w3.org/1999/xlink" width="497" height="463.026" viewBox="0 0 497 463.026"><defs><linearGradient id="a" x1="-0.066" y1="1.375" x2="0.83" y2="0.003" gradientUnits="objectBoundingBox"><stop offset="0" stop-color="#bff0ea"/><stop offset="1" stop-color="#40c1a8"/></linearGradient><filter id="b" x="145.46" y="61.175" width="269.288" height="177.948" filterUnits="userSpaceOnUse"><feOffset dx="20" dy="22" input="SourceAlpha"/><feGaussianBlur stdDeviation="10" result="c"/><feFlood flood-color="#416888" flood-opacity="0.102"/><feComposite operator="in" in2="c"/><feComposite in="SourceGraphic"/></filter><linearGradient id="d" x1="1" y1="0.5" x2="0" y2="0.5" gradientUnits="objectBoundingBox"><stop offset="0" stop-color="#eee" stop-opacity="0"/><stop offset="1" stop-color="#4fc6b0"/></linearGradient></defs><g transform="translate(-180 -2005)"><path d="M-489.681,238.918A111.77,111.77,0,0,0-482.8,150.19c-6.53-19.127-7.554-48.673-2.162-68.28,17.316-62.99,97.407-100.52,174.633-72.48,70.8,25.711,88.139,131.781,142.506,120.25C-39.95,102.561,6.106,193.692-.639,267.879-5,315.8-45.191,375.068-131.051,368.843a124.921,124.921,0,0,0-71.5,16.752c-36.535,21.127-94.607,26.079-154.931,9.5-90.74-24.939-152.208-89.146-137.289-143.407a62.315,62.315,0,0,1,5.088-12.771" transform="translate(677 2033)" fill="#bff0ea"/><path d="M397,197.5C397,306.575,308.13,395,198.5,395S0,306.575,0,197.5,88.872,0,198.5,0,397,88.424,397,197.5" transform="translate(231 2056)" fill="#bff0ea" opacity="0.22"/><path d="M86.937,18.176A23,23,0,0,1,109.425,0H301.044a23,23,0,0,1,22.537,27.59l-82.04,402.866A23,23,0,0,1,219,448.866H23A23,23,0,0,1,.512,421.042Z" transform="translate(313.239 2013.118)" fill="#e4edff"/><path d="M84.339,18.176A23,23,0,0,1,106.827,0H285.9a23,23,0,0,1,22.477,27.876L223.636,418.511a23,23,0,0,1-22.462,18.124l-178.159.118a23,23,0,0,1-22.5-27.824Z" transform="translate(315.837 2013.118)" fill="url(#a)"/><path d="M35.428,3.2A4,4,0,0,1,39.347,0H90.576a4,4,0,0,1,3.91,4.846l-37.242,172.2a4,4,0,0,1-3.91,3.154H4a4,4,0,0,1-3.918-4.8Z" transform="translate(401.706 2258)" fill="#339d89" opacity="0.394"/><path d="M8.356,3.108A4,4,0,0,1,12.255,0H63.49a4,4,0,0,1,3.9,4.9L59.076,41a4,4,0,0,1-3.9,3.1H4A4,4,0,0,1,.1,39.21Z" transform="translate(483.018 2307)" fill="#339d89" opacity="0.394"/><path d="M8.356,3.108A4,4,0,0,1,12.255,0H63.49a4,4,0,0,1,3.9,4.9L59.076,41a4,4,0,0,1-3.9,3.1H4A4,4,0,0,1,.1,39.21Z" transform="translate(343 2356)" fill="#339d89" opacity="0.394"/><path d="M8.356,3.108A4,4,0,0,1,12.255,0H63.49a4,4,0,0,1,3.9,4.9L59.076,41a4,4,0,0,1-3.9,3.1H4A4,4,0,0,1,.1,39.21Z" transform="translate(463 2394)" fill="#339d89" opacity="0.394"/><path d="M8.356,3.108A4,4,0,0,1,12.255,0H63.49a4,4,0,0,1,3.9,4.9L59.076,41a4,4,0,0,1-3.9,3.1H4A4,4,0,0,1,.1,39.21Z" transform="translate(493 2258)" fill="#339d89" opacity="0.394"/><path d="M8.356,3.108A4,4,0,0,1,12.255,0H63.49a4,4,0,0,1,3.9,4.9L59.076,41a4,4,0,0,1-3.9,3.1H4A4,4,0,0,1,.1,39.21Z" transform="translate(352.982 2307)" fill="#339d89" opacity="0.394"/><path d="M8.356,3.108A4,4,0,0,1,12.255,0H63.49a4,4,0,0,1,3.9,4.9L59.076,41a4,4,0,0,1-3.9,3.1H4A4,4,0,0,1,.1,39.21Z" transform="translate(504 2209)" fill="#339d89" opacity="0.394"/><path d="M8.356,3.108A4,4,0,0,1,12.255,0H63.49a4,4,0,0,1,3.9,4.9L59.076,41a4,4,0,0,1-3.9,3.1H4A4,4,0,0,1,.1,39.21Z" transform="translate(527 2098)" fill="#339d89" opacity="0.394"/><path d="M8.356,3.108A4,4,0,0,1,12.255,0H63.49a4,4,0,0,1,3.9,4.9L59.076,41a4,4,0,0,1-3.9,3.1H4A4,4,0,0,1,.1,39.21Z" transform="translate(440 2209)" fill="#339d89" opacity="0.394"/><g transform="matrix(1, 0, 0, 1, 180, 2005)" filter="url(#b)"><path d="M21.236,10.817C22.888,4.713,29.266,0,35.589,0H192.515a14,14,0,0,1,13.7,16.874l-18.865,89.948a14,14,0,0,1-13.7,11.126H11.24A14,14,0,0,1-2.274,100.29Z" transform="translate(158.23 69.17)" fill="#fff"/></g><rect width="111" height="13" rx="6.5" transform="translate(369 2127)" fill="url(#d)"/><rect width="111" height="13" rx="6.5" transform="translate(364 2156)" fill="url(#d)"/><path d="M4.5,16.7A5.807,5.807,0,0,1,2.23,16.32,3.381,3.381,0,0,1,.718,14.988a5.156,5.156,0,0,1-.7-2.544,27.482,27.482,0,0,1,.156-4.02Q.754,3.7,2.266,1.848A5.4,5.4,0,0,1,6.706,0q2.88,0,3.888,1.8t.432,6.528q-.576,4.656-2.148,6.516A5.423,5.423,0,0,1,4.5,16.7Z" transform="translate(444.302 2091.632)" fill="#449284"/><path d="M4.362,0A3.06,3.06,0,0,0,1.6,1.416,13.449,13.449,0,0,0,.234,6.624q-.48,3.864.024,5.232a2.292,2.292,0,0,0,2.448,1.368,2.987,2.987,0,0,0,2.76-1.368,14.593,14.593,0,0,0,1.32-5.232q.456-3.768-.108-5.2A2.239,2.239,0,0,0,4.362,0Z" transform="translate(446.382 2093.36)" fill="#fff"/><path d="M4.416,16.152H2.4L4.1,2.184.264,3.36,0,1.824,4.872,0H6.384Z" transform="translate(457.536 2091.848)" fill="#449284"/><path d="M0,2.64.312,0H2.88L2.568,2.64Z" transform="translate(465.288 2105.36)" fill="#449284"/><path d="M0,2.64.336,0H2.9L2.568,2.64Z" transform="translate(466.152 2098.16)" fill="#449284"/><path d="M4.488,8.52H3.072l.192-1.584a7.313,7.313,0,0,0,3.72-.756,2.909,2.909,0,0,0,1.344-2.2A1.836,1.836,0,0,0,7.8,2.22a2.914,2.914,0,0,0-1.872-.54,9.06,9.06,0,0,0-3.408.744L2.184.816A10.671,10.671,0,0,1,6.264,0,5.08,5.08,0,0,1,9.456.912a3.021,3.021,0,0,1,.936,2.952A4.238,4.238,0,0,1,7.848,7.512a3.363,3.363,0,0,1,2.328,4.008A5.829,5.829,0,0,1,9.012,14.5,5.141,5.141,0,0,1,6.8,16.176a7.869,7.869,0,0,1-2.82.48A10.087,10.087,0,0,1,0,15.84l.744-1.8a7.682,7.682,0,0,0,3.312.84,4.456,4.456,0,0,0,2.676-.8A3.38,3.38,0,0,0,8.04,11.568a2.413,2.413,0,0,0-.756-2.232A4.123,4.123,0,0,0,4.488,8.52Z" transform="translate(470.184 2091.656)" fill="#449284"/><path d="M4.5,16.7A5.807,5.807,0,0,1,2.23,16.32,3.381,3.381,0,0,1,.718,14.988a5.156,5.156,0,0,1-.7-2.544,27.482,27.482,0,0,1,.156-4.02Q.754,3.7,2.266,1.848A5.4,5.4,0,0,1,6.706,0q2.88,0,3.888,1.8t.432,6.528q-.576,4.656-2.148,6.516A5.423,5.423,0,0,1,4.5,16.7Z" transform="translate(482.894 2091.632)" fill="#449284"/><path d="M4.362,0A3.06,3.06,0,0,0,1.6,1.416,13.449,13.449,0,0,0,.234,6.624q-.48,3.864.024,5.232a2.292,2.292,0,0,0,2.448,1.368,2.987,2.987,0,0,0,2.76-1.368,14.593,14.593,0,0,0,1.32-5.232q.456-3.768-.108-5.2A2.239,2.239,0,0,0,4.362,0Z" transform="translate(484.974 2093.36)" fill="#fff"/><path d="M10.512,6.888,11.376,0h2.04L11.448,16.032H9.408L10.3,8.664H2.928L2.04,16.032H0L1.968,0h2.04L3.144,6.888Z" transform="translate(495.888 2091.968)" fill="#449284"/><path d="M4.284,21.92S-.2,10.857.009,6.91A7.582,7.582,0,0,1,8.93.089c5,.706,6.753,5.979,4.937,10.03S4.284,21.92,4.284,21.92Z" transform="translate(489.241 2122.643)" fill="#4cc5ae"/><ellipse cx="3.5" cy="4" rx="3.5" ry="4" transform="translate(494.339 2126) rotate(17)" fill="#fff"/><ellipse cx="9" cy="10.5" rx="9" ry="10.5" transform="translate(486.5 2150) rotate(30)" fill="#4cc5ae"/><path d="M.915,0,0,6.583,2.282,9.2" transform="translate(489.718 2157.011)" fill="none" stroke="#fff" stroke-miterlimit="10" stroke-width="1"/><path d="M0,51.093,1.832,44.74,48.027,0,50.56.918s3.68,7.671,3.68,14.822.069,6.975-.488,8.681-1.913,1.706-1.913,7.39.984,6.32-2.469,15.085A58.767,58.767,0,0,1,42.4,60.215s-1.456,1.9-9.772.95c-3.39.61-3.607,6.211-3.607,6.211Z" transform="translate(276.743 2020.353)" fill="#ff987f"/><path d="M0,51.093,1.832,44.74,48.027,0,50.56.918s3.68,7.671,3.68,14.822.069,6.975-.488,8.681-1.913,1.706-1.913,7.39.984,6.32-2.469,15.085A58.767,58.767,0,0,1,42.4,60.215s-1.456,1.9-9.772.95c-3.39.61-3.607,6.211-3.607,6.211Z" transform="translate(276.743 2020.353)" fill="#ff987f"/><path d="M.9,61.12s19.544,5.6,25.162-1.591S37.736,38.715,43.727,45.21c2.646,2.541,3.474-2.143,3.474-4.847s.445-5.624,1.789-7.477,1.789-9.456,0-11.6-.013-4.347,1.344-5.6S61.4,3.746,48.991,1.4,12.2-2.788,1.7,17.128C-1.234,23.4.9,37.183.9,37.183s.8,9.049.8,13.272S.9,61.12.9,61.12Z" transform="translate(276.969 2005)" fill="#000547"/><path d="M0,11.409,56.384,34.926s-4.114-14.15-11.3-18.833S14.875,0,13.677,0,11.819,2.449,7.049,6.428C5.224,7.95,0,11.409,0,11.409Z" transform="translate(264.312 2070.265)" fill="#edf1ff"/><path d="M0,11.409,56.384,34.926s-4.114-14.15-11.3-18.833S14.875,0,13.677,0,11.819,2.449,7.049,6.428C5.224,7.95,0,11.409,0,11.409Z" transform="translate(264.312 2070.265)" fill="#edf1ff"/><path d="M0,23.013,15.955,10.9a36.628,36.628,0,0,1,10.9-4.246C33.767,5.031,44.784.992,44.784.992s8.8-3.083,2.322,3.413c-6.429,4.159-15.836,8.854-15.836,8.854s-.371,1.752,3.787,0,6.954,3.076,1.583,5.5-6.957,1.174-9.789,5.711-2.6,5.8-7.423,7.349S0,23.013,0,23.013Z" transform="translate(363.118 2097.522)" fill="#ff987f"/><path d="M27.313,0,1.743,14.05s-3.487,2.164,0,2.164S29.686,4.6,29.686,4.6Z" transform="translate(384.95 2099.646)" opacity="0.1"/><path d="M0,23.013,15.955,10.9a36.628,36.628,0,0,1,10.9-4.246C33.767,5.031,44.784.992,44.784.992s8.8-3.083,2.322,3.413c-6.429,4.159-15.836,8.854-15.836,8.854s-.371,1.752,3.787,0,6.954,3.076,1.583,5.5-6.957,1.174-9.789,5.711-2.6,5.8-7.423,7.349S0,23.013,0,23.013Z" transform="translate(363.118 2097.522)" fill="#ff987f"/><path d="M0,35s13.317,4.1,14.261,8.288c.171.216,7.85-11.216,11.313-13.515s3.582-4.26,4.449-6.911a41.846,41.846,0,0,0,1.721-10.246c0-2.7.834-4.264.834-5.292S32.819,1.2,30.023,1.2s-2.053,5.71-4.852,7.9-7.71,4.971-5.254,0S22.895,4.717,24,3.02s.111-5.381-5.9-.827S6.462,16.513,3.654,26.283C2.054,30.36,0,35,0,35Z" transform="translate(389.115 2120.609)" fill="#ff987f"/><path d="M16.19,6.936S6.773,13.789,6.773,18.99s3.559,4.279,4.709,3.4,8.593-2.394,6.651,5.551-2.8,6.895-7.689,7.945S0,45.553,0,45.553l6.149,4.889L36.171,32.926V8.339L20.29,0Z" transform="translate(396.928 2114.022)" opacity="0.1"/><path d="M0,35s13.317,4.1,14.261,8.288c.171.216,7.85-11.216,11.313-13.515s3.582-4.26,4.449-6.911a41.846,41.846,0,0,0,1.721-10.246c0-2.7.834-4.264.834-5.292S32.819,1.2,30.023,1.2s-2.053,5.71-4.852,7.9-7.71,4.971-5.254,0S22.895,4.717,24,3.02s.111-5.381-5.9-.827S6.462,16.513,3.654,26.283C2.054,30.36,0,35,0,35Z" transform="translate(389.115 2120.609)" fill="#ff987f"/><path d="M83.577,29.205S64.785,8.915,54.011,6.211,23.706,0,23.706,0,8.6,9.781,3.289,25.212,1.247,64.481,1.247,64.481s6.542,35.538,8.917,42.818,2.7,12.483,4.052,35.914,2.449,31.082,2.449,31.082h90.675l-1.8-31.082Z" transform="translate(241.649 2081.517)" fill="#339d89"/><path d="M3.519,10.165c-2.506,6.016-6.474,22.262,0,36.338S15.4,69.337,18.991,87.251,38.347,116.566,42.672,117.2s8.557,1.605,15.781-5.078,16.97-11.191,19.881-15.993,26.193-37.337,26.193-39.4S96.015,43.666,90.868,47.9,57.36,82.248,52.4,78.682s-1.926-3.566-9.732-21.95c4.793-2.3,28.7-24.04,28.7-24.04s12.579-14.531-3.656-20.531C64.261,11.082,40.5,32.692,40.5,32.692S37.224,3.172,16.393,0C8.5,0,6.025,4.149,3.519,10.165Z" transform="translate(298.718 2107.291)" fill="#edf2ff"/><path d="M3.519,10.165c-2.506,6.016-6.474,22.262,0,36.338S15.4,69.337,18.991,87.251,38.347,116.566,42.672,117.2s8.557,1.605,15.781-5.078,16.97-11.191,19.881-15.993,26.193-37.337,26.193-39.4S96.015,43.666,90.868,47.9,57.36,82.248,52.4,78.682s-1.926-3.566-9.732-21.95c4.793-2.3,28.7-24.04,28.7-24.04s12.579-14.531-3.656-20.531C64.261,11.082,40.5,32.692,40.5,32.692S37.224,3.172,16.393,0C8.5,0,6.025,4.149,3.519,10.165Z" transform="translate(298.718 2107.291)" fill="#edf2ff"/><path d="M0,0,1.4,21.227H92.809L90.675,0Z" transform="translate(258.313 2255.812)" fill="#edf2ff"/><path d="M3.646,0S7.409,42.32,7.409,54.591s-3.763,33.8-3.763,33.8-5.468,16.7-2.734,33.74,6.5,39,6.5,45.437v12.043s7.809-9.47,15.808-3.407,12.721,2.647,11.264-1.764a78.682,78.682,0,0,0-3.9-9.235s-4.4-10.137-3.413-28.42,3.413-37.558,3.413-38.85S32.7,87.9,36.264,83.059s8.862-25.292,8.862-29.893,2.836-28.088,2.836-28.088a74.736,74.736,0,0,1,3.678,17.45c.862,9.827,2.892,28.03,2.892,28.03s2.284,17.81-2.892,28.645-3.678,25.063-3.678,25.063v25.321c0,3.544-2.063,28.8-2.836,30.023s2.658-3.827,8.289-.7,12.558,3.96,17.166,3.96,8.894-1.04,8.894-3.264-1.444-5.352,1.771-5.888c.386-.474-6.12-7.477-6.964-13.417s.03-13.927.922-18.19,6.042-27.494,6.042-27.494,3.266-12.356,5.928-18.936S92.05,77.565,92.05,72.009s3.472-35.456,3.472-35.456V0Z" transform="translate(256.066 2277.038)" fill="#a7c2ff" opacity="0.7"/><path d="M0,0H91.411l15.46,74.644L71.735,165.392h-7.25s3.246-56.631,3.246-59.686,8.582-43.544,8.582-51.2,3.139-37.239-9.87-38.723-32.6-4.247-32.6-4.247S44.115,22.028,44.115,23.81s.986,45.863.986,45.863l-6.32,116.072v5.243S18.3,188.779,18.3,177.085s1.413-29.279,1.413-38.265S18.3,100.68,18.3,96.624s-.89-14.967,1.413-18.473,5.9-17.654,5.9-27.468,1.21-31.756,1.21-31.756-.133-8.732-11.1-10.794S0,6.047,0,6.047Z" transform="translate(259.712 2277.038)" fill="#a7c2ff"/><path d="M3.646,0S7.409,42.32,7.409,54.591s-3.763,33.8-3.763,33.8-5.468,16.7-2.734,33.74,6.5,39,6.5,45.437v12.043s7.809-9.47,15.808-3.407,12.721,2.647,11.264-1.764a78.682,78.682,0,0,0-3.9-9.235s-4.4-10.137-3.413-28.42,3.413-37.558,3.413-38.85S32.7,87.9,36.264,83.059s8.862-25.292,8.862-29.893,2.836-28.088,2.836-28.088a74.736,74.736,0,0,1,3.678,17.45c.862,9.827,2.892,28.03,2.892,28.03s2.284,17.81-2.892,28.645-3.678,25.063-3.678,25.063v25.321c0,3.544-2.063,28.8-2.836,30.023s2.658-3.827,8.289-.7,12.558,3.96,17.166,3.96,8.894-1.04,8.894-3.264-1.444-5.352,1.771-5.888c.386-.474-6.12-7.477-6.964-13.417s.03-13.927.922-18.19,6.042-27.494,6.042-27.494,3.266-12.356,5.928-18.936S92.05,77.565,92.05,72.009s3.472-35.456,3.472-35.456V0Z" transform="translate(256.066 2277.038)" fill="none"/></g></svg>