<svg xmlns="http://www.w3.org/2000/svg" xmlns:xlink="http://www.w3.org/1999/xlink" width="563.919" height="496.402" viewBox="0 0 563.919 496.402">
  <defs>
    <clipPath id="clip-path">
      <path id="Fill_5" data-name="Fill 5" d="M-549.61,228.962c-6.528-19.114-11.418-155.787-6.028-175.38,17.31-62.946,105.521-64.045,182.719-36.024,70.779,25.693,168.153,11.523,222.5,0C-22.6-9.543,5.823,271.784-.919,345.918-5.275,393.8-112.164,453.684-197.993,447.464a124.909,124.909,0,0,0-71.471,16.74c-36.522,21.113-94.573,26.061-154.874,9.494-90.706-24.922-152.152-89.084-137.239-143.307a62.263,62.263,0,0,1,5.086-12.762A111.659,111.659,0,0,0-549.61,228.962Z" transform="translate(563.919 0.598)" fill="#bff0ea" opacity="0"/>
    </clipPath>
  </defs>
  <g id="img-oitava-sessao" transform="translate(0 -0.598)">
    <path id="Fill_5-2" data-name="Fill 5" d="M-489.681,238.918A111.77,111.77,0,0,0-482.8,150.19c-6.53-19.127-7.554-48.673-2.162-68.28,17.316-62.99,97.407-100.52,174.633-72.48,70.8,25.711,88.139,131.781,142.506,120.25C-39.95,102.561,6.106,193.692-.639,267.879-5,315.8-45.191,375.068-131.051,368.843a124.921,124.921,0,0,0-71.5,16.752c-36.535,21.127-94.607,26.079-154.931,9.5-90.74-24.939-152.208-89.146-137.289-143.407a62.315,62.315,0,0,1,5.088-12.771" transform="translate(497 79)" fill="#bff0ea"/>
    <path id="Fill_4" data-name="Fill 4" d="M397,197.5C397,306.575,308.13,395,198.5,395S0,306.575,0,197.5,88.872,0,198.5,0,397,88.424,397,197.5" transform="translate(51 102)" fill="#bff0ea" opacity="0.22"/>
    <g id="Group_6" data-name="Group 6">
      <path id="Fill_5-3" data-name="Fill 5" d="M-549.61,228.962c-6.528-19.114-11.418-155.787-6.028-175.38,17.31-62.946,105.521-64.045,182.719-36.024,70.779,25.693,168.153,11.523,222.5,0C-22.6-9.543,5.823,271.784-.919,345.918-5.275,393.8-112.164,453.684-197.993,447.464a124.909,124.909,0,0,0-71.471,16.74c-36.522,21.113-94.573,26.061-154.874,9.494-90.706-24.922-152.152-89.084-137.239-143.307a62.263,62.263,0,0,1,5.086-12.762A111.659,111.659,0,0,0-549.61,228.962Z" transform="translate(563.919 0.598)" fill="#bff0ea" opacity="0"/>
      <g id="Group_6-2" data-name="Group 6" clip-path="url(#clip-path)">
        <g id="Group_38" data-name="Group 38" transform="translate(683 61) rotate(180)">
          <path id="Path_90" data-name="Path 90" d="M-34.621,17.395-34,0,0,16.478v5.135s-15.044,1.858-21.026.917S-34.621,17.395-34.621,17.395Z" transform="translate(485 -82) rotate(-180)" fill="#f59179"/>
          <path id="Path_91" data-name="Path 91" d="M-24.322,66.746c5.859-1.113,25.76-4.837,24.239-38.952A90.15,90.15,0,0,0-6.134,0S-26.163,13.3-65.156,11.317c-.771,2.936-2.2,10.9,2.256,16.477,3.016,4.671,2.8,13.525,2.8,13.525s8.07,15.235,14.154,19.559S-30.181,67.859-24.322,66.746Z" transform="translate(463 -34) rotate(-180)" fill="#ff987f"/>
          <path id="Path_92" data-name="Path 92" d="M-53.493,76.958C-57.847,74.195-67.661,64.4-69.169,56.225a109.832,109.832,0,0,1-1.72-14.684s-15.089-6.123-14.044-22.329S-70.926-2.144-57.791.775c9.414,2.565,11.93,8.4,11.93,8.4S-14.259,4.042-3.043,21.7c5,7.816,3.719,12.818-2.979,15.948s-17.453,9.709-53.643,8.692c-2.073-.183-3.158,11.823,3.585,18.189C-53.821,66.652-52.944,77.768-53.493,76.958Z" transform="translate(467) rotate(-180)" fill="#35031c"/>
          <path id="Path_84" data-name="Path 84" d="M-125.107,166.285l-65.547-1.737s-18.453.14-20.2-23.866S-215,62.624-215,62.624s.5-35.892,26.189-45.846c21.155-6.64,25.82-7.752,25.82-10.245S-160,0-152.687,0c1.617.172-10.713,5.359-2.2,9.9,3.57,1.9,11.991,5.824,18.918,13.835,4.091,4.732,10.858,18.43,10.858,18.43s4.433-22.36,12.781-28.515c.276-.2,1.147-1.442,1.393-1.645,4.714-3.893-3.052-9.755-3.052-10.435S-108.351-1.6-101.7,4.149c2.405,3.507,2.786,6.541,8.725,6.541S-35.752,102.5-35.752,102.5l2.056,20.772s-.332,3.056,12.682,17.412A153.308,153.308,0,0,1,0,171l-37.379-4.715-21.436-25.6s-4.647-7.292-4.647-15.762-9.52-1.892-11.832,1.911-2.311,12.829,0,23.316S-125.107,166.285-125.107,166.285Z" transform="translate(370 -109) rotate(-180)" fill="#f1f7ff"/>
          <path id="Path_85" data-name="Path 85" d="M-55,0s15.036,72.49,15.036,82.563C-40.111,84.464,0,92,0,92s-45.753-2.274-45.753-5.165S-55,0-55,0Z" transform="translate(499 -164) rotate(-180)" fill="#e6f1fd"/>
          <path id="Path_86" data-name="Path 86" d="M-5.139,152.534s-10.877-67.256-13.347-78.6S-20.1,39.872-11.812,34.884c1.506-.906,0-6.04,0-6.04s5.75,1.654,6.674,0C-1.378,22.106,1.052,11.555-.451,8.621-2.737,4.156-4.021.714-15.569,0-13.61,2.472-3.3,3.649-11.812,13.86S-27.057,41.395-27.057,41.395s-8.877-22.9-27.107-29.577,4.6-9.879,4.6-9.879-12.4-3.541-16.88,0-2.747,14.555,2.668,18.688a101.62,101.62,0,0,1,9.613,8.216h9.376l-3.343,6.04S-30.837,49.9-26.017,66.24s15.568,71.694,15.568,86.293C-8.109,155.466-5.139,152.534-5.139,152.534Z" transform="translate(469 -109) rotate(-180)" fill="#dfe8f4"/>
          <path id="Path_87" data-name="Path 87" d="M-17.585,53S-13.047,30.918-.931,21.681C2.427,19.324-4.2,12.112-6.5,12.112c-.837-.381-1.514-.084-1.514-3.284V3.136S-16.7,5.927-22.923,5.042A72.674,72.674,0,0,1-42.594,0c-.437,4.189-1.515,12.112-1.515,12.112s-7.812,5.223-3.148,8.391C-45.215,21.89-36.3,25.53-28.405,34.438-24.28,39.095-17.585,53-17.585,53Z" transform="translate(477 -99) rotate(-180)" fill="#5997d7"/>
          <path id="Path_88" data-name="Path 88" d="M-12.269,63.426l-6.5-42.569s-3.015-18.263-11.2-18.263c-.044.043,0-2.595,0-2.595s10.116.172,12.914,14.941,7.484,48.005,7.484,48.005S-.867,62.8-.057,70.685s-7.217,9.229-8.069,9.229-7.209,1.371-9.659-6.848C-19.024,68.083-12.269,63.426-12.269,63.426Z" transform="translate(455 -110) rotate(-180)" fill="#244d7d"/>
          <path id="Path_89" data-name="Path 89" d="M-23.316,3.686s-14.106,6.887-11.854,20.672q1.82,11.141,2.684,13.471c.137.369,11.182-3.632,18.659,14.346S-3.678,78.44-3.678,78.44s4.922,12.583,3.257,17.3a22.6,22.6,0,0,1-2.64,3.813s-1.1,4.257-4.363,3.242-2.623-5.418,0-5.418H-4.5S-1.275,95-3.678,86.722s-9.538-26.457-9.538-26.457-8.171-22.047-18.358-19.194-9.12,12.616-7.347,23.295,4.651,26.508,4.651,26.508,2.308,12.228,12.189,10.909c1.206-.057,3.929-3.856,6.349-.471,1.526,2.507-1.724,4.528-1.724,4.528s-1.282.721-4.626-1.8a33.185,33.185,0,0,0-5.655,0s-6.815-1.364-9.406-15.334-4.69-23.584-4.69-23.584-4.062-22.859,6.01-25.748c-.554-2.245-3.569-11.807-2.222-20.988C-36.918,10.711-32.507,3.391-23.316,0A24.68,24.68,0,0,0-23.316,3.686Z" transform="translate(497 -109) rotate(-180)" fill="#244d7d"/>
          <rect id="Rectangle" width="628" height="254" transform="translate(628 -294) rotate(-180)" fill="#75d4c4"/>
          <rect id="Rectangle-2" data-name="Rectangle" width="628" height="18" transform="translate(628 -276) rotate(-180)" fill="#339d89"/>
          <path id="Path_93" data-name="Path 93" d="M-235.237.016S-250-.507-250,15.857V117.141S-250,134-235.237,134h221.25S0,134,0,117.141,0,15.857,0,15.857,0,.016-13.987.016Z" transform="translate(209 -99) rotate(-180)" fill="#75d4c4"/>
          <path id="Path_94" data-name="Path 94" d="M-12.515,0H-36.374L-48,81H0Z" transform="translate(318 -195) rotate(-180)" fill="#339d89"/>
          <path id="Path_83" data-name="Path 83" d="M-63.085,1.68-66,13.748s9.343-.766,11.706,1.246,46.482,0,46.482,0S0,12.936,0,8.84-7.813,4.056-7.813,4.056-39.037,1.714-43.081.431-63.085,1.68-63.085,1.68Z" transform="translate(431 -260) rotate(-180)" fill="#ff987f"/>
        </g>
      </g>
    </g>
  </g>
</svg>
