<svg xmlns="http://www.w3.org/2000/svg" xmlns:xlink="http://www.w3.org/1999/xlink" width="499.025" height="500" viewBox="0 0 499.025 500">
  <defs>
    <clipPath id="clip-path">
      <path id="Fill_5" data-name="Fill 5" d="M482.935,231.835c6.53-19.127,7.554-48.673,2.162-68.28-17.316-62.99-25.539-150.95-102.765-122.91-49.115,17.835-110.287,8.09-133.154-24.335-10.1-14.319-47.612-10.133-64.266-13.665C155.3-3.636,117.732.609,95.135,22.538c-12.157,11.8-26.427,24.187-36.022,41.4C9.542,152.888-3.565,301.764.777,349.524c4.357,47.92,44.552,107.19,130.412,100.965a124.921,124.921,0,0,1,71.5,16.752c36.535,21.127,94.607,26.079,154.931,9.5C448.358,451.8,509.826,387.6,494.907,333.334a62.317,62.317,0,0,0-5.088-12.771A111.771,111.771,0,0,1,482.935,231.835Z" transform="translate(0.887)" fill="none"/>
    </clipPath>
    <clipPath id="clip-path-2">
      <path id="Clip_111" data-name="Clip 111" d="M-264.524,25.085V48.649H0V25.085A25.119,25.119,0,0,0-25.148,0H-239.376a25.111,25.111,0,0,0-25.148,25.085" transform="translate(0.258 -0.639) rotate(-180)" fill="none"/>
    </clipPath>
    <clipPath id="clip-path-3">
      <path id="Clip_190" data-name="Clip 190" d="M-45.92,14.551c.414,3.936,7.889,4.512,11,5.034s10.874,7.7,14.294,9.249c1.822.826,3.356,3.044,4.967,8.929H-.118C.449,26.411-1.208,0-1.208,0S-18.526,3.412-31.092,6.253C-45.9,9.6-46.334,10.618-45.92,14.551" transform="translate(0.004 -0.001) rotate(-180)" fill="none"/>
    </clipPath>
  </defs>
  <g id="img-nona-sessao" transform="translate(500) rotate(180)">
    <path id="Fill_5-2" data-name="Fill 5" d="M489.681,238.918A111.77,111.77,0,0,1,482.8,150.19c6.53-19.127,7.554-48.673,2.162-68.28-17.316-62.99-97.407-100.52-174.633-72.48-70.8,25.711-88.139,131.781-142.506,120.25C39.95,102.561-6.106,193.692.639,267.879,5,315.8,45.191,375.068,131.051,368.843a124.921,124.921,0,0,1,71.5,16.752c36.535,21.127,94.607,26.079,154.931,9.5,90.74-24.939,152.208-89.146,137.289-143.407a62.315,62.315,0,0,0-5.088-12.771" transform="translate(500 -82) rotate(-180)" fill="#bff0ea"/>
    <path id="Fill_4" data-name="Fill 4" d="M-198.5,395C-88.872,395,0,306.575,0,197.5S-88.872,0-198.5,0-397,88.424-397,197.5-308.13,395-198.5,395Z" transform="translate(54 -105) rotate(-180)" fill="#bff0ea" opacity="0.22"/>
    <g id="Group_29" data-name="Group 29" transform="translate(499) rotate(-180)">
      <path id="Fill_5-3" data-name="Fill 5" d="M482.935,231.835c6.53-19.127,7.554-48.673,2.162-68.28-17.316-62.99-25.539-150.95-102.765-122.91-49.115,17.835-110.287,8.09-133.154-24.335-10.1-14.319-47.612-10.133-64.266-13.665C155.3-3.636,117.732.609,95.135,22.538c-12.157,11.8-26.427,24.187-36.022,41.4C9.542,152.888-3.565,301.764.777,349.524c4.357,47.92,44.552,107.19,130.412,100.965a124.921,124.921,0,0,1,71.5,16.752c36.535,21.127,94.607,26.079,154.931,9.5C448.358,451.8,509.826,387.6,494.907,333.334a62.317,62.317,0,0,0-5.088-12.771A111.771,111.771,0,0,1,482.935,231.835Z" transform="translate(0.887)" fill="none"/>
      <g id="Group_29-2" data-name="Group 29" clip-path="url(#clip-path)">
        <g id="Group_39" data-name="Group 39" transform="translate(430 69) rotate(180)">
          <g id="_18951" data-name="18951" transform="translate(0 -29)">
            <g id="Group_112" data-name="Group 112" transform="translate(0 -467.308)">
              <path id="Clip_111-2" data-name="Clip 111" d="M-264.524,25.085V48.649H0V25.085A25.119,25.119,0,0,0-25.148,0H-239.376a25.111,25.111,0,0,0-25.148,25.085" transform="translate(0.258 -0.639) rotate(-180)" fill="none"/>
            </g>
            <path id="Fill_113" data-name="Fill 113" d="M-23.032,459H-200.853c-12.719,0-23.029-9.109-23.029-20.343V20.345C-223.882,9.109-213.572,0-200.853,0H-23.032C-10.31,0,0,9.109,0,20.345V438.657C0,449.891-10.31,459-23.032,459" transform="translate(9.242 -4.967) rotate(-180)" fill="#587aa3"/>
            <path id="Fill_114" data-name="Fill 114" d="M-25.242,467h-214.04c-13.939,0-25.242-9.99-25.242-22.313V22.31c0-12.323,11.3-22.31,25.242-22.31h214.04C-11.3,0,0,9.987,0,22.31V444.687C0,457.01-11.3,467-25.242,467" transform="translate(0.263 -0.946) rotate(-180)" fill="#4f6d91"/>
            <path id="Fill_115" data-name="Fill 115" d="M-110.434,459.056H-.921c.147,0,.306,0,.487,0h-110Zm-67.993,0h51.914l-33.754,0c-12.688,0-23.01-9.122-23.01-20.334V20.4c0-11.217,10.322-20.343,23.01-20.343H-.434l-.113,0-.247,0H-178.427a24.456,24.456,0,0,0-16.268,5.959A19.1,19.1,0,0,0-201.433,20.4V438.711a19.1,19.1,0,0,0,6.739,14.384A24.457,24.457,0,0,0-178.427,459.054Z" transform="translate(59.566 -4.946) rotate(-180)" fill="#bee0fd"/>
            <path id="Fill_116" data-name="Fill 116" d="M-2.9,8.874S-5.13,3.461-5.95,2.224s1.743-3.913,3.351-.7S0,6.8,0,6.8L-2.9,8.874" transform="translate(216.97 -117.155) rotate(-180)" fill="#eea886"/>
            <path id="Fill_117" data-name="Fill 117" d="M-14.824,29.083-22.367,5.759a2.7,2.7,0,0,1,2.053-3.475L-8.962.051a2.706,2.706,0,0,1,3.153,2.02L-.075,26.018a2.7,2.7,0,0,1-2.18,3.287L-11.8,30.915a2.7,2.7,0,0,1-3.023-1.833" transform="translate(202.805 -102.036) rotate(-180)" fill="#525252"/>
            <path id="Fill_118" data-name="Fill 118" d="M-19.376,14.867s-.955-2.02,2.36-5.4C-12.61,4.975-6.433-.214-4.972.007c2.1.319,1.692,1.98-1.275,4.324s-3.948,3.1-3.948,3.1S-3.829,4.392-2.056,4.64.467,6.678-.506,7.37A29.58,29.58,0,0,1-3.964,9.18s2.838-.918,3.529.1c.513.755,1.049,1.906-1.418,3.366,0,0,2.533,1.333.3,3.592s-2.518,3.64-2.172,6.587-1.53,7.6-1.53,7.6l-8.6-.958s-1.578-7.7-2.7-9.495-2.828-5.1-2.828-5.1" transform="translate(201.334 -114.69) rotate(-180)" fill="#eea886"/>
            <path id="Fill_119" data-name="Fill 119" d="M-24.584,54.335c-3.933,5.883-9.086,12.1-13.237,12.044C-40.5,66.344-74.207,23.068-74.195,20.9c.018-2.454,12.406-5.837,12.406-5.837S-55.876,25.283-50.446,29.6-38.4,43.111-37.036,44.062s6.3-9.621,6.3-9.621c1.629-5.095,3.638-14.11,8.387-22.464S-6.952,0-6.952,0C13.8,9.3-18.525,44.1-18.525,44.1s-4.18,7.543-6.06,10.23" transform="translate(141.924 -124.215) rotate(-180)" fill="#ffca55"/>
            <path id="Fill_120" data-name="Fill 120" d="M-19.01,0s.213,64.894,0,79.861S0,43.9,0,43.9-10.252,12.148-19.01,0" transform="translate(150.385 -162.682) rotate(-180)" fill="#ffca55"/>
            <path id="Fill_121" data-name="Fill 121" d="M-14.457,6.473s-2.462,6.539-5.884,8.093-11.184,8.734-14.3,9.251-10.587,1.1-11,5.039.389,7.508,15.443,5.437S-.933,25.282-.933,25.282,2.106,10.069-2.785,2.557-14.457,6.473-14.457,6.473" transform="translate(169.509 -453.548) rotate(-180)" fill="#ffca55"/>
            <path id="Fill_122" data-name="Fill 122" d="M-13.57,9.383-10.75,0H0V10s-16.268,6.1-13.57-.618" transform="translate(170.396 -450.638) rotate(-180)" fill="#eea886"/>
            <path id="Fill_123" data-name="Fill 123" d="M0,0-18.621,29.275c.02-.074.617-2.2,1.626-8.362.193-1.171.4-2.486.62-3.959a10.454,10.454,0,0,1,.279-1.3C-12.269,6.861-.445.226-.013.005L0,0" transform="translate(149.028 -122.23) rotate(-180)" fill="#eddad3"/>
            <path id="Fill_124" data-name="Fill 124" d="M-16.042,15.547s-.516,1.067-.94,5.361l3.5-5.275S-7.226,6.689-5.087,4.365A35.613,35.613,0,0,1,0,0S-12.3,5.9-16.042,15.547" transform="translate(149.041 -122.235) rotate(-180)" fill="#ffca55"/>
            <path id="Fill_125" data-name="Fill 125" d="M-1.251,1.462c-.025-.233-.038-.368-.038-.39l.018.109.02.281" transform="translate(165.679 -179.003) rotate(-180)" fill="#2f4563"/>
            <path id="Fill_126" data-name="Fill 126" d="M-22.171.1S-7.537-.386-2.867,11.58s1.143,21.141-.185,25.5C-6.533,48.459-6.82,52.59-5.136,59.459c1.491,6.091,2.866,9.234,4.589,14.926s-1.151,5.059-1.4,5.475-56,12.4-56,12.4,1.771-14.237,5.46-19.844C-49.774,68.3-45.716,66.9-48.773,54.7s-5-17.861-3.283-26.71c1.984-10.253,3.234-16.657,12.9-23.379A26.028,26.028,0,0,1-22.171.1" transform="translate(110.253 -52.329) rotate(-180)" fill="#3b3b40"/>
            <path id="Fill_127" data-name="Fill 127" d="M-29.128,65.826a78.732,78.732,0,0,0,6.118,26.309s11.959,4.93,17.732-2.547C-3,86.646-1.019,76.753-.183,64.131,1.112,44.7-4.63,16.931-11.914,0c0,0-19.244,29.561-17.214,65.826" transform="translate(86.823 -139.133) rotate(-180)" fill="#323657"/>
            <path id="Fill_128" data-name="Fill 128" d="M-28.944,1.7A78.732,78.732,0,0,0-22.826,28s11.959,4.93,17.732-2.547C-2.818,22.515-.836,12.622,0,0L-28.944,1.7" transform="translate(87.006 -203.264) rotate(-180)" fill="#323657"/>
            <path id="Fill_129" data-name="Fill 129" d="M-.128,0S-16.44,11.725-21.874,39.7c0,0,15.308-29.911,20.3-35.241,0,0,2.109-2,1.448-4.456" transform="translate(143.869 -115.828) rotate(-180)" fill="#ffca55"/>
            <path id="Fill_131" data-name="Fill 131" d="M-23.841,26.95H-5.535C-.995,19.668.542,18.408-.164,15.863-.972,12.908-7.029,1.57-6.889.189s-8.423,5.14-8.423,5.14-1.054,6.783-2.734,8.838c-1.369,1.7-3.26,8.651-5.8,12.782" transform="translate(74.299 -437.012) rotate(-180)" fill="#fff5e0"/>
            <path id="Fill_132" data-name="Fill 132" d="M-11.045,8.1a17.68,17.68,0,0,1,2.609,4.877c.455,1.8,4.4,2.512,7.571-1.394A6.269,6.269,0,0,0-.014,7.834C-.148,5.505-2.818,0-2.818,0l-8.227,8.1" transform="translate(81.174 -429.37) rotate(-180)" fill="#eea886"/>
            <path id="Fill_133" data-name="Fill 133" d="M-4.408,50.109c-.564,2.707-4.154,14.029-8.179,26.608v0c-1.153,3.607-2.343,7.317-3.506,10.955-2.536,7.936-4.947,15.537-6.6,21.012-.9,2.978-1.58,5.328-1.928,6.757-2.317,9.454.285,24.284,1.128,36.678s-12.551,73.37-12.551,73.37c-3.158,1.47-17.173-2.421-17.173-2.421,2.317-4.41,5.43-80.319,4.167-85.15s-2.106-18.275-.841-23.529a20.608,20.608,0,0,0,.414-4.215c.107-6.628-1.263-17.59-2.1-29.607-1.057-15.124,4.84-52.728,5.684-56.091.074-.312.2-.74.353-1.275,1.552-5.275,6.547-20.249,6.547-20.249,10.13-3,17.76-3.548,23.451-2.393A17.423,17.423,0,0,1-1.783,12.336C3.166,26.01-3.681,46.6-4.408,50.109" transform="translate(132.311 -233.148) rotate(-180)" fill="#292c47"/>
            <path id="Fill_134" data-name="Fill 134" d="M0,212.857l-13.829,5.857c-1.743-8.4-40.365-66.769-42.905-73.281s-5.252-19.116-5.252-23.739c0-.824-.061-2.218-.178-4.022-.447-7.008-1.735-20.216-3.58-30.5-.343-1.919-.7-3.733-1.087-5.389-2.038-8.869-2.393-39.167-2.416-56.988-.01-7.931.043-13.388.043-13.388s.175-.139.508-.388c3.842-2.9,28.472-20.573,37.059-4.053A49.428,49.428,0,0,1-26.988,20.9c2.754,14.972,4.8,34.139,2.581,49.5-1.9,13.145-6.024,28.015-8.829,41.552-1.53,7.386-2.886,15.37-1.166,18.351,4.843,8.4,9.581,15.517,19.373,45.169C-11.842,185.118,0,212.857,0,212.857" transform="translate(79.153 -222.695) rotate(-180)" fill="#292c47"/>
            <path id="Fill_135" data-name="Fill 135" d="M-14.65,86.273C-12.4,95.236-.971,140-1.253,142.663c-.1,1-12.645,3.092-24.165,5.112-19.165,3.361-43.907-3.8-52.357-8.9l0-.01c.178-.659,11.5-42.835,12.338-47.7.844-4.9-1.019-23.278-1.443-28.459a38.926,38.926,0,0,0-1.944-7.629v0c-1.634-5.013-3.671-10.63-3.557-13.9a19.574,19.574,0,0,1,1.7-7.15v0a59.175,59.175,0,0,1,4.723-8.359c1.128-1.754,2.317-3.538,3.5-5.275,3.862-5.652,7.719-10.782,9.614-12.551a30.912,30.912,0,0,1,3.867-3.082l.01-.005a20.658,20.658,0,0,1,3.582-1.947h0c.262-.1.4-.15.4-.15L-28.266,0s1.784.641,4.3,1.493C-20.885,2.542-16.7,3.906-13.352,4.78l.01,0c.513.137,1.009.261,1.479.37A16.6,16.6,0,0,1-6,9.6c2.874,3.232,5.912,8.529,6,19.291.074,9.487-10.857,32.167-12.544,39.17S-16.9,77.308-14.65,86.273" transform="translate(100.073 -117.478) rotate(-180)" fill="#eb4747"/>
            <path id="Fill_136" data-name="Fill 136" d="M-1.3,23.321S-1.778,3.584-.091.408-20.5,13.621-20.5,13.621s.079.776.109,1.333l.013.284a21.163,21.163,0,0,1-.14,3.7c-.02.19-.043.406-.069.641a23.916,23.916,0,0,1-2.061,7.634c-2.429,5.069,21.34-3.9,21.34-3.9" transform="translate(123.387 -95.972) rotate(-180)" fill="#eea886"/>
            <path id="Fill_137" data-name="Fill 137" d="M-25.631,2.715S-36.838,19.9-33.042,21.4-8.725,19.4,0,3.078c0,0-13.047-6.676-25.631-.362" transform="translate(119.413 -117.419) rotate(-180)" fill="#eea886"/>
            <path id="Fill_138" data-name="Fill 138" d="M-18.715,28.39S-4.439,23.326,0,22.984c0,0-3.326-25.351-18.065-22.8s-.65,28.21-.65,28.21" transform="translate(99.832 -121.781) rotate(-180)" fill="#eddad3"/>
            <path id="Fill_139" data-name="Fill 139" d="M-29.442,2.426S-28.581,5.685-10.023,0l.874,4.2S-6.7,4.567,0,7.3c0,0-33.462,31.455-38.515,18.614S-30.72,5.672-30.72,5.672l1.278-3.247" transform="translate(114.726 -114.611) rotate(-180)" fill="#eb4747"/>
            <path id="Fill_140" data-name="Fill 140" d="M0,0-25.3,31.219a59.175,59.175,0,0,1,4.723-8.359c1.128-1.754,2.317-3.538,3.5-5.275C-13.214,11.933-9.358,6.8-7.462,5.034A30.912,30.912,0,0,1-3.6,1.952l.01-.005A20.658,20.658,0,0,1,0,0H0" transform="translate(145.446 -120.283) rotate(-180)" fill="#eb4747"/>
            <path id="Fill_141" data-name="Fill 141" d="M-21.523,59.792c-1.636-5.013-6.014-16.536-5.7-21.42a21.756,21.756,0,0,1,1.918-7.15v0a61.41,61.41,0,0,1,4.723-8.641c1.128-1.751,3.163-4.712,4.35-6.448,3.862-5.652,6.873-9.383,8.766-11.15a31.94,31.94,0,0,1,3.88-3.173A17.028,17.028,0,0,1,0,0H0S-26.657,24.005-21.523,59.792" transform="translate(145.446 -120.283) rotate(-180)" fill="#ffca55"/>
            <path id="Fill_142" data-name="Fill 142" d="M-8.419,0s-1.824,2.816-2.955,3.374S-13.8,6.57-13.8,6.57l7.228,5.292S-3.927,5.629-.616,3.675-8.419,0-8.419,0" transform="translate(101.167 -226.932) rotate(-180)" fill="#eea886"/>
            <path id="Fill_143" data-name="Fill 143" d="M-22.315,12.678S-28.227-4.274-40.492,1.026c-11.792,5.095,4.1,25.78,5.524,28.317s14.749,22.928,16.091,25.678c4.246,8.691,2.82,13,1.38,17.169-4.84,13.978-14.3,27.052-16.6,29.305s7.1,10.351,10.816,7.809c4.949-3.384,13.817-21,16.251-25,2.978-4.9,10.5-13.733,5.17-29.069C-5.45,44.908-22.315,12.678-22.315,12.678" transform="translate(76.328 -124.276) rotate(-180)" fill="#ffca55"/>
            <path id="Fill_144" data-name="Fill 144" d="M-15.524,0,0,12.43S-12.175,30.687-18.014,23.014-15.524,0-15.524,0" transform="translate(101.326 -228.316) rotate(-180)" fill="#dbcac3"/>
            <path id="Fill_145" data-name="Fill 145" d="M-86.743,43.775l0,.005C-84.187,16.493-62.322,0-62.322,0l.844,4.055c22.5,6.342,23.029,11.327,24.074,26.36.4,5.771-1.214,13.469-3.3,21.75-.846,3.361-1.776,6.821-2.673,10.285C-46.038,72.7-48.465,83.009-47.99,91.081-46.955,108.611,0,185.742,0,185.742c0,16.3-40.69,39.634-40.69,39.634,1.9-21.491-49.715-159.954-46.053-181.6" transform="translate(62.427 -114.35) rotate(-180)" fill="#ffca55"/>
            <path id="Fill_146" data-name="Fill 146" d="M-2.673,32.212v0C-9.683,24.005-13.809,0-13.809,0-9.634,11.72,0,21.927,0,21.927H0c-.846,3.361-1.776,6.821-2.673,10.285" transform="translate(103.135 -144.588) rotate(-180)" fill="#b38761"/>
            <path id="Fill_147" data-name="Fill 147" d="M0,34.95v0c-1.153,3.607-2.343,7.317-3.506,10.955C-9.139,24.2-10.117,0-10.117,0-8.407,13.494,0,34.95,0,34.95" transform="translate(144.897 -274.915) rotate(-180)" fill="#151624"/>
            <path id="Fill_148" data-name="Fill 148" d="M-1.458,72.3h0l.844-1.374-.118.192L0,69.93l-.611.994L0,69.93a44.594,44.594,0,0,1-8.3-7.169c-3.88-4.217-8.824-11.144-10.342-20.2C-20.765,29.946-15.8,16.2-3.883,1.7L-6.369,0c-6.1,7.419-10.458,14.836-12.968,22.047A42.1,42.1,0,0,0-21.39,43.055a39.648,39.648,0,0,0,4.357,12.437,46.544,46.544,0,0,0,6.542,9.074A46.2,46.2,0,0,0-1.459,72.3Z" transform="translate(102.403 -124.177) rotate(-180)" fill="#323657"/>
            <path id="Fill_149" data-name="Fill 149" d="M-.027,2.116A5.245,5.245,0,0,0-2.514.418a2.375,2.375,0,0,0,2.487,1.7" transform="translate(106.259 -123.758) rotate(-180)" fill="#323657"/>
            <path id="Fill_150" data-name="Fill 150" d="M-24.448,2.7S-40.589,13.21-35.343,38.625s24.3,11.436,26.375,10S-.5,31.277-.25,24.339C-.016,17.808,3.4-8.38-24.448,2.7" transform="translate(119.384 -57.392) rotate(-180)" fill="#eea987"/>
            <path id="Fill_151" data-name="Fill 151" d="M-24.776,10.169c1.685-.5,7.366,10.458,10.422,13.16s8.682,9.49,9.233,16.924S1.719,24.008-.456,15.218-5.537-6.456-25.207,3.764-39.794,32.255-39.794,32.255s6.512-19.582,15.018-22.087" transform="translate(117.947 -55.025) rotate(-180)" fill="#3b3b40"/>
            <path id="Fill_152" data-name="Fill 152" d="M-7.074,3.489C-6.554.48.1-2.062,0,2.455s-3.768,9.733-5.846,9.4-1.71-5.6-1.227-8.369" transform="translate(122.017 -79.244) rotate(-180)" fill="#eea987"/>
            <path id="Fill_153" data-name="Fill 153" d="M-15.549,8.9h.033C-3.831,8.757,0,0,0,0-8.1,6.093-14.574,5.082-15.422,4.912l.013.284a21.163,21.163,0,0,1-.14,3.7" transform="translate(128.352 -106.013) rotate(-180)" fill="#a87860"/>
            <path id="Fill_154" data-name="Fill 154" d="M-40.72,459h17.689C-10.318,459,0,449.9,0,438.666V20.343C0,9.1-10.318,0-23.032,0H-40.847c12.554.168,22.668,9.21,22.668,20.341V438.661c0,11.091-10.046,20.107-22.541,20.339" transform="translate(18.846 -4.946) rotate(-180)" fill="#85b7e1"/>
            <path id="Fill_155" data-name="Fill 155" d="M-182.672,459h33.792a22.93,22.93,0,0,0,1.89-3.38c.015-.036.033-.072.048-.11l.948-2.787c-1.517-.334-2.51-.579-2.51-.579,2.317-3.9,5.43-71.114,4.167-75.392s-2.106-16.18-.841-20.832a16.236,16.236,0,0,0,.414-3.732c.107-5.868-1.263-15.574-2.1-26.214-1.057-13.391,4.84-46.685,5.684-49.663.074-.276.2-.655.353-1.129l0-.009c.117-.379,4.947-16.3,8.539-28.579.015-11.367-.01-25.691-.038-36.781-3.361,3.878-7.145,7.148-10.343,7.148h-.058c-2.678-.031-36.386-38.348-36.373-40.269,0-.352.328-.725.874-1.1-.3-1.248-1.649-6.746-2.637-8.153-1.12-1.591-2.828-4.517-2.828-4.517s-.61-1.14.836-3.126a62.361,62.361,0,0,0-3.046-5.886c-.422-.566.051-1.468.831-1.82l-3.082-8.436a2.388,2.388,0,0,1,2.053-3.077l11.352-1.977a3.2,3.2,0,0,1,.526-.045,2.659,2.659,0,0,1,2.627,1.833l2.546,9.414c1.222.242,1.408.965.544,2.011l.6,2.228a6.164,6.164,0,0,1,1.3-.189,1.828,1.828,0,0,1,.229.013c1.771.22,2.523,1.8,1.55,2.417a18.949,18.949,0,0,1-2.185,1.07l.069.258a6.758,6.758,0,0,1,.854-.063,1.671,1.671,0,0,1,1.334.426c.5.658,1.034,1.654-1.3,2.917l.041.148c.521.305,2.025,1.409.145,3.095-2.228,2-2.518,3.223-2.172,5.833a7.019,7.019,0,0,1-.056,1.917c.859-.229,1.4-.359,1.4-.359s5.912,9.051,11.342,12.87,12.048,11.966,13.41,12.807a.349.349,0,0,0,.2.054c1.583,0,6.1-8.573,6.1-8.573a17.558,17.558,0,0,1,1.918-6.331v0q.3-.609.638-1.243c.554-1.555,1.184-3.2,1.916-4.888.051-.357,1.822-12.67,5.458-17.56,2.708-3.647,6.766-4.883,3.709-15.689s-5-15.814-3.283-23.649c1.984-9.078,3.234-14.748,12.9-20.7a28.558,28.558,0,0,1,14.779-4.08c.772,0,1.512.034,2.208.092,0,0,.084,0,.241,0,1.918,0,14.746.37,19.063,10.164,4.67,10.595,1.143,18.718-.185,22.574-3.481,10.078-3.768,13.736-2.083,19.818a97.815,97.815,0,0,0,3.224,9.437c.084.031.163.063.244.1.313.114.617.24.912.379.808.348,1.552.7,2.241,1.059a5.268,5.268,0,0,1,2.48,1.5,13.968,13.968,0,0,1,2.625,2.356,23.865,23.865,0,0,1,5.021,7.455S-44.753,198-41.163,207.15c5.33,13.579-2.193,21.4-5.17,25.738-.978,1.425-3,4.8-5.384,8.516-.935,4.562-2.1,7.877-3.359,9.315a10.678,10.678,0,0,1-6.293,3.391,8.65,8.65,0,0,1-1.214.911C-48.424,280.427-25.4,313.91-25.4,313.91c0,14.432-40.69,35.092-40.69,35.092.343-3.445-1.07-10.292-3.588-19.3q-.949.024-1.918.058c-1.316,4.991-2.645,9.966-3.765,14.751-1.53,6.539-2.886,13.608-1.166,16.248,4.843,7.442,9.581,13.739,19.373,39.993,3.186,8.537,15.028,33.1,15.028,33.1l-2.139.8a4.682,4.682,0,0,1,.1.577.178.178,0,0,1,.005.083v0c.005.056.008.112.01.166.287,1.78,5.938,11.187,6.715,13.709.706,2.253-.831,3.368-5.371,9.816H-61.115c2.536-3.658,4.426-9.816,5.8-11.317,1.664-1.8,2.716-7.724,2.734-7.823a8.466,8.466,0,0,0-.826-1.782l-2.546.954c-1.743-7.437-40.365-59.117-42.905-64.882s-5.252-16.925-5.252-21.019c0-.729-.061-1.964-.178-3.561-.267-3.7-.831-9.345-1.636-15.231-2.363.622-4.688,1.32-6.954,2.105-1.967,5.471-3.776,10.55-5.1,14.425-.9,2.637-1.58,4.717-1.928,5.983-2.317,8.371.285,21.5,1.128,32.475s-12.551,64.961-12.551,64.961a5.893,5.893,0,0,1-2.04.292v1.474a20.748,20.748,0,0,1,.617,2.947H-22.541C-10.046,458.769,0,449.752,0,438.661V20.341C0,9.21-10.115.168-22.668,0h-160c-12.727,0-23.034,9.1-23.034,20.343V438.666c0,11.23,10.308,20.334,23.034,20.334" transform="translate(37.025 -4.946) rotate(-180)" fill="#d2effe"/>
            <path id="Fill_156" data-name="Fill 156" d="M-.409,8.7c.122-.19.257-.385.409-.585L-2.625,0a1.581,1.581,0,0,0-.831,2.056c.813,1.222,3,6.529,3.046,6.648" transform="translate(219.465 -117.323) rotate(-180)" fill="#f3d4de"/>
            <path id="Fill_157" data-name="Fill 157" d="M-15.51,23.4h0a13.542,13.542,0,0,1,1.114-1.283c4.486-4.572,10.357-9.466,11.947-9.466a.5.5,0,0,1,.1.007c.093.014.181.031.238.043L-4.658,2.071A2.69,2.69,0,0,0-7.285,0,2.918,2.918,0,0,0-7.81.05L-19.162,2.283a2.714,2.714,0,0,0-1.812,1.285,2.693,2.693,0,0,0-.241,2.19Zm14.187-1.576A9.5,9.5,0,0,1,0,21.524l-.068-.292c-.386.189-.8.386-1.24.585l-.016.007Zm-6.242-1.744a48.554,48.554,0,0,1,6.6-2.592l-.6-2.517a10.9,10.9,0,0,1-2.057,2.011c-2.794,2.207-3.832,3.012-3.941,3.1Z" transform="translate(203.956 -102.037) rotate(-180)" fill="#87a9d0"/>
            <path id="Fill_158" data-name="Fill 158" d="M-13.911,29.178c2.119-1.663,7.554-3.417,10.132-4.187a8.942,8.942,0,0,0,.056-2.165c-.346-2.948-.056-4.324,2.172-6.587,1.88-1.9.376-3.151-.145-3.5-.1-.063-.158-.1-.158-.1.041-.023.079-.048.117-.071,2.335-1.427,1.8-2.552,1.3-3.3A1.556,1.556,0,0,0-1.768,8.8a6,6,0,0,0-.854.071,9.331,9.331,0,0,0-1.342.309s.572-.256,1.273-.6A18.149,18.149,0,0,0-.506,7.371c.973-.692.221-2.481-1.55-2.73a1.623,1.623,0,0,0-.229-.015,5.506,5.506,0,0,0-1.3.213,48.38,48.38,0,0,0-6.608,2.6s.981-.758,3.948-3.1A10.921,10.921,0,0,0-4.19,2.322c.864-1.181.678-2-.544-2.271C-4.81.035-4.888.02-4.972.008A.574.574,0,0,0-5.069,0C-6.687,0-12.7,5.067-17.015,9.467a13.318,13.318,0,0,0-1.115,1.285c-.152.2-.287.4-.409.585-1.446,2.243-.836,3.531-.836,3.531s1.707,3.305,2.828,5.1c.988,1.589,2.337,7.8,2.637,9.208" transform="translate(201.334 -114.689) rotate(-180)" fill="#f3d4de"/>
            <path id="Fill_159" data-name="Fill 159" d="M-12.808,51.318h.059c2.752,0,6.232-2.716,10.344-8.072l0-1.159c-.007-3.06-.014-5.879-.021-8.351-1.52-4.577-3.515-11.045-3.3-14.356-.045.1-4.525,9.682-6.1,9.682a.324.324,0,0,1-.2-.061,32.091,32.091,0,0,1-3.185-3.586c-2.684-3.229-6.739-8.109-10.225-10.879C-30.8,10.272-36.716.1-36.775,0h0l-.045.012c-.427.119-.883.252-1.355.394-2.328.7-7.977,2.5-10.133,4.187-.577.45-.871.869-.874,1.245C-49.188,6.947-40.452,18.678-32,29.378-24.021,39.488-14.2,51.3-12.808,51.318Zm9.643-40.509A61.774,61.774,0,0,1,0,5.041l-1.257.272a.045.045,0,0,1,0-.01c-.658,1.711-1.282,3.512-1.911,5.506Z" transform="translate(166.938 -139.275) rotate(-180)" fill="#ffe5d1"/>
            <path id="Fill_160" data-name="Fill 160" d="M-4.015,51.052c1.931-7.457,3.506-13.72,3.8-15.421.844-4.9-1.019-23.278-1.443-28.459l.02.281c-.025-.233-.038-.368-.038-.39l.018.109a12.09,12.09,0,0,0-.178-1.29c.051.393.1.786.16,1.181C-2.249,5.315-3.154,2.775-4.076,0c.008,2.78.015,6,.023,9.51.028,12.526.053,28.7.038,41.542" transform="translate(165.291 -173.011) rotate(-180)" fill="#ffe5d1"/>
            <path id="Fill_161" data-name="Fill 161" d="M-16.126,3.817H0A26.1,26.1,0,0,0-.617.489V.494S-7.383,3.029-11.464,3.029c-2.208,0-3.631-.74-2.772-3.029a27.073,27.073,0,0,1-1.89,3.817" transform="translate(169.778 -460.145) rotate(-180)" fill="#ffe5d1"/>
            <path id="Fill_162" data-name="Fill 162" d="M-10.846,6.3C-6.766,6.3,0,3.766,0,3.766V2.1c-.061,0-.124,0-.191,0C-3.628,2.1-9.347.814-12.622,0l-.948,3.148c-.015.043-.033.084-.048.124-.859,2.289.564,3.029,2.772,3.029" transform="translate(170.396 -456.873) rotate(-180)" fill="#f3d4de"/>
            <path id="Fill_163" data-name="Fill 163" d="M-1.251,1.462l-.02-.281-.018-.109c0,.023.013.157.038.39" transform="translate(165.679 -179.003) rotate(-180)" fill="#6ea2d5"/>
            <path id="Fill_164" data-name="Fill 164" d="M-56.162,91.989c.3-.482.6-.968.915-1.455,1.128-1.751,3.163-4.712,4.35-6.448,3.862-5.652,6.873-9.383,8.766-11.15l.058-.056A45.96,45.96,0,0,1-33.222,63.5c.01-.091.02-.182.028-.274.025-.236.048-.451.069-.641a20.06,20.06,0,0,0,.16-2.436c0-.34-.008-.74-.02-1.267L-33,58.6c-4.545-.887-8.854-4.75-10.953-14.911a45.153,45.153,0,0,1-.783-14.43c-1.42,3.262-2.231,5.693-2.231,5.693S-52.048,16.68-32.378,6.461C-27.236,3.789-23.242,2.7-20.1,2.7c8.865,0,9.887,9,11.5,15.5,1.888,7.624-1.614,26.182-3.195,26.182-.241,0-.414-.441-.488-1.424-.107.289-.213.578-.323.864a.758.758,0,0,1-.089.238l-.008.015c-.081.215-.165.431-.249.644-.91,3.034-1.034,11.733-1.014,17.311l.844,4.055a86.9,86.9,0,0,1,11.741,4.04c-1.131-3.4-2.147-6.258-3.224-10.658-1.685-6.869-1.4-11,2.083-22.383,1.329-4.354,4.855-13.53.185-25.5C-6.661.52-19.489.1-21.407.1c-.158,0-.241,0-.241,0-.7-.066-1.436-.1-2.208-.1A26.1,26.1,0,0,0-38.636,4.608c-9.662,6.722-10.912,13.127-12.9,23.379-1.712,8.848.224,14.511,3.283,26.71s-1,13.6-3.709,17.719c-3.636,5.523-5.407,19.43-5.458,19.833a.04.04,0,0,0,0,.01Z" transform="translate(110.776 -52.328) rotate(-180)" fill="#3b3b40"/>
            <path id="Fill_165" data-name="Fill 165" d="M-10.02,41.106c1.9-.111,5.6-3.781,5.6-3.781,1.1-2.393,2.111-4.869,2.98-7.373C0,25.785,1.423,21.473-2.822,12.782-3.488,11.418-7.1,5.713-10.752,0c-.846,3.361-1.776,6.821-2.673,10.285-1.062,4.1-2.088,8.207-2.907,12.179a42.2,42.2,0,0,0,6.309,5.128l-.473.771-.983,1.6a40.793,40.793,0,0,1-5.483-4.22,60.1,60.1,0,0,0-1.108,12.382S-12.664,41.26-10.02,41.106Z" transform="translate(92.383 -166.515) rotate(-180)" fill="#66b2ff"/>
            <path id="Fill_166" data-name="Fill 166" d="M-9.653,28.712h0a10.362,10.362,0,0,0,6.29-3.829c1.239-1.6,2.4-5.239,3.359-10.521-4.2,7.39-7.354,12.084-9.65,14.348Zm-7.533-12.637v0A113.95,113.95,0,0,0-8.064,0L-21.711.8V.837c.01.247.021.5.035.755.176,2.956,1.686,7.828,4.488,14.481Z" transform="translate(88.742 -203.839) rotate(-180)" fill="#66b2ff"/>
            <path id="Fill_167" data-name="Fill 167" d="M-8.852,9.381A31.641,31.641,0,0,1-5.031,6.263a17.028,17.028,0,0,1,3.58-1.807h0L-.17,1.209C-.1.8-.046.4,0,0A45.96,45.96,0,0,0-8.852,9.381" transform="translate(143.998 -115.828) rotate(-180)" fill="#ffe5d1"/>
            <path id="Fill_170" data-name="Fill 170" d="M-5.929,7.338A6.761,6.761,0,0,0-.866,4.494,6.216,6.216,0,0,0,0,.935c0-.061-.005-.124-.01-.188v0c0-.03,0-.061-.005-.094A5.916,5.916,0,0,0-.119,0L-9.263,3.875a10.188,10.188,0,0,1,.826,2.012,2.389,2.389,0,0,0,2.508,1.45" transform="translate(81.173 -436.456) rotate(-180)" fill="#f3d4de"/>
            <path id="Fill_171" data-name="Fill 171" d="M-25.689,202.62c.066,0,.13,0,.191,0a5.277,5.277,0,0,0,2.04-.329s13.395-60.975,12.551-73.37-3.445-27.224-1.128-36.678c.348-1.43,1.026-3.779,1.928-6.757,1.321-4.377,3.13-10.113,5.1-16.293q.739-2.327,1.5-4.719c-5.633-21.709-6.611-45.907-6.611-45.907C-8.407,32.058,0,53.513,0,53.513v0c-.343-1.919-.7-3.733-1.087-5.389-1.448-6.3-2.048-23.438-2.279-39.218C-16.032,7.178-27.671,3.189-32.951,0c-.152.535-.279.963-.353,1.275-.844,3.363-6.741,40.967-5.684,56.091.833,12.017,2.2,22.979,2.1,29.607a20.608,20.608,0,0,1-.414,4.215c-1.265,5.254-.422,18.7.841,23.529s-1.85,80.74-4.167,85.15c0,0,.993.276,2.51.654,3.275.814,8.994,2.1,12.432,2.1" transform="translate(144.897 -256.352) rotate(-180)" fill="#6b96cd"/>
            <path id="Fill_173" data-name="Fill 173" d="M-3.468,134.626,0,134.02C-13.611,89.34-29.219,39.738-27.148,27.5a57.159,57.159,0,0,1,3.483-14.929,11.41,11.41,0,0,1-2.835.406A4.626,4.626,0,0,1-31.218,9.9,14.79,14.79,0,0,1-31.8,0l-2.312,2.851c-6.606,10.306-13.4,26.1-10.989,45.415a12.091,12.091,0,0,1,.178,1.29c.424,5.181,2.287,23.559,1.443,28.459-.292,1.7-1.867,7.964-3.8,15.421-3.593,13.864-8.423,31.85-8.539,32.278l0,.01c5.28,3.189,16.919,7.178,29.584,8.907a90.034,90.034,0,0,0,12.081.862A62.223,62.223,0,0,0-3.468,134.626Z" transform="translate(122.023 -130.627) rotate(-180)" fill="#41cfb8"/>
            <path id="Fill_175" data-name="Fill 175" d="M-.814,1.481c-.295-.157-.6-.3-.912-.428.313.142.617.284.912.428" transform="translate(110.194 -121.501) rotate(-180)" fill="#f3edf3"/>
            <path id="Fill_176" data-name="Fill 176" d="M-23.24,28.829a11.41,11.41,0,0,0,2.835-.406A71.2,71.2,0,0,1,0,0C-8.311,2.514-12.97,3.194-15.582,3.194c-3,0-3.293-.895-3.3-.93L-20.163,5.51l-8.382,10.344a14.79,14.79,0,0,0,.587,9.9,4.626,4.626,0,0,0,4.718,3.08" transform="translate(125.282 -114.773) rotate(-180)" fill="#25bfa6"/>
            <path id="Fill_178" data-name="Fill 178" d="M-21.523,59.792c-.058-.4-.109-.788-.16-1.181C-24.094,39.3-17.3,23.5-10.694,13.2A70.279,70.279,0,0,1,0,0H0a17.028,17.028,0,0,0-3.58,1.807A31.641,31.641,0,0,0-7.4,4.925l-.058.056c-1.893,1.767-4.9,5.5-8.766,11.15-1.187,1.736-3.222,4.7-4.35,6.448-.313.487-.617.973-.915,1.455a61.831,61.831,0,0,0-3.171,5.781q-.339.715-.638,1.4v0a21.756,21.756,0,0,0-1.918,7.15c-.208,3.181,1.578,9.175,3.3,14.356.922,2.775,1.827,5.315,2.4,7.064" transform="translate(145.446 -120.283) rotate(-180)" fill="#ffe5d1"/>
            <path id="Fill_179" data-name="Fill 179" d="M-23.281,105.047h0a8.822,8.822,0,0,0,1.214-1.029c2.858-2.818,6.563-8.912,9.652-14.351,2.386-4.2,4.406-8.009,5.384-9.619,2.978-4.9,10.5-13.733,5.17-29.07C-5.45,40.65-22.315,8.42-22.315,8.42A27.6,27.6,0,0,0-27.336,0c2.929,3.888,3.318,8.848,3.831,16.232.4,5.769-1.214,13.466-3.3,21.75,3.649,5.713,7.264,11.418,7.93,12.782,4.246,8.691,2.82,13,1.38,17.169-.869,2.5-1.885,4.981-2.98,7.373A113.254,113.254,0,0,1-29.6,91.38c1.743,4.134,3.9,8.767,6.319,13.667" transform="translate(76.328 -128.534) rotate(-180)" fill="#339d89"/>
            <path id="Fill_180" data-name="Fill 180" d="M-40.69,225.375h0a204.289,204.289,0,0,0,20.343-13.7,94.478,94.478,0,0,0,13.987-12.86C-2.139,193.857,0,189.46,0,185.742c-.23-.377-23.105-37.986-37.181-66.511-2.548-5.167-4.674-9.765-6.319-13.667-2.8-6.653-4.314-11.526-4.49-14.483-.015-.264-.025-.533-.035-.794a59.571,59.571,0,0,1,1.108-12.381c-5.5-4.929-12.465-13.271-14.45-25.025-2.3-13.638,2.751-28.123,15.021-43.055l0,0c-.695-.409-1.449-.811-2.24-1.2-.266-.13-.564-.27-.913-.428-.1-.046-.171-.078-.244-.109a87.253,87.253,0,0,0-11.741-4.04L-62.321,0a.447.447,0,0,0-.041.031c-.07.055-.235.183-.493.392a67.437,67.437,0,0,0-8.9,8.961,68.174,68.174,0,0,0-11.5,19.463,57.374,57.374,0,0,0-3.486,14.934l0-.006C-88.663,55.122-75.413,98.5-62.6,140.45c.987,3.233,2.008,6.576,3.005,9.847,4.983,16.363,10.611,35.02,14.324,49.36.363,1.4.688,2.683.994,3.919,2.733,11.046,3.906,18.177,3.588,21.8Zm-5.6-150.746v0c.853-4.139,1.947-8.478,2.906-12.177-3.621-4.24-6.456-12.772-8.2-19.184-1.89-6.96-2.929-12.968-2.939-13.028A63.736,63.736,0,0,0-46.048,45.6a74.784,74.784,0,0,0,5.338,6.568c.285-1.127,1.751-1.316,3.169-1.5s2.767-.358,3-1.4c.895-4.083.01-9.759-.7-14.319-.291-1.865-.541-3.475-.627-4.7-.059-.848-.1-1.651-.144-2.429-.075-1.392-.145-2.706-.293-3.947-.451-3.775-2.624-6.642-4.541-9.172l-.385-.509a14.62,14.62,0,0,0-2.624-2.661c-5.87,7.145-10.1,14.216-12.577,21.018a38.841,38.841,0,0,0-2.182,19.85c1.7,10.161,7.646,17.7,12.331,22.237Z" transform="translate(62.427 -114.35) rotate(-180)" fill="#339d89"/>
            <path id="Fill_181" data-name="Fill 181" d="M-2.673,32.212c.9-3.465,1.827-6.925,2.673-10.285H0S-9.634,11.72-13.809,0c0,0,4.126,24.005,11.136,32.21v0" transform="translate(103.135 -144.588) rotate(-180)" fill="#cac4d4"/>
            <path id="Fill_182" data-name="Fill 182" d="M-3.506,45.907C-2.343,42.27-1.153,38.559,0,34.952v0S-8.407,13.494-10.117,0c0,0,.978,24.2,6.611,45.907" transform="translate(144.897 -274.915) rotate(-180)" fill="#5c8bc4"/>
            <path id="Fill_184" data-name="Fill 184" d="M-.027,2.116h0l0,0A5.267,5.267,0,0,0-2.509.421a.009.009,0,0,1-.005,0,2.375,2.375,0,0,0,2.487,1.7" transform="translate(106.259 -123.758) rotate(-180)" fill="#719bd2"/>
            <path id="Fill_185" data-name="Fill 185" d="M-18.682,45.915a18.346,18.346,0,0,0,5.432-.877,31.49,31.49,0,0,0,7.965-4.2c.958-.667,2.843-4.433,4.617-8.975.084-.213.168-.428.249-.644.033-.086.064-.17.1-.253.109-.286.216-.575.323-.864a19.964,19.964,0,0,0-1.629-6.349c-1,1.326-2.1,2.19-2.975,2.19a1.215,1.215,0,0,1-.193-.015c-2.076-.33-1.71-5.6-1.227-8.369a2.6,2.6,0,0,1,.226-.692,29.269,29.269,0,0,0-3.435-3.688C-12.221,10.534-17.722,0-19.538,0a.353.353,0,0,0-.117.018c-5.508,1.622-10.181,10.4-12.788,16.394a45.153,45.153,0,0,0,.783,14.43c2.1,10.161,6.408,14.024,10.953,14.911v0a10.848,10.848,0,0,0,2.025.165" transform="translate(123.067 -65.176) rotate(-180)" fill="#ff987f"/>
            <path id="Fill_186" data-name="Fill 186" d="M-1.4,15.773C-1.471,15.505.066,13.271,0,13-1.586,6.614-5.474,0-13.973,0c-3.138,0-7.041,1.648-12.183,4.319-19.67,10.22-14.586,28.492-14.586,28.492s.81-2.431,2.231-5.693c2.607-5.989,7.279-14.772,12.788-16.394a.353.353,0,0,1,.117-.018c1.817,0,7.317,10.534,10.305,13.177a29.269,29.269,0,0,1,3.435,3.688,5.722,5.722,0,0,1,4.632-2.8A2.088,2.088,0,0,1-5.02,27.23,13.355,13.355,0,0,1-7.7,34.458a19.964,19.964,0,0,1,1.629,6.349c.036.484-.07,1.34,0,1.762s.323.428.445.429C-4.044,43,.483,23.4-1.4,15.773Z" transform="translate(116.998 -54.469) rotate(-180)" fill="#3b3b40"/>
            <path id="Fill_187" data-name="Fill 187" d="M-2.681,9.934A13.355,13.355,0,0,0,0,2.7C.035.936-.323,0-1.58,0c-1.7,0-4.528,1.511-5.27,3.047a2.6,2.6,0,0,0-.226.692c-.483,2.773-.849,8.04,1.227,8.369a1.215,1.215,0,0,0,.193.015C-4.784,12.123-3.679,11.259-2.681,9.934Z" transform="translate(122.015 -78.994) rotate(-180)" fill="#ff987f"/>
            <path id="Fill_188" data-name="Fill 188" d="M-15.549,8.9h.033C-3.831,8.757,0,0,0,0A26.2,26.2,0,0,1-7.965,4.2a18.346,18.346,0,0,1-5.432.877,10.848,10.848,0,0,1-2.025-.165v0l.013.281c.013.527.02.928.02,1.267a20.06,20.06,0,0,1-.16,2.436" transform="translate(128.352 -106.013) rotate(-180)" fill="#ff987f"/>
            <g id="Group_191" data-name="Group 191" transform="translate(169.23 -478.822)">
              <path id="Clip_190-2" data-name="Clip 190" d="M-45.92,14.551c.414,3.936,7.889,4.512,11,5.034s10.874,7.7,14.294,9.249c1.822.826,3.356,3.044,4.967,8.929H-.118C.449,26.411-1.208,0-1.208,0S-18.526,3.412-31.092,6.253C-45.9,9.6-46.334,10.618-45.92,14.551" transform="translate(0.004 -0.001) rotate(-180)" fill="none"/>
            </g>
            <path id="Fill_210" data-name="Fill 210" d="M0,46.472l-32.845-22.96V0H-35V24.409L-1.527,48Z" transform="translate(279 -282) rotate(-180)" fill="#339d89"/>
            <path id="Fill_210-2" data-name="Fill 210" d="M0,46.472l-32.845-22.96V0H-35V24.409L-1.527,48Z" transform="translate(279 -144) rotate(-180)" fill="#339d89"/>
            <path id="Fill_211" data-name="Fill 211" d="M-42.7,92.261s18.019-3.87,33.6-7.292C-8.815,79.979-8.335,75-7.659,70.2a115.1,115.1,0,0,1,3.138-15.38h.01c.5-1.782,1.057-3.49,1.657-5.107A46.247,46.247,0,0,0-.24,37.777c.1-.991.152-1.982.2-2.968a66.065,66.065,0,0,0-.163-7.632A89.548,89.548,0,0,0-4.979,5.149c-.328-.935-.633-1.751-.894-2.436C-6.506,1.041-6.93.1-6.93.1A26.078,26.078,0,0,0-23.915,4.6c-9.665,6.727-10.918,13.129-12.9,23.377-1.71,8.851.229,14.513,3.278,26.715,3.064,12.2-.991,13.6-3.7,17.719-3.694,5.609-5.46,19.846-5.46,19.846" transform="translate(125.497 -52.329) rotate(-180)" fill="#3b3b40"/>
            <path id="Fill_212" data-name="Fill 212" d="M-2.9,8.874S-5.13,3.461-5.95,2.224s1.743-3.913,3.351-.7S0,6.8,0,6.8L-2.9,8.874" transform="translate(216.97 -117.155) rotate(-180)" fill="#ff987f"/>
            <path id="Fill_213" data-name="Fill 213" d="M-14.823,29.083-22.366,5.759a2.7,2.7,0,0,1,2.053-3.475L-8.961.051a2.706,2.706,0,0,1,3.153,2.02L-.074,26.018a2.7,2.7,0,0,1-2.18,3.287L-11.8,30.915a2.7,2.7,0,0,1-3.023-1.833" transform="translate(202.805 -102.036) rotate(-180)" fill="#525252"/>
            <path id="Fill_214" data-name="Fill 214" d="M-19.376,14.867s-.955-2.02,2.36-5.4C-12.61,4.975-6.433-.214-4.972.007c2.1.319,1.692,1.98-1.275,4.324s-3.948,3.1-3.948,3.1,6.367-3.044,8.141-2.8S.467,6.678-.506,7.37A29.175,29.175,0,0,1-3.964,9.18s2.838-.918,3.529.1c.513.755,1.049,1.906-1.418,3.366,0,0,2.533,1.333.3,3.592s-2.518,3.64-2.172,6.587-1.53,7.6-1.53,7.6l-8.6-.958s-1.578-7.7-2.7-9.495-2.828-5.1-2.828-5.1" transform="translate(201.334 -114.69) rotate(-180)" fill="#ff987f"/>
            <path id="Fill_215" data-name="Fill 215" d="M-37.822,66.379C-40.5,66.344-74.207,23.068-74.195,20.9c.018-2.454,12.406-5.837,12.406-5.837S-55.876,25.283-50.446,29.6-38.4,43.114-37.036,44.064s6.3-9.624,6.3-9.624c1.629-5.095,3.638-14.11,8.387-22.464S-6.952,0-6.952,0C13.8,9.3-18.525,44.1-18.525,44.1s-4.18,7.543-6.06,10.23C-28.52,60.217-33.67,66.437-37.822,66.379Z" transform="translate(141.924 -124.215) rotate(-180)" fill="#339d89"/>
            <path id="Fill_216" data-name="Fill 216" d="M-.127,0S-16.439,11.725-21.874,39.7c0,0,15.308-29.911,20.3-35.241,0,0,2.106-2,1.448-4.456" transform="translate(143.87 -115.828) rotate(-180)" fill="#339d89"/>
            <path id="Fill_217" data-name="Fill 217" d="M-19.01,0s.213,64.894,0,79.861S0,43.9,0,43.9-10.252,12.148-19.01,0" transform="translate(150.385 -162.682) rotate(-180)" fill="#339d89"/>
            <path id="Fill_219" data-name="Fill 219" d="M-14.457,6.473s-2.462,6.539-5.884,8.093-11.187,8.734-14.3,9.251-10.587,1.1-11,5.039.389,7.508,15.443,5.437S-.933,25.282-.933,25.282,2.106,10.069-2.785,2.557-14.457,6.473-14.457,6.473" transform="translate(169.509 -453.548) rotate(-180)" fill="#fff5e0"/>
            <path id="Fill_220" data-name="Fill 220" d="M-13.57,9.383-10.75,0H0V10s-16.268,6.1-13.57-.618" transform="translate(170.396 -450.638) rotate(-180)" fill="#eea886"/>
            <path id="Fill_221" data-name="Fill 221" d="M-4.408,50.109c-.564,2.707-4.154,14.029-8.179,26.608v0c-1.153,3.607-2.343,7.317-3.506,10.955-2.536,7.936-4.947,15.537-6.6,21.012-.9,2.978-1.578,5.328-1.928,6.757-2.317,9.454.285,24.284,1.128,36.678s-12.551,73.37-12.551,73.37c-3.158,1.47-17.173-2.421-17.173-2.421,2.317-4.41,5.43-80.317,4.167-85.15s-2.106-18.275-.841-23.529a20.608,20.608,0,0,0,.414-4.215c.107-6.628-1.263-17.588-2.1-29.607-1.054-15.124,4.843-52.728,5.686-56.091.074-.312.2-.743.353-1.275,1.552-5.275,6.55-20.249,6.55-20.249C-28.86-.049-21.23-.593-15.539.562A17.423,17.423,0,0,1-1.783,12.336C3.166,26.01-3.681,46.6-4.408,50.109" transform="translate(132.311 -233.148) rotate(-180)" fill="#292c47"/>
            <path id="Fill_222" data-name="Fill 222" d="M-27.709,81.027c.384,1.663.742,3.477,1.09,5.391,1.842,10.283,3.13,23.5,3.575,30.5.119,1.817.175,3.209.175,4.035,0,4.618,2.714,17.228,5.252,23.737,1.087,2.813,8.923,15.3,17.617,29.27-3.192-30.56-3.78-64.115-3.75-83.394,0-1.594-.062-2.761,0-4.144.024-.538-.02-2.287,0-2.859C-3.391,73.383-7,58.516-7.564,41.867c-.173-4.968-.381-10.042-.607-15.129C-8.585,17.661-9.088,8.542-9.632,0c-8.86,2.195-17.77,8.62-19.95,10.27-.328.251-.5.38-.5.38s-.056,5.47-.046,13.39C-30.105,41.867-29.755,72.158-27.709,81.027Z" transform="translate(118.273 -223.445) rotate(-180)" fill="#292c47"/>
            <path id="Fill_223" data-name="Fill 223" d="M-53.036,138.233c8.4,5.064,32.905,12.171,52.014,8.955-.043-1.233,1.067-2.438,1.02-3.682-.142-3.771-1.458-7.622-1.628-11.447C-2.994,101.95-5.313,71.517-7.493,62.344S-10.763,36.455-9.8,19.62l.023-.446c.041-.836.1-1.673.163-2.512.285-4.142.709-8.26,1.275-12.26l.043-.337C-8.1,2.7-7.9,1.338-7.646,0L-20.227,2.01s-.142.046-.4.155a19.957,19.957,0,0,0-3.585,1.944h-.013A30.95,30.95,0,0,0-28.093,7.2c-1.9,1.762-5.755,6.9-9.612,12.551-1.187,1.731-2.373,3.513-3.506,5.272a59.651,59.651,0,0,0-4.721,8.359,19.867,19.867,0,0,0-1.71,7.153v.261c0,3.292,1.974,8.76,3.565,13.639a38.877,38.877,0,0,1,1.939,7.632c.424,5.173,2.287,23.554,1.448,28.454-.838,4.869-12.157,47.042-12.345,47.7Z" transform="translate(124.814 -118.124) rotate(-180)" fill="#41cfb8"/>
            <path id="Fill_224" data-name="Fill 224" d="M0,0-18.621,29.272c.02-.074.617-2.2,1.626-8.362.193-1.171.4-2.486.62-3.959a10.454,10.454,0,0,1,.279-1.3C-12.269,6.859-.445.223-.013,0L0,0" transform="translate(149.028 -122.232) rotate(-180)" fill="#eddad3"/>
            <path id="Fill_225" data-name="Fill 225" d="M-2.983,9.378h.01c.5-1.782,1.057-3.49,1.657-5.107A40.674,40.674,0,0,0,0,0C-5.882,3.693-16.853,11.824-16.853,11.824s.089.773.109,1.338l.02.281a21.1,21.1,0,0,1-.14,3.7l-.066.641A23.957,23.957,0,0,1-19,25.42c-1.441,3.011,6.352,1.077,12.92-1,.264-1.85.56-3.671.889-5.452.178-.963,2-1.933,2.2-2.871C-2.5,13.757-3.588,11.52-2.983,9.378Z" transform="translate(127.036 -97.768) rotate(-180)" fill="#ff987f"/>
            <path id="Fill_226" data-name="Fill 226" d="M-16.042,15.547h0s-.516,1.067-.94,5.361l3.5-5.275S-7.226,6.689-5.087,4.365A35.613,35.613,0,0,1,0,0S-12.3,5.9-16.042,15.547" transform="translate(149.041 -122.235) rotate(-180)" fill="#339d89"/>
            <path id="Fill_227" data-name="Fill 227" d="M-20.113,21.4c2.21.872,10.1.056,18.019-4.03.285-4.142.709-8.26,1.275-12.26l.043-.337C-.544,3.162-.3,1.576,0,.012a26.375,26.375,0,0,0-12.7,2.7S-23.906,19.9-20.113,21.4" transform="translate(132.338 -117.417) rotate(-180)" fill="#eea886"/>
            <path id="Fill_228" data-name="Fill 228" d="M-1.251,1.462c-.023-.233-.038-.368-.038-.39l.018.109.02.281" transform="translate(165.679 -179.003) rotate(-180)" fill="#2f4563"/>
            <path id="Fill_229" data-name="Fill 229" d="M-2.509,21.065l.023-.446C-2.206,15.666-3.172,9.909-1,5.847A.62.62,0,0,0-1,5.51c.059-.427.524-.946.588-1.37C-.243,2.992-.1,1.9,0,.8.022.528-.154.275-.1,0-11.445,2.684-12.065.36-12.065.36l-1.273,3.249s-12.843,7.4-7.79,20.236C-18.841,29.66-10.711,26.388-2.509,21.065Z" transform="translate(132.108 -116.679) rotate(-180)" fill="#25bfa6"/>
            <path id="Fill_230" data-name="Fill 230" d="M0,0-25.3,31.219a59.175,59.175,0,0,1,4.723-8.359c1.128-1.754,2.317-3.538,3.5-5.275C-13.214,11.933-9.358,6.8-7.462,5.034A30.912,30.912,0,0,1-3.6,1.952l.01,0A20.547,20.547,0,0,1,0,0H0" transform="translate(145.446 -120.283) rotate(-180)" fill="#eb4747"/>
            <path id="Fill_231" data-name="Fill 231" d="M-27.216,38.372a21.756,21.756,0,0,1,1.918-7.15,61.288,61.288,0,0,1,4.723-8.643c1.128-1.751,3.163-4.712,4.35-6.448,3.862-5.652,6.873-9.383,8.766-11.15A32.136,32.136,0,0,1-3.58,1.807,17.028,17.028,0,0,1,0,0S-1.867,2.193-5.344,6.6c-7.531,9.541-19.689,28.712-16.176,53.194C-23.156,54.778-27.537,43.256-27.216,38.372Z" transform="translate(145.448 -120.283) rotate(-180)" fill="#339d89"/>
            <path id="Fill_232" data-name="Fill 232" d="M-1.908,57.548C-4.512,46.56-4.651,24.2-3.022,4.354-2.879,2.607-6.955,1.714-6.713,0c-6.461,7.444-14.525,19.681-16.014,35.6C-24.582,46.53-12.325,87.257,0,127.656-1.364,97.547.272,66.721-1.908,57.548Z" transform="translate(126.444 -122.526) rotate(-180)" fill="#339d89"/>
            <path id="Fill_233" data-name="Fill 233" d="M0,34.95v0c-1.153,3.607-2.343,7.317-3.506,10.955C-9.142,24.2-10.117,0-10.117,0-8.407,13.494,0,34.95,0,34.95" transform="translate(144.897 -274.915) rotate(-180)" fill="#151624"/>
            <path id="Fill_234" data-name="Fill 234" d="M-4.523,49.752h.01c.207-.735,1.432-1.412,1.657-2.121.32-1.01-.352-2.037,0-2.987.449-1.212,1.576-2.344,1.908-3.58,1-3.705.755-7.588.9-11.321C.424,17.776-2.78,6.375-4.981.084-8.337-.266-12.694.452-18.34,2.7c0,0-16.134,10.509-10.895,35.921C-24.681,60.631-9.777,53.09-4.523,49.752Z" transform="translate(125.495 -57.394) rotate(-180)" fill="#ff987f"/>
            <path id="Fill_235" data-name="Fill 235" d="M-18.68,10.169c1.69-.5,7.366,10.458,10.425,13.162A32.252,32.252,0,0,1-1.5,32.114C-1.24,25.425.724,18.475-.287,12.928-1.352,7.09-5.428,2.759-6.49,0A31.864,31.864,0,0,0-19.117,3.766C-38.783,13.983-33.7,32.253-33.7,32.253S-27.189,12.668-18.68,10.169Z" transform="translate(124.042 -55.025) rotate(-180)" fill="#3b3b40"/>
            <path id="Fill_236" data-name="Fill 236" d="M-1.7,10.962C-1.6,9.97-.044,9.119,0,8.133c.022-.593-.83-1.508-.825-2.1a21.994,21.994,0,0,0,0-4.26C-.887,1.442-.355.4-.581.063c0-.006.1-.047.091-.051C-.614-.072-1.521.3-1.663.362-3.253.9-4.811,2.189-5.05,3.591c-.483,2.77-.851,8.042,1.227,8.369A2.851,2.851,0,0,0-1.7,10.962Z" transform="translate(124.041 -79.145) rotate(-180)" fill="#ff987f"/>
            <path id="Fill_237" data-name="Fill 237" d="M-13.87,7.718h.03C-6.964,7.642-2.8,4.578-.556,2.066-.384,1.371-.2.677,0,0-7.3,4.773-12.955,3.891-13.75,3.741l.02.281a21.1,21.1,0,0,1-.14,3.7" transform="translate(130.029 -107.19) rotate(-180)" fill="rgba(0,0,0,0.3)"/>
          </g>
          <g id="baseline-android-24px" transform="translate(276 -224)">
            <path id="Path" d="M0,0H-77V77H0Z" transform="rotate(-180)" fill="none"/>
            <path id="Shape" d="M-40,77a4.812,4.812,0,0,0,4.8-4.813V60.958h6.4V72.187A4.812,4.812,0,0,0-24,77a4.812,4.812,0,0,0,4.8-4.813V60.958H-16a3.208,3.208,0,0,0,3.2-3.208V25.667H-51.2V57.75A3.208,3.208,0,0,0-48,60.958h3.2V72.187A4.812,4.812,0,0,0-40,77ZM-59.2,57.75a4.812,4.812,0,0,0,4.8-4.813V30.479a4.812,4.812,0,0,0-4.8-4.812,4.762,4.762,0,0,0-3.4,1.408,4.787,4.787,0,0,0-1.4,3.4V52.937A4.812,4.812,0,0,0-59.2,57.75Zm54.4,0A4.812,4.812,0,0,0,0,52.937V30.479a4.787,4.787,0,0,0-1.4-3.4,4.762,4.762,0,0,0-3.4-1.408,4.812,4.812,0,0,0-4.8,4.812V52.937A4.812,4.812,0,0,0-4.8,57.75ZM-51.2,22.459h38.4a19,19,0,0,0-2.144-8.831,19.468,19.468,0,0,0-5.7-6.665l4.191-4.2a1.6,1.6,0,0,0,0-2.278A1.6,1.6,0,0,0-17.584,0,1.6,1.6,0,0,0-18.72.482L-23.488,5.23A18.837,18.837,0,0,0-32,3.209,18.757,18.757,0,0,0-40.448,5.23L-45.184.482A1.6,1.6,0,0,0-46.32,0a1.6,1.6,0,0,0-1.136.481,1.6,1.6,0,0,0,0,2.278L-43.3,6.93a19.38,19.38,0,0,0-5.752,6.682A18.991,18.991,0,0,0-51.2,22.458Zm12.8-9.626v3.209h-3.2V12.833Zm16,0v3.209h-3.2V12.833Z" transform="translate(6) rotate(-180)" fill="#339d89"/>
          </g>
          <g id="apple" transform="translate(284 -86)">
            <path id="Shape-2" data-name="Shape" d="M19.134,77h0c-2.119,0-4.186-1.023-6.319-3.127a41.983,41.983,0,0,1-5.059-6.548A49.173,49.173,0,0,1,.608,48.9C-.321,43.446-.645,35.533,3.085,28.821a19.177,19.177,0,0,1,6.483-6.933,16.921,16.921,0,0,1,8.758-2.648l.186,0A19.946,19.946,0,0,1,25.924,21.2a13.612,13.612,0,0,0,4.561,1.359A13.884,13.884,0,0,0,34.9,21.221C37.32,20.232,40.332,19,43.422,19a11.271,11.271,0,0,1,1.171.06,17.961,17.961,0,0,1,6.014,1.362,16.376,16.376,0,0,1,7.459,6.211l-.051.033a17.156,17.156,0,0,0-7.9,14.517,16.788,16.788,0,0,0,9.869,15.45l.019.008-.024.079A42.854,42.854,0,0,1,54.9,67.511C52.023,71.865,48.765,76.8,43.621,76.9l-.222,0a12.321,12.321,0,0,1-5.481-1.431,14.3,14.3,0,0,0-6.462-1.606,15.169,15.169,0,0,0-6.773,1.657A13.581,13.581,0,0,1,19.385,77C19.3,77,19.217,77,19.134,77ZM30.842,18h0c-.251,0-.5-.01-.749-.03a14.433,14.433,0,0,1,.856-6.616A18.929,18.929,0,0,1,34.022,5.9C36.71,2.588,41.192.16,44.922,0a16.061,16.061,0,0,1-.779,6.7,19.117,19.117,0,0,1-3.072,5.75,15.7,15.7,0,0,1-4.56,3.935A11.631,11.631,0,0,1,30.842,18Z" transform="translate(60) rotate(-180)" fill="#339d89"/>
          </g>
          <path id="Fill_210-3" data-name="Fill 210" d="M0,46.472l-32.845-22.96V0H-35V24.409L-1.527,48Z" transform="translate(279 -35) rotate(-180)" fill="#339d89"/>
          <path id="WWW" d="M-41.207,25H-34.8L-32,0h-5.063l-1.65,18.9-5.87-16.8H-49.3l-5.946,16.766L-56.859,0H-62l2.839,25h6.407l5.831-16.916L-41.207,25Zm32,0H-2.8L0,0H-5.064l-1.65,18.9L-12.583,2.1H-17.3l-5.946,16.766L-24.859,0H-30l2.839,25h6.406l5.832-16.916L-9.207,25Zm-64,0H-66.8L-64,0h-5.064l-1.65,18.9L-76.583,2.1H-81.3l-5.946,16.766L-88.86,0H-94l2.839,25h6.406l5.831-16.916L-73.207,25Z" transform="translate(267) rotate(-180)" fill="#47a694" stroke="#47a694" stroke-miterlimit="10" stroke-width="1"/>
        </g>
      </g>
    </g>
  </g>
</svg>
