<svg xmlns="http://www.w3.org/2000/svg" xmlns:xlink="http://www.w3.org/1999/xlink" width="198" height="100" viewBox="0 0 198 100"><defs><style>.a{fill:#01e9b5;}.b{fill:#416888;}.c{fill:#fff;}.d{filter:url(#a);}</style><filter id="a" x="0" y="0" width="100" height="100" filterUnits="userSpaceOnUse"><feOffset dx="10" dy="10" input="SourceAlpha"/><feGaussianBlur stdDeviation="10" result="b"/><feFlood flood-color="#416888" flood-opacity="0.102"/><feComposite operator="in" in2="b"/><feComposite in="SourceGraphic"/></filter></defs><g transform="translate(20 15)"><g transform="translate(0 5)"><g transform="translate(50)"><path class="a" d="M7.838,40H0V8.48C0,3.17,2.774,0,7.421,0h5.8V8.906H9.877c-1.543,0-2.039.778-2.039,3.2V16.48h5.383v8.853H7.838V40Zm29.42,0H29.246V16h8.013V40ZM25.24,40H17.227V0H25.24Zm8.013-28a4,4,0,1,1,4.006-4,4.038,4.038,0,0,1-4.006,4Z"/><path class="b" d="M17.322,40h-4V24.656a4.664,4.664,0,0,0-9.328,0V40H0V24.647a8.665,8.665,0,0,1,15.324-5.526,8.664,8.664,0,0,1,15.323,5.526V40h-4V24.656a4.664,4.664,0,0,0-9.328,0V40Zm57.395,0a12,12,0,1,1,8.012-20.944V0h4.007V28.266A12.014,12.014,0,0,1,74.717,40Zm0-20a8,8,0,1,0,8.012,8A8.015,8.015,0,0,0,74.717,20ZM46.673,40A11.991,11.991,0,1,1,58.525,30H38.912a8.02,8.02,0,0,0,14.27,2.667h4.568A12,12,0,0,1,46.673,40Zm0-20a8.008,8.008,0,0,0-7.761,6H54.433A8,8,0,0,0,46.673,20Z" transform="translate(41.264)"/></g><g class="d" transform="matrix(1, 0, 0, 1, -20, -20)"><circle class="c" cx="20" cy="20" r="20" transform="translate(20 20)"/></g><path class="a" d="M7.257,6.947V0h9.459V1.975A13.369,13.369,0,0,1,15.48,7.4c-1.236,2.8-2.9,4.334-4.567,6.932a11.164,11.164,0,0,0-1.7,6.065h5.581V13.387A7.1,7.1,0,0,1,17,8.526q1.667-1.662,5.132-1.662H24V16.02H18.679V14.051h3.386V9.039a5.669,5.669,0,0,0-3.745,1.387,4.893,4.893,0,0,0-1.6,3.625v2.258l.005,6.091H7.257V20.393a14.147,14.147,0,0,1,3.016-8.125,24.519,24.519,0,0,0,3.475-5.4,9.778,9.778,0,0,0,1.042-4.889H9.209V8.526q-.16,4.017-2.374,5.8A7.331,7.331,0,0,1,1.848,16.02H0V6.947H5.306V8.938H1.935v5.013a5.628,5.628,0,0,0,3.728-1.387A5.06,5.06,0,0,0,7.257,8.938V6.947Z" transform="translate(8 8.8)"/></g></g></svg>