<?xml version="1.0" encoding="UTF-8" standalone="no"?>
<svg
   xmlns:dc="http://purl.org/dc/elements/1.1/"
   xmlns:cc="http://creativecommons.org/ns#"
   xmlns:rdf="http://www.w3.org/1999/02/22-rdf-syntax-ns#"
   xmlns:svg="http://www.w3.org/2000/svg"
   xmlns="http://www.w3.org/2000/svg"
   id="svg25"
   version="1.1"
   viewBox="0 0 198 100"
   height="100"
   width="198">
  <metadata
     id="metadata29">
    <rdf:RDF>
      <cc:Work
         rdf:about="">
        <dc:format>image/svg+xml</dc:format>
        <dc:type
           rdf:resource="http://purl.org/dc/dcmitype/StillImage" />
      </cc:Work>
    </rdf:RDF>
  </metadata>
  <defs
     id="defs13">
    <filter
       filterUnits="userSpaceOnUse"
       height="100"
       width="100"
       y="0"
       x="0"
       id="Oval">
      <feOffset
         id="feOffset2"
         input="SourceAlpha"
         dy="10"
         dx="10" />
      <feGaussianBlur
         id="feGaussianBlur4"
         result="blur"
         stdDeviation="10" />
      <feFlood
         id="feFlood6"
         flood-opacity="0.102"
         flood-color="#416888" />
      <feComposite
         result="result1"
         id="feComposite8"
         in2="blur"
         operator="in" />
      <feComposite
         id="feComposite10"
         in2="result1"
         in="SourceGraphic" />
    </filter>
  </defs>
  <g
     transform="translate(20,15)"
     data-name="LogoForLight Green"
     id="LogoForLight_Green">
    <g
       transform="translate(0,5)"
       id="LOGO_SVG">
      <g
         transform="translate(50)"
         id="flimed-copy">
        <path
           style="fill:#01e9b5"
           d="M 7.838,40 H 0 V 8.48 C 0,3.17 2.774,0 7.421,0 h 5.8 V 8.906 H 9.877 c -1.543,0 -2.039,0.778 -2.039,3.2 v 4.374 h 5.383 v 8.853 H 7.838 Z m 29.42,0 H 29.246 V 16 h 8.013 V 40 Z M 25.24,40 H 17.227 V 0 h 8.013 z m 8.013,-28 a 4,4 0 1 1 4.006,-4 4.038,4.038 0 0 1 -4.006,4 z"
           id="fli" />
        <path
           style="fill:#416888"
           transform="translate(41.264)"
           d="m 17.322,40 h -4 V 24.656 a 4.664,4.664 0 0 0 -9.328,0 V 40 H 0 V 24.647 a 8.665,8.665 0 0 1 15.324,-5.526 8.664,8.664 0 0 1 15.323,5.526 V 40 h -4 V 24.656 a 4.664,4.664 0 0 0 -9.328,0 V 40 Z m 57.395,0 A 12,12 0 1 1 82.729,19.056 V 0 h 4.007 V 28.266 A 12.014,12.014 0 0 1 74.717,40 Z m 0,-20 a 8,8 0 1 0 8.012,8 8.015,8.015 0 0 0 -8.012,-8 z M 46.673,40 A 11.991,11.991 0 1 1 58.525,30 H 38.912 a 8.02,8.02 0 0 0 14.27,2.667 H 57.75 A 12,12 0 0 1 46.673,40 Z m 0,-20 a 8.008,8.008 0 0 0 -7.761,6 h 15.521 a 8,8 0 0 0 -7.76,-6 z"
           id="med" />
      </g>
      <g
         id="Group-7">
        <g
           style="filter:url(#Oval)"
           id="g19"
           transform="translate(-20,-20)">
          <circle
             style="fill:#ffffff"
             transform="translate(20,20)"
             r="20"
             cy="20"
             cx="20"
             data-name="Oval"
             id="Oval-2" />
        </g>
        <path
           style="fill:#01e9b5"
           transform="translate(8,8.8)"
           d="M 7.257,6.947 V 0 h 9.459 V 1.975 A 13.369,13.369 0 0 1 15.48,7.4 c -1.236,2.8 -2.9,4.334 -4.567,6.932 a 11.164,11.164 0 0 0 -1.7,6.065 h 5.581 v -7.01 A 7.1,7.1 0 0 1 17,8.526 Q 18.667,6.864 22.132,6.864 H 24 v 9.156 h -5.321 v -1.969 h 3.386 V 9.039 a 5.669,5.669 0 0 0 -3.745,1.387 4.893,4.893 0 0 0 -1.6,3.625 v 2.258 L 16.725,22.4 H 7.257 v -2.007 a 14.147,14.147 0 0 1 3.016,-8.125 24.519,24.519 0 0 0 3.475,-5.4 9.778,9.778 0 0 0 1.042,-4.889 H 9.209 v 6.547 q -0.16,4.017 -2.374,5.8 A 7.331,7.331 0 0 1 1.848,16.02 H 0 V 6.947 H 5.306 V 8.938 H 1.935 v 5.013 A 5.628,5.628 0 0 0 5.663,12.564 5.06,5.06 0 0 0 7.257,8.938 Z"
           id="Path-8" />
      </g>
    </g>
  </g>
</svg>
