<svg xmlns="http://www.w3.org/2000/svg" width="128.227" height="171.694" viewBox="0 0 128.227 171.694"><g transform="translate(-400.773 -213.456)"><path d="M447.825,385.15H400.781V331.832a104.7,104.7,0,0,1,1.227-17.025,114.521,114.521,0,0,1,5.429-21.434,117.04,117.04,0,0,1,31.769-47.154,105.882,105.882,0,0,1,28.054-17.928,166.005,166.005,0,0,1,29.309-9.839,205.575,205.575,0,0,1,23.076-4.146c5.729-.689,9.32-.848,9.356-.85V331.832H447.825v53.317Z" transform="translate(0)" opacity="0.02"/></g></svg>