<svg xmlns="http://www.w3.org/2000/svg" xmlns:xlink="http://www.w3.org/1999/xlink" width="499.026" height="498.797" viewBox="0 0 499.026 498.797"><defs><clipPath id="a"><path d="M484.822,230.986c6.53-19.127,7.554-48.673,2.162-68.28-17.316-62.99-87.8-186.674-165.024-158.633-70.8,25.711-147.568,113.5-201.935,101.974C-7.845,78.927-4.081,274.489,2.664,348.675,7.021,396.6,47.216,455.865,133.077,449.64a124.921,124.921,0,0,1,71.5,16.752c36.535,21.127,94.607,26.079,154.931,9.5,90.74-24.939,152.207-89.146,137.289-143.407a62.317,62.317,0,0,0-5.088-12.771A111.77,111.77,0,0,1,484.822,230.986Z" transform="translate(499.026 -0.203) rotate(180)" fill="#bff0ea" opacity="0"/></clipPath></defs><g transform="translate(499.025 -0.203) rotate(180)"><path d="M489.681,238.918A111.77,111.77,0,0,1,482.8,150.19c6.53-19.127,7.554-48.673,2.162-68.28-17.316-62.99-97.407-100.52-174.633-72.48-70.8,25.711-88.139,131.781-142.506,120.25C39.95,102.561-6.106,193.692.639,267.879,5,315.8,45.191,375.068,131.051,368.843a124.921,124.921,0,0,1,71.5,16.752c36.535,21.127,94.607,26.079,154.931,9.5,90.74-24.939,152.208-89.146,137.289-143.407a62.315,62.315,0,0,0-5.088-12.771" transform="translate(497 -81) rotate(180)" fill="#bff0ea"/><path d="M-198.5,395C-88.872,395,0,306.575,0,197.5S-88.872,0-198.5,0-397,88.424-397,197.5-308.13,395-198.5,395Z" transform="translate(51 -104) rotate(180)" fill="#bff0ea" opacity="0.22"/><path d="M484.822,230.986c6.53-19.127,7.554-48.673,2.162-68.28-17.316-62.99-87.8-186.674-165.024-158.633-70.8,25.711-147.568,113.5-201.935,101.974C-7.845,78.927-4.081,274.489,2.664,348.675,7.021,396.6,47.216,455.865,133.077,449.64a124.921,124.921,0,0,1,71.5,16.752c36.535,21.127,94.607,26.079,154.931,9.5,90.74-24.939,152.207-89.146,137.289-143.407a62.317,62.317,0,0,0-5.088-12.771A111.77,111.77,0,0,1,484.822,230.986Z" transform="translate(499.026 -0.203) rotate(180)" fill="#bff0ea" opacity="0"/><g clip-path="url(#a)"><g transform="translate(20 -49)"><path d="M-26.823,159.67a24.459,24.459,0,0,0,16.153-5.836C-2.552,146.765.948,134.206-.219,116.518c-.805-11.951-5.5-24.033-10.484-36.856C-19.067,58.128-28.565,33.716-23.6,1.43L-32.821,0C-38.161,34.768-27.76,61.53-19.4,83.049c4.913,12.641,9.153,23.573,9.859,34.078.953,14.351-1.528,24.592-7.165,29.59a15.471,15.471,0,0,1-12.341,3.452l-1.873,9.156a22.121,22.121,0,0,0,4.092.345" transform="translate(0.307 -215.978) rotate(180)" fill="#339d89"/><path d="M-67.862,0l-9.087,13.858L-.637,38.319s5.11-4.882-13.622-14.663C-36.049,12.23-67.862,0-67.862,0" transform="translate(30.798 -449.688) rotate(180)" fill="#88bdda"/><path d="M-9.087,0,0,13.858-76.312,38.319s-5.094-4.882,13.622-14.663C-40.884,12.23-9.087,0-9.087,0" transform="translate(103.114 -449.688) rotate(180)" fill="#88bdda"/><path d="M0,56.8H-15.939V0H0Z" transform="translate(97.461 -408.46) rotate(180)" fill="#77d6c5"/><path d="M-58.075,0l-7.789,13.217L-.545,36.56S3.826,31.908-12.2,22.554C-30.863,11.672-58.075,0-58.075,0" transform="translate(39.55 -452.614) rotate(180)" fill="#acd5f4"/><path d="M-7.773,0,0,13.217-65.319,36.56s-4.371-4.652,11.651-14.006C-35,11.672-7.773,0-7.773,0" transform="translate(105.447 -452.614) rotate(180)" fill="#acd5f4"/><path d="M-11.075,5.54A5.545,5.545,0,0,0-5.538,11.1,5.545,5.545,0,0,0,0,5.54,5.541,5.541,0,0,0-5.538,0a5.541,5.541,0,0,0-5.538,5.54" transform="translate(36.398 -488.878) rotate(180)" fill="#001f46"/><path d="M-11.092,5.54A5.548,5.548,0,0,0-5.538,11.1,5.545,5.545,0,0,0,0,5.54,5.541,5.541,0,0,0-5.538,0a5.545,5.545,0,0,0-5.554,5.54" transform="translate(162.96 -488.878) rotate(180)" fill="#001f46"/><path d="M-11.075,5.54A5.545,5.545,0,0,0-5.538,11.1,5.545,5.545,0,0,0,0,5.54,5.541,5.541,0,0,0-5.538,0a5.541,5.541,0,0,0-5.538,5.54" transform="translate(22.989 -488.878) rotate(180)" fill="#367082"/><path d="M-11.075,5.54A5.545,5.545,0,0,0-5.538,11.1,5.545,5.545,0,0,0,0,5.54,5.541,5.541,0,0,0-5.538,0a5.541,5.541,0,0,0-5.538,5.54" transform="translate(176.386 -488.878) rotate(180)" fill="#367082"/><path d="M0,20.417H-11.667V0H0Z" transform="translate(99.383 -387.648) rotate(180)" fill="#339d89"/><path d="M-29.168,11.376A11.381,11.381,0,0,0-17.8,22.768h6.425A11.381,11.381,0,0,0,0,11.376,11.377,11.377,0,0,0-11.371,0H-17.8A11.377,11.377,0,0,0-29.168,11.376" transform="translate(90.641 -365.472) rotate(180)" fill="#339d89"/><path d="M-173.822,27.814c-.279-1.348-.444-9.748-.444-11.195C-174.266,7.43-168.334,0-161,0H-13.261C-5.932,0,0,7.43,0,16.62c0,1.447-.164,9.847-.444,11.195H-173.822" transform="translate(18.092 -338.644) rotate(180)" fill="#75d4c4"/><path d="M0,5.1c0,2.811-1.643,5.08-3.681,5.08H-173.313c-2.021,0-3.681-2.269-3.681-5.08,0-2.827,1.66-5.1,3.681-5.1H-3.681C-1.643,0,0,2.269,0,5.1" transform="translate(16.728 -365.867) rotate(180)" fill="#339d89"/><path d="M-.707,99.206c-3.632.279-26.8.674-30.794.723-25.339.312-47.178-4.455-48.394-10.685A216.839,216.839,0,0,1-80.552,10.7C-79.467,4.453-57.3-.3-31.419.015-27.344.064-3.714.475,0,.754A212.519,212.519,0,0,0-.707,99.206" transform="translate(24.304 -181.902) rotate(180)" fill="#75d4c4"/><path d="M-4.487,0C-1.644.033.345,1.381-.05,3.025A212.222,212.222,0,0,0-.855,95.477c.362,1.627-1.594,2.975-4.371,3.008s-5.341-1.266-5.7-2.893A212.506,212.506,0,0,1-10.32,2.91C-9.942,1.266-7.329-.032-4.487,0" transform="translate(17.04 -182.64) rotate(180)" fill="#339d89"/><path d="M-.789,98.8a57.951,57.951,0,0,1-6.639.444c-5.521.066-11.207-4.8-12.308-10.948a213.184,213.184,0,0,1,.345-77.344C-18.24,4.8-12.406-.065-6.77,0A64.687,64.687,0,0,1,0,.461,212.474,212.474,0,0,0-.789,98.8" transform="translate(19.604 -182.262) rotate(180)" fill="#64c2b2"/><path d="M0,8.068s-.181,6.46-31.5,6.493c-31.3.033-77.282-7.677-77.282-7.677L-36.546.062S-8.808-1.237,0,8.068" transform="translate(174.118 -199.034) rotate(180)" fill="#ed8a72"/><path d="M-5.109,4.438c-14.871.46-21.034,8.137-26.867,10.636a100.67,100.67,0,0,0-11.6,6.165c3.106-6.493,7.9-6.822,10.254-8.959,2.333-2.137,1.742-1.085-3.566-1.3-3.024-.132-8.15,5.343-11.881,8.417-3.221,2.647-5.275,2.91-5.275,2.91a66.17,66.17,0,0,1,8.463-9.978A77.5,77.5,0,0,1-30.907,1.577C-27.769.246-17.811-.428-10.7.3c8.035.822,16.317,3.8,5.587,4.143" transform="translate(253.16 -203.765) rotate(180)" fill="#e2c59c"/><path d="M0,0S-11.306,3.255-13.261,4.817c-1.364,1.1-6.984,7.4-6.984,7.4s4.24-.822,6.622-3.222C-11.223,6.608,0,0,0,0" transform="translate(283.262 -205.622) rotate(180)" fill="#e2c59c"/><path d="M-27.524,0S1.348.822-.049,17.984C-.838,27.732-7.3,31.332-16.021,30.921c-16.235-.756-34.64-2.482-34.64-2.482l-9.1-26.286L-27.524,0" transform="translate(160.759 -193.983) rotate(180)" fill="#d9e6f9"/><path d="M-42.246,100.063-17.056,11.1S-13.358-1.939-6.407.247C3.6,3.387-.935,14.105-1.593,20.4c-1.331,12.806.049,18.313-8.019,49.366-4.963,19.135-9.071,41.146-13.557,53.771-3.073,8.713-9.251-3.4-18.076-6.526-16.482-5.852-1-16.948-1-16.948" transform="translate(139.924 -96.073) rotate(180)" fill="#d9e6f9"/><path d="M-72.456,44c4.338,19.365,23.893,31.464,43.661,27.042C-9.027,66.607,3.478,47.324-.86,27.943-5.2,8.578-24.736-3.521-44.5.917-64.272,5.339-76.794,24.638-72.456,44" transform="translate(60.844 -34.448) rotate(180)" fill="#282723"/><path d="M-58.369,58.047A27.592,27.592,0,0,0-25.422,78.94l3.862-14.3A27.594,27.594,0,0,0-.675,31.679l-2.268-10.11A27.567,27.567,0,0,0-35.89.675l-6.721,1.512A27.578,27.578,0,0,0-63.5,35.148l5.127,22.9" transform="translate(108.699 -0.514) rotate(180)" fill="#282723"/><path d="M-56.311,0a52.608,52.608,0,0,0,2.35,7.447c6.589,16.685,20.031,27.453,31.879,26.5A84.019,84.019,0,0,0-13.6,53.952C-9.923,60.3-.326,65.706-.326,65.706c4.65,11.639-41.936,50.631-43.924,49.612-4.223-2.17,3.352-30.165,10.96-38.845,3.582-4.06,7.214-8.86,7.3-11.589.279-9.617-2.777-11.655-7.411-16.061a22.589,22.589,0,0,0-17.4-3.929,3.121,3.121,0,0,1-2.481-.477,19.106,19.106,0,0,1-2.1-5.441L-60.37,16.768A19.477,19.477,0,0,1-56.311,0" transform="translate(108.867 -16.543) rotate(180)" fill="#ff987f"/><path d="M0,165.7s-11.93,10.817-15.3,11.77c-4.486,1.282-17.057-4.143-17.057-4.143s3.467-56.056,2.186-78.265c-1.3-22.225-6.507-28.653-5.916-35.508.97-10.965-7.937-16.57-5.308-24.921C-38.781,26.27-32.158-3.78-31.715.4c3.878,35.524,17.5,8.121,20.212,3.83C-10.007,1.875,0,165.7,0,165.7" transform="translate(116.884 -98.522) rotate(180)" fill="#75d4c4"/><path d="M-2.867.871S-18.659,12.444-18.445,17.8c.214,5.343-8.167,21.157-4.765,44.927,3.878,27.124,5.308,45.355,4.519,62.665s-8.775,32.3-9.038,53.623c-.214,16.685,3.6,18.181,3.6,18.181a13.86,13.86,0,0,0,13.557-2.975c6.2-5.7,5.094-62.845,4.157-77.229-.953-14.384-5.423-48.248-6.458-58.144a105.351,105.351,0,0,1,1.282-27.782A117.852,117.852,0,0,1-4.954,6.987c.312-.773,4.4-4.06,4.667-4.669C.83-.279-1.585-.592-2.867.871" transform="translate(138.945 -88.512) rotate(180)" fill="#fff"/><path d="M-75.678,45.951c4.535,20.236,24.944,32.878,45.6,28.242C-9.438,69.573,3.625,49.419-.894,29.2-5.429,8.963-25.838-3.678-46.494.958-67.133,5.577-80.2,25.731-75.678,45.951" transform="translate(47.171 -81.291) rotate(180)" fill="#282723"/><path d="M-7.165,0,0,54.971l-30.975,14.22-17.188,3.617,30.5-22.784L-27.639.427-7.165,0" transform="translate(194.511 -456.001) rotate(180)" fill="#e9d6b8"/><path d="M0,13.228l-6.721,1.759-4.5-4.077L-35.971,22.944l-21.937,5.014a4.1,4.1,0,0,1,.46-2.647c2.761-3.469,18.125-11.244,18.125-11.244s.246,5.112,2.432,5.244c2.186.148,21.149-9.469,25.52-12.148C-3.812,2.543-2.4-.317-1.824.028-.312.982,0,13.228,0,13.228" transform="translate(192.49 -506.029) rotate(180)" fill="#161711"/><path d="M0,5.7-24.6,52.538l-34.032-1.66-16.925-4.7,37.581-6.148L-17.451,0,0,5.7" transform="translate(276.426 -373.856) rotate(180)" fill="#ff987f"/><path d="M-4.559,17.211l-6.77-1.545-2.136-5.688-30.515-.427L-62.188,5.408a15.731,15.731,0,0,1,3.549-2.943C-54.58.838-40.168,0-40.168,0s-1.512,3.978.362,5.129c1.873,1.134,22.841,1.808,27.968,1.447C-3.015,5.967-.451,4.077-.106,4.669.814,6.2-4.559,17.211-4.559,17.211" transform="translate(298.488 -417.485) rotate(180)" fill="#161711"/><path d="M-43.361,0-61.716,7.989-69.7,31.941-187.769,12.493s-12.029-3.7-19.686,15.3C-218.366,54.856-246.1,138.957-246.1,138.957l17.566,18.362,55.082-95.033S-60.615,115.252-23.4,103.811C-9.116,99.422,1.779,74.2-.242,48.708a328.77,328.77,0,0,0-5.6-38.319L-43.361,0" transform="translate(53.311 -239.469) rotate(180)" fill="#194866"/><path d="M0,50.531l-90.313-6.51,7.756,139.4-26.621.855-19.67-163.253S-123.539-3.289-106.3.376C-89.047,4.042-47.309,36.032,0,50.531" transform="translate(112.628 -292.141) rotate(180)" fill="#163f59"/><path d="M-34.508,294.762S-75.195,238-83.805,207.637c-10.287-36.231-3.648-79.334-4.552-93.964-1.676-26.91-1.3-78.824-1.66-85.284-.362-6.477,4.568-13.085,4.568-13.085S-80.437-1.152-71.333.064c8.019,1.069,20.36,12.214,28.116,17.392,7.575,5.047,6.721,99.882,7.1,104.649,1.364,17.228,12.259,33.963,19.374,50.8C0,212.568,0,256.953,0,256.953s-6.606,31.957-34.508,37.809" transform="translate(39.504 -77.582) rotate(180)" fill="#fff"/><path d="M0,15.633s-.986,6.921-38.107,2.827S-128.83,0-128.83,0l86.451,2.153S-9.334,4.422,0,15.633" transform="translate(101.306 -205.803) rotate(180)" fill="#ff987f"/><path d="M-6.179,6.985c-17.714-1.463-25.914,5.984-33.128,7.923A130.792,130.792,0,0,0-53.8,20c4.47-6.559,10.2-6.28,13.228-8.285,3.04-1.989,2.2-.937-4.059-1.89-3.566-.526-10.3,4.7-15.085,7.513-4.125,2.433-6.606,2.449-6.606,2.449A73.556,73.556,0,0,1-55.1,10.157c7.477-5.063,16.547-9.074,18.667-9.65C-32.553-.528-20.672.08-12.324,1.79c9.432,1.94,18.9,6.247,6.146,5.195" transform="translate(195.02 -204.522) rotate(180)" fill="#ff987f"/><path d="M0,0S-13.787,2.022-16.285,3.452c-1.742,1-9.153,7.052-9.153,7.052s5.11-.329,8.233-2.6C-14.083,5.655,0,0,0,0" transform="translate(230.531 -205.424) rotate(180)" fill="#e9d6b8"/><path d="M-47.26,16.948,0,0S-3.286,27.4-4.387,37.809C-5.472,48.231-2.744,63.569-11.5,64.67c-8.758,1.085-13.146-.559-4.93,5.474s5.472,10.965,1.643,14.795,8.758,46.571,8.758,46.571-1.232.641-4.93,2.745c-11.667-18.461-26.144-39.4-30.663-55.349-5.85-20.6-6.228-43.415-5.636-61.958" transform="translate(81.686 -206.312) rotate(180)" fill="#d9e6f9"/><path d="M-38.389,111.855l4.125-87.767s4.733-18.379,11.618-22.6C-14.463-3.529-3.224,5.759-3.224,5.759s5.751,13.71,1.89,78.413c-2.58,43.283-6.573,65.706-27.081,62.533-19.144-2.943-40.769-7.233-40.769-7.233l-7.674-29.524,38.468,1.907" transform="translate(78.166 -93.553) rotate(180)" fill="#fff"/><path d="M-.082,4.5,0,4.356-.082,0H-180.264V4.5l.46.806c2.317,3.764,6.474,4.455,11.223,4.455H-11.766c4.749,0,8.906-.69,11.223-4.455l.46-.806" transform="translate(190.271 -222.718) rotate(180)" fill="#339d89"/><path d="M-41.788,3.518v.132l.444.641A7.08,7.08,0,0,0-38.715,6.51h27.393c4.585,0,8.578-.542,10.813-3.6l.427-.658L0,2.137-.049,0H-41.788V3.518" transform="translate(191.98 -224.428) rotate(180)" opacity="0.177"/><path d="M0,3.09H-90.017V0H0Z" transform="translate(258.104 -223.721) rotate(180)" opacity="0.177"/><path d="M-23.367,4.241A5.866,5.866,0,0,0-28.707,0H-155.122a3.147,3.147,0,0,0-3.106,4.241l23.35,89.572H0Z" transform="translate(234.77 -129.757) rotate(180)" fill="#339d89"/><path d="M-38.715,294.8H-57.168L-26.736,0H0L-38.715,294.8" transform="translate(550.339 -241.935) rotate(180)" fill="#93cef5"/><path d="M0,13.595l-11.733,89.279L-25.651,6.641-24.961,0H-1.594L0,13.595" transform="translate(552.113 -241.935) rotate(180)" fill="#86bbd8"/><path d="M-38.731,294.8H-57.168L-26.752,0H0L-38.731,294.8" transform="translate(303.244 -241.935) rotate(180)" fill="#75d4c4"/><path d="M0,13.595l-11.733,89.279L-25.651,6.641-24.961,0H-1.578L0,13.595" transform="translate(305.035 -241.935) rotate(180)" fill="#339d89"/><path d="M-18.437,294.8H0L-30.416,0H-57.168l38.731,294.8" transform="translate(129.915 -241.935) rotate(180)" fill="#75d4c4"/><path d="M-35.79,13.595,0,104.567-10.155,6.641-10.829,0H-34.212L-35.79,13.595" transform="translate(149.502 -241.935) rotate(180)" fill="#339d89"/><path d="M0,17.228H-222.331V0H0Z" transform="translate(134.532 -232.368) rotate(180)" fill="#64c2b2"/><path d="M0,17.228H-252.468V0H0Z" transform="translate(346.593 -232.368) rotate(180)" fill="#88ebdb"/><path d="M-9.3,0S-21.362,15.88-23.548,30.675s3.829,94.8,3.829,94.8l4.305-70.309-3.2-10.784,5.472-1.1s4.93-27.4,8.775-31.776C-.542,7.118,0,5.474,0,5.474L-9.3,0" transform="translate(107.435 -72.073) rotate(180)" fill="#d9e6f9"/><path d="M0,.011S-14.247,30.7-14.789,48.226c-.559,17.54,5.472,61.925,5.472,61.925s-8.216-58.637-10.4-58.637c-2.2,0,2.186-8.762,2.186-8.762l-3.286-2.745s3.829-27.387,9.859-33.963S0,.011,0,.011" transform="translate(136.455 -85.756) rotate(180)" fill="#d9e6f9"/><path d="M-18.173,0-37.892,21.37S-21.459,59.18-11.6,57.536-1.741,46.029-.1,37.809-18.173,0-18.173,0" transform="translate(50.909 -281.93) rotate(180)" fill="#d9e6f9"/><path d="M-57.67,101.1c.411-.444.838-.921,1.282-1.4l36.809,1.825,4.125-87.767A86.782,86.782,0,0,1-10.46,0V88.194c0,9.863,8.216,11.507,9.859,14.795s0,3.83-6.014,2.186c-6.031-1.644-3.845-.542-2.744,2.745s-2.186,2.186-13.688-2.745c-8.364-3.584-25.125-1.66-33.654-.345l-.97-3.732" transform="translate(96.976 -103.882) rotate(180)" fill="#d9e6f9"/></g></g></g></svg>