<?xml version="1.0" encoding="UTF-8"?>
<svg width="497px" height="439px" viewBox="0 0 497 439" version="1.1" xmlns="http://www.w3.org/2000/svg" xmlns:xlink="http://www.w3.org/1999/xlink">
    <!-- Generator: Sketch 53.2 (72643) - https://sketchapp.com -->
    <title>Group 40</title>
    <desc>Created with Sketch.</desc>
    <defs>
        <path d="M482.731821,242.560186 C489.259819,223.446226 494.149588,86.7729657 488.759904,67.1800839 C471.44977,4.23371189 387.153357,-14.7301252 309.955695,13.2909486 C239.176632,38.9838538 222.217062,233.588017 167.870163,222.064828 C40.0465883,194.964225 -5.99283096,286.032715 0.749812738,360.167307 C5.10504265,408.053944 45.2853275,467.282444 131.114515,461.061998 C156.383157,459.230745 181.201736,465.441502 202.585984,477.802112 C239.107599,498.914809 297.158867,503.863205 357.460453,487.296112 C448.166944,462.374188 509.612383,398.212518 494.699355,343.989165 C493.471028,339.525227 491.763557,335.26753 489.612945,331.227147 C475.167984,304.076714 472.655937,272.062319 482.731821,242.560186 Z" id="path-1"></path>
        <path d="M50.6622796,1.16799954 L9.6829802,0.37583056 C1.1946483,0.514117736 -1.70966209,3.00806458 0.970049,7.8576711 C3.64976009,12.7072776 9.85930115,16.8328008 19.5986722,20.2342407 C34.8197355,24.7955941 46.7064438,27.0762708 55.258797,27.0762708 C55.4125531,27.0367222 53.8803806,18.4006318 50.6622796,1.16799954 Z" id="path-3"></path>
        <path d="M52.5205081,58.15502 C29.4974655,41.5291261 16.0221501,31.0868185 12.0945619,26.8280971 C6.20317959,20.4400149 -1.76417076,15.3480654 0.484560134,5.74642206 C2.73329103,-3.85522125 18.5846177,0.690724072 26.3077803,4.25787734 C34.030943,7.8250306 39.4558093,11.0480729 44.0579418,14.0089886 C47.1260301,15.9829324 49.9468855,30.6982762 52.5205081,58.15502 Z" id="path-5"></path>
        <path d="M36.1427388,43.1466916 C12.5452837,25.9912363 0.746556168,14.1974801 0.746556168,7.76542298 C0.746556168,1.33336584 4.67988257,-1.10296314 12.5465354,0.456436043 C19.1757184,2.12813508 24.4339218,4.10246573 28.3211456,6.379428 C32.2083694,8.65639026 34.1223587,10.983103 34.0631137,13.3595663 L37.7811554,43.1466916 L36.1427388,43.1466916 Z" id="path-7"></path>
        <path d="M96.1337935,48.9398972 C96.1337935,75.4503011 74.6413819,96.9415815 48.1295826,96.9415815 C21.6262051,96.9415815 0.133793523,75.4503011 0.133793523,48.9398972 C0.133793523,22.4311776 21.6262051,0.941581459 48.1295826,0.941581459 C74.6413819,0.941581459 96.1337935,22.4311776 96.1337935,48.9398972" id="path-9"></path>
        <filter x="-31.2%" y="-10.4%" width="141.7%" height="141.7%" filterUnits="objectBoundingBox" id="filter-10">
            <feOffset dx="-10" dy="10" in="SourceAlpha" result="shadowOffsetOuter1"></feOffset>
            <feGaussianBlur stdDeviation="5" in="shadowOffsetOuter1" result="shadowBlurOuter1"></feGaussianBlur>
            <feColorMatrix values="0 0 0 0 0.254901961   0 0 0 0 0.407843137   0 0 0 0 0.533333333  0 0 0 0.08 0" type="matrix" in="shadowBlurOuter1"></feColorMatrix>
        </filter>
        <path d="M95.3655652,48.2905043 C95.3655652,74.5702957 74.061913,95.873113 47.7829565,95.873113 C21.5123478,95.873113 0.208695652,74.5702957 0.208695652,48.2905043 C0.208695652,22.0140522 21.5123478,0.712069565 47.7829565,0.712069565" id="path-11"></path>
        <path d="M190.021623,217.260378 C183.774223,209.39101 170.202811,193.901176 157.49978,179.926299 C143.219045,164.215755 140.19685,157.273789 139.38804,145.257994 C137.480837,116.924312 135.945516,97.5586015 134.729071,85.2973628 C133.512626,73.0361241 134.428188,67.9568865 131.063975,61.3550367 C127.995942,55.3344024 122.005573,51.1304989 116.248653,46.8895991 C98.1442593,33.5527926 71.2191717,7.46426179 69.4341932,5.8245867 C67.6492146,4.18491161 66.0853197,1.32721798 48.4756455,1.32721798 C36.7358627,1.32721798 22.6251693,0.934153427 6.14356535,0.148024329 C-0.0528170456,-0.653153182 -1.3346189,1.79793234 2.29815978,7.50128088 C7.7473278,16.0563037 21.2406784,25.4726977 31.7575545,27.7787165 C42.2744307,30.0847353 50.6620177,31.2305215 52.7043231,35.4949408 C54.0658601,38.337887 58.4086419,45.5966395 65.7326686,57.2711983 L74.4484426,72.7334427 C78.0244402,79.0567859 77.0772841,86.8109322 71.6069742,95.9958816 C65.7265118,108.424366 55.8692623,132.731466 57.0888466,164.563374 C57.9019028,185.784646 59.1465554,196.992403 60.8228043,198.186645 L7.9365236,208.282552 C16.5234039,217.089216 25.4266443,222.578282 34.6462448,224.749749 C48.4756455,228.00695 57.1318944,230.197247 69.4341932,237.264819 C81.736492,244.332391 91.1354013,256.639623 99.561606,266.218309 C100.536941,267.327044 112.633677,283.039661 135.851813,313.35616 C149.195115,307.367823 159.017937,303.670827 165.320278,302.265172 C188.681559,297.054742 195.098402,298.97254 213.532894,300.579188 C225.822555,301.650288 237.31159,300.096435 248,295.917632 C210.707461,245.192188 191.381336,218.973104 190.021623,217.260378 Z" id="path-13"></path>
    </defs>
    <g id="Page-1" stroke="none" stroke-width="1" fill="none" fill-rule="evenodd">
        <g id="Group-40" transform="translate(0.000000, -71.000000)">
            <g id="asset">
                <path d="M489.680534,330.918283 C475.230298,303.748959 472.717334,271.712288 482.796897,242.189629 C489.327279,223.06237 490.351027,193.516163 484.959376,173.909649 C467.642919,110.91948 387.552231,73.389384 310.326377,101.429954 C239.521465,127.140736 222.187,233.211217 167.820253,221.68001 C39.9499987,194.560551 -6.10623382,285.692405 0.638872245,359.878579 C4.99569265,407.798535 45.1906511,467.068245 131.051183,460.843471 C156.329053,459.010944 181.156695,465.226022 202.548753,477.595232 C239.083705,498.722619 297.156173,503.674459 357.47978,487.095838 C448.219397,462.156574 509.687275,397.950261 494.768802,343.689181 C493.540026,339.222136 491.831931,334.961477 489.680534,330.918283" id="Fill-5" fill="#BFF0EA" transform="translate(248.500000, 294.500000) scale(-1, 1) translate(-248.500000, -294.500000) "></path>
                <path d="M448,312.49931 C448,421.57491 359.129652,510 249.5,510 C139.871736,510 51,421.57491 51,312.49931 C51,203.42371 139.871736,115 249.5,115 C359.129652,115 448,203.42371 448,312.49931" id="Fill-4" fill="#BFF0EA" opacity="0.22" style="mix-blend-mode: multiply;"></path>
                <g id="Group-6">
                    <mask id="mask-2" fill="white">
                        <use xlink:href="#path-1"></use>
                    </mask>
                    <use id="Fill-5" fill="#BFF0EA" opacity="0" transform="translate(248.520456, 248.935034) scale(-1, 1) translate(-248.520456, -248.935034) " xlink:href="#path-1"></use>
                </g>
            </g>
            <g id="Group-12" transform="translate(22.094296, 67.180084)">
                <g id="Group-9" transform="translate(12.090717, 210.057650)">
                    <mask id="mask-4" fill="white">
                        <use xlink:href="#path-3"></use>
                    </mask>
                    <use id="Path-26" fill="#FF987F" xlink:href="#path-3"></use>
                    <path d="M0.643154719,5.82394755 C17.7307255,13.0027881 33.4637848,15.9360542 47.8423328,14.6237457 C47.6303507,13.186438 43.9103362,3.08899403 40.1370545,1.10843461 C37.6215333,-0.21193834 37.6215333,-3.44542246 40.1370545,-8.59201774 L55.1192985,-8.59201774 L64.1551723,1.10843461 C64.1551723,16.5408891 64.1551723,24.2571164 64.1551723,24.2571164 C64.1551723,24.2571164 64.9139596,34.6536787 60.0166291,34.6536787 C55.1192985,34.6536787 59.8209533,34.6536787 47.8423328,34.6536787 C35.8637123,34.6536787 28.6932812,37.9637753 24.5971344,34.6536787 C20.5009876,31.3435822 10.6497979,29.1958684 10.6497979,24.2571164 C10.6497979,19.3183644 9.19201318,18.1834741 9.19201318,18.1834741 C9.19201318,18.1834741 3.09491641,17.3110461 0.643154719,13.7664075 C-0.214384906,12.5266181 -0.214384906,9.87913149 0.643154719,5.82394755 Z" id="Path-27" fill="#F87C69" mask="url(#mask-4)"></path>
                </g>
                <g id="Group-10" transform="translate(0.000000, 101.179601)">
                    <mask id="mask-6" fill="white">
                        <use xlink:href="#path-5"></use>
                    </mask>
                    <use id="Path-28" fill="#FF987F" xlink:href="#path-5"></use>
                    <path d="M2.34949862,1.72584547 C1.2258835,9.74840811 4.32886201,15.8996468 11.6584342,20.1795614 C22.6527924,26.5994334 32.9257109,34.6701455 44.7157912,35.4699107 C45.768688,35.6846314 40.8013337,16.1238487 36.0979071,8.92484708 C32.9622894,4.12551267 38.2935524,6.04777475 52.0916961,14.6916333 L62.6195383,65.4036583 C57.9056262,71.0971978 51.6859757,71.0971978 43.9605868,65.4036583 C32.3725035,56.8633491 16.9375494,55.0647141 10.6516825,43.5110639 C4.36581563,31.9574136 3.54589548,33.8090316 1.02929775,26.9942965 C-1.48729999,20.1795614 -7.22336455,14.6001678 -5.84294992,8.16300666 C-4.92267349,3.87156587 -2.19185731,1.72584547 2.34949862,1.72584547 Z" id="Path-29" fill="#F57D65" mask="url(#mask-6)"></path>
                </g>
                <g id="Group-11" transform="translate(5.495781, 63.787140)">
                    <mask id="mask-8" fill="white">
                        <use xlink:href="#path-7"></use>
                    </mask>
                    <use id="Path-30" stroke="#979797" fill="#FF987F" xlink:href="#path-7"></use>
                    <path d="M2.06580073,1.89259438 C2.08999939,9.80767027 4.58684287,15.2891008 9.55633115,18.336886 C14.5258194,21.3846712 20.6071947,24.7551121 27.800457,28.4482087 C27.800457,15.9763182 27.800457,8.77674103 27.800457,6.84947723 C27.800457,3.95858154 34.6226036,16.1216474 37.2154073,33.4794076 C39.808211,50.8371678 42.6788822,52.3464036 37.2154073,50.2345882 C31.7519324,48.1227728 14.7832432,44.1887768 9.55633115,37.3939084 C4.32941912,30.59904 -2.56469761,21.9536022 -2.56469761,14.8948127 C-2.56469761,7.83602326 -2.10095937,2.19047802 -0.79360553,1.05282262 C0.0779636929,0.294385691 1.03109911,0.574309611 2.06580073,1.89259438 Z" id="Path-31" fill="#F87C69" mask="url(#mask-8)"></path>
                </g>
                <g id="Group-13" transform="translate(25.280591, 0.000000)">
                    <path d="M26.0627523,26.3811408 C23.7675668,20.1860074 23.3812679,16.4504673 24.9038554,15.1745204 C27.1877368,13.2606 35.6956583,11.3006046 45.9914371,21.4456926 C52.8552896,28.2090846 46.7185171,32.0717075 27.5811196,33.0335613 L26.0627523,26.3811408 Z" id="Path-32" fill="#FF977F"></path>
                    <path d="M41.2104642,14.5337041 L161.328559,12.6274344 C170.652339,12.4794664 178.355015,19.8698975 178.592787,29.1918198 L185.143174,286.001415 C185.382575,295.387203 177.967963,303.189961 168.582175,303.429362 C168.499236,303.431478 168.416283,303.432986 168.333322,303.433887 L46.1084169,304.761336 C36.7631191,304.862833 29.0884037,297.401554 28.9263516,288.05711 L24.4827753,31.8263349 C24.3199777,22.4389057 31.7980192,14.6969172 41.1854484,14.5341196 C41.1937869,14.533975 41.2021255,14.5338365 41.2104642,14.5337041 Z" id="Rectangle" fill="#EFF1F8" transform="translate(104.814489, 158.693805) rotate(-10.000000) translate(-104.814489, -158.693805) "></path>
                    <path d="M46.9155276,13.7716568 L161.259641,12.0297232 C170.559458,11.8880485 178.246668,19.2462318 178.511689,28.5433514 L185.641887,278.67605 C185.909414,288.061079 178.518218,295.886021 169.133189,296.153547 C169.078256,296.155113 169.023316,296.156412 168.968371,296.157446 L52.7330638,298.342924 C43.3598502,298.519161 35.6131627,291.074106 35.4171974,281.701284 L30.1781923,31.1250399 C29.9819349,21.7382506 37.4323331,13.9696563 46.8191224,13.773399 C46.8512558,13.7727271 46.883391,13.7721464 46.9155276,13.7716568 Z" id="Rectangle" fill="#416888" transform="translate(107.911664, 155.186851) rotate(-10.000000) translate(-107.911664, -155.186851) "></path>
                    <path d="M43.0830079,19.0606729 L149.913751,17.7584011 C159.252797,17.6445577 166.93474,25.0861633 167.117704,34.4241102 L170.076687,185.441631 C170.260613,194.82867 162.800017,202.58747 153.412977,202.771397 C153.345377,202.772721 153.27777,202.773642 153.210159,202.77416 L47.0877999,203.587015 C37.8099043,203.65808 30.1886138,196.276983 29.9626337,187.001567 L26.2952664,36.4734638 C26.0665907,27.0874083 33.4901139,19.2931287 42.8761694,19.0644531 C42.9451072,19.0627735 43.0140547,19.0615134 43.0830079,19.0606729 Z" id="Rectangle" fill="#FFFFFF" transform="translate(98.185069, 110.672318) rotate(-10.000000) translate(-98.185069, -110.672318) "></path>
                    <g id="Group-7" transform="translate(99.502500, 98.332308) rotate(-9.000000) translate(-99.502500, -98.332308) translate(50.502500, 48.832308)">
                        <g id="Fill-460">
                            <use fill="black" fill-opacity="1" filter="url(#filter-10)" xlink:href="#path-9"></use>
                            <use fill="#40C1A8" fill-rule="evenodd" xlink:href="#path-9"></use>
                        </g>
                        <g id="Group-480" transform="translate(1.004470, 2.055997)">
                            <mask id="mask-12" fill="white">
                                <use xlink:href="#path-11"></use>
                            </mask>
                            <g id="Clip-463"></g>
                            <path d="M47.7412174,99.4760348 C59.9457391,99.4760348 71.4573913,97.2755478 81.650087,93.3954783 L79.1958261,69.4806261 C78.8953043,66.5446957 74.6295652,64.1947826 69.3036522,63.8007652 C55.0038261,60.9299478 40.4786087,60.9374609 26.1704348,63.8007652 C20.8445217,64.1947826 16.5871304,66.5421913 16.2782609,69.4806261 L13.824,93.3954783 C24.0166957,97.2755478 35.5366957,99.4760348 47.7412174,99.4760348" id="Fill-462" fill="#1CB295" mask="url(#mask-12)"></path>
                            <path d="M57.0991304,66.7375304 C57.0991304,71.6786087 53.0921739,75.6847304 48.1502609,75.6847304 C43.2083478,75.6847304 39.2013913,71.6786087 39.2013913,66.7375304 L39.2013913,57.5482435 C39.2013913,52.6063304 43.2083478,48.6010435 48.1502609,48.6010435 C53.0921739,48.6010435 57.0991304,52.6063304 57.0991304,57.5482435 L57.0991304,66.7375304" id="Fill-464" fill="#DCDAC8" mask="url(#mask-12)"></path>
                            <path d="M54.2608696,72.3172174 C54.4194783,72.4758261 54.578087,72.621913 54.7366957,72.7788522 C56.1975652,71.1869217 57.0991304,69.069913 57.0991304,66.7375304 L57.0991304,57.5482435 C57.0991304,52.6063304 53.0921739,48.6010435 48.1502609,48.6010435 C43.3001739,48.6010435 39.36,52.461913 39.218087,57.2761043 L54.2608696,72.3172174" id="Fill-465" fill="#C0BEAE" mask="url(#mask-12)"></path>
                            <path d="M35.0441739,44.2368 C35.6702609,47.8864696 35.2695652,50.3106783 34.3429565,50.6245565 C33.4163478,50.930087 32.0473043,49.0910609 31.0288696,45.5657739 C30.0104348,42.0346435 30.1690435,38.5435826 31.5046957,38.1537391 C32.8153043,37.6662261 34.4347826,40.5645913 35.0441739,44.2368" id="Fill-466" fill="#DCDAC8" mask="url(#mask-12)"></path>
                            <path d="M60.1627826,44.7735652 C59.8706087,48.4641391 60.4883478,50.8416 61.44,51.0703304 C62.3916522,51.2923826 63.5853913,49.3381565 64.2782609,45.7352348 C64.9794783,42.1281391 64.5036522,38.6637913 63.1346087,38.3958261 C61.7906087,38.027687 60.4382609,41.0604522 60.1627826,44.7735652" id="Fill-467" fill="#DCDAC8" mask="url(#mask-12)"></path>
                            <path d="M47.7412174,20.4580174 C38.6587826,19.7943652 30.2942609,30.3042783 32.781913,45.9789913 C33.5582609,50.6921739 34.6685217,54.616487 36.0375652,57.7894957 C37.2313043,59.5550609 38.733913,59.7837913 41.0212174,54.3552 C41.7057391,53.1113739 44.6692174,52.0144696 47.474087,52.0144696 L47.5492174,52.0144696 C47.6827826,52.0144696 47.808,52.0144696 47.9332174,52.0144696 L48.0166957,52.0144696 C50.8215652,52.0144696 53.7850435,53.1113739 54.4612174,54.3552 C56.7485217,59.777113 58.2511304,59.5550609 59.4532174,57.7953391 C60.813913,54.6231652 61.9325217,50.6946783 62.7005217,45.9789913 C65.2048696,30.3042783 56.8236522,19.7910261 47.7412174,20.4580174" id="Fill-468" fill="#F2EFDC" mask="url(#mask-12)"></path>
                            <path d="M48.0918261,20.4580174 L48.0918261,52.0161391 C50.8716522,52.0361739 53.7933913,53.1230609 54.4612174,54.3552 C56.7485217,59.777113 58.2511304,59.5550609 59.4532174,57.7953391 C60.813913,54.6231652 61.9325217,50.6946783 62.7005217,45.9789913 C65.1631304,30.5046261 57.0323478,20.0840348 48.0918261,20.4580174" id="Fill-469" fill="#DCDAC8" mask="url(#mask-12)"></path>
                            <path d="M62.8173913,45.3645913 C62.7422609,46.0474435 62.6337391,46.7453217 62.4667826,47.4615652 C61.7071304,50.7072 60.6135652,53.4102261 59.2695652,55.5923478 C58.0925217,56.8044522 56.6066087,56.9572174 54.3610435,53.2265739 C53.6932174,52.3717565 50.7714783,51.6146087 48.0166957,51.6146087 L47.9332174,51.6146087 C47.808,51.6146087 47.6827826,51.6146087 47.5492174,51.6146087 L47.474087,51.6146087 C44.7109565,51.6146087 41.7975652,52.3717565 41.1297391,53.2265739 C38.8758261,56.9622261 37.3982609,56.8036174 36.2128696,55.5890087 C34.8688696,53.4060522 33.7753043,50.7055304 33.0156522,47.4615652 C32.8570435,46.7436522 32.7485217,46.0432696 32.6733913,45.3570783 C31.9304348,47.397287 31.7801739,49.7313391 32.4730435,52.308313 C34.994087,61.4149565 34.8438261,65.8568348 47.7412174,65.6556522 C61.4733913,65.4419478 60.4883478,61.4174609 63.0177391,52.308313 C63.7106087,49.735513 63.5603478,47.4022957 62.8173913,45.3645913" id="Fill-470" fill="#2C5871" mask="url(#mask-12)"></path>
                            <path d="M62.4667826,47.4615652 C61.7071304,50.7072 60.6135652,53.4102261 59.2695652,55.5923478 C58.0925217,56.8044522 56.6066087,56.9572174 54.3610435,53.2265739 C53.7433043,52.4352 51.1888696,51.7356522 48.626087,51.6346435 L48.626087,65.633113 C61.4233043,65.2591304 60.5467826,61.2154435 63.0177391,52.308313 C63.7106087,49.735513 63.5603478,47.4022957 62.8173913,45.3645913 C62.7422609,46.0474435 62.6337391,46.7453217 62.4667826,47.4615652" id="Fill-471" fill="#0E303F" mask="url(#mask-12)"></path>
                            <path d="M51.0469565,55.0146783 L51.0386087,54.9712696 L51.0302609,54.9712696 L51.0302609,54.9679304 L51.021913,54.9712696 L44.4521739,54.9712696 L44.4521739,54.9679304 C44.4521739,54.9679304 43.2166957,57.7769739 43.5005217,58.4531478 C43.7926957,59.1293217 44.3686957,59.1827478 45.1283478,57.953113 C45.4121739,57.4998261 45.6709565,57.1634087 45.9130435,56.882087 C46.1133913,56.9321739 46.322087,56.9655652 46.5474783,56.9655652 L48.9433043,56.9655652 C49.1603478,56.9655652 49.3690435,56.9330087 49.5693913,56.8862609 C49.8114783,57.1667478 50.0702609,57.5014957 50.3457391,57.953113 C51.1137391,59.1827478 51.6897391,59.1293217 51.9735652,58.4531478 C52.2406957,57.8253913 51.1972174,55.3661217 51.0469565,55.0146783" id="Fill-472" fill="#F2EFDC" mask="url(#mask-12)"></path>
                            <path d="M26.0452174,94.5174261 C25.6027826,88.0027826 24.0333913,82.2135652 21.746087,78.0112696 C22.1467826,80.6116174 22.3721739,83.378087 22.3721739,86.2480696 C22.3721739,88.8550957 22.1885217,91.3744696 21.8462609,93.7627826 C23.232,94.0407652 24.626087,94.2928696 26.0452174,94.5174261" id="Fill-473" fill="#8FC4D7" mask="url(#mask-12)"></path>
                            <path d="M33.1742609,62.6362435 C29.0337391,63.0711652 24.9015652,63.7147826 20.7944348,64.5804522 C15.5353043,65.0946783 11.378087,67.3126957 11.1610435,69.938087 L9.36626087,91.3110261 C17.9561739,93.9698087 27.4393043,95.5174957 37.4316522,95.7295304 L33.1742609,62.6362435" id="Fill-474" fill="#FFFFFF" mask="url(#mask-12)"></path>
                            <path d="M40.2114783,100.39847 L34.4013913,62.930087 C31.5297391,63.1421217 29.7266087,63.3958957 26.8466087,63.8199652 C26.1787826,67.0656 23.8497391,72.948313 23.8497391,72.948313 C23.8497391,72.948313 32.1474783,74.9367652 32.3812174,75.6546783 C32.6066087,76.3725913 25.0017391,78.9312 25.0017391,78.9312 L28.224,98.7072 C32.5064348,99.4977391 28.5829565,101.16647 33.1492174,101.16647 C33.165913,101.16647 38.1245217,101.729948 40.2114783,100.39847" id="Fill-475" fill="#D1ECFB" mask="url(#mask-12)"></path>
                            <path d="M39.9109565,101.47367 L35.1693913,62.1629217 C32.2977391,62.373287 29.8852174,63.0895304 26.9968696,63.5127652 C26.3373913,66.7584 24.6177391,72.180313 24.6177391,72.180313 C24.6177391,72.180313 32.9154783,74.1679304 33.1492174,74.8850087 C33.3746087,75.6045913 25.7697391,79.1891478 25.7697391,79.1891478 L29.0003478,97.9383652 C33.2744348,98.7297391 29.3509565,100.39847 33.9172174,100.39847 C33.933913,100.39847 37.8156522,102.805983 39.9109565,101.47367" id="Fill-476" fill="#FFFFFF" mask="url(#mask-12)"></path>
                            <path d="M62.8173913,62.0268522 C66.9746087,62.3373913 71.1234783,62.8574609 75.2473043,63.6004174 C80.5231304,63.9552 84.7387826,66.0488348 85.0393043,68.6658783 L87.4768696,89.9762087 C78.9704348,92.8912696 69.5373913,94.721113 59.5533913,95.2328348 L62.8173913,62.0268522" id="Fill-477" fill="#FFFFFF" mask="url(#mask-12)"></path>
                            <path d="M56.2810435,99.4760348 L62.0911304,62.0076522 C64.9627826,62.219687 66.765913,62.4734609 69.645913,62.8983652 C70.3137391,66.144 72.6427826,72.0258783 72.6427826,72.0258783 C72.6427826,72.0258783 64.3450435,74.0143304 64.1196522,74.7330783 C63.885913,75.4501565 71.4907826,78.0087652 71.4907826,78.0087652 L68.2685217,97.7856 C63.986087,98.5753043 67.9095652,100.244035 63.3516522,100.244035 C63.3266087,100.244035 58.368,100.807513 56.2810435,99.4760348" id="Fill-478" fill="#D1ECFB" mask="url(#mask-12)"></path>
                            <path d="M56.5815652,100.55207 L61.3231304,61.240487 C64.1947826,61.4508522 66.6156522,62.1670957 69.4956522,62.5911652 C70.1634783,65.8359652 71.8747826,71.2578783 71.8747826,71.2578783 C71.8747826,71.2578783 63.5770435,73.2454957 63.3516522,73.9634087 C63.117913,74.6813217 70.7227826,78.2675478 70.7227826,78.2675478 L67.5005217,97.0167652 C63.218087,97.8064696 67.1415652,99.4760348 62.5753043,99.4760348 C62.5586087,99.4760348 58.6768696,101.882713 56.5815652,100.55207" id="Fill-479" fill="#FFFFFF" mask="url(#mask-12)"></path>
                        </g>
                    </g>
                    <path d="M92.3750137,214.384675 L151.362639,213.50598 C156.964357,213.422536 161.573092,217.895981 161.656537,223.497699 C161.657166,223.539936 161.657532,223.582177 161.657633,223.624418 L161.657633,223.624418 C161.671349,229.333489 157.121308,234.007534 151.413932,234.147295 L94.8734122,235.531844 C88.8131181,235.680247 83.6366785,231.189454 82.9282478,225.16888 L82.9282478,225.16888 C82.3049893,219.872138 86.0935961,215.073029 91.390338,214.449771 C91.7172393,214.411305 92.0458935,214.389578 92.3750137,214.384675 Z" id="Rectangle" fill="#01E9B5" transform="translate(122.259408, 224.520124) rotate(-10.000000) translate(-122.259408, -224.520124) "></path>
                    <path d="M115.533064,254.281541 L148.337846,253.772292 C149.531892,253.753757 150.526338,254.683782 150.587695,255.876394 L150.587695,255.876394 C150.645874,257.007242 149.776304,257.971138 148.645456,258.029317 C148.616188,258.030823 148.58689,258.031701 148.557584,258.03195 L115.380595,258.314644 C114.32047,258.323678 113.453746,257.471599 113.444713,256.411474 C113.44446,256.381732 113.444898,256.351989 113.446027,256.322267 L113.446027,256.322267 C113.488821,255.195479 114.4056,254.299044 115.533064,254.281541 Z" id="Rectangle" fill="#A8B4C1" transform="translate(132.017548, 256.043368) rotate(-10.000000) translate(-132.017548, -256.043368) "></path>
                    <path d="M93.0705362,245.348564 L161.190312,244.810258 C162.105889,244.803023 162.853976,245.539379 162.861211,246.454956 C162.861354,246.473069 162.8612,246.491183 162.86075,246.509291 L162.86075,246.509291 C162.83694,247.466264 162.062406,248.234045 161.105262,248.249474 L92.772938,249.351008 C91.7561074,249.367399 90.9185154,248.556383 90.9021238,247.539553 C90.9012335,247.48432 90.9028289,247.429075 90.9069055,247.373986 L90.9069055,247.373986 C90.9909246,246.238567 91.9320479,245.357561 93.0705362,245.348564 Z" id="Rectangle" fill="#A8B4C1" transform="translate(126.881574, 247.080729) rotate(-10.000000) translate(-126.881574, -247.080729) "></path>
                </g>
                <g id="Group-8" transform="translate(140.691983, 94.580931)">
                    <mask id="mask-14" fill="white">
                        <use xlink:href="#path-13"></use>
                    </mask>
                    <use id="Path-23" fill="#FF987F" xlink:href="#path-13"></use>
                    <path d="M47.1573536,199.911791 C56.3873444,213.321447 65.7519158,221.641171 75.2510679,224.870962 C89.4997961,229.715649 94.1428291,235.473022 99.8438157,244.333528 C105.544802,253.194034 187.220314,348.02212 202.652231,353.673323 C212.940175,357.440792 214.048596,363.256528 205.977495,371.120529 L163.687389,374.741472 C130.549392,345.571527 113.980393,330.986555 113.980393,330.986555 C113.980393,330.986555 96.1403551,307.913601 60.4602787,261.767695 L-7.71791355,199.911791 L47.1573536,199.911791 Z" id="Path-24" fill="#F87C69" mask="url(#mask-14)"></path>
                    <path d="M112.951468,182.994127 L113.395061,182.993549 C113.528509,182.993375 113.636831,183.101415 113.637005,183.234863 C113.637063,183.279722 113.624632,183.323713 113.601105,183.361907 C112.626588,184.943977 111.674175,187.333133 110.743893,190.529392 C109.235313,195.712567 108.782086,201.026844 108.775564,206.020374 C108.766,213.342466 109.109703,220.799237 109.806672,228.390686 L109.806698,228.390684 C109.827144,228.613387 109.663182,228.810499 109.440479,228.830945 C109.428346,228.832059 109.416169,228.832625 109.403985,228.832641 L109.403985,228.832641 C109.152676,228.832968 108.942711,228.641347 108.920125,228.391055 C108.222913,220.664342 107.878883,213.290641 107.888053,206.269949 C107.894718,201.167527 108.450759,195.531918 110.164825,189.814968 C111.307536,186.003669 112.236417,183.730055 112.951468,182.994127 Z" id="Rectangle" fill="#EF715F" mask="url(#mask-14)" transform="translate(110.762440, 205.913095) rotate(24.000000) translate(-110.762440, -205.913095) "></path>
                    <path d="M114.799785,206.441134 C113.970086,208.312725 113.628119,210.424892 113.625579,212.370009 C113.616009,219.696884 113.948145,227.158629 114.621987,234.755244 L114.621985,234.755244 C114.641133,234.971108 114.481663,235.161622 114.2658,235.18077 C114.254441,235.181777 114.243044,235.182289 114.231641,235.182304 L114.231641,235.182304 C113.989073,235.18262 113.7866,234.997273 113.765533,234.755621 C113.091479,227.023448 112.75903,219.644756 112.768205,212.619544 C112.770688,210.718621 113.171187,208.355053 113.962447,206.743898 C115.450751,203.769598 116.38488,203.783504 114.799785,206.441134 Z" id="Rectangle" fill="#EF715F" mask="url(#mask-14)" transform="translate(114.196097, 219.830729) rotate(24.000000) translate(-114.196097, -219.830729) "></path>
                    <path d="M56.653423,157.366706 C62.6022838,171.935703 66.4229097,179.823328 68.1153005,181.029581 C70.6538868,182.83896 60.2520151,162.26219 58.4527191,146.055629 C57.2531884,135.251254 59.1256733,124.969698 64.0701739,115.210961 C74.8906204,99.0461916 80.9225383,90.606247 82.1659275,89.8911271 C84.0310113,88.8184473 91.7495637,102.058545 94.877773,102.058545 C95.1917619,101.930174 84.4211912,88.7321539 84.4211912,86.1909203 C84.4211912,83.6496867 84.2769319,79.3213326 84.9266951,78.554745 C85.5764583,77.7881573 90.541782,83.4857362 91.9319177,83.9098691 C93.3220533,84.3340021 90.3856004,81.2076551 88.2553904,78.9916495 C86.1251804,76.7756439 83.8846895,74.87952 81.21917,70.001694 C78.5536504,65.1238679 71.5086005,55.3245551 69.8119505,53.4631817 C68.1153005,51.6018083 60.2520151,41.8856587 58.4527191,35.863743 C56.653423,29.8418272 50.1563148,25.5419862 40.4718621,23.9452504 C30.7874094,22.3485145 9.75683886,14.4227526 7.49876261,12.4847501 C5.99337844,11.1927485 6.59565133,14.4458205 9.30558128,22.2439664 L56.653423,157.366706 Z" id="Path-25" fill="#F87C69" mask="url(#mask-14)"></path>
                </g>
            </g>
        </g>
    </g>
</svg>