<?xml version="1.0" encoding="UTF-8"?>
<svg width="497px" height="436px" viewBox="0 0 497 436" version="1.1" xmlns="http://www.w3.org/2000/svg" xmlns:xlink="http://www.w3.org/1999/xlink">
    <!-- Generator: Sketch 53.2 (72643) - https://sketchapp.com -->
    <title>Group 47</title>
    <desc>Created with Sketch.</desc>
    <defs>
        <path d="M549.721542,229.560186 C556.24954,210.446226 561.139309,73.7729657 555.749626,54.1800839 C538.439491,-8.76628811 450.228296,-9.86532751 373.030634,18.1557463 C302.25157,43.8486515 204.877533,29.6789354 150.530634,18.1557463 C22.7070597,-8.94485655 -5.7120096,272.381653 1.0306341,346.516246 C5.38586401,394.402883 112.275049,454.282444 198.104236,448.061998 C223.372879,446.230745 248.191457,452.441502 269.575706,464.802112 C306.09732,485.914809 364.148588,490.863205 424.450174,474.296112 C515.156665,449.374188 576.602104,385.212518 561.689077,330.989165 C560.46075,326.525227 558.753278,322.26753 556.602667,318.227147 C542.157705,291.076714 539.645659,259.062319 549.721542,229.560186 Z" id="path-1"></path>
    </defs>
    <g id="Page-1" stroke="none" stroke-width="1" fill="none" fill-rule="evenodd">
        <g id="Group-47" transform="translate(0.000000, -61.000000)">
            <g id="asset">
                <path d="M489.680534,317.918283 C475.230298,290.748959 472.717334,258.712288 482.796897,229.189629 C489.327279,210.06237 490.351027,180.516163 484.959376,160.909649 C467.642919,97.9194797 387.552231,60.389384 310.326377,88.4299545 C239.521465,114.140736 222.187,220.211217 167.820253,208.68001 C39.9499987,181.560551 -6.10623382,272.692405 0.638872245,346.878579 C4.99569265,394.798535 45.1906511,454.068245 131.051183,447.843471 C156.329053,446.010944 181.156695,452.226022 202.548753,464.595232 C239.083705,485.722619 297.156173,490.674459 357.47978,474.095838 C448.219397,449.156574 509.687275,384.950261 494.768802,330.689181 C493.540026,326.222136 491.831931,321.961477 489.680534,317.918283" id="Fill-5" fill="#BFF0EA" transform="translate(248.500000, 281.500000) scale(-1, 1) translate(-248.500000, -281.500000) "></path>
                <path d="M448,299.49931 C448,408.57491 359.129652,497 249.5,497 C139.871736,497 51,408.57491 51,299.49931 C51,190.42371 139.871736,102 249.5,102 C359.129652,102 448,190.42371 448,299.49931" id="Fill-4" fill="#BFF0EA" opacity="0.22" style="mix-blend-mode: multiply;"></path>
                <g id="Group-6">
                    <mask id="mask-2" fill="white">
                        <use xlink:href="#path-1"></use>
                    </mask>
                    <use id="Fill-5" fill="#BFF0EA" opacity="0" transform="translate(282.015317, 242.395694) scale(-1, 1) translate(-282.015317, -242.395694) " xlink:href="#path-1"></use>
                </g>
            </g>
            <g id="Group-38" transform="translate(276.000000, 272.500000) scale(-1, 1) translate(-276.000000, -272.500000) translate(55.000000, 61.000000)">
                <path d="M333.621397,99.3948622 L333,82 L299,98.4778676 L299,103.61262 C309.029411,104.85113 316.03798,105.156795 320.025709,104.529615 C324.013438,103.902434 328.545334,102.19085 333.621397,99.3948622 Z" id="Path-90" fill="#F59179"></path>
                <path d="M301.3217,100.746365 C295.462791,99.6334327 275.561416,95.909182 277.082683,61.7943466 C277.627566,51.4045681 279.644694,42.1397859 283.134065,34 C296.486759,42.8648505 316.160875,46.6371573 342.156413,45.3169203 C342.927657,48.2533719 344.352518,56.2155109 339.900281,61.7943466 C337.88971,64.9085456 336.955567,69.4167749 337.097851,75.3190345 C331.717785,85.4758324 326.999775,91.9955833 322.943822,94.8782873 C316.859893,99.2023432 307.180609,101.859297 301.3217,100.746365 Z" id="Path-91" fill="#FF987F"></path>
                <path d="M334.493336,76.9578842 C338.846829,74.1947253 348.661378,64.3954046 350.168724,56.2252119 C351.17362,50.7784167 351.746852,45.8838185 351.888418,41.5414172 C361.947698,37.459361 366.628996,30.0164486 365.932312,19.2126802 C364.887286,3.00702754 351.926457,-2.14390834 338.791318,0.775024418 C332.515032,2.48523186 328.53836,5.285738 326.861303,9.17654285 C305.793303,5.75364059 291.520618,9.9291115 284.043249,21.7029556 C279.040501,29.5191121 280.324211,34.5212202 287.021991,37.6511651 C293.71977,40.78111 304.474843,47.3604783 340.665301,46.3436317 C342.73816,46.1602641 343.823745,58.1666069 337.079984,64.5326247 C334.820912,66.6522926 333.944291,77.7678358 334.493336,76.9578842 Z" id="Path-92" fill="#35031C"></path>
                <path d="M309.106754,275.285381 L374.654122,273.548729 C386.95645,273.641857 393.689684,265.686621 394.853825,249.683022 C396.017965,233.679424 397.400024,207.659607 399,171.623572 C398.664521,147.695541 389.934901,132.41368 372.811138,125.777989 C351.656611,119.138359 346.991089,118.026202 346.991089,115.533251 C346.991089,113.0403 343.999735,109 336.686939,109 C335.069759,109.171928 347.399685,114.35877 338.882606,118.901958 C335.313019,120.806051 326.891531,124.725622 319.964776,132.736628 C317.237136,135.891228 313.617796,142.034462 309.106754,151.16633 C306.151695,136.259925 301.891253,126.754983 296.325427,122.651504 C296.049712,122.44823 295.178037,121.209029 294.932353,121.006131 C290.218424,117.113143 297.984284,111.251307 297.984284,110.570989 C297.984284,109.89067 292.350542,107.395787 285.702406,113.148873 C283.297348,116.656076 282.916258,119.690036 276.977685,119.690036 C273.018637,119.690036 253.943455,150.292979 219.75214,211.498865 L217.695806,232.270681 C217.917101,234.307983 213.689718,240.112096 205.013657,249.683022 C196.337596,259.253948 189.333044,269.359608 184,280 L221.378902,275.285381 L242.815241,249.683022 C245.913081,244.821488 247.462001,239.567403 247.462001,233.920767 C247.462001,225.450813 256.982156,232.028823 259.293548,235.831842 C261.604941,239.634861 261.604941,248.660805 259.293548,259.147815 C257.75262,266.139155 274.357022,271.518344 309.106754,275.285381 Z" id="Path-84" fill="#F1F7FF"></path>
                <path d="M368,164 C357.976066,212.326359 352.964099,239.847455 352.964099,246.563288 C353.062065,247.830264 339.740699,250.975835 313,256 C343.501943,254.483988 358.752914,252.762192 358.752914,250.834613 C358.752914,248.907033 361.835276,219.962162 368,164 Z" id="Path-85" fill="#E6F1FD"></path>
                <path d="M288.138929,261.533757 C295.39052,216.696224 299.83953,190.495431 301.48596,182.93138 C303.955605,171.585303 303.099337,148.87236 294.812444,143.883828 C293.808578,143.279522 293.808578,141.266118 294.812444,137.843615 C290.979034,138.946402 288.754528,138.946402 288.138929,137.843615 C284.378122,131.10649 281.948211,120.554513 283.450632,117.621013 C285.737486,113.155893 287.02134,109.713643 298.569073,109 C296.609677,111.472406 286.299348,112.649113 294.812444,122.860062 C300.487842,129.667362 305.56934,138.84566 310.056938,150.394956 C315.975213,135.130313 325.010855,125.271396 337.163863,120.818204 C349.316871,116.365011 347.783789,113.071949 332.564618,110.939015 C340.834309,108.578578 346.461098,108.578578 349.444986,110.939015 C353.920817,114.47967 352.192049,125.494347 346.77721,129.627198 C344.039475,131.546943 340.835026,134.285749 337.163863,137.843615 L327.787962,137.843615 L331.131233,143.883828 C319.601605,153.893952 312.230281,164.346116 309.017262,175.24032 C304.197734,191.581626 293.449676,246.934019 293.449676,261.533757 C291.889327,263.488748 290.119078,263.488748 288.138929,261.533757 Z" id="Path-86" fill="#DFE8F4"></path>
                <path d="M308.58539,152 C305.559679,137.278354 300.008343,126.83869 291.931382,120.681007 C288.572722,118.324199 295.204464,111.112171 297.501918,111.112171 C298.339037,110.731483 299.015491,111.027845 299.015491,107.828069 C299.015491,105.694885 299.015491,103.79752 299.015491,102.135976 C304.805088,103.996467 309.774415,104.631723 313.923473,104.041744 C320.14706,103.156776 324.842512,102.469383 333.593635,99 C333.885,101.792794 334.389964,105.830184 335.108527,111.112171 C340.316202,114.594046 341.365639,117.391044 338.256837,119.503165 C336.215416,120.890107 327.295293,124.530294 319.40534,133.437513 C316.655107,136.542338 313.048457,142.729833 308.58539,152 Z" id="Path-87" fill="#5997D7"></path>
                <path d="M281.268808,173.426486 L287.773052,130.857648 C289.783217,118.682217 293.518141,112.594501 298.977823,112.594501 C299.007392,112.623309 299.007392,111.758475 298.977823,110 C292.233998,110.11455 287.929194,115.094854 286.063411,124.940914 C284.197629,134.786973 281.702822,150.788702 278.578991,172.946101 C272.771056,172.851115 269.59716,175.430685 269.057304,180.684812 C268.24752,188.566001 276.273904,189.914146 277.126691,189.914146 C277.979479,189.914146 284.335702,191.285506 286.785293,183.066565 C287.611414,179.743962 285.772586,176.530603 281.268808,173.426486 Z" id="Path-88" fill="#244D7D"></path>
                <path d="M334.315749,112.685919 C343.719543,117.276951 347.670719,124.167641 346.169275,133.357988 C344.955886,140.785151 344.061377,145.275462 343.485747,146.82892 C343.349094,147.197705 332.303439,143.197113 324.826609,161.174816 C319.842057,173.159951 316.459243,181.915138 314.678168,187.440375 C311.396618,195.828993 310.310842,201.596691 311.420842,204.743469 C312.527401,206.611204 313.407546,207.882138 314.061279,208.556272 C314.796287,211.394482 316.250495,212.475093 318.423904,211.798106 C321.684018,210.782626 321.046729,206.379836 318.423904,206.379836 C316.675354,206.379836 315.700722,206.379836 315.500007,206.379836 C313.349868,204.79513 313.075922,201.242376 314.678168,195.721576 C316.280414,190.200776 319.459803,181.381725 324.216333,169.264426 C329.663789,154.566487 335.783242,148.168605 342.574691,150.07078 C352.761865,152.924042 351.694826,162.686626 349.921624,173.365329 C348.739489,180.484465 347.189079,189.320471 345.270393,199.873349 C343.731476,208.025528 339.668479,211.661954 333.081399,210.782626 C331.87549,210.725577 329.152,206.926751 326.732058,210.311776 C325.714931,211.983007 326.28947,213.492346 328.455675,214.839792 C329.310314,215.320275 330.852222,214.719988 333.081399,213.038932 C334.915692,212.852887 336.800841,212.852887 338.736847,213.038932 C343.27991,212.129627 346.415212,207.018156 348.142754,197.704519 C349.870295,188.390882 351.433656,180.529593 352.832837,174.120652 C355.540513,158.881627 353.53708,150.298892 346.822535,148.372448 C347.376213,146.127585 350.391628,136.565145 349.044476,127.384561 C347.918391,119.710501 343.507194,112.391047 334.315749,109 C334.438245,109.019333 334.438245,110.247973 334.315749,112.685919 Z" id="Path-89" fill="#244D7D"></path>
                <path d="M1.56199501,294 L442,294 L442,374.08213 C413.366913,391.212122 392.014338,402.267786 377.942275,407.249124 C326.64021,425.409426 281.944497,424.691521 240.107869,418.372816 C217.602893,414.973826 182.176063,389.492514 156,387.694247 C136.863022,386.379558 98.0426263,391.851233 68.0822451,379.021024 C56.2580264,373.957431 40.471998,366.283088 23,343.145623 C11.3520013,327.720646 4.20599968,311.338772 1.56199501,294 Z" id="Rectangle" fill="#75D4C4"></path>
                <path d="M1.49173796,276 L442,276 L442,294 L-1.98951966e-13,294 C0.1377436,290.517769 0.299505485,287.517769 0.485285656,285 C0.671065826,282.482231 1.00654993,279.482231 1.49173796,276 Z" id="Rectangle" fill="#339D89" transform="translate(221.000000, 285.000000) scale(1, -1) translate(-221.000000, -285.000000) "></path>
                <path d="M258.237487,99.016187 C268.079162,98.6676384 273,103.947948 273,114.857115 C273,125.766282 273,159.527637 273,216.14118 C273,227.380393 268.079162,233 258.237487,233 C248.395811,233 174.645764,233 36.9873441,233 C27.662448,233 23,227.380393 23,216.14118 C23,204.901966 23,171.140611 23,114.857115 C23,104.296496 27.662448,99.016187 36.9873441,99.016187 C46.3122401,99.016187 120.062288,99.016187 258.237487,99.016187 Z" id="Path-93" fill="#75D4C4"></path>
                <polygon id="Path-94" fill="#339D89" points="144.514687 195 168.373971 195 180 276 132 276"></polygon>
                <path d="M308.085464,261.680245 L311,273.748337 C304.771494,273.23797 300.869611,273.653278 299.294351,274.994262 C297.719092,276.335246 282.22521,276.335246 252.812705,274.994262 C247.604235,273.62227 245,271.57089 245,268.840122 C245,266.109355 247.604235,264.514712 252.812705,264.056195 C273.629217,262.494595 285.385433,261.286286 288.081354,260.431269 C290.777275,259.576252 297.445311,259.992577 308.085464,261.680245 Z" id="Path-83" fill="#FF987F"></path>
            </g>
        </g>
    </g>
</svg>