<?xml version="1.0" encoding="UTF-8"?>
<svg width="497px" height="418px" viewBox="0 0 497 418" version="1.1" xmlns="http://www.w3.org/2000/svg" xmlns:xlink="http://www.w3.org/1999/xlink">
    <!-- Generator: Sketch 53.2 (72643) - https://sketchapp.com -->
    <title>Group 49</title>
    <desc>Created with Sketch.</desc>
    <defs>
        <path d="M483.822005,231.834839 C490.352387,212.707579 491.376136,183.161373 485.984484,163.554858 C468.668027,100.564689 460.445734,12.6046393 383.21988,40.6452098 C334.10457,58.4800322 272.933292,48.7350385 250.065901,16.3105952 C239.967531,1.99177591 202.454049,6.17755337 185.799935,2.64520975 C156.183507,-3.63601267 118.618565,0.60864727 96.0216973,22.5382372 C83.8648947,34.3360537 69.5944823,46.725231 60,63.9410198 C10.429163,152.888087 -2.67839908,301.764049 1.66398032,349.523789 C6.02080073,397.443744 46.2157591,456.713454 132.076291,450.48868 C157.354161,448.656153 182.181803,454.871232 203.573861,467.240442 C240.108813,488.367829 298.181281,493.319668 358.504888,476.741048 C449.244505,451.801784 510.712383,387.59547 495.79391,333.33439 C494.565134,328.867346 492.857039,324.606687 490.705642,320.563492 C476.255406,293.394169 473.742442,261.357498 483.822005,231.834839 Z" id="path-1"></path>
    </defs>
    <g id="Page-1" stroke="none" stroke-width="1" fill="none" fill-rule="evenodd">
        <g id="Group-49" transform="translate(0.000000, -82.000000)">
            <g id="Group-14" transform="translate(250.000000, 250.000000) scale(-1, 1) translate(-250.000000, -250.000000) ">
                <path d="M492.680534,320.918283 C478.230298,293.748959 475.717334,261.712288 485.796897,232.189629 C492.327279,213.06237 493.351027,183.516163 487.959376,163.909649 C470.642919,100.91948 390.552231,63.389384 313.326377,91.4299545 C242.521465,117.140736 225.187,223.211217 170.820253,211.68001 C42.9499987,184.560551 -3.10623382,275.692405 3.63887224,349.878579 C7.99569265,397.798535 48.1906511,457.068245 134.051183,450.843471 C159.329053,449.010944 184.156695,455.226022 205.548753,467.595232 C242.083705,488.722619 300.156173,493.674459 360.47978,477.095838 C451.219397,452.156574 512.687275,387.950261 497.768802,333.689181 C496.540026,329.222136 494.831931,324.961477 492.680534,320.918283" id="Fill-5" fill="#BFF0EA" transform="translate(251.500000, 284.500000) scale(-1, 1) translate(-251.500000, -284.500000) "></path>
                <path d="M252.5,500 C142.871736,500 54,411.57491 54,302.49931 C54,193.42371 142.871736,105 252.5,105 C362.129652,105 451,193.42371 451,302.49931 C451,411.57491 362.129652,500 252.5,500 Z" id="Fill-4" fill="#BFF0EA" opacity="0.22" style="mix-blend-mode: multiply;"></path>
                <g id="Group-29" transform="translate(249.500000, 243.500000) scale(-1, 1) translate(-249.500000, -243.500000) ">
                    <mask id="mask-2" fill="white">
                        <use xlink:href="#path-1"></use>
                    </mask>
                    <g id="Fill-5"></g>
                </g>
            </g>
            <g id="Group-39" transform="translate(255.500000, 285.500000) scale(-1, 1) translate(-255.500000, -285.500000) translate(101.000000, 83.000000)">
                <g id="18951" transform="translate(0.000000, 58.000000)">
                    <g id="Group-48">
                        <path d="M186.900859,88.6722115 C186.900859,88.6722115 189.451384,81.9615552 190.391818,80.428409 C191.332251,78.8921212 188.394489,75.577635 186.551472,79.5644435 C184.705544,83.5512519 183.572948,86.1023066 183.572948,86.1023066 L186.900859,88.6722115" id="Fill-116" fill="#EEA886"></path>
                        <path d="M184.362924,94.4355004 L193.415897,66.5561395 C194.010484,64.7201372 192.857899,62.7780952 190.952171,62.4024116 L177.328499,59.73324 C175.620966,59.3999723 173.950023,60.4633993 173.544484,62.1479162 L166.662517,90.772585 C166.226487,92.590409 167.427858,94.3930845 169.278702,94.7021146 L180.734417,96.6259783 C182.323032,96.8956222 183.868959,95.9624726 184.362924,94.4355004" id="Fill-117" fill="#525252"></path>
                        <path d="M188.422381,93.2653238 C188.422381,93.2653238 189.548966,90.8748579 185.638877,86.8737517 C180.443403,81.5589391 173.159552,75.4193108 171.436716,75.6802525 C168.955832,76.058168 169.441223,78.0227291 172.940827,80.7971093 C176.440431,83.5714895 177.596978,84.4682891 177.596978,84.4682891 C177.596978,84.4682891 170.08841,80.8690932 167.997037,81.1630276 C165.90866,81.4569619 165.021774,83.5744888 166.169332,84.3933059 C167.319887,85.2151223 170.24721,86.5348275 170.24721,86.5348275 C170.24721,86.5348275 166.900414,85.44907 166.085438,86.6548007 C165.480198,87.548601 164.847992,88.9102968 167.757338,90.6379108 C167.757338,90.6379108 164.77009,92.2155583 167.400786,94.8879613 C170.028485,97.5663629 170.370056,99.1949991 169.962568,102.68322 C169.55508,106.17144 171.766302,111.672212 171.766302,111.672212 L181.908563,110.538465 C181.908563,110.538465 183.769225,101.4295 185.08757,99.3029749 C186.40891,97.17645 188.422381,93.2653238 188.422381,93.2653238" id="Fill-118" fill="#EEA886"></path>
                        <path d="M123.731534,151.337247 C128.396417,158.338579 134.507775,165.741107 139.431818,165.671728 C142.608037,165.629496 182.588011,114.125516 182.572944,111.543379 C182.551849,108.623393 167.858071,104.596345 167.858071,104.596345 C167.858071,104.596345 160.84568,116.76195 154.405851,121.896059 C147.969036,127.027152 140.11588,137.980118 138.50065,139.111311 C136.882405,140.245521 131.033221,127.66062 131.033221,127.66062 C129.101574,121.597424 126.717903,110.86768 121.08569,100.925246 C115.453477,90.9828117 102.817912,86.6722115 102.817912,86.6722115 C78.2037242,97.7367892 116.54436,139.162592 116.54436,139.162592 C116.54436,139.162592 121.501551,148.139741 123.731534,151.337247" id="Fill-119" fill="#FFCA55"></path>
                        <path d="M127.570814,132.672212 C127.570814,132.672212 127.312618,209.650991 127.570814,227.405149 C127.82901,245.162313 104.572948,184.747065 104.572948,184.747065 C104.572948,184.747065 116.975566,147.082995 127.570814,132.672212" id="Fill-120" fill="#FFCA55"></path>
                        <path d="M103.572948,83.6722115 L125.572948,118.672212 C125.548934,118.584333 124.843517,116.038878 123.651813,108.675242 C123.423678,107.275242 123.180534,105.702515 122.91938,103.941909 C122.844336,103.420696 122.730268,102.902515 122.589185,102.390393 C118.068514,91.8752418 104.098259,83.9419085 103.587957,83.6782721 L103.572948,83.6722115" id="Fill-123" fill="#EDDAD3"></path>
                        <path d="M122.465827,102.262344 C122.465827,102.262344 123.073247,103.538256 123.572948,108.672212 L119.449669,102.365386 C119.449669,102.365386 112.082822,91.6701507 109.563373,88.8910259 C107.037939,86.1088705 103.572948,83.6722115 103.572948,83.6722115 C103.572948,83.6722115 118.064271,90.7276122 122.465827,102.262344" id="Fill-124" fill="#FFCA55"></path>
                        <path d="M124.050448,153.403212 C124.080448,153.127212 124.095448,152.968212 124.095448,152.941212 L124.074448,153.070212 L124.050448,153.403212" id="Fill-125" fill="#2F4563"></path>
                        <path d="M82.975387,0.795167766 C82.975387,0.795167766 65.5478742,0.211920992 59.9868033,14.4788019 C54.4257323,28.7456828 58.6252788,39.6853374 60.2076728,44.8771402 C64.3527583,58.4489603 64.6946522,63.3748268 62.6886729,71.5644577 C60.9126399,78.8263333 59.2757849,82.5736183 57.2244215,89.3610393 C55.173058,96.1484603 58.5950227,95.3929593 58.8915325,95.8885679 C59.1880423,96.3841766 125.572948,110.672212 125.572948,110.672212 C125.572948,110.672212 123.464098,93.697615 119.070913,87.0129422 C115.845612,82.1021856 111.013714,80.4370614 114.653522,65.8861121 C118.296356,51.3412068 120.601871,44.5900499 118.56261,34.0402339 C116.199609,21.8162277 114.711009,14.1796235 103.204614,6.16526889 C96.2668911,1.33308448 88.4729201,0.266317064 82.975387,0.795167766" id="Fill-126" fill="#3B3B40"></path>
                        <path d="M63.3936052,182.329476 C62.8377728,192.354332 60.6387415,202.927375 56.0797002,213.76694 C56.0797002,213.76694 41.7829596,219.657679 34.8821322,210.72314 C32.1606792,207.206868 29.7915571,195.386018 28.7922735,180.303304 C27.2432322,157.082587 34.1076115,123.903644 42.8156538,103.672212 C42.8156538,103.672212 65.8204367,138.995444 63.3936052,182.329476" id="Fill-127" fill="#323657"></path>
                        <path d="M63.5729481,182.67725 C63.0267754,192.597544 60.8659608,203.060308 56.3861504,213.786813 C56.3861504,213.786813 42.3378709,219.61611 35.556972,210.77476 C32.8828147,207.295164 30.5548653,195.597609 29.5729481,180.672212 L63.5729481,182.67725" id="Fill-128" fill="#323657"></path>
                        <path d="M96.7252397,76.6722115 C96.7252397,76.6722115 116.113286,90.5543466 122.572948,123.672212 C122.572948,123.672212 104.37778,88.2586628 98.4466083,81.947783 C98.4466083,81.947783 95.9400541,79.5770768 96.7252397,76.6722115" id="Fill-129" fill="#FFCA55"></path>
                        <path d="M94.2171013,343.642799 C95.5815218,327.611425 96.9888926,315.517546 98.4392136,307.361163 C98.8437453,305.078863 99.2692528,302.920175 99.721729,300.951427 C102.124947,290.402197 102.544461,254.361755 102.57143,233.163801 C102.583416,223.730093 102.520489,217.238954 102.520489,217.238954 C102.520489,217.238954 102.313728,217.073133 101.921183,216.77767 C97.3904277,213.328594 68.342055,192.305505 58.2137797,211.956802 C55.5378774,217.148507 53.7908998,222.723107 52.7301278,228.532872 C49.481888,246.342048 47.0636874,269.140929 49.6856521,287.417418 C51.1799223,297.841027 54.7120825,314.749379 60.2821326,338.142474 C64.4528808,339.323569 68.8599233,340.290423 73.50326,341.043034 C78.1465967,341.795646 85.0512105,342.662234 94.2171013,343.642799 Z" id="Fill-134" fill="#292C47"></path>
                        <path d="M62.0911284,181.405186 C59.3993638,192.077488 45.7339492,245.38165 46.0711793,248.553762 C46.1957418,249.739908 61.1918481,252.235947 74.9666346,254.641441 C97.8830913,258.643554 127.468197,250.117182 137.572948,244.041576 L137.56991,244.029503 C137.357242,243.244775 123.813352,193.022179 122.816852,187.230283 C121.8082,181.396132 124.035134,159.511274 124.542498,153.342104 C124.730861,151.051301 125.715208,147.779589 126.866652,144.257367 L126.866652,144.254349 C128.820156,138.28438 131.256719,131.596082 131.120004,127.705642 C131.019747,124.750839 130.284524,121.986182 129.081433,119.191343 L129.081433,119.188324 C127.711246,116.01923 125.74559,112.807882 123.433589,109.234351 C122.084668,107.145767 120.662833,105.020965 119.247074,102.953508 C114.629148,96.2229562 110.017299,90.1141502 107.75087,88.0074572 C106.067757,86.4470556 104.48794,85.2427999 103.126868,84.3373444 L103.114715,84.3313081 C101.109563,83.0063249 99.5722799,82.3121424 98.8309813,82.0133421 L98.8279432,82.0133421 C98.515018,81.8895965 98.347922,81.8352692 98.347922,81.8352692 L78.3723549,78.6722115 C78.3723549,78.6722115 76.2396023,79.4358123 73.2318743,80.4499224 C69.546648,81.6994509 64.5398443,83.3232343 60.5386547,84.3645081 L60.5265022,84.3675263 C59.9128042,84.5305083 59.3203729,84.6783993 58.7583227,84.8081813 C58.7583227,84.8081813 55.3465263,86.0728007 51.7433289,90.1081138 C48.3072276,93.9562994 44.6736491,100.264306 44.5733915,113.079518 C44.4852864,124.376584 57.5552316,151.383302 59.572536,159.722546 C61.5868023,168.061791 64.7768168,170.729866 62.0911284,181.405186" id="Fill-135" fill="#EB4747"></path>
                        <path d="M74.1152135,80.2330523 C74.1152135,80.2330523 74.677428,56.9075115 72.6811154,53.1542173 C70.6908159,49.4039184 96.8262753,68.7694791 96.8262753,68.7694791 C96.8262753,68.7694791 96.7330739,69.6860857 96.696996,70.3450839 L96.6819635,70.6805739 C96.6308531,72.8672497 96.6549051,73.1967488 96.8473207,75.056921 C96.8713727,75.2815795 96.8984312,75.5361924 96.9284961,75.8147689 C97.2411716,78.8431652 98.0619446,82.117188 99.3667634,84.8370533 C102.240972,90.827946 74.1152135,80.2330523 74.1152135,80.2330523" id="Fill-136" fill="#EEA886"></path>
                        <path d="M97.8811629,81.923069 C97.8811629,81.923069 111.133496,102.498585 106.644948,104.295149 C102.162409,106.091714 77.8899991,101.897707 67.5729481,82.3570363 C67.5729481,82.3570363 83.0004544,74.3635394 97.8811629,81.923069" id="Fill-137" fill="#EEA886"></path>
                        <path d="M66.4699039,117.672212 C66.4699039,117.672212 49.7662663,111.607376 44.5729481,111.19759 C44.5729481,111.19759 48.4642209,80.8369886 65.708891,83.887619 C82.9476157,86.9382493 66.4699039,117.672212 66.4699039,117.672212" id="Fill-138" fill="#EDDAD3"></path>
                        <path d="M97.4353467,77.6005237 C97.4353467,77.6005237 96.4154681,81.5355388 74.4414468,74.6722115 L73.4065257,79.7424449 C73.4065257,79.7424449 70.5033315,80.1861285 62.5729481,83.4816272 C62.5729481,83.4816272 102.19478,121.454829 108.17867,105.95344 C114.162559,90.4551104 98.9486179,81.5202394 98.9486179,81.5202394 L97.4353467,77.6005237" id="Fill-139" fill="#EB4747"></path>
                        <path d="M98.5729481,81.6722115 L128.572948,118.672212 C127.214242,115.518034 125.265055,112.321802 122.972426,108.765091 C121.634808,106.686338 120.224886,104.571538 118.82099,102.513813 C114.241757,95.8149411 109.66855,89.7348891 107.42111,87.6381123 C105.752101,86.0850556 104.185521,84.8864683 102.835852,83.9852748 L102.823802,83.9792668 C100.835451,82.6605204 99.3110482,81.9696054 98.5759608,81.6722115 L98.5729481,81.6722115" id="Fill-140" fill="#EB4747"></path>
                        <path d="M123.860791,152.672212 C125.783276,146.718926 130.926819,133.036603 130.553666,127.236815 C130.359626,124.29629 129.48197,121.533339 128.299821,118.746311 L128.299821,118.743301 C126.953484,115.583064 125.022043,112.052627 122.750287,108.483064 C121.424847,106.403326 119.033682,102.887939 117.639581,100.82626 C113.102039,94.1145176 109.564547,89.6841658 107.340555,87.5863701 C105.68674,86.0243099 104.122482,84.7210882 102.782116,83.8181632 C100.814852,82.4938733 99.3043283,81.9701768 98.5759334,81.6722115 L98.5729481,81.6722115 C98.5729481,81.6722115 129.893931,110.177553 123.860791,152.672212" id="Fill-141" fill="#FFCA55"></path>
                        <path d="M56.3355045,208.672212 C56.3355045,208.672212 58.4509908,211.995716 59.7621209,212.653835 C61.073251,213.311955 62.5729481,216.426058 62.5729481,216.426058 L54.1905546,222.672212 C54.1905546,222.672212 51.1263405,215.316229 47.2872337,213.009818 C43.448127,210.7064 56.3355045,208.672212 56.3355045,208.672212" id="Fill-142" fill="#EEA886"></path>
                        <path d="M42.9620072,101.798873 C42.9620072,101.798873 49.9536682,81.5732112 64.4567827,87.8967548 C78.4010451,93.9753405 59.6043837,118.655608 57.9248227,121.682804 C56.2482663,124.71 40.4832276,149.039464 38.8968086,152.320691 C33.876153,162.690576 35.5617232,167.834693 37.2653209,172.806432 C42.9890485,189.48474 54.1781097,205.083419 56.8942513,207.771908 C59.6164021,210.460397 48.4994508,220.122626 44.1037482,217.089382 C38.2508236,213.052112 27.7648344,192.037141 24.8864454,187.261974 C21.365076,181.410201 12.4685104,170.87701 18.7721222,152.577745 C23.0175958,140.254244 42.9620072,101.798873 42.9620072,101.798873" id="Fill-143" fill="#FFCA55"></path>
                        <path d="M65.1169598,210.672212 L46.5729481,225.649666 C46.5729481,225.649666 61.1167949,247.648566 68.0912857,238.403714 C75.0688116,229.161916 65.1169598,210.672212 65.1169598,210.672212" id="Fill-144" fill="#DBCAC3"></path>
                        <path d="M103.352514,126.726643 L103.355525,126.732671 C100.324008,94.284173 74.4161271,74.6722115 74.4161271,74.6722115 L73.4166597,79.494578 C46.7621893,87.0355535 46.129996,92.9640502 44.8927036,110.83996 C44.414043,117.70279 46.3316958,126.856244 48.8062807,136.702914 C49.8087585,140.69945 50.910581,144.813531 51.9732677,148.93364 C55.122192,161.119158 57.997166,173.380024 57.434213,182.979547 C56.2089623,203.824226 0.572948148,295.542622 0.572948148,295.542622 C0.572948148,314.925521 48.7852076,342.672212 48.7852076,342.672212 C46.536406,317.116683 107.690564,152.466024 103.352514,126.726643" id="Fill-145" fill="#FFCA55"></path>
                        <path d="M51.6699123,148.672212 L51.6699123,148.669222 C59.7920834,138.990569 64.5729481,110.672212 64.5729481,110.672212 C59.7361496,124.498004 48.575892,136.538763 48.575892,136.538763 L48.5729481,136.538763 C49.5532609,140.503512 50.6307218,144.584872 51.6699123,148.672212" id="Fill-146" fill="#B38761"></path>
                        <path d="M98.5729481,307.544727 L98.5729481,307.547764 C99.9411049,311.868932 101.351451,316.314603 102.731662,320.672212 C109.412727,294.663212 110.572948,265.672212 110.572948,265.672212 C108.544822,281.839394 98.5729481,307.544727 98.5729481,307.544727" id="Fill-147" fill="#151624"></path>
                        <path d="M48.4406395,171.264254 L47.5729481,169.853281 L47.575961,169.853281 L48.4406395,171.264254 M49.3023051,172.672212 L47.575961,169.853281 C47.8260248,169.696506 66.201196,158.119293 69.6809997,137.301414 C72.2147788,122.181694 66.0806833,105.663062 52.1765326,88.692194 L55.1260805,86.6722115 C69.6719612,104.429968 75.6493903,121.774683 72.9378549,137.886304 C69.1748464,160.235752 50.1157657,172.174753 49.3023051,172.672212" id="Fill-148" fill="#323657"></path>
                        <path d="M52.6044481,88.1772115 C52.6044481,88.1772115 53.4864481,86.8932115 55.5414481,86.1672115 C55.5414481,86.1672115 55.1574481,88.1052115 52.6044481,88.1772115" id="Fill-149" fill="#323657"></path>
                        <path d="M96.4604155,9.88616866 C96.4604155,9.88616866 115.53289,22.4030248 109.333511,52.6674368 C103.134131,82.9258122 80.6182227,66.2859695 78.168492,64.5715797 C75.7247654,62.85719 68.1654246,43.9174088 67.8682147,35.6563442 C67.5920195,27.8782062 63.5541667,-3.30678484 96.4604155,9.88616866" id="Fill-150" fill="#EEA987"></path>
                        <path d="M96.0207321,15.8720471 C94.0185524,15.2729895 87.2661031,28.4188081 83.6331888,31.6604095 C79.9972545,34.9020108 73.3142625,43.045546 72.6589487,51.9645111 C72.003635,60.8834762 64.5294347,32.4753712 67.114451,21.9295236 C69.6994674,11.3867169 73.1542089,-4.07322807 96.5341115,8.18768816 C119.914014,20.4486044 113.871236,42.3704658 113.871236,42.3704658 C113.871236,42.3704658 106.131287,18.8764581 96.0207321,15.8720471" id="Fill-151" fill="#3B3B40"></path>
                        <path d="M79.1203358,36.7859966 C78.4910411,33.2384068 70.4575563,30.2407383 70.5742061,35.566606 C70.6908558,40.8954625 75.1266164,47.0432234 77.637656,46.6546921 C80.1456258,46.2661608 79.7035846,40.0556371 79.1203358,36.7859966" id="Fill-152" fill="#EEA987"></path>
                        <path d="M97.5729481,75.6722115 L97.5325887,75.6722115 C83.2546475,75.4967629 78.5729481,64.6722115 78.5729481,64.6722115 C88.4672292,72.2039689 96.3807913,70.9538977 97.4177194,70.743986 L97.4021965,71.0948831 C97.3494187,73.3819808 97.3742553,73.726612 97.5729481,75.6722115" id="Fill-153" fill="#A87860"></path>
                        <path d="M187.025781,88.6722115 C186.890775,88.4538073 186.741706,88.229579 186.572948,87.9995266 L189.478388,78.6722115 C190.341864,79.1294043 190.865012,80.3000508 190.398116,81.0338889 C189.498077,82.4374998 187.07922,88.5353449 187.025781,88.6722115" id="Fill-156" fill="#F3D4DE"></path>
                        <path d="M186.736358,87.6722115 C186.379279,87.1900803 185.950784,86.6776263 185.430044,86.1348496 C180.374403,80.8708254 173.333999,74.8093136 171.438506,74.8093136 C171.396846,74.8093136 171.361139,74.8123458 171.325431,74.8184104 C171.227234,74.8335717 171.134989,74.8517654 171.045719,74.869959 L174.027327,62.1495778 C174.372503,60.6728613 175.666914,59.6722115 177.104156,59.6722115 C177.309477,59.6722115 177.514797,59.6934374 177.720117,59.732857 L191.015352,62.4042886 C192.875138,62.7802904 193.999936,64.7239768 193.419683,66.5615336 L186.736358,87.6722115 M170.144095,85.7922029 C170.144095,85.7922029 169.423986,85.5526534 168.572948,85.4222657 L168.653291,85.0735544 C169.474572,85.4859434 170.144095,85.7922029 170.144095,85.7922029 M177.443381,83.7029674 C177.443381,83.7029674 172.676379,81.3772148 169.703698,80.5979209 L170.408928,77.5868747 C170.908839,78.2903619 171.712266,79.0999785 172.81921,79.9914665 C176.294778,82.7963181 177.443381,83.7029674 177.443381,83.7029674" id="Fill-157" fill="#87A9D0"></path>
                        <path d="M181.977423,109.672212 C179.47854,107.677771 173.069534,105.573879 170.028327,104.649626 C169.911473,103.737535 169.869525,102.843685 169.962409,102.053205 C170.369901,98.5173297 170.028327,96.8664436 167.400605,94.1514506 C165.18337,91.868181 166.957158,90.3723505 167.571392,89.9588689 C167.68525,89.8828613 167.75716,89.8433373 167.75716,89.8433373 C167.70922,89.8159746 167.664276,89.7855715 167.619332,89.7582088 C164.865766,88.0465166 165.491985,86.6966209 166.085245,85.8058113 C166.375883,85.3680072 166.990117,85.2281532 167.658283,85.2281532 C167.990868,85.2281532 168.338435,85.2646368 168.665027,85.3132817 C169.521959,85.4440149 170.247054,85.684199 170.247054,85.684199 C170.247054,85.684199 169.572895,85.3771281 168.745927,84.9636466 C167.847048,84.5167216 166.768393,83.9481844 166.169141,83.5134207 C165.021572,82.6834172 165.908466,80.5369614 167.996861,80.2390114 C168.080756,80.2268502 168.170644,80.2207696 168.266525,80.2207696 C168.668024,80.2207696 169.198362,80.315019 169.803607,80.4761552 C172.796874,81.2575138 177.596887,83.5894284 177.596887,83.5894284 C177.596887,83.5894284 176.440329,82.6803769 172.940694,79.8680941 C171.826085,78.9742442 171.017094,78.1624826 170.513722,77.4571316 C169.494992,76.0403491 169.713719,75.0613707 171.154922,74.7330177 C171.24481,74.7147758 171.337694,74.696534 171.43657,74.6813325 C171.472526,74.6752518 171.508481,74.6722115 171.550428,74.6722115 C173.459048,74.6722115 180.548205,80.7497828 185.638856,86.0277536 C186.163202,86.5719683 186.594663,87.08578 186.954215,87.5691886 C187.133991,87.8093728 187.292793,88.0434763 187.436613,88.2714992 C189.141487,90.9621698 188.422384,92.5066452 188.422384,92.5066452 C188.422384,92.5066452 186.408895,96.4712039 185.087543,98.6267807 C183.921997,100.533052 182.330982,107.981802 181.977423,109.672212" id="Fill-158" fill="#F3D4DE"></path>
                        <path d="M139.867776,165.672212 C136.030353,165.672212 131.491892,161.282574 127.459397,156.076469 C127.468541,151.906765 127.477685,148.077506 127.486829,144.772473 C129.55032,138.614326 131.693059,131.489073 131.443124,127.708019 C131.443124,127.708019 136.862455,139.219898 138.761354,139.216885 C138.846698,139.216885 138.925946,139.195795 138.99605,139.144578 C140.629774,138.014781 148.572843,127.075333 155.083356,121.950574 C161.596916,116.822802 168.689595,104.672212 168.689595,104.672212 C168.689595,104.672212 169.338818,104.846953 170.369039,105.154258 C173.462752,106.070147 179.982408,108.154999 182.524434,110.131391 C183.179753,110.63754 183.569896,111.137663 183.572944,111.610672 C183.588184,114.189622 143.150464,165.630032 139.93788,165.672212 C139.913496,165.672212 139.89216,165.672212 139.867776,165.672212 M128.376843,117.536833 C127.331382,115.352559 126.039033,113.029697 124.572948,110.664655 C125.545258,110.872538 126.081705,110.987024 126.081705,110.987024 C126.081705,110.987024 126.081705,110.984011 126.078657,110.974972 C126.956478,113.237579 127.712381,115.448969 128.376843,117.536833" id="Fill-159" fill="#FFE5D1"></path>
                        <path d="M127.498148,205.672212 C125.129478,196.762371 123.197143,189.278954 122.838725,187.246832 C121.803991,181.392746 124.08851,159.433109 124.608994,153.24286 L124.584061,153.579023 C124.615228,153.300401 124.630811,153.139891 124.630811,153.112635 L124.608994,153.24286 C124.646394,152.767386 124.721194,152.252541 124.827161,151.701355 C124.764828,152.170772 124.702494,152.640189 124.630811,153.112635 C125.332062,151.022971 126.441597,147.988416 127.572948,144.672212 C127.563598,147.994473 127.554248,151.843694 127.544898,156.035135 C127.510615,171.00197 127.479448,190.332871 127.498148,205.672212" id="Fill-160" fill="#FFE5D1"></path>
                        <path d="M124.050448,153.403212 L124.074448,153.070212 L124.095448,152.941212 C124.095448,152.968212 124.080448,153.127212 124.050448,153.403212" id="Fill-163" fill="#6EA2D5"></path>
                        <path d="M124.083537,110.34886 C123.731494,109.774684 123.370425,109.194464 123.000329,108.614245 C121.664372,106.526058 119.254234,102.996387 117.849072,100.926332 C113.275527,94.1873214 109.709967,89.7389698 107.468328,87.6326511 C107.444256,87.6084753 107.420185,87.5873214 107.399123,87.5661676 C101.784494,79.9235852 96.9642174,76.4180907 96.9160748,76.3818269 C96.9040392,76.2730357 96.8920036,76.1642445 96.8829768,76.0554533 C96.8528877,75.7744093 96.8258075,75.5175412 96.8017362,75.2908929 C96.6633263,73.9491346 96.6121748,73.3961126 96.6121748,72.386772 C96.6121748,71.9818269 96.6212015,71.5043544 96.6362461,70.875783 L96.6512906,70.5403434 C102.034233,69.4826511 107.137347,64.8771566 109.622708,52.7620467 C110.964683,46.2134203 111.124155,40.4988599 110.549453,35.5579258 C112.231434,39.4472115 113.191277,42.3452885 113.191277,42.3452885 C113.191277,42.3452885 119.212109,20.5598489 95.9171162,8.37523352 C89.8270793,5.19006868 85.0970704,3.88759615 81.3810647,3.88759615 C70.8829724,3.88759615 69.6723289,14.6227608 67.7676879,22.3620466 C65.5320667,31.4521564 69.6794078,53.5779808 71.5509507,53.5779808 C71.8367973,53.5749588 72.0414033,53.0521566 72.1286618,51.8796291 C72.255036,52.2241346 72.3814103,52.5686401 72.5107935,52.9101236 C72.5198203,52.9826511 72.5559272,53.0793544 72.6161054,53.1941896 C72.6191143,53.2002335 72.6221232,53.2062775 72.6251322,53.2123214 C72.7214173,53.4691896 72.8207114,53.7260577 72.9200055,53.9799038 C73.9971958,57.5972115 74.1446325,67.9686401 74.1205612,74.6200137 L73.1216026,79.4551786 C67.359537,81.0900687 62.8130717,82.6494093 59.2174224,84.2722115 C60.5563881,80.222761 61.7599527,76.8109478 63.0357311,71.564794 C65.0306395,63.3752335 64.6906325,58.4494093 60.5684237,44.877706 C58.994763,39.6859478 54.8183938,28.7463874 60.3487732,14.4796291 C65.4609138,1.29171703 80.6529081,0.793090659 82.9246363,0.793090659 C83.1111888,0.793090659 83.2104829,0.796112637 83.2104829,0.796112637 C84.0349246,0.717541209 84.9105179,0.672211538 85.825227,0.672211538 C90.994537,0.672211538 97.4697146,2.06232143 103.328065,6.16616758 C114.770956,14.1804533 116.25134,21.8169918 118.6013,34.0408929 C120.629307,44.5906181 118.336516,51.341717 114.713786,65.8864973 C111.094066,80.4373214 115.899298,82.1024313 119.106797,87.0131456 C123.41255,93.5980357 125.509761,110.179629 125.569939,110.660124 C125.572948,110.66919 125.572948,110.672212 125.572948,110.672212 C125.572948,110.672212 125.04338,110.557376 124.083537,110.34886 Z" id="Fill-164" fill="#3B3B40"></path>
                        <path d="M47.7570218,185.663548 C46.2128265,185.574994 43.9441379,184.072955 40.950956,181.157431 C39.6194016,178.305737 38.3836202,175.354354 37.3270272,172.369742 C35.5753071,167.403444 33.8421238,162.264957 39.0046004,151.90642 C39.8140372,150.281196 44.2103293,143.481235 48.6467844,136.672212 C49.6755723,140.677875 50.8063123,144.801352 51.8968893,148.930871 C53.1882808,153.815605 54.43642,158.712423 55.431224,163.446115 C51.2666408,167.400423 47.8682421,169.49086 47.7601112,169.557319 L48.3347496,170.475661 L49.530368,172.381825 C49.8331345,172.203595 52.6043741,170.508891 56.1974084,167.35209 C57.155139,172.635578 57.7081511,177.641147 57.5444101,182.109002 C53.1627235,184.601606 49.9002607,185.786455 47.7570218,185.663548 Z" id="Fill-165" fill="#66B2FF"></path>
                        <path d="M43.1322226,215.672212 C40.3450956,215.09594 37.6431646,213.763313 35.5954174,211.137077 C34.0892735,209.213172 32.6926673,204.780086 31.5729481,198.678214 C35.2728896,205.119245 39.7091682,212.334641 43.1322226,215.672212 M52.1538727,200.707169 C48.8373133,195.901908 44.6992208,189.142727 41.2305257,181.672212 L57.5729481,182.617656 C57.5607773,182.932805 57.5486064,183.247953 57.5303501,183.557099 C57.3051892,187.296858 55.2969973,193.329697 52.1538727,200.707169" id="Fill-166" fill="#66B2FF"></path>
                        <path d="M107.572948,87.6722115 C105.849068,86.1593772 104.223063,84.8932329 102.824383,84.0164428 C100.743729,82.7086882 99.1461399,82.1915306 98.375761,81.8972858 L98.3726037,81.8972858 L96.7844866,78.0899365 C96.7023971,77.6143893 96.6297794,77.1418143 96.5729481,76.6722115 C96.6234648,76.7078776 101.681444,80.1555944 107.572948,87.6722115" id="Fill-167" fill="#FFE5D1"></path>
                        <path d="M75.6731666,254.642187 C74.3124348,254.404258 72.9426915,254.163317 71.5729481,253.922375 C87.6644282,200.830956 106.116913,141.890686 103.668797,127.346866 C103.071037,120.913733 101.572129,114.980553 99.550556,109.607561 C100.752085,109.920785 101.875515,110.089444 102.902823,110.089444 C105.489114,110.089444 107.468634,109.017255 108.480922,106.430148 C110.244166,101.927557 110.163063,97.9881664 109.174805,94.6722115 L111.908284,98.0604488 C119.718224,110.306291 127.750447,129.07562 124.899819,152.02528 C124.797689,152.573422 124.725597,153.085422 124.689551,153.558269 C124.187913,159.71432 121.98611,181.552639 122.98338,187.374383 C123.328819,189.395279 125.19119,196.837354 127.474095,205.697971 C131.721501,222.172333 137.431768,243.543828 137.569944,244.052817 L137.572948,244.064864 C131.331004,247.853666 117.57049,252.594186 102.596433,254.648211 C97.8894419,255.292729 93.0653021,255.672212 88.313254,255.672212 C83.9877488,255.672212 79.7253239,255.355976 75.6731666,254.642187 Z" id="Fill-173" fill="#41CFB8"></path>
                        <path d="M93.6933162,78.6722115 C90.6254227,78.6722115 85.1521573,77.8607788 75.3904065,74.8572666 C74.999459,74.5332991 74.7786184,74.363746 74.7636967,74.3516351 C74.7875714,67.6875924 74.6413391,57.2964092 73.5729481,53.6722115 C75.6560121,59.0979109 77.8703866,63.5971237 78.9954799,64.3934178 C79.9146542,65.0443806 83.6838658,67.8329237 88.3513615,69.4103731 C85.6296505,68.5504966 82.4364149,67.0275464 78.9954799,64.3934178 C78.9954799,64.3934178 83.4958529,74.8542389 97.2207969,75.023792 L97.2595933,75.023792 C97.122314,73.6794781 97.0715803,73.1254028 97.0715803,72.1141396 C97.0715803,73.1254028 97.122314,73.6794781 97.2595933,75.023792 C97.2834679,75.2508721 97.3103269,75.5082295 97.3401702,75.7898087 C97.3491232,75.8988072 97.3610606,76.0078056 97.3729979,76.116804 C97.4267159,76.595186 97.4953555,77.0765957 97.5729481,77.5610331 C97.5610108,77.6034214 97.2118439,78.6722115 93.6933162,78.6722115" id="Fill-174" fill="#FF987F"></path>
                        <path d="M57.5344481,85.4257115 C57.8824481,85.2397115 58.2424481,85.0717115 58.6114481,84.9187115 C58.2424481,85.0867115 57.8824481,85.2547115 57.5344481,85.4257115" id="Fill-175" fill="#F3EDF3"></path>
                        <path d="M102.490992,109.672212 C101.447156,109.672212 100.305651,109.504812 99.0847896,109.193928 C91.7626743,90.1612216 77.7258223,78.1891801 74.5729481,75.6722115 C84.5565409,78.6375711 90.1541896,79.4386965 93.291803,79.4386965 C96.8902915,79.4386965 97.2473934,78.3834829 97.259602,78.341633 L98.794835,82.1708927 L108.863888,94.370119 C109.868046,97.6613095 109.950455,101.57128 108.158841,106.040244 C107.130265,108.60803 105.118896,109.672212 102.490992,109.672212" id="Fill-176" fill="#25BFA6"></path>
                        <path d="M111.572948,97.6722115 L108.762304,94.2146626 L98.5729481,81.6722115 C98.5729481,81.6722115 104.994188,87.4409399 111.572948,97.6722115" id="Fill-177" fill="#F1A4CD"></path>
                        <path d="M123.860589,152.672212 C123.929249,152.202691 123.988953,151.736179 124.048657,151.269668 C126.881613,128.335374 118.899185,109.578613 111.137661,97.3409695 C104.779182,87.3215121 98.5729481,81.6722115 98.5729481,81.6722115 L98.5759333,81.6722115 C99.3043225,81.9701768 100.814834,82.4938733 102.782082,83.8181632 C104.104526,84.7060394 105.641905,85.9881929 107.271825,87.5201556 C107.292721,87.5412238 107.316603,87.5622921 107.340485,87.5863701 C109.56446,89.6841658 113.101923,94.1145176 117.63943,100.82626 C119.033519,102.887939 121.424665,106.403326 122.750094,108.483064 C123.117274,109.060936 123.475498,109.638808 123.824767,110.21066 C125.260649,112.573314 126.526374,114.893831 127.550298,117.0759 C127.815981,117.641733 128.066738,118.198536 128.299584,118.743301 L128.299584,118.746311 C129.481724,121.533339 130.359373,124.29629 130.553411,127.236815 C130.798197,131.014051 128.699601,138.13211 126.678619,144.284039 C125.594991,147.579715 124.53226,150.595484 123.860589,152.672212" id="Fill-178" fill="#FFE5D1"></path>
                        <path d="M44.101236,216.672212 L44.101236,216.672212 C43.6475856,216.361559 43.1668964,215.948361 42.6651771,215.447697 C39.2853315,212.093855 34.9050515,204.843282 31.2518139,198.370848 C28.4307694,193.373261 26.0423451,188.840145 24.8856868,186.924956 C21.3646387,181.088908 12.4688849,170.584022 18.7719215,152.333932 C23.0170077,140.043547 42.9595992,101.691514 42.9595992,101.691514 C42.9595992,101.691514 44.912399,96.0545254 48.8961104,91.6722115 C45.4321441,96.2988251 44.9724851,102.201226 44.365615,110.986966 C43.8879302,117.851485 45.8016739,127.011215 48.2712145,136.867651 C43.9570293,143.665818 39.6819,150.454936 38.8947715,152.077568 C33.8745741,162.419588 35.5599905,167.549881 37.2634327,172.508259 C38.2909058,175.488112 39.4926287,178.434788 40.7874851,181.281935 C44.2123954,188.788872 48.2982532,195.581006 51.5729481,200.409695 C49.5119934,205.328865 46.9583322,210.842196 44.101236,216.672212" id="Fill-179" fill="#339D89"></path>
                        <path d="M48.7851928,342.672212 C48.7851928,342.672212 0.572948148,314.925521 0.572948148,295.542622 C0.572948148,295.542622 27.8505722,250.574055 44.6277711,216.452798 C47.4907024,210.626777 50.0495789,205.117223 52.1147428,200.201424 C55.2245304,192.793063 57.2114228,186.734965 57.4341956,182.979547 C57.4522583,182.669108 57.4643,182.35264 57.4763418,182.036172 C57.6358953,177.578497 57.097026,172.584334 56.1637886,167.312885 C62.2990715,161.791275 70.8908758,151.781851 73.284178,137.55587 C75.9935767,121.449166 70.0208578,104.109745 55.486439,86.3574082 C55.486439,86.3574082 55.4834285,86.3604222 55.4804181,86.3604222 C56.2962481,85.8781855 57.1783079,85.4049908 58.1356288,84.9378241 C58.4848402,84.7660273 58.8460934,84.5972444 59.2163779,84.4284616 C59.312712,84.3832519 59.4060358,84.3410562 59.5053804,84.2988605 C63.1028598,82.6803538 67.6516391,81.1251406 73.4166375,79.494578 L74.4161046,74.6722115 C74.4311568,74.6842675 74.6539296,74.8530503 75.0482976,75.175546 C78.1580852,77.7133164 92.0031126,89.7843023 99.2251654,108.974307 C101.251194,114.351245 102.753405,120.288784 103.355493,126.732671 L103.352483,126.726643 C105.805994,141.281148 87.3128424,200.264717 71.1858992,253.395139 C64.6080813,275.068662 58.4216209,295.777712 54.2130216,312.089366 C53.8005909,313.689789 53.4092333,315.235961 53.0359384,316.748978 C50.0525894,328.850104 48.378783,338.045754 48.7851928,342.672212 M51.973252,148.93364 C60.2790642,139.174376 65.1680237,110.628981 65.1680237,110.628981 C60.2218658,124.56562 48.8092764,136.702914 48.8092764,136.702914 C48.143115,134.054587 42.0532453,135.766178 41.5037391,133.249567 C40.0095162,126.406373 42.727148,115.647383 43.077109,110.631995 C43.2736248,107.794753 43.3226796,105.3404 43.5949601,103.050754 C44.1652395,98.2551902 47.0830939,94.6677764 49.4324381,91.5384381 C50.2753621,90.4172379 51.2959023,89.3683732 52.5422257,88.3737601 C66.4324097,105.342462 72.5616717,121.856053 70.0298891,136.971158 C68.0159028,149.027074 61.0075914,157.984619 55.4171988,163.41581 C54.4478361,158.692905 53.2316172,153.807245 51.973252,148.93364 Z" id="Fill-180" fill="#339D89"></path>
                        <path d="M51.6699123,148.672212 C50.6307218,144.584872 49.5532609,140.503512 48.5729481,136.538763 L48.575892,136.538763 C48.575892,136.538763 59.7361496,124.498004 64.5729481,110.672212 C64.5729481,110.672212 59.7920834,138.990569 51.6699123,148.669222 L51.6699123,148.672212" id="Fill-181" fill="#CAC4D4"></path>
                        <path d="M102.731662,320.672212 C101.351451,316.314603 99.9411049,311.868932 98.5729481,307.547764 L98.5729481,307.544727 C98.5729481,307.544727 108.544822,281.839394 110.572948,265.672212 C110.572948,265.672212 109.412727,294.663212 102.731662,320.672212" id="Fill-182" fill="#5C8BC4"></path>
                        <path d="M49.3023051,172.672212 L48.1363449,170.76981 L47.5729481,169.853281 L47.575961,169.853281 C47.6814096,169.786953 50.9955083,167.700643 55.0567857,163.75414 C60.651587,158.321291 67.6654251,149.361011 69.6809997,137.301414 C72.2147788,122.181694 66.0806833,105.663062 52.1765326,88.692194 C54.7404399,88.6198364 55.1260805,86.6722115 55.1260805,86.6722115 C69.6719612,104.429968 75.6493903,121.774683 72.9378549,137.886304 C70.5426654,152.116629 61.9440855,162.129109 55.8039643,167.652404 C52.3000581,170.802974 49.5975612,172.494332 49.3023051,172.672212" id="Fill-183" fill="#66B2FF"></path>
                        <path d="M52.6044481,88.1772115 L52.6044481,88.1772115 C52.6044481,88.1772115 52.6044481,88.1772115 52.6074481,88.1742115 C52.6614481,88.0962115 53.5524481,86.8722115 55.5354481,86.1702115 C55.5384481,86.1702115 55.5414481,86.1672115 55.5414481,86.1672115 C55.5414481,86.1672115 55.1574481,88.1052115 52.6044481,88.1772115" id="Fill-184" fill="#719BD2"></path>
                        <path d="M94.8487063,70.6722115 C93.2794363,70.6722115 91.0497398,70.4596805 88.3716805,69.6217009 C83.6335755,68.0398627 79.8073437,65.2435612 78.8742642,64.5907873 C77.7321507,63.7922778 75.4842773,59.2805472 73.3697011,53.8397523 C73.2697283,53.584715 73.1697555,53.3266416 73.0728122,53.0685681 C73.0334289,52.9653388 72.9970752,52.8651456 72.957692,52.7649524 C72.8274244,52.4218665 72.7001863,52.0757445 72.5729481,51.7296225 C72.7668348,49.0912013 73.4939097,46.5195756 74.5148441,44.124047 C75.7054293,45.7119576 77.0232526,46.7472874 78.0623639,46.7472874 C78.1411303,46.7472874 78.2168673,46.7412151 78.2926043,46.7290705 C80.7676885,46.33437 80.3314435,40.0252339 79.7558426,36.7036772 C79.7073709,36.4213145 79.6164865,36.1450241 79.4862189,35.8748061 C80.9646046,33.9984605 82.4248134,32.4834177 83.5820744,31.4571964 C87.1447415,28.2904837 93.7035633,15.6722115 95.8696407,15.6722115 C95.9181124,15.6722115 95.966584,15.6782839 96.0089967,15.6934646 C102.576907,17.6366057 108.148119,28.1568927 111.256364,35.3313338 C111.834994,40.2954519 111.674432,46.0368265 110.323284,52.6161806 C107.820935,64.7881376 102.682939,69.4152422 97.263201,70.4778974 L97.263201,70.4748613 C96.972371,70.5325483 96.1301759,70.6722115 94.8487063,70.6722115" id="Fill-185" fill="#FF987F"></path>
                        <path d="M66.2377543,22.3806946 C66.316424,22.063019 64.4947521,19.4131289 64.57556,19.0873383 C66.4531901,11.5173578 71.0627144,3.67221154 81.1380817,3.67221154 C84.8579423,3.67221154 89.4846242,5.62667111 95.5809788,8.79529496 C118.900137,20.916634 112.87306,42.5889389 112.87306,42.5889389 C112.87306,42.5889389 111.912221,39.7059121 110.228495,35.8368239 C107.138149,28.7329737 101.59902,18.3161979 95.0689332,16.3921759 C95.0267647,16.3771444 94.9785722,16.3711319 94.9303797,16.3711319 C92.7767761,16.3711319 86.2557249,28.8652502 82.7135743,32.0008049 C81.5629777,33.0169291 80.1111778,34.517065 78.6413058,36.3749488 C77.7617922,34.5531404 75.1714439,33.0590171 73.1503698,33.0590171 C71.6594135,33.0590171 70.4786966,33.8707139 70.5238771,35.9691004 C70.5901419,39.0114603 72.0208575,42.3213796 73.6985598,44.5430238 C72.6835047,46.9149823 71.9606168,49.4613052 71.7678467,52.0737664 C71.7248286,52.6482206 71.851036,53.6630108 71.7678467,54.1631342 C71.6821188,54.6785193 71.3855078,54.6706858 71.2402861,54.6722115 C69.3668016,54.6722115 63.9998139,31.4235983 66.2377543,22.3806946 Z" id="Fill-186" fill="#3B3B40"></path>
                        <path d="M73.8109823,44.143329 C72.1015223,41.9803149 70.6437242,38.7577458 70.5762051,35.795675 C70.5301694,33.7526657 70.9626383,32.6722115 72.4818173,32.6722115 C74.5411489,32.6722115 77.9511289,34.4170828 78.847291,36.1908129 C78.9792601,36.4513112 79.0713316,36.7176634 79.1204364,36.9898695 C79.7035556,40.19195 80.1454986,46.2741467 77.6380859,46.6546499 C77.5613597,46.6663576 77.4846335,46.6722115 77.4048382,46.6722115 C76.3521545,46.6722115 75.0171184,45.6741225 73.8109823,44.143329 Z" id="Fill-187" fill="#FF987F"></path>
                        <path d="M97.5729481,75.6722115 L97.5325887,75.6722115 C83.2546475,75.4967629 78.5729481,64.6722115 78.5729481,64.6722115 C82.1525233,67.3979307 85.4744187,68.973835 88.3057913,69.86361 C91.0502357,70.7283209 93.3352031,70.9476316 94.943373,70.9476316 C96.2566083,70.9476316 97.1196802,70.8035132 97.4177194,70.743986 L97.4177194,70.747119 L97.4021965,71.0948831 C97.3866736,71.7465493 97.3773599,72.241565 97.3773599,72.6613884 C97.3773599,73.7078139 97.4301377,74.2811549 97.5729481,75.6722115" id="Fill-188" fill="#FF987F"></path>
                        <path d="M125.572948,110.672212 C125.572948,110.672212 104.050715,106.057717 85.4387774,101.978105 C85.1019234,96.0279145 84.5283614,90.0928341 83.7211259,84.3662673 C82.8107099,77.8479534 81.56344,71.6167234 79.9732468,66.0291656 L79.9611079,66.0291656 C79.3602334,63.9047453 78.6986644,61.8679611 77.9824705,59.9399666 C76.2648191,55.3012963 75.2876393,50.4933977 74.8597437,45.7126965 C74.7444244,44.5311199 74.6776606,43.3495433 74.6260703,42.1740106 C74.510751,39.088615 74.586619,36.0425045 74.8202924,33.0749643 C75.6639445,22.3198976 78.4498174,12.6920126 80.5194964,6.8113271 C80.9109752,5.69623308 81.2751416,4.72317001 81.5877178,3.90724755 C82.343363,1.91277044 82.8501613,0.794654489 82.8501613,0.794654489 C88.3672821,0.265815862 96.1756164,1.34162473 103.137264,6.16161107 C114.681338,14.1818266 116.177455,21.8152344 118.544537,34.0329177 C120.586903,44.5855148 118.271412,51.3365176 114.629748,65.8841127 C110.969876,80.425664 115.813289,82.099816 119.051335,87.0104604 C123.463818,93.6980026 125.572948,110.672212 125.572948,110.672212" id="Fill-211" fill="#3B3B40"></path>
                        <path d="M186.900859,88.6722115 C186.900859,88.6722115 189.451384,81.9615552 190.391818,80.428409 C191.332251,78.8921212 188.394489,75.577635 186.551472,79.5644435 C184.705544,83.5512519 183.572948,86.1023066 183.572948,86.1023066 L186.900859,88.6722115" id="Fill-212" fill="#FF987F"></path>
                        <path d="M184.362603,94.4355004 L193.415891,66.5561395 C194.010499,64.7201372 192.857874,62.7780952 190.952079,62.4024116 L177.327932,59.73324 C175.62034,59.3999723 173.949339,60.4633993 173.543786,62.1479162 L166.661579,90.772585 C166.228583,92.590409 167.426946,94.3930845 169.277855,94.7021146 L180.733969,96.6259783 C182.32264,96.8956222 183.868621,95.9624726 184.362603,94.4355004" id="Fill-213" fill="#525252"></path>
                        <path d="M188.422381,93.2653238 C188.422381,93.2653238 189.548966,90.8748579 185.638877,86.8737517 C180.443403,81.5589391 173.159552,75.4193108 171.436716,75.6802525 C168.955832,76.058168 169.441223,78.0227291 172.940827,80.7971093 C176.440431,83.5714895 177.596978,84.4712885 177.596978,84.4712885 C177.596978,84.4712885 170.08841,80.8690932 167.997037,81.1630276 C165.90866,81.4569619 165.021774,83.5744888 166.169332,84.3933059 C167.319887,85.2181216 170.24721,86.5348275 170.24721,86.5348275 C170.24721,86.5348275 166.900414,85.44907 166.085438,86.6548007 C165.480198,87.548601 164.847992,88.9102968 167.757338,90.6379108 C167.757338,90.6379108 164.77009,92.2155583 167.400786,94.8879613 C170.028485,97.5663629 170.370056,99.1949991 169.962568,102.68322 C169.55508,106.17144 171.766302,111.672212 171.766302,111.672212 L181.908563,110.538465 C181.908563,110.538465 183.769225,101.4295 185.08757,99.3029749 C186.40891,97.17645 188.422381,93.2653238 188.422381,93.2653238" id="Fill-214" fill="#FF987F"></path>
                        <path d="M139.431818,165.671728 C142.608037,165.629496 182.588011,114.125516 182.572944,111.543379 C182.551849,108.623393 167.858071,104.596345 167.858071,104.596345 C167.858071,104.596345 160.84568,116.76195 154.405851,121.896059 C147.969036,127.027152 140.11588,137.983135 138.50065,139.114328 C136.882405,140.245521 131.033221,127.66062 131.033221,127.66062 C129.101574,121.597424 126.717903,110.86768 121.08569,100.925246 C115.453477,90.9828117 102.817912,86.6722115 102.817912,86.6722115 C78.2037242,97.7367892 116.54436,139.162592 116.54436,139.162592 C116.54436,139.162592 121.501551,148.139741 123.731534,151.337247 C128.39943,158.338579 134.507775,165.741107 139.431818,165.671728 Z" id="Fill-215" fill="#339D89"></path>
                        <path d="M96.7243287,76.6722115 C96.7243287,76.6722115 116.113058,90.5543466 122.572948,123.672212 C122.572948,123.672212 104.377139,88.2586628 98.445758,81.947783 C98.445758,81.947783 95.9421354,79.5770768 96.7243287,76.6722115" id="Fill-216" fill="#339D89"></path>
                        <path d="M127.570814,132.672212 C127.570814,132.672212 127.312618,209.650991 127.570814,227.405149 C127.82901,245.162313 104.572948,184.747065 104.572948,184.747065 C104.572948,184.747065 116.975566,147.082995 127.570814,132.672212" id="Fill-217" fill="#339D89"></path>
                        <path d="M97.6661543,307.221094 C99.0493946,311.52816 100.47529,315.95621 101.870717,320.296547 C103.897845,326.609947 106.565732,335.059502 109.874377,345.64521 C117.212862,346.086499 122.704959,346.282935 126.350669,346.234519 C129.996378,346.186104 135.186037,345.862175 141.919646,345.262734 C142.971464,331.787731 143.80562,320.639661 144.422115,311.818524 C145.68653,293.770587 138.614943,248.897253 137.60341,244.883576 C137.515053,244.511547 137.362714,243.997361 137.179907,243.36219 C135.318321,237.067946 129.325296,219.198462 129.325296,219.198462 C117.180811,215.614282 108.031316,214.963987 101.206518,216.343216 C92.1697544,218.17009 87.1943547,223.556947 84.7112251,230.392599 C78.7760882,246.71045 86.9871734,271.279477 87.8585538,275.468583 C88.5349401,278.698882 92.8400471,292.209881 97.6661543,307.221094 Z" id="Fill-221" fill="#292C47"></path>
                        <path d="M99.7171946,301.094583 C99.2644648,303.073221 98.8417172,305.232831 98.4309624,307.510073 C96.9818275,315.66793 95.5577206,327.923395 94.1586417,344.276467 C89.4698046,343.781961 85.6079067,343.313512 82.5729481,342.87112 C79.5379896,342.428728 75.2739713,341.558532 69.7808933,340.260531 C70.8931935,324.000384 71.4475865,314.727402 71.4440724,312.441585 C71.4411566,310.544955 71.5177895,309.156559 71.4440724,307.510073 C71.4159959,306.869424 71.4678804,304.788492 71.4440724,304.107957 C71.0204195,291.998133 75.2744563,274.307125 75.9443859,254.494056 C76.1482642,248.582274 76.3941174,242.543811 76.6609581,236.490267 C77.1496664,225.6892 77.743312,214.836857 78.384929,204.672212 C88.839688,207.284254 99.3544111,214.93036 101.926875,216.893916 C102.313645,217.192521 102.517523,217.346348 102.517523,217.346348 C102.517523,217.346348 102.583484,223.855341 102.571491,233.281014 C102.544507,254.494056 102.130754,290.540846 99.7171946,301.094583 Z" id="Fill-222" fill="#292C47"></path>
                        <path d="M137.572948,244.06377 C127.592161,250.086255 98.4858087,258.538233 75.7868376,254.71314 C75.8377599,253.247237 74.5188684,251.814328 74.5746707,250.334541 C74.7437651,245.850426 76.3061978,241.269598 76.5081584,236.721039 C78.1288668,200.914678 80.8843728,164.722492 83.4738845,153.813895 C86.0483057,142.905299 87.358152,123.026273 86.2173182,103.005576 L86.1901554,102.475067 C86.1418662,101.480362 86.0754684,100.485657 85.9969984,99.4879382 C85.6589736,94.562642 85.1549544,89.6644741 84.4819228,84.9079763 L84.4306155,84.5070801 C84.1982234,82.8793812 83.953759,81.2637393 83.6549692,79.6722115 L98.6004957,82.0625175 C98.6004957,82.0625175 98.7695082,82.1167741 99.0803703,82.2463872 C99.8197996,82.5447986 101.346948,83.2260208 103.33888,84.5583224 L103.35397,84.5583224 C104.700033,85.4625996 106.27547,86.6683024 107.944468,88.2296877 C110.195955,90.3245964 114.780417,96.43751 119.36186,103.156289 C120.771303,105.215027 122.180746,107.33405 123.526809,109.425944 C125.817531,112.994825 127.773246,116.201994 129.1344,119.366964 C130.320505,122.158166 131.059934,124.925255 131.165567,127.873198 L131.165567,128.183667 C131.165567,132.099187 128.820519,138.600939 126.931202,144.403384 C125.793386,147.921023 124.809493,151.191492 124.628408,153.479313 C124.124389,159.631412 121.912137,181.490805 122.908103,187.317364 C123.904069,193.107752 137.34961,243.261977 137.572948,244.048698 L137.572948,244.06377 Z" id="Fill-223" fill="#41CFB8"></path>
                        <path d="M103.572948,83.6722115 L125.572948,118.672212 C125.548934,118.584325 124.843517,116.03865 123.651813,108.674376 C123.423678,107.274255 123.180534,105.701392 122.91938,103.940633 C122.844336,103.419376 122.730268,102.901149 122.589185,102.388984 C118.068514,91.8729216 104.098259,83.9389013 103.587957,83.6752421 L103.572948,83.6722115" id="Fill-224" fill="#EDDAD3"></path>
                        <path d="M80.1515302,65.7975217 L80.1393374,65.7975217 C79.5357946,63.6837128 78.8712879,61.6571022 78.1519136,59.7387379 C77.5239853,58.0609209 77.0027438,56.3740833 76.5729481,54.6722115 C83.6295217,59.0531783 96.7916316,68.6991229 96.7916316,68.6991229 C96.7916316,68.6991229 96.6849448,69.6162093 96.6605592,70.2867347 L96.6361736,70.620494 C96.5843543,72.8124808 96.6087399,73.1342128 96.8038244,75.0044676 L96.8830775,75.7651983 C97.2092345,78.808121 98.0322474,82.0945977 99.364309,84.8278158 C101.092636,88.3999425 91.7438192,86.1057231 83.8642328,83.6431207 C83.5478147,81.4488808 83.1919817,79.2881211 82.7974915,77.1749177 C82.5842105,76.0324148 80.3994834,74.8818455 80.1637229,73.7693687 C79.5752987,70.9927866 80.8773781,68.3386208 80.1515302,65.7975217 Z" id="Fill-225" fill="#FF987F"></path>
                        <path d="M122.465827,102.262344 L122.465827,102.262344 C122.465827,102.262344 123.073247,103.538256 123.572948,108.672212 L119.449669,102.365386 C119.449669,102.365386 112.082822,91.6701507 109.563373,88.8910259 C107.037939,86.1088705 103.572948,83.6722115 103.572948,83.6722115 C103.572948,83.6722115 118.061278,90.7276122 122.465827,102.262344" id="Fill-226" fill="#339D89"></path>
                        <path d="M107.634846,104.295591 C104.990348,105.339622 95.5552628,104.362361 86.0776227,99.4699813 C85.7371815,94.5108326 85.2295594,89.5789988 84.5517166,84.7898087 L84.5000425,84.386157 C84.223434,82.4589481 83.9285876,80.5590539 83.5729481,78.6864745 C88.2570544,78.5559706 93.5460518,79.2965045 98.7712164,81.9247926 C98.7712164,81.9247926 112.173049,102.501921 107.634846,104.295591" id="Fill-227" fill="#EEA886"></path>
                        <path d="M124.050448,153.403212 C124.077448,153.127212 124.095448,152.968212 124.095448,152.941212 L124.074448,153.070212 L124.050448,153.403212" id="Fill-228" fill="#2F4563"></path>
                        <path d="M85.6100511,102.70835 L85.5823718,102.178166 C85.2435957,96.2919466 86.4121115,89.4490251 83.7893661,84.6218412 C83.7420656,84.5347843 83.7420656,84.4012341 83.7893661,84.2211906 C83.7177034,83.7140118 83.1548604,83.0964042 83.0773921,82.5930343 C82.8673673,81.2283444 82.6963832,79.9282796 82.575792,78.6211207 C82.5461532,78.2998475 82.759366,77.9986989 82.6975701,77.6722115 C96.4265194,80.8623536 97.1769369,78.0999737 97.1769369,78.0999737 L98.7177531,81.9618832 C98.7177531,81.9618832 114.264312,90.7581201 108.147179,106.012964 C105.379246,112.923432 95.5377053,109.034411 85.6100511,102.70835 Z" id="Fill-229" fill="#25BFA6"></path>
                        <path d="M98.5729481,81.6722115 L128.572948,118.672212 C127.214242,115.518034 125.265055,112.321802 122.972426,108.765091 C121.634808,106.686338 120.224886,104.571538 118.82099,102.513813 C114.241757,95.8149411 109.66855,89.7348891 107.42111,87.6381123 C105.752101,86.0850556 104.185521,84.8864683 102.835852,83.9852748 L102.823802,83.9822708 C100.835451,82.6605204 99.3110482,81.9696054 98.5759608,81.6722115 L98.5729481,81.6722115" id="Fill-230" fill="#EB4747"></path>
                        <path d="M130.553373,127.236815 C130.359317,124.29629 129.481587,121.533339 128.299338,118.746311 C126.952888,115.583064 125.021285,112.052627 122.749338,108.483064 C121.423786,106.403326 119.03242,102.887939 117.638203,100.82626 C113.100279,94.1145176 109.562489,89.6841658 107.338309,87.5863701 C105.68137,86.0243099 104.119966,84.7210882 102.779487,83.8181632 C100.812058,82.4938733 99.3014074,81.9701768 98.5729481,81.6722115 C98.5699657,81.6722115 100.766819,84.2758248 104.8529,89.5065905 C113.702687,100.835576 127.987721,123.600436 123.859935,152.672212 C125.782582,146.718926 130.929543,133.036603 130.553373,127.236815 Z" id="Fill-231" fill="#339D89"></path>
                        <path d="M78.8212984,153.195194 C81.8891953,140.111737 82.0535632,113.488625 80.1339148,89.857082 C79.9648451,87.7757759 84.7682991,86.7127415 84.4825903,84.6722115 C92.0958454,93.535986 101.598194,108.106739 103.352566,127.056566 C105.538046,140.076083 91.0959134,188.568806 76.5729481,236.672212 C78.1806233,200.82176 76.2526106,164.117223 78.8212984,153.195194 Z" id="Fill-232" fill="#339D89"></path>
                        <path d="M98.5729481,307.544727 L98.5729481,307.547764 C99.9411049,311.868932 101.351451,316.314603 102.731662,320.672212 C109.415741,294.663212 110.572948,265.672212 110.572948,265.672212 C108.544822,281.839394 98.5729481,307.544727 98.5729481,307.544727" id="Fill-233" fill="#151624"></path>
                        <path d="M80.9504062,65.9214044 L80.9383238,65.9214044 C80.6916536,65.0462283 79.2356963,64.2399349 78.9688971,63.3960214 C78.5888141,62.1937795 79.387746,60.9707728 78.9688971,59.8392724 C78.4348774,58.3961131 77.0956269,57.0478455 76.7004316,55.5764705 C75.51523,51.1637764 75.8025461,46.5397192 75.628121,42.0939354 C75.0693112,27.8409194 78.8782793,14.2640312 81.494113,6.77229338 C85.4843166,6.35575034 90.6646339,7.20996541 97.376392,9.89032929 C97.376392,9.89032929 116.557159,22.4047309 110.328696,52.667488 C104.915793,78.8764965 87.1969929,69.8966738 80.9504062,65.9214044 Z" id="Fill-234" fill="#FF987F"></path>
                        <path d="M95.9104371,16.6530367 C93.8900642,16.0617597 87.1028268,28.9742941 83.4448886,32.1606202 C81.2057687,34.1046673 77.8121499,37.8703255 75.3664355,42.5079679 C75.0555761,34.6277324 72.7067827,26.4392364 73.9166194,19.9036243 C75.1898701,13.0254455 80.0636089,7.92306751 81.3332746,4.67221154 C84.994251,4.80062018 90.5936665,6.12651409 96.4329997,9.10977539 C119.948316,21.1473392 113.865931,42.6722115 113.865931,42.6722115 C113.865931,42.6722115 106.085217,19.5974768 95.9104371,16.6530367 Z" id="Fill-235" fill="#3B3B40"></path>
                        <path d="M75.4485923,45.4877481 C75.3418122,44.3290902 73.6211863,43.3334149 73.5734162,42.1806837 C73.5489517,41.4874965 74.4916651,40.4178339 74.4854142,39.7291543 C74.4696407,37.9913534 74.1964088,36.38719 74.4854142,34.7491021 C74.5544706,34.357689 73.9656025,33.1434041 74.2160111,32.7463401 C74.2206433,32.738995 74.1077147,32.6914098 74.115834,32.6865475 C74.2517694,32.5882688 75.2554878,33.0249677 75.4120623,33.0951464 C77.1711254,33.7204067 78.8936585,35.2316996 79.157799,36.8704153 C79.6916999,40.1093234 80.0991507,46.2730278 77.8005665,46.655296 C77.1233553,46.7679021 76.2944039,46.3115509 75.4485923,45.4877481 Z" id="Fill-236" fill="#FF987F"></path>
                        <path d="M97.5729481,75.6722115 L97.5355787,75.6722115 C89.1087606,75.5835416 84.0047122,72.0101426 81.2549412,69.0810785 C81.0431808,68.2712263 80.8127357,67.4613741 80.5729481,66.6722115 C89.5198249,72.2377288 96.4518637,71.2091574 97.4265843,71.0347731 L97.4016714,71.3628519 C97.3487313,73.5175317 97.3736442,73.8337879 97.5729481,75.6722115" id="Fill-237" fill-opacity="0.3" fill="#000000"></path>
                    </g>
                    <polygon id="Fill-210" fill="#339D89" points="227 299.471914 259.844704 276.511923 259.844704 253 262 253 262 277.409437 228.52693 301"></polygon>
                    <polygon id="Fill-210" fill="#339D89" points="227 161.471914 259.844704 138.511923 259.844704 115 262 115 262 139.409437 228.52693 163"></polygon>
                </g>
                <g id="baseline-android-24px" transform="translate(224.000000, 224.000000)">
                    <polygon id="Path" points="0 0 77 0 77 77 0 77"></polygon>
                    <path d="M18.8,57.75 C18.8,59.5145833 20.24,60.9583333 22,60.9583333 L25.2,60.9583333 L25.2,72.1875 C25.2,74.8504167 27.344,77 30,77 C32.656,77 34.8,74.8504167 34.8,72.1875 L34.8,60.9583333 L41.2,60.9583333 L41.2,72.1875 C41.2,74.8504167 43.344,77 46,77 C48.656,77 50.8,74.8504167 50.8,72.1875 L50.8,60.9583333 L54,60.9583333 C55.76,60.9583333 57.2,59.5145833 57.2,57.75 L57.2,25.6666667 L18.8,25.6666667 L18.8,57.75 Z M10.8,25.6666667 C8.144,25.6666667 6,27.81625 6,30.4791667 L6,52.9375 C6,55.6004167 8.144,57.75 10.8,57.75 C13.456,57.75 15.6,55.6004167 15.6,52.9375 L15.6,30.4791667 C15.6,27.81625 13.456,25.6666667 10.8,25.6666667 Z M65.2,25.6666667 C62.544,25.6666667 60.4,27.81625 60.4,30.4791667 L60.4,52.9375 C60.4,55.6004167 62.544,57.75 65.2,57.75 C67.856,57.75 70,55.6004167 70,52.9375 L70,30.4791667 C70,27.81625 67.856,25.6666667 65.2,25.6666667 Z M49.296,6.93 L53.456,2.75916667 C54.096,2.1175 54.096,1.12291667 53.456,0.48125 C52.816,-0.160416667 51.824,-0.160416667 51.184,0.48125 L46.448,5.22958333 C43.92,3.94625 41.04,3.20833333 38,3.20833333 C34.928,3.20833333 32.048,3.94625 29.488,5.22958333 L24.72,0.48125 C24.08,-0.160416667 23.088,-0.160416667 22.448,0.48125 C21.808,1.12291667 21.808,2.1175 22.448,2.75916667 L26.64,6.96208333 C21.904,10.4591667 18.8,16.07375 18.8,22.4583333 L57.2,22.4583333 C57.2,16.07375 54.096,10.4270833 49.296,6.93 L49.296,6.93 Z M31.6,16.0416667 L28.4,16.0416667 L28.4,12.8333333 L31.6,12.8333333 L31.6,16.0416667 Z M47.6,16.0416667 L44.4,16.0416667 L44.4,12.8333333 L47.6,12.8333333 L47.6,16.0416667 Z" id="Shape" fill="#339D89" fill-rule="nonzero"></path>
                </g>
                <g id="apple" transform="translate(232.000000, 86.000000)" fill="#339D89" fill-rule="nonzero">
                    <path d="M50.1121425,41.1838677 C50.0191717,31.5055583 57.7225042,26.8639521 58.0666112,26.633342 C53.7382899,20.0643132 46.9957511,19.1644115 44.5930471,19.0603757 C38.8549091,18.4578043 33.3965469,22.5641563 30.4843747,22.5641563 C27.5795422,22.5641563 23.0857156,19.1494853 18.3267929,19.2391918 C12.0724226,19.3356152 6.30550112,23.010898 3.08505736,28.8203316 C-3.41310935,40.5150239 1.42093835,57.8398859 7.75446334,67.324453 C10.849267,71.967104 14.5396017,77.1814292 19.384875,76.99515 C24.0508269,76.8020048 25.8152565,73.8637786 31.456394,73.8637786 C37.0973876,73.8637786 38.6832154,76.99515 43.6208838,76.8990252 C48.6418804,76.8023033 51.8228908,72.1675631 54.8963947,67.5107322 C58.4502955,62.1247554 59.9136495,56.910281 60,56.6426539 C59.8884639,56.589815 50.2091429,52.7440748 50.1121425,41.1838677 Z M41.0709859,12.4515963 C43.653931,9.15004474 45.3973358,4.56953984 44.9217698,0 C41.2012245,0.159602658 36.691442,2.61105684 34.0220567,5.90514605 C31.6268807,8.8273367 29.5301983,13.491298 30.09206,17.9694622 C34.2455294,18.3109023 38.4852944,15.7456855 41.0709859,12.4515963 Z" id="Shape" transform="translate(30.000000, 38.500000) scale(-1, 1) translate(-30.000000, -38.500000) "></path>
                </g>
                <polygon id="Fill-210" fill="#339D89" points="227 81.4719142 259.844704 58.5119229 259.844704 35 262 35 262 59.4094368 228.52693 83"></polygon>
                <path d="M227.58312,2.09580838 L232.30179,2.09580838 L238.248082,18.8622754 L239.859335,0 L245,0 L242.161125,25 L235.754476,25 L229.923274,8.08383234 L224.207161,25 L217.800512,25 L215,0 L220.063939,0 L221.713555,18.8997006 L227.58312,2.09580838 Z M259.58312,2.09580838 L264.30179,2.09580838 L270.248082,18.8622754 L271.859335,0 L277,0 L274.161125,25 L267.754476,25 L261.923274,8.08383234 L256.207161,25 L249.800512,25 L247,0 L252.063939,0 L253.713555,18.8997006 L259.58312,2.09580838 Z M291.58312,2.09580838 L296.30179,2.09580838 L302.248082,18.8622754 L303.859335,0 L309,0 L306.161125,25 L299.754476,25 L293.923274,8.08383234 L288.207161,25 L281.800512,25 L279,0 L284.063939,0 L285.713555,18.8997006 L291.58312,2.09580838 Z" id="WWW" stroke="#47A694" fill="#47A694" fill-rule="nonzero"></path>
            </g>
        </g>
    </g>
</svg>