<?xml version="1.0" encoding="UTF-8"?>
<svg width="497px" height="491px" viewBox="0 0 497 491" version="1.1" xmlns="http://www.w3.org/2000/svg" xmlns:xlink="http://www.w3.org/1999/xlink">
    <!-- Generator: Sketch 53.2 (72643) - https://sketchapp.com -->
    <title>Group 46</title>
    <desc>Created with Sketch.</desc>
    <defs>
        <path d="M483.796897,232.189629 C490.327279,213.06237 491.351027,183.516163 485.959376,163.909649 C468.642919,100.91948 388.552231,63.389384 311.326377,91.4299545 C262.211067,109.264777 272.908183,49.0898287 250.040793,16.6653854 C239.942423,2.34656616 202.428941,6.53234362 185.774827,3 C156.158399,-3.28122242 118.593457,0.963437517 95.9965893,22.8930275 C21.0304692,95.6454239 -3.54397878,292.874896 1.63887224,349.878579 C5.99569265,397.798535 46.1906511,457.068245 132.051183,450.843471 C157.329053,449.010944 182.156695,455.226022 203.548753,467.595232 C240.083705,488.722619 298.156173,493.674459 358.47978,477.095838 C449.219397,452.156574 510.687275,387.950261 495.768802,333.689181 C494.540026,329.222136 492.831931,324.961477 490.680534,320.918283 C476.230298,293.748959 473.717334,261.712288 483.796897,232.189629 Z" id="path-1"></path>
        <path d="M21,-3.39497319e-11 L100.203704,-3.4134473e-11 C111.801683,-3.41366035e-11 121.203704,9.40202025 121.203704,21 L121.203704,146.418947 C117.21918,150.319989 114.310893,153.010926 112.478842,154.491756 C106.883758,159.014214 102.020768,161.752283 98.2459634,163.557913 C89.3742925,167.801563 74.3870599,170.50177 64.7893424,171.247768 C63.8089877,172.140848 57.5161808,178.391593 45.9109217,190 C45.6893477,177.920659 45.4716332,171.341556 45.2577781,170.262691 C36.9959229,168.871935 27.6895651,166.01529 17.9564239,160.448196 C12.8217017,157.511273 6.83622711,152.834857 -8.8225723e-14,146.418947 L-1.20792265e-13,21 C-1.22212608e-13,9.40202025 9.40202025,-3.39333905e-11 21,-3.39355211e-11 Z" id="path-3"></path>
        <path d="M0.49542927,118.129892 C9.988087,145.729583 20.9074291,160.006233 33.2534557,160.959842 C45.5994823,161.913451 54.149057,145.586518 58.9021798,111.979043 L64.9697957,51.1752576 C66.0571394,48.4408252 67.6899722,46.0300277 69.8682941,43.9428651 C72.1648989,40.670427 74.8574871,34.645928 74.8574871,30.3506971 C74.8574871,27.4872098 75.0531344,22.6251502 75.4444289,15.7645183 C75.5797174,14.4908375 75.3840702,13.8539971 74.8574871,13.8539971 C74.330904,13.8539971 75.285791,10.4214388 77.7221479,3.55632221 C78.5527849,1.18544074 78.5527849,-1.42108547e-14 77.7221479,-1.42108547e-14 C76.4761924,-1.42108547e-14 74.4422942,1.12195348 72.4651847,6.07364901 C70.4880752,11.0253445 63.4575348,26.6323357 58.9021798,28.6466321 C56.9618808,29.0788219 56.7532442,22.3244196 56.8575625,20.7932685 C56.9618808,19.2621174 57.5121752,9.80489778 54.4708956,10.4235102 C52.4433759,10.8359184 51.4869191,13.6130977 51.6015252,18.7550478 C50.0739925,27.0543758 49.6311027,32.9645943 50.2728557,36.4857034 C50.9259253,42.8489288 50.4327281,49.8195814 48.4031509,55.6260246 C46.9591552,60.1007889 43.2696413,73.2592225 37.3346091,95.1013254 L0.49542927,118.129892 Z" id="path-5"></path>
        <path d="M-1.24344979e-13,65.3083182 L1.1740977,49.5849157 L33.6834173,1.0658141e-13 L46.2906688,1.0658141e-13 C49.6908917,3.5445882 51.8296349,8.83641288 52.7068982,15.875474 C53.056962,18.6843455 54.0993426,21.4505838 54.8735772,23.8745889 C55.650914,26.3083068 57.1378661,29.4724989 59.3344335,33.3671651 C60.516475,36.1211052 59.0295229,38.1794294 54.8735772,39.5421379 C53.9113704,39.9975436 54.3562105,40.7443052 53.9822669,44.9806925 C53.6083234,49.2170798 53.6412737,50.6566744 53.6412737,53.5028412 C53.6412737,56.349008 51.8162501,67.1422354 40.6835197,66.4694892 C37.0451966,66.0383312 34.4977046,65.6512743 33.0410437,65.3083182 L33.0410437,72.0640429 L-1.24344979e-13,65.3083182 Z" id="path-7"></path>
    </defs>
    <g id="Page-1" stroke="none" stroke-width="1" fill="none" fill-rule="evenodd">
        <g id="Group-46" transform="translate(-1.000000, -9.000000)">
            <g id="Group-14" transform="translate(249.500000, 250.000000) scale(-1, 1) translate(-249.500000, -250.000000) ">
                <path d="M490.680534,320.918283 C476.230298,293.748959 473.717334,261.712288 483.796897,232.189629 C490.327279,213.06237 491.351027,183.516163 485.959376,163.909649 C468.642919,100.91948 388.552231,63.389384 311.326377,91.4299545 C240.521465,117.140736 223.187,223.211217 168.820253,211.68001 C40.9499987,184.560551 -5.10623382,275.692405 1.63887224,349.878579 C5.99569265,397.798535 46.1906511,457.068245 132.051183,450.843471 C157.329053,449.010944 182.156695,455.226022 203.548753,467.595232 C240.083705,488.722619 298.156173,493.674459 358.47978,477.095838 C449.219397,452.156574 510.687275,387.950261 495.768802,333.689181 C494.540026,329.222136 492.831931,324.961477 490.680534,320.918283" id="Fill-5" fill="#BFF0EA" transform="translate(249.500000, 284.500000) scale(-1, 1) translate(-249.500000, -284.500000) "></path>
                <path d="M250.5,500 C140.871736,500 52,411.57491 52,302.49931 C52,193.42371 140.871736,105 250.5,105 C360.129652,105 449,193.42371 449,302.49931 C449,411.57491 360.129652,500 250.5,500 Z" id="Fill-4" fill="#BFF0EA" opacity="0.22" style="mix-blend-mode: multiply;"></path>
                <g id="Group-29" transform="translate(249.500000, 243.500000) scale(-1, 1) translate(-249.500000, -243.500000) ">
                    <mask id="mask-2" fill="white">
                        <use xlink:href="#path-1"></use>
                    </mask>
                    <g id="Fill-5"></g>
                </g>
            </g>
            <g id="Group-37" transform="translate(244.500000, 248.500000) scale(-1, 1) translate(-244.500000, -248.500000) translate(90.000000, 9.000000)">
                <path d="M183.065792,220.588525 L188.747665,201.124214 C189.923689,196.026792 193.04363,194.111457 198.107487,195.37821 C203.171345,196.644964 209.094978,198.013911 215.878388,199.485053 C219.950962,200.579643 221.005447,204.162398 219.041841,210.23332 C217.078235,216.304242 212.325764,230.427189 204.784428,252.602162 C203.60257,257.579018 200.394898,259.114344 195.161414,257.20814 C190.016905,256.581745 182.323573,253.766214 179.447951,253.044564 C175.056936,251.942619 173.917027,248.136142 176.028224,241.625133 L183.065792,220.588525 Z" id="Path-80" fill="#194866"></path>
                <g id="Group-36">
                    <g id="Group-35" transform="translate(166.429304, 0.000000)">
                        <mask id="mask-4" fill="white">
                            <use xlink:href="#path-3"></use>
                        </mask>
                        <path stroke="#339D89" d="M0.500000011,146.202323 C7.24427992,152.517568 13.1478618,157.121817 18.2046715,160.014176 C27.0779094,165.089429 36.1101939,168.215801 45.3407777,169.769628 L45.6811271,169.826921 L45.7482354,170.165471 C45.9640388,171.254166 46.1736351,177.410081 46.3889532,188.814712 C57.4791075,177.723608 63.4868166,171.757974 64.4526244,170.878145 L64.579493,170.76257 L64.750596,170.749271 C76.1723376,169.861499 90.1978867,166.85335 98.0302077,163.106859 C102.729579,160.858975 107.305873,158.030111 112.164533,154.102899 C113.958068,152.653201 116.806852,150.019973 120.703704,146.208658 L120.703704,21 C120.703704,9.67816263 111.525541,0.5 100.203704,0.5 L21,0.5 C9.67816263,0.5 0.5,9.67816263 0.5,21 L0.5,146.202324 Z"></path>
                        <rect id="Rectangle" stroke="#339D89" fill="#FFFFFF" mask="url(#mask-4)" x="6.11111111" y="24.5161291" width="108.981481" height="169.569892"></rect>
                        <g id="medicine" mask="url(#mask-4)">
                            <g transform="translate(33.611111, 61.290323)">
                                <path d="M49.7410031,17.4931024 C45.2642838,18.5999925 41.7592593,22.356828 41.7592593,27.2268538 L41.7592593,33.3913206 C41.8062079,33.3908359 41.8526824,33.389382 41.899631,33.389382 C48.8153086,33.389382 54.4211664,39.1181684 54.4211664,46.1854971 C54.4211664,49.6723947 53.0558619,52.8331379 50.8421621,55.1409359 C51.0384929,55.1535363 51.235772,55.1612903 51.4349481,55.1612903 C56.7790316,55.1612903 61.1111111,50.7342145 61.1111111,45.2734273 L61.1111111,27.2268538 C61.1111111,22.356828 57.6648909,18.3121236 53.1293673,17.4931024 C53.1293673,17.4931024 50.9009666,17.2062027 49.7410031,17.4931024 Z" id="Path" fill="#5ABBA9" fill-rule="nonzero"></path>
                                <path d="M53.3164047,17.4931695 C52.1299014,17.3230654 51.027222,17.3230654 50.0074405,17.4931695 C49.9740961,17.4994697 49.9407518,17.5077084 49.9074074,17.5140085 C54.2866329,18.3756754 57.6016177,22.393718 57.6016177,27.2269035 L57.6016177,45.2734449 C57.6016177,49.42476 55.1559017,52.9765917 51.6904042,54.4421038 C51.4958955,54.6829634 51.2935137,54.916069 51.0827959,55.1409359 C51.274526,55.1535363 51.4671823,55.1612903 51.6621541,55.1612903 C56.8805459,55.1612903 61.1111111,50.7342223 61.1111111,45.2734449 L61.1111111,27.2269035 C61.1111111,22.3568864 57.7456467,18.3121892 53.3164047,17.4931695 L53.3164047,17.4931695 Z" id="Path" fill="#339D89" fill-rule="nonzero"></path>
                                <path d="M49.9074074,36.7741935 C52.7031707,39.0552641 54.4903567,42.535063 54.4903567,46.4337569 C54.4903567,49.8244993 53.1391729,52.8976541 50.9483681,55.1414999 C51.1426683,55.15328 51.3379071,55.1612903 51.5350232,55.1612903 C56.8238359,55.1612903 61.1111111,50.8568946 61.1111111,45.5474331 L61.1111111,36.7741935 L49.9074074,36.7741935 Z" id="Path" fill="#236D5F" fill-rule="nonzero"></path>
                                <path d="M57.5467197,45.5474331 C57.5467197,49.583717 55.0627461,53.0366575 51.5430388,54.4620322 C51.4513186,54.5708789 51.3577169,54.6773697 51.2622337,54.7829181 C51.245771,54.8008236 51.2293085,54.8187292 51.2133162,54.8366348 C51.1187738,54.9398271 51.0232906,55.0420771 50.9259259,55.1414999 C51.1206552,55.1537512 51.3163252,55.1612903 51.5138765,55.1612903 C56.8143684,55.1612903 61.1111111,50.8568946 61.1111111,45.5474331 L61.1111111,36.7741935 L57.5467197,36.7741935 L57.5467197,45.5474331 Z" id="Path" fill-opacity="0.3" fill="#000000" fill-rule="nonzero"></path>
                                <path d="M31.5156408,58.2258065 C33.4493149,58.2258065 35.0717785,56.9004591 35.5230822,55.1101027 C32.8142902,52.7671555 31.1006934,49.3083808 31.1006934,45.4499212 C31.1006934,41.5324282 32.8671281,38.0276849 35.6481481,35.6842537 L35.6481481,19.4471743 C35.6481481,17.169067 33.7978512,15.3225806 31.5156408,15.3225806 L4.13202266,15.3225806 C1.85029684,15.3225806 0,17.169067 0,19.4471743 L0,54.1012128 C0,56.3793201 1.85029684,58.2258065 4.13202266,58.2258065" id="Path" fill="#339D89" fill-rule="nonzero"></path>
                                <path d="M31.5160693,15.3225806 L28.4548213,15.3225806 C30.7370629,15.3225806 32.5873849,17.169067 32.5873849,19.4471743 L32.5873849,33.6035694 C32.5873849,34.24713 32.35664,34.8684319 31.9402327,35.360054 C30.6808309,36.845082 29.694348,38.5676951 29.0578605,40.4514401 C28.4029521,41.9867915 28.0398683,43.675533 28.0398683,45.4494373 C28.0398683,47.2320514 28.4058607,48.9290188 29.0665861,50.4701768 C29.0709489,50.4832416 29.0753118,50.4963064 29.0796746,50.5093712 C29.6865918,52.2803721 28.3888942,54.1254069 26.5133648,54.1254069 L4.13207885,54.1254069 C1.850322,54.1254069 0,52.2784367 0,50.0003292 L0,54.1012128 C0,56.3793201 1.850322,58.2258065 4.13256358,58.2258065 L31.5160693,58.2258065 C32.85788,58.2258065 34.0499003,57.5870848 34.8046689,56.5975501 C34.8090317,56.5917435 34.8133945,56.5859369 34.818242,56.5796465 C34.8482971,56.5394845 34.8783522,56.4983547 34.9074375,56.4567409 C34.9151937,56.4456117 34.9224651,56.4344825 34.9302212,56.4233532 C34.9554286,56.3865784 34.980636,56.3488357 35.004874,56.3106092 C35.0135996,56.2965767 35.02281,56.2820603 35.0315356,56.2680278 C35.0533498,56.2327044 35.0746792,56.1968974 35.0955238,56.1606063 C35.1052189,56.1441545 35.1149142,56.1272186 35.1241245,56.1107668 C35.1435148,56.0764113 35.1624204,56.0415719 35.1803564,56.0067325 C35.1900516,55.988345 35.1997468,55.9694737 35.2094419,55.9506025 C35.2264085,55.9167308 35.2428903,55.8828592 35.2588873,55.8485037 C35.2680976,55.8281808 35.2777929,55.8083417 35.2865185,55.7885026 C35.3020308,55.7541471 35.3165736,55.7197917 35.3311163,55.6854362 C35.339842,55.6646293 35.3485676,55.6438224 35.3568084,55.6230157 C35.3708665,55.5876923 35.3839549,55.5523691 35.3970434,55.5170459 C35.4047995,55.496239 35.4125556,55.4754322 35.419827,55.4546253 C35.4334003,55.4163989 35.4455192,55.3776885 35.4576381,55.3389781 C35.4634552,55.3205905 35.469757,55.3022032 35.4755743,55.2838157 C35.4925407,55.2262339 35.5085377,55.1686523 35.5235652,55.1101027 C35.3839549,54.9891327 35.2472531,54.8647756 35.112975,54.737999 C35.096978,54.7229986 35.080981,54.7084823 35.064984,54.6929981 C34.9360383,54.5700927 34.8095164,54.4442837 34.6859031,54.3160555 C34.6684518,54.298152 34.6514852,54.2802485 34.6345188,54.2623448 C34.5099359,54.1321811 34.3882616,53.999598 34.2694959,53.8636276 C34.2578617,53.8500791 34.2457426,53.8365304 34.2341084,53.8229818 C34.1104952,53.680721 33.9893056,53.5365248 33.871994,53.3889413 C32.1375293,51.2085778 31.1006315,48.4499776 31.1006315,45.4499212 C31.1006315,41.5324282 32.867575,38.0276849 35.6481481,35.6842537 L35.6481481,19.4471743 C35.6486329,17.169067 33.7983108,15.3225806 31.5160693,15.3225806 L31.5160693,15.3225806 Z" id="Path" fill-opacity="0.2" fill="#000000" fill-rule="nonzero"></path>
                                <polygon id="Path" fill="#236D5F" fill-rule="nonzero" points="8.14814815 12.2580645 27.5 12.2580645 27.5 16.344086 8.14814815 16.344086"></polygon>
                                <polygon id="Path" fill="#184C42" fill-rule="nonzero" points="22.4074074 12.2580645 27.5 12.2580645 27.5 16.344086 22.4074074 16.344086"></polygon>
                                <path d="M4.07407407,6.64003118 L4.07407407,10.681548 C4.07407407,11.5523013 4.76545532,12.2580645 5.61738739,12.2580645 L30.0307609,12.2580645 C30.8831751,12.2580645 31.5740741,11.5523013 31.5740741,10.681548 L31.5740741,2.59802205 C31.5740741,1.72726875 30.8831751,1.02150538 30.0307609,1.02150538 L5.61738739,1.02150538 C4.76497321,1.02150538 4.07407407,1.72776123 4.07407407,2.59802205 L4.07407407,6.64003118 Z" id="Path" fill="#5ABBA9" fill-rule="nonzero"></path>
                                <path d="M24.4444444,1.02150538 L24.4444444,12.2580645 L29.9857976,12.2580645 C30.8630462,12.2580645 31.5740741,11.5523013 31.5740741,10.681548 L31.5740741,2.59802205 C31.5740741,1.72726875 30.8630462,1.02150538 29.9857976,1.02150538 L24.4444444,1.02150538 Z" id="Path" fill="#339D89" fill-rule="nonzero"></path>
                                <path d="M28.5185185,37.2851888 C28.5185185,43.2084786 23.7306615,48.0107527 17.8240741,48.0107527 C11.9179704,48.0107527 7.12962963,43.2084786 7.12962963,37.2851888 C7.12962963,31.3614139 11.9179704,26.5591398 17.8240741,26.5591398 C23.7306615,26.5591398 28.5185185,31.3614139 28.5185185,37.2851888 L28.5185185,37.2851888 Z" id="Path" fill-opacity="0.3" fill="#000000" fill-rule="nonzero"></path>
                                <path d="M23.9216979,28.6021505 C25.0998161,30.3165144 25.7913307,32.393773 25.7913307,34.633227 C25.7913307,40.5107713 21.0404669,45.275086 15.1805885,45.275086 C12.9472026,45.275086 10.8764978,44.5820248 9.16666667,43.3999703 C11.0804491,46.1842475 14.2808037,48.0107527 17.9077762,48.0107527 C23.7681346,48.0107527 28.5185185,43.2459567 28.5185185,37.3688937 C28.5185185,33.7312849 26.697834,30.521545 23.9216979,28.6021505 Z" id="Path" fill-opacity="0.3" fill="#000000" fill-rule="nonzero"></path>
                                <path d="M56.0185185,45.4567475 C56.0185185,52.509133 50.3185605,58.2258065 43.2867959,58.2258065 C36.2555136,58.2258065 30.5555556,52.509133 30.5555556,45.4567475 C30.5555556,38.4048456 36.2555136,32.688172 43.2867959,32.688172 C50.3185605,32.688172 56.0185185,38.4048456 56.0185185,45.4567475 L56.0185185,45.4567475 Z" id="Path" fill="#236D5F" fill-rule="nonzero"></path>
                                <path d="M51.0852801,35.7526882 C52.6766321,37.8527626 53.6218074,40.4725263 53.6218074,43.3135248 C53.6218074,50.222026 48.0381411,55.8220668 41.14984,55.8220668 C38.3171484,55.8220668 35.705045,54.8741199 33.6111111,53.2781011 C35.8892621,56.2844338 39.4914141,58.2258065 43.5470235,58.2258065 C50.4348522,58.2258065 56.0185185,52.6257658 56.0185185,45.7172644 C56.0185185,41.6502355 54.0828224,38.0375199 51.0852801,35.7526882 L51.0852801,35.7526882 Z" id="Path" fill="#184C42" fill-rule="nonzero"></path>
                                <path d="M34.6296296,55.0079705 C35.1230777,55.4377608 35.6497151,55.8308376 36.2046612,56.1827957 L53.9814815,38.3533544 C53.6305525,37.796781 53.2391131,37.2685991 52.8100914,36.7741935 C52.7305346,36.8182494 52.6548823,36.8735642 52.5870393,36.9416062 L34.7965528,54.7842642 C34.7287097,54.8523062 34.6735567,54.9276908 34.6296296,55.0079705 L34.6296296,55.0079705 Z" id="Path" fill="#2C7B6C" fill-rule="nonzero"></path>
                                <path d="M22.4082011,36.3495266 L18.3322889,36.3495266 L18.3322889,32.6023168 C18.3322889,32.0856351 17.8765687,31.6666667 17.3145641,31.6666667 C16.7525595,31.6666667 16.2973407,32.0856351 16.2973407,32.6023168 L16.2973407,36.3495266 L12.2214284,36.3495266 C11.6594238,36.3495266 11.2037037,36.7680341 11.2037037,37.2847158 C11.2037037,37.8013975 11.6594238,38.2203659 12.2214284,38.2203659 L16.2973407,38.2203659 L16.2973407,41.9675757 C16.2973407,42.4842574 16.7525595,42.9032258 17.3145641,42.9032258 C17.8765687,42.9032258 18.3322889,42.4842574 18.3322889,41.9675757 L18.3322889,38.2203659 L22.4082011,38.2203659 C22.9702057,38.2203659 23.4259259,37.8013975 23.4259259,37.2847158 C23.4259259,36.7680341 22.9702057,36.3495266 22.4082011,36.3495266 Z" id="Path" fill="#FFFFFF" fill-rule="nonzero"></path>
                                <g id="Group" stroke-width="1" fill="none" fill-rule="evenodd" transform="translate(9.166667, 0.000000)">
                                    <path d="M1.09918369,13.2770998 C0.554451128,13.2770998 0.112736783,12.8280251 0.112736783,12.2742155 L0.112736783,1.00288425 C0.112736783,0.449074709 0.554451128,-8.8817842e-16 1.09918369,-8.8817842e-16 C1.64391613,-8.8817842e-16 2.08563048,0.449074709 2.08563048,1.00288425 L2.08563048,12.2742155 C2.08563048,12.8280251 1.64391613,13.2770998 1.09918369,13.2770998 Z" id="Path" fill="#184C42" fill-rule="nonzero"></path>
                                    <path d="M8.17924795,13.2770998 C7.63451551,13.2770998 7.19280104,12.8280251 7.19280104,12.2742155 L7.19280104,1.00288425 C7.19280104,0.449074709 7.63451551,-8.8817842e-16 8.17924795,-8.8817842e-16 C8.72398039,-8.8817842e-16 9.16520883,0.449074709 9.16520883,1.00288425 L9.16520883,12.2742155 C9.16569486,12.8280251 8.72398039,13.2770998 8.17924795,13.2770998 Z" id="Path" fill="#184C42" fill-rule="nonzero"></path>
                                    <path d="M15.2593122,13.2770998 C14.7145798,13.2770998 14.2728654,12.8280251 14.2728654,12.2742155 L14.2728654,1.00288425 C14.2728654,0.449074709 14.7145798,-8.8817842e-16 15.2593122,-8.8817842e-16 C15.8040448,-8.8817842e-16 16.2452732,0.449074709 16.2452732,1.00288425 L16.2452732,12.2742155 C16.2457591,12.8280251 15.8040448,13.2770998 15.2593122,13.2770998 Z" id="Path" fill="#184C42" fill-rule="nonzero"></path>
                                </g>
                                <path d="M34.5803817,55.1612903 C34.3324509,55.1612903 34.0845202,55.065949 33.89487,54.8762247 C33.5165248,54.4962967 33.5165248,53.8806507 33.89487,53.5007228 L51.3073447,36.0374544 C51.6861677,35.6580057 52.300023,35.6575266 52.6788459,36.0374544 C53.0576687,36.4173824 53.0576687,37.0330285 52.6788459,37.4129564 L35.266371,54.8762247 C35.0767207,55.065949 34.8287901,55.1612903 34.5803817,55.1612903 Z" id="Path" fill="#339D89" fill-rule="nonzero"></path>
                            </g>
                        </g>
                    </g>
                    <g id="Group-2" transform="translate(0.000000, 121.000000)">
                        <path d="M35.6318321,283.217527 C58.7446738,290.301383 91.9444271,290.072189 135.231092,282.529948 C137.67728,290.724344 146.518228,343.123013 148.524923,354.050037 C148.494307,354.037402 121.166514,358.734327 93.2968984,357 C64.2137451,355.190154 34.5310979,346.912426 34.1995289,345.226923 C31.1648584,329.800435 29.6475231,319.21356 29.6475231,313.466299 C29.6475231,306.489344 31.6422928,296.40642 35.6318321,283.217527 Z" id="Path-3" fill="#FFFFFF"></path>
                        <path d="M58.451221,317.267048 C61.2672316,326.778828 64.4777892,333.279808 68.0828938,336.769987 C71.6879984,340.260165 74.0994621,345.783536 75.3172848,353.340099" id="Path-4" stroke="#306DE0"></path>
                        <polygon id="Path-5" stroke="#306DE0" points="75.3172848 312.67754 82.0373103 337.551378 97.6013693 343.604279 111.276512 336.480054 106.851768 310.880285"></polygon>
                        <polygon id="Path-10" fill="#306DE0" points="76.6940173 317.267048 107.535771 315.302862 106.851768 310.880285 75.3172848 312.67754"></polygon>
                        <path d="M36.0916901,284.123185 C16.4308539,264.695927 4.94905256,251.604017 1.64628606,244.847458 C-0.17966597,241.889092 1.22168143,227.797162 5.85032826,202.571668 L8.32950919,192.669695 C17.0198053,200.085633 25.5142381,204.200206 33.8128074,205.013415 C34.2873724,207.858704 34.7763288,214.183099 35.2796766,223.9866 L32.590592,234.174091 C31.3611223,238.588082 32.7694899,242.821621 36.8156947,246.874708 C37.8477041,248.124504 38.2111803,260.411111 36.8156947,282.165022 C36.7773389,282.762942 36.5360041,283.415663 36.0916901,284.123185 Z" id="Path-14" fill="#FF987F"></path>
                        <path d="M23.3441825,239.550276 L29.9690575,238.74966" id="Path-15" stroke="#ED8F5E"></path>
                        <path d="M8.32950919,192.669695 L7.70754771,195.186411 C18.5536932,202.580835 27.1656989,206.278047 33.5435649,206.278047 C33.8405833,205.684388 33.8405833,205.042606 33.5435649,204.352699 C28.1690684,203.318517 23.9001929,202.068574 20.7369382,200.602871 C17.5736835,199.137169 13.4378739,196.492777 8.32950919,192.669695 Z" id="Path-16" fill="#ED8F5E"></path>
                        <path d="M36.0176814,275.245428 C71.1049426,280.047418 104.238479,279.262005 135.41829,272.889188 C135.407677,267.669602 137.224665,250.546434 140.869252,221.519684 L139.021586,217.343313 C157.118162,211.237603 169.697278,204.681317 176.758936,197.674457 C176.326454,195.285528 173.005565,182.291485 166.796268,158.69233 C160.34287,131.449515 150.691131,115.405288 137.841051,110.55965 C124.388513,105.353085 79.9211644,90.2251995 49.1386788,100.197104 C45.4963246,101.377035 36.98582,115.999422 23.6071651,144.064267 L7.63983277,186.30225 C6.34404581,190.028713 7.3179589,192.855697 10.561572,194.783201 C15.4269917,197.674457 24.0078792,203.662809 32.8948625,204.619883 C32.9245931,208.231825 36.8595856,234.50204 36.8595856,253.695614 C36.8595856,266.49133 36.5789509,273.674602 36.0176814,275.245428 Z" id="Path-17" fill="#41CFB8"></path>
                        <path d="M134.969106,204.9554 C150.11893,201.024366 162.677819,194.309294 172.645771,184.810185" id="Path-18" stroke="#208392"></path>
                        <path d="M125.441509,160.235348 C126.738679,200.283763 130.393226,227.227103 136.405153,241.065365 C137.393842,242.724366 138.665441,235.513376 140.219949,219.432394 C137.261215,213.484011 134.798142,206.56945 132.830729,198.688712 C130.863316,190.807973 128.400243,177.990185 125.441509,160.235348 Z" id="Path-19" fill="#208392"></path>
                        <path d="M10.2993992,180.411006 L28.0383017,191.349268" id="Path-20" stroke="#208392"></path>
                        <polygon id="Path-21" fill="#208392" points="29.6475231 166.907423 26.65662 202.944483 32.8948625 204.619883"></polygon>
                        <g id="Group-4" transform="translate(138.526157, 99.213421)">
                            <mask id="mask-6" fill="white">
                                <use xlink:href="#path-5"></use>
                            </mask>
                            <use id="Path-22" fill="#FF987F" xlink:href="#path-5"></use>
                            <path d="M0.49542927,120.03669 C19.9141926,111.153254 31.3712176,104.27778 34.8665043,99.4102685 C35.132244,101.651408 37.5916078,112.018249 42.2445955,130.510792 C40.493614,110.590749 39.3936824,99.0654199 38.9448009,95.9348038 C38.2714785,91.2388798 38.2714785,86.4098639 37.3820768,87.015471 C36.492675,87.6210781 36.3214808,95.285154 29.3023377,99.4102685 C24.6229089,102.160345 14.5157629,107.333947 -1.01910036,114.931074 L0.49542927,120.03669 Z" id="Path-66" fill="#000000" opacity="0.1" mask="url(#mask-6)"></path>
                        </g>
                        <path d="M192.831418,110.132175 C191.832845,110.132175 190.931836,111.199458 190.931836,112.52766 C190.931836,113.855862 191.728513,115.259522 192.831418,115.259522 C193.934324,115.259522 194.85576,113.771448 194.85576,112.52766 C194.85576,111.283872 193.829992,110.132175 192.831418,110.132175 Z" id="Path-67" stroke="#E7905D"></path>
                        <path d="M208.347885,126.234076 C211.59941,119.24293 213.225173,115.398512 213.225173,114.700821" id="Path-68" stroke="#E18250"></path>
                        <path d="M210.080936,130.334902 C212.177094,126.502597 213.225173,124.224471 213.225173,123.500525" id="Path-69" stroke="#E18250"></path>
                        <path d="M212.176213,132.780956 L213.225173,130.334902" id="Path-70" stroke="#E18250"></path>
                        <path d="M72.2313779,96.2494661 C104.62767,100.346134 121.390751,103.155209 122.520618,104.676691 C122.295352,104.802958 126.553572,99.4425925 106.727016,95.6162732 C86.9004606,91.7899538 78.4153009,90.1145649 77.491692,90.1145649 C76.5680831,90.1145649 75.09786,90.3398196 74.1401536,91.3112712 C73.5016826,91.9589057 72.8654241,93.6049707 72.2313779,96.2494661 Z" id="Path-71" fill="#208392"></path>
                        <g id="Group-34" transform="translate(78.450059, 24.806247)">
                            <mask id="mask-8" fill="white">
                                <use xlink:href="#path-7"></use>
                            </mask>
                            <use id="Path-72" fill="#FF987F" xlink:href="#path-7"></use>
                            <path d="M51.9803568,38.9869305 C55.8490939,39.4008994 58.4313282,38.7224809 59.7270596,36.951675" id="Path-74" stroke="#000000" opacity="0.1" mask="url(#mask-8)"></path>
                        </g>
                        <path d="M35.0381516,285.246766 C65.8080129,290.225885 99.5970132,289.320279 136.405153,282.529948 C136.376789,282.346209 136.376789,278.827858 136.405153,271.974895 C112.414011,275.621166 94.4392832,277.639098 82.48097,278.028689 C70.5226569,278.418279 55.034894,277.490526 36.0176814,275.245428 L35.0381516,285.246766 Z" id="Path-11" fill="#16285D"></path>
                        <polygon id="Path-12" fill="#306DE1" points="51.9894638 274.117608 56.9851769 274.571828 56.432239 290.918877 51.4288738 290.387052"></polygon>
                        <polygon id="Path-13" fill="#306DE1" points="100.826548 290.918877 105.916071 290.918877 105.916071 274.117608 100.826548 274.710205"></polygon>
                        <path d="M102.666538,58.232838 C105.856409,61.268032 108.552109,62.9731632 110.75364,63.3482319 C110.959788,63.5639729 104.055433,56.2195835 104.055433,54.7882058 C104.055433,53.9916426 102.703075,54.313346 102.057877,56.4468176 C101.972728,56.7283806 102.175615,57.3237208 102.666538,58.232838 Z" id="Path-75" fill="#000000" opacity="0.1"></path>
                        <path d="M109.165445,48.5399253 C112.584298,49.9249691 114.293724,52.6536388 114.293724,56.7259346" id="Path-76" stroke="#000000" opacity="0.1"></path>
                        <path d="M79.6241562,74.3911624 C72.1973352,65.0507682 66.6875705,56.4336892 63.094862,48.5399253 C59.5021535,40.6461614 60.545163,34.9125228 66.2238903,31.3390095 C67.2481068,24.4168282 70.4804963,19.8107726 75.921059,17.5208425 C81.3616217,15.2309125 87.6699132,12.9833684 94.8459337,10.7782101 C99.1681508,8.20122024 103.657369,5.45359525 108.313588,2.53533519 C115.297917,-1.84205489 125.12828,-0.668711335 127.779348,6.9738483 C130.430415,14.6164079 130.565212,19.7927631 125.461296,23.8197874 C122.058686,26.5044702 118.699624,28.331066 115.384112,29.2995747 C114.240994,30.0166786 114.606192,30.6964902 116.479706,31.3390095 C119.289976,32.3027884 119.865691,34.8674608 118.172699,39.449577 C117.044037,42.5043211 117.859397,48.0524983 120.618781,56.0941086 C120.870402,57.0801562 120.430965,57.5731801 119.30047,57.5731801 C118.169975,57.5731801 117.22972,55.6160386 116.479706,51.7017555 C115.22733,46.2725577 111.866956,44.1993993 106.398582,45.4822806 C103.72595,46.4071758 102.870595,49.3763179 103.832517,54.389707 C104.774184,60.7220048 101.490504,66.8021097 93.9814789,72.6300216 C87.6124012,75.9604144 82.8266269,76.5474613 79.6241562,74.3911624 Z" id="Path-79" fill="#132765"></path>
                    </g>
                    <path d="M144,89.228143 C148.438617,134.827704 171.234954,161.948789 212.389012,170.591398 C212.530795,174.626016 212.530795,180.842691 212.389012,189.241425 L231.547944,170.591398 C277.531473,168.109019 303.329448,140.987934 308.94187,89.228143" id="Path-82" stroke="#339D89"></path>
                </g>
            </g>
        </g>
    </g>
</svg>