<svg xmlns="http://www.w3.org/2000/svg" xmlns:xlink="http://www.w3.org/1999/xlink" width="512.689" height="468.907" viewBox="0 0 512.689 468.907"><defs><clipPath id="a"><path d="M498.486,201.1c6.53-19.127,7.554-48.673,2.162-68.28-17.316-62.99-97.734-109.95-174.959-81.91-27.422,9.957-37.763-7.7-72.445-16.246C198.373,21.144,118.326,8.973,85.015,1.907-42.855-25.212,9.583,244.6,16.328,318.786c4.357,47.92,44.552,107.19,130.412,100.965a124.921,124.921,0,0,1,71.5,16.752c36.535,21.127,94.607,26.079,154.931,9.5,90.74-24.939,152.208-89.146,137.289-143.407a62.317,62.317,0,0,0-5.088-12.771A111.771,111.771,0,0,1,498.486,201.1Z" transform="translate(512.689 -0.093) rotate(180)" fill="#bff0ea" opacity="0"/></clipPath><filter id="b" x="5.689" y="43.907" width="314" height="234" filterUnits="userSpaceOnUse"><feOffset dx="20" dy="22" input="SourceAlpha"/><feGaussianBlur stdDeviation="10" result="c"/><feFlood flood-color="#416888" flood-opacity="0.102"/><feComposite operator="in" in2="c"/><feComposite in="SourceGraphic"/></filter><clipPath id="d"><path d="M0,224.98,21.6,115.111s28.769-73.645,33.2-81.761C58.939,25.767,76.122-.633,85.324.012c6.518.457,13.06.935,19.471,1.417,45.472,3.464,17.614,76.266,17.614,76.266L89.661,180.969c9.681,41.136,2.684,102.85,2.684,102.85L13.324,265.126Z" transform="translate(0.138 0.007)" fill="none"/></clipPath></defs><g transform="translate(512.689 -0.093) rotate(180)"><path d="M489.681,238.918A111.77,111.77,0,0,1,482.8,150.19c6.53-19.127,7.554-48.673,2.162-68.28-17.316-62.99-97.407-100.52-174.633-72.48-70.8,25.711-88.139,131.781-142.506,120.25C39.95,102.561-6.106,193.692.639,267.879,5,315.8,45.191,375.068,131.051,368.843a124.921,124.921,0,0,1,71.5,16.752c36.535,21.127,94.607,26.079,154.931,9.5,90.74-24.939,152.208-89.146,137.289-143.407a62.315,62.315,0,0,0-5.088-12.771" transform="translate(497 -51) rotate(180)" fill="#bff0ea"/><path d="M-198.5,395C-88.872,395,0,306.575,0,197.5S-88.872,0-198.5,0-397,88.424-397,197.5-308.13,395-198.5,395Z" transform="translate(51 -74) rotate(180)" fill="#bff0ea" opacity="0.22"/><path d="M498.486,201.1c6.53-19.127,7.554-48.673,2.162-68.28-17.316-62.99-97.734-109.95-174.959-81.91-27.422,9.957-37.763-7.7-72.445-16.246C198.373,21.144,118.326,8.973,85.015,1.907-42.855-25.212,9.583,244.6,16.328,318.786c4.357,47.92,44.552,107.19,130.412,100.965a124.921,124.921,0,0,1,71.5,16.752c36.535,21.127,94.607,26.079,154.931,9.5,90.74-24.939,152.208-89.146,137.289-143.407a62.317,62.317,0,0,0-5.088-12.771A111.771,111.771,0,0,1,498.486,201.1Z" transform="translate(512.689 -0.093) rotate(180)" fill="#bff0ea" opacity="0"/><g clip-path="url(#a)"><g transform="translate(497 -52) rotate(180)"><g transform="matrix(1, 0, 0, 1, -15.69, -51.91)" filter="url(#b)"><path d="M0,170a4,4,0,0,0,4,4H250a4,4,0,0,0,4-4V4a4,4,0,0,0-4-4H4A4,4,0,0,0,0,4Z" transform="translate(15.69 51.91)" fill="#40c1a8"/></g><path d="M0,7H85V0H0Z" transform="translate(21 125)" opacity="0.095"/><path d="M0,7H32V0H0Z" transform="translate(21 138)" opacity="0.095"/><path d="M4.5,9A4.5,4.5,0,1,0,0,4.511,4.489,4.489,0,0,0,4.5,9" transform="translate(26 60)" opacity="0.095"/><path d="M18.2,2.09A1.907,1.907,0,0,0,16.514.308a.646.646,0,0,0-.277-.075,96.99,96.99,0,0,0-13.421,0,1.679,1.679,0,0,0-.4.075A1.957,1.957,0,0,0,.824,2.09L0,17.432a1.953,1.953,0,0,0,1.834,2.06h.087a1.931,1.931,0,0,0,1.944-1.853l.095-1.777.1.022a2.184,2.184,0,0,1,.364-.022c0,.12-.071.213-.071.333V31.549a2.415,2.415,0,1,0,4.829,0V16.2c0-.178-.071-.333-.071-.49.245-.011.514-.011.822,0a1.43,1.43,0,0,0-.095.49V31.549a2.4,2.4,0,1,0,4.806,0V16.2a1.63,1.63,0,0,0-.055-.333,1.833,1.833,0,0,1,.348.022l.079-.022.134,1.777a1.937,1.937,0,0,0,1.921,1.853h.071A1.929,1.929,0,0,0,19,17.432L18.2,2.09" transform="translate(21 69)" opacity="0.095"/><path d="M0,9H168V0H0Z" transform="translate(52 63)" opacity="0.095"/><path d="M0,9H168V0H0Z" transform="translate(52 77)" opacity="0.095"/><path d="M0,9H168V0H0Z" transform="translate(52 92)" opacity="0.095"/><path d="M0,9H156V0H0Z" transform="translate(52 63)" opacity="0.095"/><path d="M0,9H59V0H0Z" transform="translate(52 77)" opacity="0.095"/><path d="M0,9H79V0H0Z" transform="translate(52 92)" opacity="0.095"/><path d="M0,12H92V0H0Z" transform="translate(21 23)" opacity="0.095"/></g><g transform="translate(384 -124) rotate(180)"><g transform="translate(0 62)"><path d="M0,2.15,1.478,19.4,4.639,33.725l5.817,3.855,4.363,1.309,1.262,2.426,15.083,9.969c4.062,1.79,9.819,2.69,16.753,1.021,2.38-.576-.925-7.026-1.755-8A119.948,119.948,0,0,0,34.144,32.584L22.378,18.112,9.086,0,0,2.15" transform="translate(349.067 645.338)" fill="#161711"/><path d="M56.513,0l3.774,6.906L62.33,14.7l-.276,12.407-6.694,1-5.072-1.057-3.3,2.318s-19,3.8-26.139,4.059C9.017,33.833,2.528,32.644.2,30.35c-1.3-1.273,4.206-3.8,6.021-4.059,10.5-1.645,21.549-8.4,21.549-8.4l8.653-9.8,1.659-6.93L56.513,0" transform="translate(158.167 628.74)" fill="#161711"/><path d="M59.346,0l108.9,409.714-27.666,1.766L87.72,281.128,74.933,241.822,12.1,87.609,0,2.786,59.346,0" transform="translate(208.347 253.015)" fill="#0253a2"/><path d="M53.361,395.067,45.549,237.56l6.874-72.184,8.341-99.06L48.133,0,4.879,6.925,0,113.744,2.68,215.054l2.139,38.177L21.14,403.57l32.221-8.5" transform="translate(166.548 234.91)" fill="#0253a2"/><path d="M10.2,30.236l15.527-7.552,1.887-1.772-1.923-3.458-3.329.223L23.5,7.906,7.884,4.24,0,0,6,27.008,10.2,30.236" transform="translate(274.783 270.047)" fill="#ff987f"/><path d="M58.144,0,0,63.251s1.43,9.766,6.081,4.875c.565-.573-1.959-2.671,1.454-4.3,13.8-6.561,45.837-16.066,58.108-26.659A193.905,193.905,0,0,0,93.6,6.45L58.144,0" transform="translate(275.155 205.633)" fill="#ff987f"/><path d="M60.056,50.024S35.131,43.787,6.239,5.186C-3.52-7.849.855,5.941,1.756,21.686S29.662,63.974,61.078,74.393s-1.022-24.369-1.022-24.369" transform="translate(41.185 31.333)" fill="#e9d6b8"/><path d="M47.688,46.2S53.565,29.723,51.233,25.4s-11.85-19.51-11.85-19.51l-2.764-3.65s-5.444,1.092,1.07,11.224c6.514,10.149.805,7.079.805,7.079L29.324,13.8,17.5,6.467,12.643,2.5S10.035.026,8.953,0C5.8-.05,6.91,2.558,6.91,2.558L24.577,19.735,4.242,8.685s-2.824-.946-3.81.363c-.913,1.244-.1,1.756-.1,1.756L20.563,29.149,9.47,24.718s-2.788-.85-3.8.377c-1.118,1.349-1.442,1.68-1.442,1.68l40.5,23.417L47.688,46.2" transform="translate(1.683 0.183)" fill="#ff987f"/><path d="M9.554,26.319,0,11.852,17.991,0l9.554,14.474L9.554,26.319" transform="translate(37.893 42.264)" fill="#fff"/><path d="M13.544,29,0,14.92,15.527,0,29.072,14.077,13.544,29" transform="translate(287.474 237.864)" fill="#e7f5fe"/><path d="M22.125,8.716,7.391,1.838S4.266-.084,2.283,0A2.244,2.244,0,0,0,0,2.225L21.248,14.944l.877-6.227" transform="translate(0.998 14.388)" fill="#ff987f"/><path d="M192.326,23.511s2.019,13.3-48.722,63.748c-28.363,28.191-45.417,46.446-62.182,40.884C52.7,118.608,0,39.808,0,39.808L26.752,11.34S69.4,61.827,88.694,61.471c4.519-.089,33.651-23.3,61.377-57.574C161.8-10.6,189.31,19.732,192.326,23.511" transform="translate(36.054 33.87)" fill="#fff"/><path d="M7.937,322.132,21.6,348.366l5.444-68.3,17.763,62.269,102.311-13.778s-20.094-100.865-29.805-142.123L150.16,82.854S178.1,9.836,132.493,6.362C86.872,2.9,34.245,0,34.245,0S-19.849,188.461,7.937,322.132" transform="translate(156.435 32.112)" fill="#fff"/><path d="M.058,83.557c-1.072,20.034,17.623-22.98,17.623-22.98s-.66-41.613.79-60.578C18.471,0,2.595,36.137.058,83.557Z" transform="translate(214.164 51.861)" fill="#01e9b5"/><path d="M0,11.706,2.56,27.125,30.069,3.818,30.286,0,0,11.706" transform="translate(234.162 38.284)" fill="#d1dbea"/><path d="M9.27,0,0,30.207,10.215,18.793,8.749,1.946Z" transform="translate(220.593 33.291)" fill="#d1dbea"/><path d="M17.57,73.64l25.154,87.767L6.97,207.58s14.1,20.917,19.95,18.468c40.489-16.932,72.53-75,72.53-75L62.818,31.819S47.519,6.33,10.623.2C-16.1-4.233,15.815,66.357,17.57,73.64" transform="translate(285.011 38.922)" fill="#fff"/><path d="M37.151,18.918C33.8,25.412,5.648,33.1,1.621,33.836s.681-22.055.945-26.81C2.759,3.386,6.112,5.4,3.576,0L40.46,2.035C39.21,6.705,39.279,14.746,37.151,18.918Z" transform="translate(228.242 18.011)" fill="#ff987f"/><path d="M32.149,0,24.361,21.728l-10,83.288L0,39.55,11.814,28.221,5.408,17.685,19.542.5,32.149,0" transform="translate(197.891 33.479)" fill="#fff"/></g><g transform="translate(184 99)"><path d="M0,224.98,21.6,115.111s28.769-73.645,33.2-81.761C58.939,25.767,76.122-.633,85.324.012c6.518.457,13.06.935,19.471,1.417,45.472,3.464,17.614,76.266,17.614,76.266L89.661,180.969c9.681,41.136,2.684,102.85,2.684,102.85L13.324,265.126Z" transform="translate(0.138 0.007)" fill="none"/></g><g transform="translate(155)"><path d="M59.379,0,76.9.964,62.335,26,44.982,36.289l.12,19.59L0,120.063,29.455,35.436,59.379,0" transform="translate(52.88 99.545)" fill="#d1dbea"/><path d="M59.078,0,76.6.964,62.095,24.874,44.777,34.681l.156,18.735L0,114.7,29.239,33.824,59.078,0" transform="translate(52.18 97.545)" fill="#fff"/><path d="M3.87.5,8.52,0,8.052,11.41,4.687,14.417,0,12.563,3.87.5" transform="translate(70.603 112.229)" fill="#00bf93"/><path d="M0,0,40.944,1.49,48.419,47.4l-27.244.026s-14.409.065-16.728-12.16S0,0,0,0" transform="translate(56.41 331.475)" fill="#e7f5fe"/><path d="M1.586,37.235l9.963,1.188L14.193,1.5,0,0C.012,12.237.5,24.686,1.586,37.235" transform="translate(0.324 331.795)" fill="#e7f5fe"/><path d="M3.864,12.183,0,10.851C1.49,4.8,6.779-.617,13.413.057l1.514.156a9.318,9.318,0,0,1,6.754,3.937,12.276,12.276,0,0,1,1.586,10.036l-4.146-1.012A8.071,8.071,0,0,0,18.2,6.6a5.048,5.048,0,0,0-3.7-2.159L12.98,4.291c-2.2-.215-4.381.091-6.654,3.277a31.324,31.324,0,0,0-3.585,7.567" transform="translate(107.376 157.744)" fill="#bbbbf0"/><circle cx="6" cy="6" r="6" transform="translate(121 171)" fill="#d5d2f6" stroke="#bbbbf0" stroke-miterlimit="10" stroke-width="3"/><path d="M2.8,51.916,0,51.194l10.323-39.78C12.126,4.488,18.952-.608,25.561.059l-.288,2.867c-5.264-.532-10.7,3.6-12.15,9.21L2.8,51.916" transform="translate(51.363 91.201)" fill="#7676e3"/><path d="M1.37,4.813,0,.712A13.244,13.244,0,0,1,5.552.065l-.433,4.3a8.943,8.943,0,0,0-3.749.447" transform="translate(71.444 90.478)" fill="#1b5e8f"/><path d="M2.8,54.03,0,53.308,10.335,13.525A9.206,9.206,0,0,0,9.241,5.981,7.455,7.455,0,0,0,3.786,2.866L4.074,0a10.283,10.283,0,0,1,7.535,4.335,11.961,11.961,0,0,1,1.514,9.912L2.8,54.03" transform="translate(101.296 94.316)" fill="#7676e3"/><path d="M29.866,44.452a20.054,20.054,0,0,1-2.067-.1l-11.08-1.116A18.064,18.064,0,0,1,3.464,35.6,21.216,21.216,0,0,1,.784,18.067L5.47,0,9.665,1.084,4.978,19.151A16.9,16.9,0,0,0,7.021,33.132a13.771,13.771,0,0,0,10.131,5.8l11.08,1.117c9.662.965,19.709-6.631,22.389-16.953L55.307,5.026,59.5,6.109,54.814,24.177c-3,11.577-13.916,20.274-24.948,20.274" transform="translate(49.342 126.237)" fill="#bbbbf0"/><path d="M3.076,5.33A7.04,7.04,0,0,0,0,4.3L.445,0A11.3,11.3,0,0,1,5.384,1.676L3.076,5.33" transform="translate(105.009 93.599)" fill="#1b5e8f"/><path d="M.179,54.636A7.468,7.468,0,0,0,5.9,63.545l33.012,7.164a7.5,7.5,0,0,0,8.917-5.725L58.465,16.231A7.489,7.489,0,0,0,52.72,7.317L19.732.177A7.492,7.492,0,0,0,10.8,5.892L.179,54.636" transform="translate(69.967 17.917)" fill="#ff987f"/><path d="M3.584,17.121S.183,11.448,0,8.364C-.094,6.813,2.538,1.579,6.672.24s6.321,3.285,6.321,3.285S6.432,5.505,5.867,6.656,3.584,17.121,3.584,17.121" transform="translate(74.951 16.726)" fill="#163f59"/><path d="M47.542,56.163s9.061-17.647,9.35-23.329c.276-5.7.493-9.634-6.081-11.7-9.866-3.086-10.455-.988-14.673-5.1C31.907,11.936,24.721,2.68,21.861,1.295,17.078-1.029,8.834-1.057,6.466,8.329,4.712,15.253-.071,16,0,16.292c.2.93,1.863,2.129,4.711,4.42,8.172,6.564,13.472,8.673,20.9,8.36,7.427-.3,21.367-1.426,21.764,4.089s-3.665,21.227-3.329,22.575c.361,1.358,2.067,1.093,3.5.428" transform="translate(79.471 0.643)" fill="#194866"/><path d="M.055,14.961a2.51,2.51,0,0,0,1.923,2.97L9.1,19.473a2.508,2.508,0,0,0,2.98-1.9l2.836-13A2.523,2.523,0,0,0,13.01,1.593L5.872.057A2.488,2.488,0,0,0,2.9,1.957l-2.848,13" transform="translate(113.366 54.229)" fill="#ff987f"/><path d="M.06,14.963a2.479,2.479,0,0,0,1.9,2.973l7.114,1.551a2.51,2.51,0,0,0,2.992-1.917L14.89,4.576a2.484,2.484,0,0,0-1.9-2.966L5.853.053a2.522,2.522,0,0,0-2.968,1.92L.06,14.963" transform="translate(70.867 44.989)" fill="#ff987f"/><path d="M60.247,1.417S56.065,20.6,54.67,27.005c-1.262,5.789-6.357,17.985-39.117,10.858C-3.843,33.671-.033,19.6.988,14.928,1.757,11.374,8.127,1.6,10.614,0L8.884,7.926A15.886,15.886,0,0,1,23.821,3.086C38.7,6.307,40.177,15.726,46.775,17c5.071.977,10.648-6.4,13.472-15.581" transform="translate(62.669 58.985)" fill="#194866"/><path d="M12.138,6.607,1.959,4.4A2.482,2.482,0,0,1,.06,1.423L.361,0l15.07,3.282L15.118,4.7a2.5,2.5,0,0,1-2.98,1.908" transform="translate(77.717 69.382)" fill="#e9d6b8"/><path d="M19.186,52.5a17.857,17.857,0,0,1-1.815-.091l-2.764-.279A15.8,15.8,0,0,1,3.022,45.462,18.528,18.528,0,0,1,.679,30.178L9.608,0l4.158,1.224L4.861,31.333A14.134,14.134,0,0,0,6.579,42.992a11.513,11.513,0,0,0,8.46,4.838l2.776.279c8.148.824,16.6-5.592,18.856-14.3l.048-.146L47.559,1.409l4.11,1.375L40.853,34.968C38.209,44.986,28.752,52.5,19.186,52.5" transform="translate(60.034 166.251)" fill="#bbbbf0"/></g></g></g></g></svg>