<?xml version="1.0" encoding="UTF-8"?>
<svg width="497px" height="457px" viewBox="0 0 497 457" version="1.1" xmlns="http://www.w3.org/2000/svg" xmlns:xlink="http://www.w3.org/1999/xlink">
    <!-- Generator: Sketch 53.2 (72643) - https://sketchapp.com -->
    <title>Group 43</title>
    <desc>Created with Sketch.</desc>
    <defs>
        <path d="M549.721542,229.560186 C556.24954,210.446226 561.139309,73.7729657 555.749626,54.1800839 C538.439491,-8.76628811 450.228296,-9.86532751 373.030634,18.1557463 C302.25157,43.8486515 204.877533,29.6789354 150.530634,18.1557463 C22.7070597,-8.94485655 -5.7120096,272.381653 1.0306341,346.516246 C5.38586401,394.402883 112.275049,454.282444 198.104236,448.061998 C223.372879,446.230745 248.191457,452.441502 269.575706,464.802112 C306.09732,485.914809 364.148588,490.863205 424.450174,474.296112 C515.156665,449.374188 576.602104,385.212518 561.689077,330.989165 C560.46075,326.525227 558.753278,322.26753 556.602667,318.227147 C542.157705,291.076714 539.645659,259.062319 549.721542,229.560186 Z" id="path-1"></path>
        <linearGradient x1="21.6692824%" y1="137.51474%" x2="66.5009368%" y2="0.256017736%" id="linearGradient-3">
            <stop stop-color="#BFF0EA" offset="0%"></stop>
            <stop stop-color="#40C1A8" offset="100%"></stop>
        </linearGradient>
        <path d="M36.5774358,66.0571603 L193.503512,66.0571603 C201.235498,66.0571603 207.503512,72.3251738 207.503512,80.0571603 C207.503512,81.0227904 207.403608,81.9858297 207.205396,82.9308977 L188.34034,172.878861 C186.980567,179.362214 181.262868,184.005124 174.638456,184.005124 L12.2285554,184.005124 C4.4965689,184.005124 -1.7714446,177.737111 -1.7714446,170.005124 C-1.7714446,168.769627 -1.60789915,167.539566 -1.28506962,166.346991 L23.0638108,76.3990271 C24.7160161,70.2955635 30.2542997,66.0571603 36.5774358,66.0571603 Z" id="path-4"></path>
        <filter x="-11.6%" y="-17.8%" width="142.5%" height="171.2%" filterUnits="objectBoundingBox" id="filter-5">
            <feOffset dx="20" dy="22" in="SourceAlpha" result="shadowOffsetOuter1"></feOffset>
            <feGaussianBlur stdDeviation="10" in="shadowOffsetOuter1" result="shadowBlurOuter1"></feGaussianBlur>
            <feColorMatrix values="0 0 0 0 0.254901961   0 0 0 0 0.407843137   0 0 0 0 0.533333333  0 0 0 0.1 0" type="matrix" in="shadowBlurOuter1"></feColorMatrix>
        </filter>
        <linearGradient x1="100%" y1="50%" x2="0%" y2="50%" id="linearGradient-6">
            <stop stop-color="#EEEEEE" stop-opacity="0" offset="0%"></stop>
            <stop stop-color="#4FC6B0" offset="100%"></stop>
        </linearGradient>
        <path d="M0,51.3270502 L1.83155078,44.9742514 L48.0273897,0.233803807 L50.5599142,1.15167479 C53.0135097,6.26540921 54.2403075,11.2061257 54.2403075,15.9738243 C54.2403075,23.1253721 54.3092959,22.9487995 53.7524131,24.6548689 C53.1955303,26.3609384 51.8394102,26.3609384 51.8394102,32.0448181 C51.8394102,37.7286978 52.8234433,38.3646508 49.370239,47.1295903 C47.0681029,52.9728834 44.7430524,57.4125018 42.3950875,60.4484455 C41.4244527,61.7152832 38.1670494,62.0319927 32.6228777,61.3985738 C30.3630027,61.8049444 29.1606175,63.8752187 29.015722,67.6093967 L0,51.3270502 Z" id="path-7"></path>
        <path d="M-4.54747351e-13,11.4092022 L56.3844759,34.9256404 C53.6417658,25.4922996 49.8751969,19.214558 45.0847691,16.0924157 C37.8991274,11.4092022 14.8745171,0 13.6766714,0 C12.4788257,0 11.8189947,2.44906788 7.04915337,6.42811244 C5.83256576,7.44300076 3.48284797,9.10336402 -4.54747351e-13,11.4092022 Z" id="path-9"></path>
        <path d="M-2.66453526e-13,23.0132413 L15.9552443,10.9006419 C18.6079991,9.15211601 22.2397885,7.73671556 26.8506124,6.65444057 C31.4614363,5.57216559 37.4393214,3.68474626 44.7842676,0.992182587 C50.6514754,-1.06300249 51.4253414,0.0746111323 47.1058656,4.40502345 C42.8200741,7.17764222 37.5412495,10.1289632 31.2693916,13.2589865 C31.0217895,14.4272304 32.2840791,14.4272304 35.0562604,13.2589865 C39.2145323,11.5066207 42.009899,16.334546 36.6396453,18.7578533 C31.2693916,21.1811606 29.6827624,19.9317761 26.8506124,24.4686693 C24.0184624,29.0055626 24.2494778,30.2654461 19.4277984,31.817334 C16.2133454,32.8519259 9.73741264,29.9172283 -2.66453526e-13,23.0132413 Z" id="path-11"></path>
        <path d="M0,35.5853926 C8.87787147,38.3215473 13.6316199,41.0840958 14.2612453,43.8730381 C14.4322311,44.0893523 22.1110984,32.6568311 25.5738469,30.3582775 C29.0365955,28.059724 29.1559413,26.0985517 30.0229194,23.4471249 C30.8898976,20.795698 31.7434729,15.9015542 31.7434729,13.2007771 C31.7434729,10.5 32.5773962,8.93659489 32.5773962,7.90917135 C32.5773962,6.88174782 32.8187226,1.78364226 30.0229194,1.78364226 C27.2271162,1.78364226 27.969706,7.49332395 25.1710208,9.6800101 C22.3723356,11.8666962 17.4607736,14.6510922 19.9165546,9.6800101 C22.3723356,4.70892805 22.8948969,5.30347296 24.0033321,3.60628912 C25.1117673,1.90910528 24.113948,-1.77488848 18.1070158,2.7789198 C12.1000836,7.33272807 6.46236222,17.0986775 3.65442492,26.8693801 C2.58767715,29.5875375 1.36953551,32.492875 0,35.5853926 Z" id="path-13"></path>
        <path d="M61.2372329,36.7262579 C58.7311343,42.7424455 54.7627671,58.9883963 61.2372329,73.0646079 C67.7116987,87.1408196 73.1141528,95.8986027 76.7090972,113.812661 C80.3040416,131.726719 96.0656838,143.12771 100.390497,143.76446 C104.715309,144.40121 108.947801,145.36993 116.171596,138.686769 C123.395391,132.003609 133.141598,127.496132 136.052643,122.693689 C138.963688,117.891245 162.245472,85.3570549 162.245472,83.2931822 C162.245472,81.2293095 153.733304,70.226848 148.586266,74.4607214 C143.439228,78.6945948 115.078825,108.809218 110.122736,105.243182 C105.166648,101.677146 108.196829,101.677146 100.390497,83.2931822 C103.5861,81.7621608 113.151371,73.7489131 129.086311,59.2534391 C137.472442,49.5661745 136.253707,42.7225423 125.430107,38.7225423 C123.129565,38.0029625 114.057866,44.8465948 98.2150075,59.2534391 C96.033198,39.5731269 87.9986666,28.6757445 74.1114131,26.5612919 C66.2225733,26.5612919 63.7433315,30.7100704 61.2372329,36.7262579 Z" id="path-15"></path>
        <polygon id="path-17" points="0 0.308091327 1.39843167 21.5350435 92.809325 21.5350435 90.6746448 0.308091327"></polygon>
        <path d="M0.406745512,0 C2.91548233,36.9660347 4.16985074,60.8081516 4.16985074,71.5263508 C4.16985074,82.2445499 3.05969913,95.6851889 0.839395914,111.848268 C6.6907181,115.972996 11.1448341,118.990388 14.2017439,120.900443 C17.2586536,122.810498 21.5714028,125.270924 27.1399915,128.28172 C28.6884407,119.539344 30.6500561,113.054402 33.0248378,108.826895 C36.5870103,102.485634 41.8868543,75.6887129 41.8868543,69.6607943 C41.8868543,65.6421819 42.8320929,53.3749335 44.7225701,32.8590489 C46.5993847,39.5174262 47.8252467,47.1386597 48.400156,55.7227494 C48.9750653,64.3068391 49.9390001,76.5487399 51.2919605,92.4484515 C52.8146252,108.0048 51.8506904,120.515459 48.400156,129.980429 C47.8051707,131.6125 47.0872589,134.170523 46.2464206,137.654498 C53.888131,140.830412 59.6707604,143.125864 63.5943086,144.540856 C67.5178569,145.955847 72.297696,147.516152 77.933826,149.221769 C80.9540053,136.495174 82.9542341,128.544707 83.9345123,125.370368 C86.5971082,116.748347 88.8115337,101.628124 88.8115337,94.3479174 C88.8115337,89.494446 89.9687229,74.0092875 92.2831013,47.8924416 L92.2831013,0 L0.406745512,0 Z" id="path-19"></path>
    </defs>
    <g id="Page-1" stroke="none" stroke-width="1" fill="none" fill-rule="evenodd">
        <g id="Group-43" transform="translate(0.000000, -51.000000)">
            <g id="asset">
                <path d="M489.680534,317.918283 C475.230298,290.748959 472.717334,258.712288 482.796897,229.189629 C489.327279,210.06237 490.351027,180.516163 484.959376,160.909649 C467.642919,97.9194797 387.552231,60.389384 310.326377,88.4299545 C239.521465,114.140736 222.187,220.211217 167.820253,208.68001 C39.9499987,181.560551 -6.10623382,272.692405 0.638872245,346.878579 C4.99569265,394.798535 45.1906511,454.068245 131.051183,447.843471 C156.329053,446.010944 181.156695,452.226022 202.548753,464.595232 C239.083705,485.722619 297.156173,490.674459 357.47978,474.095838 C448.219397,449.156574 509.687275,384.950261 494.768802,330.689181 C493.540026,326.222136 491.831931,321.961477 489.680534,317.918283" id="Fill-5" fill="#BFF0EA" transform="translate(248.500000, 281.500000) scale(-1, 1) translate(-248.500000, -281.500000) "></path>
                <path d="M448,299.49931 C448,408.57491 359.129652,497 249.5,497 C139.871736,497 51,408.57491 51,299.49931 C51,190.42371 139.871736,102 249.5,102 C359.129652,102 448,190.42371 448,299.49931" id="Fill-4" fill="#BFF0EA" opacity="0.22" style="mix-blend-mode: multiply;"></path>
                <g id="Group-6">
                    <mask id="mask-2" fill="white">
                        <use xlink:href="#path-1"></use>
                    </mask>
                    <use id="Fill-5" fill="#BFF0EA" opacity="0" transform="translate(282.015317, 242.395694) scale(-1, 1) translate(-282.015317, -242.395694) " xlink:href="#path-1"></use>
                </g>
            </g>
            <g id="Group-28" transform="translate(37.000000, 51.000000)">
                <g id="Group-22" transform="translate(92.238923, 8.117536)">
                    <path d="M113.425154,0 L305.043905,-3.55271368e-15 C317.746454,-5.88613412e-15 328.043905,10.2974508 328.043905,23 C328.043905,24.541486 327.888938,26.0790674 327.581341,27.5895518 L245.541123,430.455937 C243.359406,441.16947 233.937108,448.866385 223.003687,448.866385 L27,448.866385 C14.2974508,448.866385 4,438.568934 4,425.866385 C4,424.244735 4.17150392,422.627633 4.51165032,421.042058 L90.9368045,18.1756732 C93.2112419,7.57350085 102.581763,1.26500396e-14 113.425154,1.0658141e-14 Z" id="Path-33" fill="#E4EDFF"></path>
                    <path d="M113.425115,-1.57772181e-30 L292.493632,5.68434189e-14 C305.196181,5.45099984e-14 315.493632,10.2974508 315.493632,23 C315.493632,24.6392443 315.318386,26.2737916 314.970882,27.8757787 L230.233971,418.511381 C227.940668,429.083468 218.589873,436.62845 207.771915,436.635597 L29.612878,436.753289 C16.9103315,436.761681 6.60608049,426.471035 6.59768914,413.768488 C6.59661451,412.141744 6.76812609,410.519477 7.10934442,408.928921 L90.9367752,18.1756268 C93.2112307,7.57347651 102.581742,-5.11353205e-15 113.425115,-7.10542736e-15 Z" id="Path-33" fill="url(#linearGradient-3)"></path>
                    <g id="Group-27" transform="translate(33.761077, 13.882464)">
                        <path d="M98.0522918,231 L149.281382,231 C151.490521,231 153.281382,232.790861 153.281382,235 C153.281382,235.284251 153.251083,235.567692 153.190998,235.84552 L115.949002,408.049378 C115.550908,409.890134 113.922698,411.203857 112.039387,411.203857 L62.7057623,411.203857 C60.4966233,411.203857 58.7057623,409.412996 58.7057623,407.203857 C58.7057623,406.933696 58.7331323,406.66423 58.787453,406.399586 L94.1339825,234.195729 C94.5158365,232.335384 96.1531617,231 98.0522918,231 Z" id="Path-33" fill="#339D89" opacity="0.393880208"></path>
                        <path d="M152.272785,280 L203.5076,280 C205.716739,280 207.5076,281.790861 207.5076,284 C207.5076,284.302038 207.47339,284.603103 207.405625,284.897441 L199.093892,320.99937 C198.675821,322.815255 197.059257,324.101929 195.195867,324.101929 L144.017859,324.101929 C141.80872,324.101929 140.017859,322.311068 140.017859,320.101929 C140.017859,319.801891 140.051618,319.502805 140.118497,319.210316 L148.373423,283.108387 C148.789278,281.289698 150.407158,280 152.272785,280 Z" id="Path-33" fill="#339D89" opacity="0.393880208"></path>
                        <path d="M12.2549261,329 L63.4897405,329 C65.6988795,329 67.4897405,330.790861 67.4897405,333 C67.4897405,333.302038 67.4555308,333.603103 67.3877656,333.897441 L59.0760325,369.99937 C58.6579618,371.815255 57.0413978,373.101929 55.1780073,373.101929 L4,373.101929 C1.790861,373.101929 3.02795313e-15,371.311068 1.77635684e-15,369.101929 C1.60636909e-15,368.801891 0.0337582373,368.502805 0.100637702,368.210316 L8.35556378,332.108387 C8.77141812,330.289698 10.3892989,329 12.2549261,329 Z" id="Path-33-Copy-5" fill="#339D89" opacity="0.393880208"></path>
                        <path d="M132.254926,367 L183.48974,367 C185.698879,367 187.48974,368.790861 187.48974,371 C187.48974,371.302038 187.455531,371.603103 187.387766,371.897441 L179.076032,407.99937 C178.657962,409.815255 177.041398,411.101929 175.178007,411.101929 L124,411.101929 C121.790861,411.101929 120,409.311068 120,407.101929 C120,406.801891 120.033758,406.502805 120.100638,406.210316 L128.355564,370.108387 C128.771418,368.289698 130.389299,367 132.254926,367 Z" id="Path-33-Copy-4" fill="#339D89" opacity="0.393880208"></path>
                        <path d="M162.254926,231 L213.48974,231 C215.698879,231 217.48974,232.790861 217.48974,235 C217.48974,235.302038 217.455531,235.603103 217.387766,235.897441 L209.076032,271.99937 C208.657962,273.815255 207.041398,275.101929 205.178007,275.101929 L154,275.101929 C151.790861,275.101929 150,273.311068 150,271.101929 C150,270.801891 150.033758,270.502805 150.100638,270.210316 L158.355564,234.108387 C158.771418,232.289698 160.389299,231 162.254926,231 Z" id="Path-33-Copy" fill="#339D89" opacity="0.393880208"></path>
                        <path d="M22.2370667,280 L73.4718811,280 C75.6810201,280 77.4718811,281.790861 77.4718811,284 C77.4718811,284.302038 77.4376714,284.603103 77.3699062,284.897441 L69.0581731,320.99937 C68.6401024,322.815255 67.0235384,324.101929 65.1601479,324.101929 L13.9821406,324.101929 C11.7730016,324.101929 9.98214058,322.311068 9.98214058,320.101929 C9.98214058,319.801891 10.0158988,319.502805 10.0827783,319.210316 L18.3377044,283.108387 C18.7535587,281.289698 20.3714395,280 22.2370667,280 Z" id="Path-33-Copy-6" fill="#339D89" opacity="0.393880208"></path>
                        <path d="M173.254926,182 L224.48974,182 C226.698879,182 228.48974,183.790861 228.48974,186 C228.48974,186.302038 228.455531,186.603103 228.387766,186.897441 L220.076032,222.99937 C219.657962,224.815255 218.041398,226.101929 216.178007,226.101929 L165,226.101929 C162.790861,226.101929 161,224.311068 161,222.101929 C161,221.801891 161.033758,221.502805 161.100638,221.210316 L169.355564,185.108387 C169.771418,183.289698 171.389299,182 173.254926,182 Z" id="Path-33-Copy-2" fill="#339D89" opacity="0.393880208"></path>
                        <path d="M196.254926,71 L247.48974,71 C249.698879,71 251.48974,72.790861 251.48974,75 C251.48974,75.3020376 251.455531,75.6031033 251.387766,75.8974408 L243.076032,111.99937 C242.657962,113.815255 241.041398,115.101929 239.178007,115.101929 L188,115.101929 C185.790861,115.101929 184,113.311068 184,111.101929 C184,110.801891 184.033758,110.502805 184.100638,110.210316 L192.355564,74.108387 C192.771418,72.289698 194.389299,71 196.254926,71 Z" id="Path-33-Copy-7" fill="#339D89" opacity="0.393880208"></path>
                        <path d="M89.9906402,6.48776087e-17 L89.9906402,0 C97.7710184,-1.4292323e-15 104.078261,6.30724278 104.078261,14.0876211 C104.078261,15.1299474 103.962582,16.1690544 103.733346,17.185861 L102.45995,22.8342002 C100.197218,32.8708861 91.2819467,40 80.9933598,40 L80.9933598,40 C73.2142638,40 66.9080604,33.6937967 66.9080604,25.9147007 C66.9080604,24.8771553 67.0227002,23.8427863 67.2498931,22.8304208 L68.5157842,17.1896448 C70.7708291,7.14122623 79.6922936,1.89177558e-15 89.9906402,0 Z" id="Path-33-Copy-7" fill="#449284"></path>
                        <path d="M225.798941,10 L225.798941,10 C229.756509,10 232.964751,13.2082422 232.964751,17.1658094 C232.964751,17.7074629 232.903337,18.2473701 232.781687,18.775186 L232.214738,21.2350573 C231.032317,26.3653305 226.464644,30 221.199872,30 L221.199872,30 C217.242873,30 214.035091,26.7922183 214.035091,22.835219 C214.035091,22.2960353 214.095955,21.7585747 214.216526,21.2330448 L214.779965,18.7772009 C215.958376,13.6408982 220.529192,10 225.798941,10 Z" id="Path-33-Copy-8" fill="#449284"></path>
                        <path d="M252.798941,10 L252.798941,10 C256.756509,10 259.964751,13.2082422 259.964751,17.1658094 C259.964751,17.7074629 259.903337,18.2473701 259.781687,18.775186 L259.214738,21.2350573 C258.032317,26.3653305 253.464644,30 248.199872,30 L248.199872,30 C244.242873,30 241.035091,26.7922183 241.035091,22.835219 C241.035091,22.2960353 241.095955,21.7585747 241.216526,21.2330448 L241.779965,18.7772009 C242.958376,13.6408982 247.529192,10 252.798941,10 Z" id="Path-33-Copy-9" fill="#449284"></path>
                        <path d="M109.254926,182 L160.48974,182 C162.698879,182 164.48974,183.790861 164.48974,186 C164.48974,186.302038 164.455531,186.603103 164.387766,186.897441 L156.076032,222.99937 C155.657962,224.815255 154.041398,226.101929 152.178007,226.101929 L101,226.101929 C98.790861,226.101929 97,224.311068 97,222.101929 C97,221.801891 97.0337582,221.502805 97.1006377,221.210316 L105.355564,185.108387 C105.771418,183.289698 107.389299,182 109.254926,182 Z" id="Path-33-Copy-3" fill="#339D89" opacity="0.393880208"></path>
                    </g>
                    <g id="Path-33">
                        <use fill="black" fill-opacity="1" filter="url(#filter-5)" xlink:href="#path-4"></use>
                        <use fill="#FFFFFF" fill-rule="evenodd" xlink:href="#path-4"></use>
                    </g>
                    <g id="Group-26" transform="translate(34.761077, 77.882464)">
                        <rect id="Rectangle" fill="url(#linearGradient-6)" x="5" y="36" width="111" height="13" rx="6.5"></rect>
                        <rect id="Rectangle" fill="url(#linearGradient-6)" x="0" y="65" width="111" height="13" rx="6.5"></rect>
                        <path d="M84.8,17.336 C83.8879954,17.336 83.132003,17.2080013 82.532,16.952 C81.931997,16.6959987 81.428002,16.2520032 81.02,15.62 C80.611998,14.9879968 80.3800003,14.1400053 80.324,13.076 C80.2679997,12.0119947 80.3199992,10.6720081 80.48,9.056 C80.8640019,5.90398424 81.559995,3.71200616 82.568,2.48 C83.576005,1.24799384 85.0559902,0.632 87.008,0.632 C88.9280096,0.632 90.2239966,1.231994 90.896,2.432 C91.5680034,3.632006 91.7120019,5.80798424 91.328,8.96 C90.9439981,12.0640155 90.2280052,14.2359938 89.18,15.476 C88.1319948,16.7160062 86.6720094,17.336 84.8,17.336 Z M86.744,2.36 C85.5119938,2.36 84.592003,2.83199528 83.984,3.776 C83.375997,4.72000472 82.9200015,6.45598736 82.616,8.984 C82.2959984,11.5600129 82.3039983,13.3039954 82.64,14.216 C82.9760017,15.1280046 83.7919935,15.584 85.088,15.584 C86.3680064,15.584 87.2879972,15.1280046 87.848,14.216 C88.4080028,13.3039954 88.8479984,11.5600129 89.168,8.984 C89.4720015,6.47198744 89.4360019,4.74000476 89.06,3.788 C88.6839981,2.83599524 87.9120058,2.36 86.744,2.36 Z M97.952,17 L95.936,17 L97.64,3.032 L93.8,4.208 L93.536,2.672 L98.408,0.848 L99.92,0.848 L97.952,17 Z M101.288,17 L101.6,14.36 L104.168,14.36 L103.856,17 L101.288,17 Z M102.152,9.8 L102.488,7.16 L105.056,7.16 L104.72,9.8 L102.152,9.8 Z M110.672,9.176 L109.256,9.176 L109.448,7.592 C111.160009,7.57599992 112.399996,7.32400244 113.168,6.836 C113.936004,6.34799756 114.383999,5.61600488 114.512,4.64 C114.608,3.82399592 114.432002,3.2360018 113.984,2.876 C113.535998,2.5159982 112.912004,2.336 112.112,2.336 C111.055995,2.336 109.920006,2.58399752 108.704,3.08 L108.368,1.472 C109.696007,0.92799728 111.055993,0.656 112.448,0.656 C113.792007,0.656 114.855996,0.95999696 115.64,1.568 C116.424004,2.17600304 116.736001,3.1599932 116.576,4.52 C116.383999,6.26400872 115.536008,7.47999656 114.032,8.168 C115.840009,8.82400328 116.616001,10.1599899 116.36,12.176 C116.215999,13.3600059 115.828003,14.351996 115.196,15.152 C114.563997,15.952004 113.828004,16.5119984 112.988,16.832 C112.147996,17.1520016 111.208005,17.312 110.168,17.312 C108.791993,17.312 107.464006,17.0400027 106.184,16.496 L106.928,14.696 C108.096006,15.2560028 109.199995,15.536 110.24,15.536 C111.280005,15.536 112.171996,15.2680027 112.916,14.732 C113.660004,14.1959973 114.095999,13.3600057 114.224,12.224 C114.336001,11.2799953 114.084003,10.5360027 113.468,9.992 C112.851997,9.44799728 111.920006,9.176 110.672,9.176 Z M123.392,17.336 C122.479995,17.336 121.724003,17.2080013 121.124,16.952 C120.523997,16.6959987 120.020002,16.2520032 119.612,15.62 C119.203998,14.9879968 118.972,14.1400053 118.916,13.076 C118.86,12.0119947 118.911999,10.6720081 119.072,9.056 C119.456002,5.90398424 120.151995,3.71200616 121.16,2.48 C122.168005,1.24799384 123.64799,0.632 125.6,0.632 C127.52001,0.632 128.815997,1.231994 129.488,2.432 C130.160003,3.632006 130.304002,5.80798424 129.92,8.96 C129.535998,12.0640155 128.820005,14.2359938 127.772,15.476 C126.723995,16.7160062 125.264009,17.336 123.392,17.336 Z M125.336,2.36 C124.103994,2.36 123.184003,2.83199528 122.576,3.776 C121.967997,4.72000472 121.512002,6.45598736 121.208,8.984 C120.887998,11.5600129 120.895998,13.3039954 121.232,14.216 C121.568002,15.1280046 122.383994,15.584 123.68,15.584 C124.960006,15.584 125.879997,15.1280046 126.44,14.216 C127.000003,13.3039954 127.439998,11.5600129 127.76,8.984 C128.064002,6.47198744 128.028002,4.74000476 127.652,3.788 C127.275998,2.83599524 126.504006,2.36 125.336,2.36 Z M142.4,7.856 L143.264,0.968 L145.304,0.968 L143.336,17 L141.296,17 L142.184,9.632 L134.816,9.632 L133.928,17 L131.888,17 L133.856,0.968 L135.896,0.968 L135.032,7.856 L142.4,7.856 Z" id="01:30H" fill="#449284" fill-rule="nonzero"></path>
                        <path d="M129.525378,53.5626064 C126.537945,46.1875355 125.112797,41.1843555 125.249933,38.5530666 C125.455637,34.6061333 129.1708,31.026426 134.170883,31.7320969 C139.170967,32.4377679 140.924223,37.7106688 139.107483,41.7616824 C137.896324,44.4623581 134.702289,48.3959994 129.525378,53.5626064 Z M131.347067,43.673739 C133.195601,44.2388925 135.21773,42.9844311 135.86362,40.871821 C136.50951,38.7592108 135.534574,36.5884545 133.68604,36.023301 C131.837506,35.4581474 129.815377,36.7126089 129.169487,38.825219 C128.523597,40.9378292 129.498533,43.1085855 131.347067,43.673739 Z" id="Path-63" fill="#4CC5AE"></path>
                        <g id="Group-25" transform="translate(111.044229, 58.093267)">
                            <ellipse id="Oval" fill="#4CC5AE" transform="translate(14.000000, 14.500000) rotate(30.000000) translate(-14.000000, -14.500000) " cx="14" cy="14.5" rx="9" ry="10.5"></ellipse>
                            <polyline id="Path-64" stroke="#FFFFFF" points="15.5895627 7.91748357 14.6740872 14.5 16.9557714 17.120625"></polyline>
                        </g>
                    </g>
                </g>
                <g id="Group-23">
                    <g id="Group-19" transform="translate(35.743332, 0.000000)">
                        <g id="Group-24" transform="translate(0.000000, 15.118744)">
                            <mask id="mask-8" fill="white">
                                <use xlink:href="#path-7"></use>
                            </mask>
                            <use id="Path-45" fill="#FF987F" xlink:href="#path-7"></use>
                            <path d="M16.0685481,58.0285122 C17.2941271,53.905834 17.9069166,50.7145047 17.9069166,48.4545242 C17.9069166,46.1945437 28.6136396,29.7097023 50.0270854,-1 C56.2913228,0.226295377 59.4234415,0.839443065 59.4234415,0.839443065 C59.4234415,0.839443065 65.8812248,15.481047 66.4645845,18.7788894 C67.0479443,22.0767318 62.3220953,65.2870866 60.3606275,66.0537102 C58.3991597,66.8203338 47.8457781,70.9537507 44.5685481,70.9537507 C42.3837282,70.9537507 38.0647369,70.1777522 31.6115742,68.6257552 L16.0685481,58.0285122 Z" id="Path-46" fill="#000000" opacity="0.103608631" mask="url(#mask-8)"></path>
                            <path d="M42.8140191,28.5839601 C41.807865,35.6601834 40.8153369,40.5082084 39.8364348,43.128035 C38.3680816,47.0577749 35.0665584,54.3062654 36.71732,56.8227207 C37.8178277,58.5003576 39.2339763,60.4659766 40.9657657,62.7195779 C52.1241228,54.8526438 57.7033014,50.6616433 57.7033014,50.1465764 C57.7033014,49.6315096 55.3221723,47.5776274 50.5599142,43.9849297 C47.0059873,45.1298753 45.5216398,44.1560969 46.1068716,41.0635947 C46.6921035,37.9710925 46.9847195,34.1977015 46.9847195,29.7434217 L42.8140191,28.5839601 Z" id="Path-47" fill="#000000" opacity="0.103608631" mask="url(#mask-8)"></path>
                        </g>
                        <path d="M1.12173392,61.1196606 C14.1513067,64.85552 22.5387324,64.3252185 26.284011,59.5287561 C31.9019289,52.3340624 37.9616579,38.7145252 43.953024,45.2100735 C46.5987039,47.7511534 47.4272352,43.0673113 47.4272352,40.3632816 C47.4272352,37.659252 47.8725149,34.7392353 49.2162146,32.8867774 C50.5599142,31.0343194 51.0051939,23.4302894 49.2162146,21.2872139 C47.4272352,19.1441384 49.2032633,16.9405903 50.5599142,15.685475 C51.9165651,14.4303597 61.6296986,3.74645277 49.2162146,1.40283036 C36.8027305,-0.940792054 12.4297979,-2.78767512 1.92422351,17.1281789 C-0.0306463715,21.3094283 -0.298142901,27.9945321 1.12173392,37.1834901 C1.65672698,43.2159421 1.92422351,47.6399048 1.92422351,50.4553781 C1.92422351,53.2708515 1.65672698,56.8256123 1.12173392,61.1196606 Z" id="Path-44" fill="#000547"></path>
                    </g>
                    <g id="Path-42" transform="translate(23.311880, 65.265320)">
                        <mask id="mask-10" fill="white">
                            <use xlink:href="#path-9"></use>
                        </mask>
                        <use id="Path-41" fill="#EDF1FF" xlink:href="#path-9"></use>
                        <path d="M25.094686,16.1829445 C25.1604354,9.18056314 26.2955401,6.04646633 28.5,6.7806541 C30.7044599,7.51484187 41.0097818,11.8019608 59.4159655,19.6420108 C61.7995659,30.8567089 62.9913661,36.464058 62.9913661,36.464058 C62.9913661,36.464058 61.20256,39.5068706 59.4159655,39.5068706 C58.2249026,39.5068706 52.197782,38.1975566 41.3346037,35.5789284 L25.094686,16.1829445 Z" id="Path-43" fill="#BED4FF" mask="url(#mask-10)"></path>
                    </g>
                    <g id="Group-16" transform="translate(122.117901, 92.522560)">
                        <mask id="mask-12" fill="white">
                            <use xlink:href="#path-11"></use>
                        </mask>
                        <use id="Path-34" fill="#FF987F" xlink:href="#path-11"></use>
                        <path d="M49.1443949,2.12383551 L23.5752716,16.174165 C21.2506449,17.6169428 21.2506449,18.3383317 23.5752716,18.3383317 C25.8998984,18.3383317 35.2140699,14.4663149 51.5177862,6.72228118 L49.1443949,2.12383551 Z" id="Path-35" fill="#000000" opacity="0.1" mask="url(#mask-12)"></path>
                    </g>
                    <g id="Group-17" transform="translate(148.114569, 115.022560)">
                        <mask id="mask-14" fill="white">
                            <use xlink:href="#path-13"></use>
                        </mask>
                        <use id="Path-36" fill="#FF987F" xlink:href="#path-13"></use>
                        <path d="M24.0033321,0.93618256 C17.7251838,5.50467115 14.5861097,9.52276074 14.5861097,12.9904513 C14.5861097,18.1919872 18.1452729,17.2696709 19.2947209,16.3888395 C20.4441688,15.5080082 27.8881618,13.9947727 25.9457469,21.9396207 C24.0033321,29.8844687 23.1493727,28.8343209 18.2565619,29.8844687 C14.9946881,30.5845672 11.5136516,33.8073681 7.81345238,39.5528712 L13.9623885,44.4418229 L43.9844592,26.9255314 L43.9844592,2.33895232 L28.1034461,-6 L24.0033321,0.93618256 Z" id="Path-37" fill="#000000" opacity="0.1" mask="url(#mask-14)"></path>
                    </g>
                    <g id="Group-18" transform="translate(0.000000, 75.729378)">
                        <path d="M84.2261238,29.9933035 C71.6978655,16.4664392 61.8424224,8.80155928 54.6597945,6.9986637 C47.4771667,5.19576813 37.3756109,3.12552668 24.3551274,0.78793938 C14.286065,7.30846859 7.48016636,15.7124888 3.93743151,26 C0.394696666,36.2875112 -0.285732339,49.3770047 1.8961445,65.2684804 C6.25732445,88.9606459 9.22965711,103.233248 10.8131425,108.086285 C13.1883705,115.365842 13.5107298,120.569689 14.8648318,144 C15.7675664,159.620207 16.5837595,169.980874 17.3134111,175.082001 L107.988056,175.082001 L106.192881,144 L84.2261238,29.9933035 Z" id="Path-40" fill="#339D89"></path>
                        <mask id="mask-16" fill="white">
                            <use xlink:href="#path-15"></use>
                        </mask>
                        <use id="Path-38" fill="#EDF2FF" xlink:href="#path-15"></use>
                        <path d="M60.3933641,38.457488 C67.5536658,40.7255372 71.1338166,46.7036611 71.1338166,56.3918597 C71.1338166,66.0800582 72.9922435,77.30256 76.7090972,90.059365 C78.2753918,94.8997333 80.2818781,100.550249 82.7285561,107.010913 C86.3985731,116.701908 98.5887179,127.940656 98.5887179,141.867283 C98.5887179,151.151701 114.765112,154.619344 147.117901,152.270213 L175.002327,64.4650642 C148.11288,47.1266801 133.855851,38.457488 132.23124,38.457488 C129.794323,38.457488 114.44888,45.6369463 98.5887179,64.4650642 C98.841981,64.290725 98.1460964,53.9000976 96.501064,33.2931822 L82.7285561,24.4674537 L65.6536147,23 C60.7980304,27.7125926 58.3702383,30.6062711 58.3702383,31.6810355 C58.3702383,32.7558 59.0446136,35.0146175 60.3933641,38.457488 Z" id="Path-39" fill="#BDD5FF" mask="url(#mask-16)"></path>
                    </g>
                    <g id="Group-20" transform="translate(17.313411, 250.503288)">
                        <mask id="mask-18" fill="white">
                            <use xlink:href="#path-17"></use>
                        </mask>
                        <use id="Path-48" fill="#EDF2FF" xlink:href="#path-17"></use>
                        <path d="M31.0557782,-2 C32.3206935,11.9099219 34.3037638,19.7549363 37.0049892,21.5350435 C39.7062146,23.3151506 58.4334145,23.8244326 93.1865889,23.0628895 L93.1865889,-2 L31.0557782,-2 Z" id="Path-49" fill="#BED4FF" mask="url(#mask-18)"></path>
                    </g>
                    <g id="Group-21" transform="translate(18.305097, 272.038331)">
                        <mask id="mask-20" fill="white">
                            <use xlink:href="#path-19"></use>
                        </mask>
                        <use id="Path-50" fill="#CEDEFF" xlink:href="#path-19"></use>
                    </g>
                </g>
            </g>
        </g>
    </g>
</svg>