<svg xmlns="http://www.w3.org/2000/svg" xmlns:xlink="http://www.w3.org/1999/xlink" width="563.919" height="496.402" viewBox="0 0 563.919 496.402"><defs><clipPath id="a"><path d="M-549.61,228.962c-6.528-19.114-11.418-155.787-6.028-175.38,17.31-62.946,105.521-64.045,182.719-36.024,70.779,25.693,168.153,11.523,222.5,0C-22.6-9.543,5.823,271.784-.919,345.918-5.275,393.8-112.164,453.684-197.993,447.464a124.909,124.909,0,0,0-71.471,16.74c-36.522,21.113-94.573,26.061-154.874,9.494-90.706-24.922-152.152-89.084-137.239-143.307a62.263,62.263,0,0,1,5.086-12.762A111.659,111.659,0,0,0-549.61,228.962Z" transform="translate(563.919 0.598)" fill="#bff0ea" opacity="0"/></clipPath><linearGradient id="b" x1="-0.066" y1="1.375" x2="0.83" y2="0.003" gradientUnits="objectBoundingBox"><stop offset="0" stop-color="#bff0ea"/><stop offset="1" stop-color="#40c1a8"/></linearGradient><filter id="c" x="137.46" y="116.577" width="269.288" height="177.948" filterUnits="userSpaceOnUse"><feOffset dx="20" dy="22" input="SourceAlpha"/><feGaussianBlur stdDeviation="10" result="d"/><feFlood flood-color="#416888" flood-opacity="0.102"/><feComposite operator="in" in2="d"/><feComposite in="SourceGraphic"/></filter><linearGradient id="e" x1="1" y1="0.5" x2="0" y2="0.5" gradientUnits="objectBoundingBox"><stop offset="0" stop-color="#eee" stop-opacity="0"/><stop offset="1" stop-color="#4fc6b0"/></linearGradient><clipPath id="g"><path d="M0,51.093,1.832,44.74,48.027,0,50.56.918s3.68,7.671,3.68,14.822.069,6.975-.488,8.681-1.913,1.706-1.913,7.39.984,6.32-2.469,15.085A58.767,58.767,0,0,1,42.4,60.215s-1.456,1.9-9.772.95c-3.39.61-3.607,6.211-3.607,6.211Z" transform="translate(0 0.234)" fill="#ff987f"/></clipPath><clipPath id="h"><path d="M0,11.409,56.384,34.926s-4.114-14.15-11.3-18.833S14.875,0,13.677,0,11.819,2.449,7.049,6.428C5.224,7.95,0,11.409,0,11.409Z" transform="translate(0)" fill="#edf1ff"/></clipPath><clipPath id="i"><path d="M0,23.013,15.955,10.9a36.628,36.628,0,0,1,10.9-4.246C33.767,5.031,44.784.992,44.784.992s8.8-3.083,2.322,3.413c-6.429,4.159-15.836,8.854-15.836,8.854s-.371,1.752,3.787,0,6.954,3.076,1.583,5.5-6.957,1.174-9.789,5.711-2.6,5.8-7.423,7.349S0,23.013,0,23.013Z" transform="translate(0 0)" fill="#ff987f"/></clipPath><clipPath id="j"><path d="M0,35s13.317,4.1,14.261,8.288c.171.216,7.85-11.216,11.313-13.515s3.582-4.26,4.449-6.911a41.846,41.846,0,0,0,1.721-10.246c0-2.7.834-4.264.834-5.292S32.819,1.2,30.023,1.2s-2.053,5.71-4.852,7.9-7.71,4.971-5.254,0S22.895,4.717,24,3.02s.111-5.381-5.9-.827S6.462,16.513,3.654,26.283C2.054,30.36,0,35,0,35Z" transform="translate(0 0.586)" fill="#ff987f"/></clipPath><clipPath id="k"><path d="M3.519,10.165c-2.506,6.016-6.474,22.262,0,36.338S15.4,69.337,18.991,87.251,38.347,116.566,42.672,117.2s8.557,1.605,15.781-5.078,16.97-11.191,19.881-15.993,26.193-37.337,26.193-39.4S96.015,43.666,90.868,47.9,57.36,82.248,52.4,78.682s-1.926-3.566-9.732-21.95c4.793-2.3,28.7-24.04,28.7-24.04s12.579-14.531-3.656-20.531C64.261,11.082,40.5,32.692,40.5,32.692S37.224,3.172,16.393,0C8.5,0,6.025,4.149,3.519,10.165Z" transform="translate(57.718 26.561)" fill="#edf2ff"/></clipPath><clipPath id="l"><path d="M0,0,1.4,21.227H92.809L90.675,0Z" transform="translate(0 0.308)" fill="#edf2ff"/></clipPath><clipPath id="m"><path d="M1.914,9.668.4,24.573S-1.872,34.02,8.75,34.02H37.07s-.138-9.413-.138-16.317c0-2.295-2.117-1.409-3.384-3.76S29.284,3.559,29.284,3.559L6.545,0Z" transform="translate(0 0)" fill="#cedeff"/></clipPath><clipPath id="n"><path d="M3.606,9.009S-.741,32.034.152,33.187s70.808.174,70.808.174,9.122-1.505,7.033-10.791c-1.01-3.629-6.418-5.729-12.919-5.729S46.677,12.8,40.9.879c-1.521-1.895-4.707-.5-5.1,2.02-.232,1.481,2.054,4.116,2.054,4.654C37.854,9.009,6.219,2.9,6.219,2.9Z" fill="#cedeff"/></clipPath><clipPath id="o"><path d="M3.646,0S7.409,55.449,7.409,71.526s-3.763,44.287-3.763,44.287S-1.823,137.688.911,160.02s6.5,51.1,6.5,59.533v15.779s7.809-12.408,15.808-4.464,12.721,3.468,11.264-2.311a121.969,121.969,0,0,0-3.9-12.1s-4.4-13.282-3.413-37.237,3.413-49.21,3.413-50.9,2.126-13.15,5.688-19.491,8.862-33.138,8.862-39.166,2.836-36.8,2.836-36.8a124.164,124.164,0,0,1,3.678,22.864C52.5,68.6,54.531,92.448,54.531,92.448s2.284,23.335-2.892,37.532-3.678,32.838-3.678,32.838v33.176c0,4.643-2.063,37.734-2.836,39.338s2.658-5.015,8.289-.912,12.558,5.188,17.166,5.188,8.894-1.363,8.894-4.276-1.444-7.012,1.771-7.715c.386-.621-6.12-9.8-6.964-17.579s.03-18.247.922-23.833,6.042-36.023,6.042-36.023,3.266-16.189,5.928-24.811,4.877-23.742,4.877-31.022,3.472-46.455,3.472-46.455V0Z" transform="translate(0.761 0)" fill="#cedeff"/></clipPath></defs><g transform="translate(0 -0.598)"><path d="M-489.681,238.918A111.77,111.77,0,0,0-482.8,150.19c-6.53-19.127-7.554-48.673-2.162-68.28,17.316-62.99,97.407-100.52,174.633-72.48,70.8,25.711,88.139,131.781,142.506,120.25C-39.95,102.561,6.106,193.692-.639,267.879-5,315.8-45.191,375.068-131.051,368.843a124.921,124.921,0,0,0-71.5,16.752c-36.535,21.127-94.607,26.079-154.931,9.5-90.74-24.939-152.208-89.146-137.289-143.407a62.315,62.315,0,0,1,5.088-12.771" transform="translate(497 79)" fill="#bff0ea"/><path d="M397,197.5C397,306.575,308.13,395,198.5,395S0,306.575,0,197.5,88.872,0,198.5,0,397,88.424,397,197.5" transform="translate(51 102)" fill="#bff0ea" opacity="0.22"/><path d="M-549.61,228.962c-6.528-19.114-11.418-155.787-6.028-175.38,17.31-62.946,105.521-64.045,182.719-36.024,70.779,25.693,168.153,11.523,222.5,0C-22.6-9.543,5.823,271.784-.919,345.918-5.275,393.8-112.164,453.684-197.993,447.464a124.909,124.909,0,0,0-71.471,16.74c-36.522,21.113-94.573,26.061-154.874,9.494-90.706-24.922-152.152-89.084-137.239-143.307a62.263,62.263,0,0,1,5.086-12.762A111.659,111.659,0,0,0-549.61,228.962Z" transform="translate(563.919 0.598)" fill="#bff0ea" opacity="0"/><g clip-path="url(#a)"><g transform="translate(61 51)"><g transform="translate(72.239 8.118)"><path d="M86.937,18.176A23,23,0,0,1,109.425,0H301.044a23,23,0,0,1,22.537,27.59l-82.04,402.866A23,23,0,0,1,219,448.866H23A23,23,0,0,1,.512,421.042Z" fill="#e4edff"/><path d="M84.339,18.176A23,23,0,0,1,106.827,0H285.9a23,23,0,0,1,22.477,27.876L223.636,418.511a23,23,0,0,1-22.462,18.124l-178.159.118a23,23,0,0,1-22.5-27.824Z" transform="translate(2.598)" fill="url(#b)"/><g transform="translate(29.761 13.882)"><path d="M35.428,3.2A4,4,0,0,1,39.347,0H90.576a4,4,0,0,1,3.91,4.846l-37.242,172.2a4,4,0,0,1-3.91,3.154H4a4,4,0,0,1-3.918-4.8Z" transform="translate(58.706 231)" fill="#339d89" opacity="0.394"/><path d="M8.356,3.108A4,4,0,0,1,12.255,0H63.49a4,4,0,0,1,3.9,4.9L59.076,41a4,4,0,0,1-3.9,3.1H4A4,4,0,0,1,.1,39.21Z" transform="translate(140.018 280)" fill="#339d89" opacity="0.394"/><path d="M8.356,3.108A4,4,0,0,1,12.255,0H63.49a4,4,0,0,1,3.9,4.9L59.076,41a4,4,0,0,1-3.9,3.1H4A4,4,0,0,1,.1,39.21Z" transform="translate(0 329)" fill="#339d89" opacity="0.394"/><path d="M8.356,3.108A4,4,0,0,1,12.255,0H63.49a4,4,0,0,1,3.9,4.9L59.076,41a4,4,0,0,1-3.9,3.1H4A4,4,0,0,1,.1,39.21Z" transform="translate(120 367)" fill="#339d89" opacity="0.394"/><path d="M8.356,3.108A4,4,0,0,1,12.255,0H63.49a4,4,0,0,1,3.9,4.9L59.076,41a4,4,0,0,1-3.9,3.1H4A4,4,0,0,1,.1,39.21Z" transform="translate(150 231)" fill="#339d89" opacity="0.394"/><path d="M8.356,3.108A4,4,0,0,1,12.255,0H63.49a4,4,0,0,1,3.9,4.9L59.076,41a4,4,0,0,1-3.9,3.1H4A4,4,0,0,1,.1,39.21Z" transform="translate(9.982 280)" fill="#339d89" opacity="0.394"/><path d="M8.356,3.108A4,4,0,0,1,12.255,0H63.49a4,4,0,0,1,3.9,4.9L59.076,41a4,4,0,0,1-3.9,3.1H4A4,4,0,0,1,.1,39.21Z" transform="translate(161 182)" fill="#339d89" opacity="0.394"/><path d="M8.356,3.108A4,4,0,0,1,12.255,0H63.49a4,4,0,0,1,3.9,4.9L59.076,41a4,4,0,0,1-3.9,3.1H4A4,4,0,0,1,.1,39.21Z" transform="translate(184 71)" fill="#339d89" opacity="0.394"/><path d="M8.356,3.108A4,4,0,0,1,12.255,0H63.49a4,4,0,0,1,3.9,4.9L59.076,41a4,4,0,0,1-3.9,3.1H4A4,4,0,0,1,.1,39.21Z" transform="translate(97 182)" fill="#339d89" opacity="0.394"/></g><g transform="matrix(1, 0, 0, 1, -133.24, -58.52)" filter="url(#c)"><path d="M22.075,10.342A14,14,0,0,1,35.589,0H192.515a14,14,0,0,1,13.7,16.874l-18.865,89.948a14,14,0,0,1-13.7,11.126H11.24A14,14,0,0,1-2.274,100.29Z" transform="translate(150.23 124.58)" fill="#fff"/></g><g transform="translate(50.761 77.882)"><rect width="111" height="13" rx="6.5" transform="translate(5 36)" fill="url(#e)"/><rect width="111" height="13" rx="6.5" transform="translate(0 65)" fill="url(#e)"/><path d="M43.09,16.7a5.832,5.832,0,0,1-2.268-.384,3.392,3.392,0,0,1-1.512-1.332,5.167,5.167,0,0,1-.7-2.543,27.642,27.642,0,0,1,.157-4.02c.382-3.136,1.084-5.348,2.088-6.576A5.424,5.424,0,0,1,45.3,0c1.91,0,3.218.606,3.888,1.8s.815,3.389.432,6.528c-.383,3.091-1.105,5.283-2.148,6.516A5.444,5.444,0,0,1,43.09,16.7ZM45.034,1.728a3.072,3.072,0,0,0-2.76,1.416,13.528,13.528,0,0,0-1.368,5.208c-.319,2.564-.31,4.325.024,5.232a2.3,2.3,0,0,0,2.448,1.368,3,3,0,0,0,2.759-1.368,14.664,14.664,0,0,0,1.32-5.232c.3-2.5.266-4.249-.108-5.2A2.247,2.247,0,0,0,45.034,1.728ZM4.5,16.7A5.863,5.863,0,0,1,2.23,16.32,3.392,3.392,0,0,1,.718,14.988a5.139,5.139,0,0,1-.7-2.543,27.762,27.762,0,0,1,.157-4.02C.56,5.289,1.262,3.076,2.266,1.848A5.424,5.424,0,0,1,6.706,0c1.91,0,3.218.606,3.888,1.8s.815,3.385.432,6.528c-.383,3.091-1.105,5.283-2.148,6.516A5.444,5.444,0,0,1,4.5,16.7ZM6.442,1.728a3.072,3.072,0,0,0-2.76,1.416A13.468,13.468,0,0,0,2.314,8.352C2,10.916,2,12.677,2.338,13.584a2.3,2.3,0,0,0,2.448,1.368,3,3,0,0,0,2.759-1.368,14.664,14.664,0,0,0,1.32-5.232c.3-2.507.266-4.255-.108-5.2A2.247,2.247,0,0,0,6.442,1.728ZM29.866,16.68a10.137,10.137,0,0,1-3.983-.815l.743-1.8a7.721,7.721,0,0,0,3.312.84,4.472,4.472,0,0,0,2.677-.8,3.4,3.4,0,0,0,1.308-2.508,2.424,2.424,0,0,0-.756-2.232,4.146,4.146,0,0,0-2.8-.816H28.954l.192-1.584A7.338,7.338,0,0,0,32.866,6.2a2.919,2.919,0,0,0,1.344-2.2,1.839,1.839,0,0,0-.528-1.764A2.929,2.929,0,0,0,31.81,1.7a9.081,9.081,0,0,0-3.407.744L28.066.84A10.71,10.71,0,0,1,32.146.024a5.1,5.1,0,0,1,3.191.912,3.034,3.034,0,0,1,.936,2.952A4.252,4.252,0,0,1,33.73,7.536a3.375,3.375,0,0,1,2.327,4.009,5.853,5.853,0,0,1-1.164,2.975,5.17,5.17,0,0,1-2.208,1.68A7.885,7.885,0,0,1,29.866,16.68Zm23.76-.311H51.586L53.554.336h2.04L54.73,7.224H62.1L62.962.336H65L63.034,16.367h-2.04L61.882,9H54.514l-.888,7.368Zm-30.072,0H20.986l.311-2.641h2.569l-.312,2.64Zm-5.9,0H15.634L17.338,2.4,13.5,3.576,13.234,2.04,18.106.216h1.512L17.65,16.367Zm6.768-7.2H21.85l.336-2.641h2.568l-.336,2.64Z" transform="translate(80.302 0.632)" fill="#449284"/><path d="M4.285,21.92h0C4.24,21.808-.194,10.793.009,6.91A7.233,7.233,0,0,1,2.279,2.1,7.8,7.8,0,0,1,7.674,0,9.016,9.016,0,0,1,8.93.089a6.277,6.277,0,0,1,4.749,3.2,7.794,7.794,0,0,1,.188,6.829c-1.786,3.984-9.5,11.723-9.58,11.8ZM7.538,4.245a3.956,3.956,0,0,0-3.61,2.938,4.277,4.277,0,0,0,.153,3,3.274,3.274,0,0,0,2.025,1.844,3.1,3.1,0,0,0,.907.136A3.956,3.956,0,0,0,10.623,9.23a4.279,4.279,0,0,0-.153-3.005A3.274,3.274,0,0,0,8.445,4.38,3.1,3.1,0,0,0,7.538,4.245Z" transform="translate(125.241 31.643)" fill="#4cc5ae"/><g transform="translate(111.044 58.093)"><ellipse cx="9" cy="10.5" rx="9" ry="10.5" transform="translate(11.456 0.907) rotate(30)" fill="#4cc5ae"/><path d="M.915,0,0,6.583,2.282,9.2" transform="translate(14.674 7.917)" fill="none" stroke="#fff" stroke-miterlimit="10" stroke-width="1"/></g></g></g><g transform="translate(35.743)"><g transform="translate(0 15.119)"><path d="M0,51.093,1.832,44.74,48.027,0,50.56.918s3.68,7.671,3.68,14.822.069,6.975-.488,8.681-1.913,1.706-1.913,7.39.984,6.32-2.469,15.085A58.767,58.767,0,0,1,42.4,60.215s-1.456,1.9-9.772.95c-3.39.61-3.607,6.211-3.607,6.211Z" transform="translate(0 0.234)" fill="#ff987f"/><g clip-path="url(#g)"><path d="M0,59.029s1.838-6.184,1.838-9.574S33.959,0,33.959,0l9.4,1.839S49.813,16.481,50.4,19.779s-4.142,46.508-6.1,47.275-12.515,4.9-15.792,4.9-12.957-2.328-12.957-2.328Z" transform="translate(16.069 -1)" opacity="0.104"/><path d="M6.548,0S5.039,10.614,3.57,14.544-1.2,25.722.451,28.239s4.248,5.9,4.248,5.9,16.738-11.8,16.738-12.573S14.294,15.4,14.294,15.4,8.963,17.118,9.841,12.48a75.311,75.311,0,0,0,.878-11.32Z" transform="translate(36.266 28.584)" opacity="0.104"/></g></g><path d="M.9,61.12s19.544,5.6,25.162-1.591S37.736,38.715,43.727,45.21c2.646,2.541,3.474-2.143,3.474-4.847s.445-5.624,1.789-7.477,1.789-9.456,0-11.6-.013-4.347,1.344-5.6S61.4,3.746,48.991,1.4,12.2-2.788,1.7,17.128C-1.234,23.4.9,37.183.9,37.183s.8,9.049.8,13.272S.9,61.12.9,61.12Z" transform="translate(0.226)" fill="#000547"/></g><g transform="translate(23.312 65.265)"><path d="M0,11.409,56.384,34.926s-4.114-14.15-11.3-18.833S14.875,0,13.677,0,11.819,2.449,7.049,6.428C5.224,7.95,0,11.409,0,11.409Z" transform="translate(0)" fill="#edf1ff"/><g clip-path="url(#h)"><path d="M0,9.507S.1-1,3.405.1,34.321,12.966,34.321,12.966L37.9,29.788s-1.789,3.043-3.575,3.043S16.24,28.9,16.24,28.9Z" transform="translate(25.095 6.676)" fill="#bed4ff"/></g></g><g transform="translate(122.118 92.523)"><path d="M0,23.013,15.955,10.9a36.628,36.628,0,0,1,10.9-4.246C33.767,5.031,44.784.992,44.784.992s8.8-3.083,2.322,3.413c-6.429,4.159-15.836,8.854-15.836,8.854s-.371,1.752,3.787,0,6.954,3.076,1.583,5.5-6.957,1.174-9.789,5.711-2.6,5.8-7.423,7.349S0,23.013,0,23.013Z" transform="translate(0 0)" fill="#ff987f"/><g clip-path="url(#i)"><path d="M27.313,0,1.743,14.05s-3.487,2.164,0,2.164S29.686,4.6,29.686,4.6Z" transform="translate(21.832 2.124)" opacity="0.1"/></g></g><g transform="translate(148.115 115.023)"><path d="M0,35s13.317,4.1,14.261,8.288c.171.216,7.85-11.216,11.313-13.515s3.582-4.26,4.449-6.911a41.846,41.846,0,0,0,1.721-10.246c0-2.7.834-4.264.834-5.292S32.819,1.2,30.023,1.2s-2.053,5.71-4.852,7.9-7.71,4.971-5.254,0S22.895,4.717,24,3.02s.111-5.381-5.9-.827S6.462,16.513,3.654,26.283C2.054,30.36,0,35,0,35Z" transform="translate(0 0.586)" fill="#ff987f"/><g clip-path="url(#j)"><path d="M16.19,6.936S6.773,13.789,6.773,18.99s3.559,4.279,4.709,3.4,8.593-2.394,6.651,5.551-2.8,6.895-7.689,7.945S0,45.553,0,45.553l6.149,4.889L36.171,32.926V8.339L20.29,0Z" transform="translate(7.813 -6)" opacity="0.1"/></g></g><g transform="translate(0 75.729)"><path d="M83.577,29.205S64.785,8.915,54.011,6.211,23.706,0,23.706,0,8.6,9.781,3.289,25.212,1.247,64.481,1.247,64.481s6.542,35.538,8.917,42.818,2.7,12.483,4.052,35.914,2.449,31.082,2.449,31.082h90.675l-1.8-31.082Z" transform="translate(0.649 0.788)" fill="#339d89"/><path d="M3.519,10.165c-2.506,6.016-6.474,22.262,0,36.338S15.4,69.337,18.991,87.251,38.347,116.566,42.672,117.2s8.557,1.605,15.781-5.078,16.97-11.191,19.881-15.993,26.193-37.337,26.193-39.4S96.015,43.666,90.868,47.9,57.36,82.248,52.4,78.682s-1.926-3.566-9.732-21.95c4.793-2.3,28.7-24.04,28.7-24.04s12.579-14.531-3.656-20.531C64.261,11.082,40.5,32.692,40.5,32.692S37.224,3.172,16.393,0C8.5,0,6.025,4.149,3.519,10.165Z" transform="translate(57.718 26.561)" fill="#edf2ff"/><g clip-path="url(#k)"><path d="M2.023,15.457s10.74,3.4,10.74,17.934,5.575,33.668,5.575,33.668,2.349,7.261,6.019,16.952,15.86,20.93,15.86,34.856,48.529,10.4,48.529,10.4l27.884-87.805S76.3,15.457,73.861,15.457,56.079,22.637,40.218,41.465c.38-.262-2.088-31.172-2.088-31.172L24.358,1.467,7.283,0S0,7.069,0,8.681,2.023,15.457,2.023,15.457Z" transform="translate(58.37 23)" fill="#bdd5ff"/></g></g><g transform="translate(17.313 250.503)"><path d="M0,0,1.4,21.227H92.809L90.675,0Z" transform="translate(0 0.308)" fill="#edf2ff"/><g clip-path="url(#l)"><path d="M0,0S1.9,20.865,5.949,23.535s56.182,1.528,56.182,1.528V0Z" transform="translate(31.056 -2)" fill="#bed4ff"/></g></g><g transform="translate(20.561 497.703)"><path d="M1.914,9.668.4,24.573S-1.872,34.02,8.75,34.02H37.07s-.138-9.413-.138-16.317c0-2.295-2.117-1.409-3.384-3.76S29.284,3.559,29.284,3.559L6.545,0Z" transform="translate(0 0)" fill="#cedeff"/><g clip-path="url(#m)"><path d="M0,8.252S0,29.267,19.855,29.267s4.782-19.048,4.782-19.048L13.019,0Z" transform="translate(16.323 -4.694)" fill="#a6c1ff"/><path d="M1.849,0S14.794,5.667,38.92,4.673s-7.158,16.561-7.158,16.561L0,17.844Z" transform="translate(-1.849 23.229)" fill="#edf1ff"/></g></g><g transform="translate(56.586 498.362)"><path d="M3.606,9.009S-.741,32.034.152,33.187s70.808.174,70.808.174,9.122-1.505,7.033-10.791c-1.01-3.629-6.418-5.729-12.919-5.729S46.677,12.8,40.9.879c-1.521-1.895-4.707-.5-5.1,2.02-.232,1.481,2.054,4.116,2.054,4.654C37.854,9.009,6.219,2.9,6.219,2.9Z" fill="#cedeff"/><g clip-path="url(#n)"><path d="M0,19.017s7.737,15.534,45.359,8.855S61.473,16.8,61.473,16.8,29.516,0,28.3,0,11.3,2.3,9.691,4.123,0,19.017,0,19.017Z" transform="translate(29.5 -7.517)" fill="#a6c1ff"/><path d="M34.044.326a248.679,248.679,0,0,0,43.548,3.8c24.4,0,28.965-1.038,33.79-3.8S120.12,13.2,118.163,14.39s18.187,6.592-28.742,3.3S0,18.026,0,14.39,34.044.326,34.044.326Z" transform="translate(-32.999 23.588)" fill="#edf1ff"/></g></g><g transform="translate(14.305 272.038)"><path d="M3.646,0S7.409,55.449,7.409,71.526s-3.763,44.287-3.763,44.287S-1.823,137.688.911,160.02s6.5,51.1,6.5,59.533v15.779s7.809-12.408,15.808-4.464,12.721,3.468,11.264-2.311a121.969,121.969,0,0,0-3.9-12.1s-4.4-13.282-3.413-37.237,3.413-49.21,3.413-50.9,2.126-13.15,5.688-19.491,8.862-33.138,8.862-39.166,2.836-36.8,2.836-36.8a124.164,124.164,0,0,1,3.678,22.864C52.5,68.6,54.531,92.448,54.531,92.448s2.284,23.335-2.892,37.532-3.678,32.838-3.678,32.838v33.176c0,4.643-2.063,37.734-2.836,39.338s2.658-5.015,8.289-.912,12.558,5.188,17.166,5.188,8.894-1.363,8.894-4.276-1.444-7.012,1.771-7.715c.386-.621-6.12-9.8-6.964-17.579s.03-18.247.922-23.833,6.042-36.023,6.042-36.023,3.266-16.189,5.928-24.811,4.877-23.742,4.877-31.022,3.472-46.455,3.472-46.455V0Z" transform="translate(0.761 0)" fill="#cedeff"/><g clip-path="url(#o)"><path d="M0,0H91.411l15.46,97.8L71.735,216.7h-7.25s3.246-74.2,3.246-78.2,8.582-57.052,8.582-67.085,3.139-48.791-9.87-50.736-32.6-5.565-32.6-5.565S44.115,28.862,44.115,31.2s.986,60.091.986,60.091l-6.32,152.081v6.87S18.3,247.343,18.3,232.022s1.413-38.362,1.413-50.135S18.3,131.914,18.3,126.6s-.89-19.61,1.413-24.2,5.9-23.13,5.9-35.989S26.825,24.8,26.825,24.8s-.133-11.442-11.1-14.142S0,7.922,0,7.922Z" transform="translate(4.407)" fill="#a7c2ff"/><path d="M2.312,2.892,17.719,1.446S29.567,0,31.336,0s6.5,13.372,6.5,13.372V25.533L0,21.935Z" transform="translate(0 216.457)" fill="#4c95ff"/><path d="M4.334,0s20.2,2.971,29.431,2.971,18.79,10.644,18.79,10.644-7.2,13.57-8.106,13.57-2.969,10.912-16,7.6S0,23.694,0,22.214,4.334,0,4.334,0Z" transform="translate(42.433 213.486)" fill="#4c95ff"/></g></g></g></g></g></svg>