<svg xmlns="http://www.w3.org/2000/svg" xmlns:xlink="http://www.w3.org/1999/xlink" width="563.919" height="496.402" viewBox="0 0 563.919 496.402"><defs><clipPath id="a"><path d="M-549.61,228.962c-6.528-19.114-11.418-155.787-6.028-175.38,17.31-62.946,105.521-64.045,182.719-36.024,70.779,25.693,168.153,11.523,222.5,0C-22.6-9.543,5.823,271.784-.919,345.918-5.275,393.8-112.164,453.684-197.993,447.464a124.909,124.909,0,0,0-71.471,16.74c-36.522,21.113-94.573,26.061-154.874,9.494-90.706-24.922-152.152-89.084-137.239-143.307a62.263,62.263,0,0,1,5.086-12.762A111.659,111.659,0,0,0-549.61,228.962Z" transform="translate(563.919 0.598)" fill="#bff0ea" opacity="0"/></clipPath></defs><g transform="translate(0 -0.598)"><path d="M-489.681,238.918A111.77,111.77,0,0,0-482.8,150.19c-6.53-19.127-7.554-48.673-2.162-68.28,17.316-62.99,97.407-100.52,174.633-72.48,70.8,25.711,88.139,131.781,142.506,120.25C-39.95,102.561,6.106,193.692-.639,267.879-5,315.8-45.191,375.068-131.051,368.843a124.921,124.921,0,0,0-71.5,16.752c-36.535,21.127-94.607,26.079-154.931,9.5-90.74-24.939-152.208-89.146-137.289-143.407a62.315,62.315,0,0,1,5.088-12.771" transform="translate(497 79)" fill="#bff0ea"/><path d="M397,197.5C397,306.575,308.13,395,198.5,395S0,306.575,0,197.5,88.872,0,198.5,0,397,88.424,397,197.5" transform="translate(51 102)" fill="#bff0ea" opacity="0.22"/><path d="M-549.61,228.962c-6.528-19.114-11.418-155.787-6.028-175.38,17.31-62.946,105.521-64.045,182.719-36.024,70.779,25.693,168.153,11.523,222.5,0C-22.6-9.543,5.823,271.784-.919,345.918-5.275,393.8-112.164,453.684-197.993,447.464a124.909,124.909,0,0,0-71.471,16.74c-36.522,21.113-94.573,26.061-154.874,9.494-90.706-24.922-152.152-89.084-137.239-143.307a62.263,62.263,0,0,1,5.086-12.762A111.659,111.659,0,0,0-549.61,228.962Z" transform="translate(563.919 0.598)" fill="#bff0ea" opacity="0"/><g clip-path="url(#a)"><g transform="translate(476 60) rotate(180)"><path d="M0,261H-221V0H0Z" transform="translate(0 -15) rotate(-180)" fill="#75d4c4"/><path d="M0,17H-221V0H0Z" transform="rotate(-180)" fill="#b4ede6"/><path d="M-6,3A3,3,0,0,0-3,6,3,3,0,0,0,0,3,3,3,0,0,0-3,0,3,3,0,0,0-6,3" transform="translate(6 -6) rotate(-180)" fill="#339d89"/><path d="M-6,3A3,3,0,0,0-3,6,3,3,0,0,0,0,3,3,3,0,0,0-3,0,3,3,0,0,0-6,3" transform="translate(17 -6) rotate(-180)" fill="#339d89"/><path d="M-6,3A3,3,0,0,0-3,6,3,3,0,0,0,0,3,3,3,0,0,0-3,0,3,3,0,0,0-6,3" transform="translate(28 -6) rotate(-180)" fill="#339d89"/><path d="M0,226H-205V0H0Z" transform="translate(7 -32) rotate(-180)" fill="#fff"/><path d="M39.794,106H29.564V95.221A43.089,43.089,0,0,1,18.5,92.676,30.783,30.783,0,0,1,9.737,87.56a26.272,26.272,0,0,1-6.245-7.713A34.954,34.954,0,0,1,0,69.5l18.411-1.663a18.28,18.28,0,0,0,4.242,8.177,18.621,18.621,0,0,0,6.911,4.97V56.168A57.426,57.426,0,0,1,17.576,52a29.7,29.7,0,0,1-8.3-5.873,23,23,0,0,1-4.842-7.446A24.019,24.019,0,0,1,2.816,29.8a21.766,21.766,0,0,1,1.826-8.947,22.206,22.206,0,0,1,5.476-7.381,27.67,27.67,0,0,1,8.515-5.206,38.686,38.686,0,0,1,10.93-2.4V0h10.23V5.865A42.223,42.223,0,0,1,49.867,8.027,26.919,26.919,0,0,1,57.64,12.29a22.982,22.982,0,0,1,5.436,6.2,25.773,25.773,0,0,1,3.04,7.986l-17.86,1.957a12.605,12.605,0,0,0-8.463-9.474V42.117a82.514,82.514,0,0,1,14.236,4.422A28.325,28.325,0,0,1,62.86,52.11,20.172,20.172,0,0,1,67.468,59.1,23.966,23.966,0,0,1,69,67.838a25,25,0,0,1-1.933,9.883,24.713,24.713,0,0,1-5.794,8.19,30.148,30.148,0,0,1-9.232,5.929,46.007,46.007,0,0,1-12.246,3.077V106Zm-.221-47V82a15.644,15.644,0,0,0,8.785-4.1,10.329,10.329,0,0,0,3.391-7.713,9.427,9.427,0,0,0-2.84-6.818C47,61.465,43.861,59.994,39.574,59ZM29.42,19h0a13.606,13.606,0,0,0-6.648,3.936,9.065,9.065,0,0,0-2.478,6.13,8.547,8.547,0,0,0,2.265,5.686A15.439,15.439,0,0,0,29.42,39V19l.006,0Z" transform="translate(144 -66) rotate(-180)" fill="#339d89"/><path d="M-.545,22h.09V.029L-.5,0h-.05V22" transform="translate(53 -92) rotate(-180)" fill="#d6edfe"/><path d="M-.47.56V.44L-.53.5l.02.03.04.03" transform="translate(53 -91) rotate(-180)" fill="#d6edfe"/><path d="M0,.54H-46V.46H0Z" transform="translate(148 -136) rotate(-180)" fill="#d6edfe"/><path d="M-.545,22h.09V.039L-.5,0h-.05V22" transform="translate(53 -137) rotate(-180)" fill="#d6edfe"/><path d="M-.47.56V.44L-.53.5l.02.02.04.04" transform="translate(53 -136) rotate(-180)" fill="#d6edfe"/><path d="M-.47.56V.44L-.53.5l.02.02.04.04" transform="translate(53 -183) rotate(-180)" fill="#d6edfe"/><path d="M0,3H-46V0H0Z" transform="translate(53 -206) rotate(-180)" fill="#b4ede6"/><path d="M0,4H-95V0H0Z" transform="translate(53 -215) rotate(-180)" fill="#339d89"/><path d="M0,4H-78V0H0Z" transform="translate(53 -224) rotate(-180)" fill="#75d4c4"/><path d="M-70.586,61.646-3.172,0S1.31,5.422-.381,10.373C-5,23.78-21.551,50.68-32.066,62.047A239.288,239.288,0,0,1-63.733,90.011l-6.853-28.365" transform="translate(145.888 -121.318) rotate(-180)" fill="#ff987f"/><path d="M-18,35.7l8.51-7.235A38.507,38.507,0,0,0-1.787,19.8C1.718,14.4-.27,9.135-4.821,4.812-9.355.488-12.773,0-12.773,0s-7.324,3.26-6.4,9.815c.942,6.538-5.685,21.008-3.174,22.054A11.527,11.527,0,0,1-18,35.7" transform="translate(130.951 -102.245) rotate(-180)" fill="#ff987f"/><path d="M-17.787,17.277l8.475-9.135L-1.046,0,0,2.388l-5.057,6.59-2.7,13.773-3.331-1.831-6.7-3.644" transform="translate(129.094 -86.276) rotate(-180)" fill="#ff987f"/><path d="M-10.777,4.759-1.657,0,0,2-8.143,8.333l-5.894,9.257-5.685-4.271,8.946-8.56" transform="translate(120.462 -93.877) rotate(-180)" fill="#ff987f"/><path d="M0,0-7.5,3.312l-5.284,1.534-3.627,4.864,3.383,4.812L-9.259,9.17-.14,3.1,0,0" transform="translate(118.753 -100.014) rotate(-180)" fill="#ff987f"/><path d="M0,0-14.334,3.679l-2.354,3.609,2.145,3.434,5.807-4.027,7.708-4.341L0,0" transform="translate(117.096 -108.051) rotate(-180)" fill="#ff987f"/><path d="M-15.505,42.993c4.638-4.707,3.61-11.7,3.61-11.7s-2.093-17.5.471-20.4C-8.861,8.021-7.257.542-7.257.542s2.2-2.789,3.139,4.289A29.2,29.2,0,0,1-4.38,13.6S.346,23.136-.02,26.239C-.735,32.62-12.227,43.83-12.227,43.83s-3.871-.227-3.278-.837" transform="translate(142.03 -94.765) rotate(-180)" fill="#ff987f"/><path d="M-91.688,9.783l74.965,13.86,2.877,4.881L-9.5,24.951,0,53.682-21.588,69.913-123.617,49.149s-22.3-10.46-29.871-39.627c-5.493-21.13,55.592-.628,61.8.262" transform="translate(205.454 -155.625) rotate(-180)" fill="#fff"/><path d="M-53.8,5.779s19.182,24.407,25.285,57.532,6.975,121.165,16.566,176.081,23.541,118.55-5.231,110.7-73.239-4.358-70.623-58.4S-74.725,15.368-69.493,6.651s7.847-8.717,15.694-.872" transform="translate(265.419 -162.157) rotate(-180)" fill="#d9e6f9"/><path d="M-.007,82.28C.2,91.816-4.036,100.55-9.319,101.509c-5.074.54-10.149,1.063-15.223,1.6-5.406.157-11.352-7.5-13.131-16.858q-4.342-23.2-8.684-46.391c-1.814-9.275-.139-28.417,7.376-34.833A20.352,20.352,0,0,1-15.667,2.572C-7,7.279-1.35,25.655-1.193,35.1Q-.618,58.666-.007,82.28" transform="translate(333.266 -62.748) rotate(-180)" fill="#e88067"/><path d="M-62.463,7.633C-34.417,5.341-14.577-.326-3.038.015c6.076.179,0,9.243,0,9.243s-62.6,36.067-85.341,17.064c-22.756-19.02.854-21.182.854-21.182S-70.2,8.266-62.463,7.633Z" transform="translate(202.956 -279.341) rotate(-180)" fill="#ff987f"/><path d="M0,15.847l-.174,8.577-47.692-1.011L-48.495.331-19.722,0S-4.5,14.522,0,15.847" transform="translate(329.681 -772.349) rotate(-180)" fill="#161711"/><path d="M-95.891,55.736S-74.2,197.577-49.768,260.147C-28.11,315.587,0,244.666,0,244.666L-36.6,6.677-105.133,0s-4.761,1.656,9.242,55.736" transform="translate(268.98 -327.263) rotate(-180)" fill="#194866"/><path d="M-6.5,9.362l6.5,91.3-12.05,6.747s-9.765,135.2-12.154,142C-37.91,288.3-70.71,264.087-74.983,250.942c-4.255-13.163-9.783-109.972-6.766-180.457l3-70.485L-6.5,9.362" transform="translate(313.429 -330.367) rotate(-180)" fill="#153f59"/><path d="M-3.6,11.1S1.385,35.312-.377,80.9c-1.116,28.87-5.563,105.318-12.084,162.169-.4,3.469-28.79.227-28.79.227S-54.643,58.063-55.41,22.254C-55.637,11.463-25.784-14.88-3.6,11.1" transform="translate(336.14 -532.294) rotate(-180)" fill="#194866"/><path d="M-34.265,9.99-78.889,0l-22.9,25.75s-16.984,22.769-17.351,73.884c-.366,51.255,16.984,146.182,16.984,146.182L0,212.989s-4.761-179.9-34.265-203" transform="translate(296.305 -141.175) rotate(-180)" fill="#75d4c4"/><path d="M0,11.419-7.655,32.985-47.849,11.942-43.647,0,0,11.419" transform="translate(334.913 -138.124) rotate(-180)" fill="#339d89"/><path d="M-8.091,0l-.942,4.812L0,17.939-.244,7.165-8.091,0" transform="translate(324.746 -144.174) rotate(-180)" fill="#339d89"/><path d="M-31,9.937s-8,2.441-33.393,2.789c-25.267.384,28.232,204.812,28.232,204.812L0,205.126-21.5,0-31,9.937" transform="translate(249.397 -558.54) rotate(-180)" fill="#163f59"/><path d="M-62.2,12.169l3.017,17.887,18.17.384s13.619.3,17.037.366c3.4.07,23.838.506,23.838.506L0,24.773S-28.18,14.348-33.62,3.33-62.2,12.169-62.2,12.169" transform="translate(220.52 -761.732) rotate(-180)" fill="#161711"/><path d="M-37.383,10.826-36.354,0l4.482.418,11.805,1.133,7.115.68A14.32,14.32,0,0,1-.066,17.852L-1.094,28.661l-4.482-.436L-17.381,27.11l-7.115-.68a14.3,14.3,0,0,1-12.887-15.6" transform="translate(310.155 -43.842) rotate(-180)" fill="#163f59"/><path d="M-59.628,69.008a12.7,12.7,0,0,0,11.457,13.86l28.738,2.755A12.722,12.722,0,0,0-5.553,74.169L-.06,16.689A12.734,12.734,0,0,0-11.517,2.795L-40.272.058A12.742,12.742,0,0,0-54.153,11.512l-5.475,57.5" transform="translate(316.595 -49.259) rotate(-180)" fill="#ff987f"/><path d="M-25.389.068a14.3,14.3,0,0,0-12.52,5.3l-4.9-.471a11.1,11.1,0,0,0-12.084,9.99L-57.51,42.154l7.777.75L-48.669,31.8a7.8,7.8,0,0,1,8.51-7.008l4.534.436,11.788,1.116,7.115.68A14.307,14.307,0,0,0-1.1,14.137L0,2.492-25.389.068" transform="translate(322.026 -43.686) rotate(-180)" fill="#163f59"/><path d="M-.03,7.474A6.786,6.786,0,0,0-6.151.082L-6.709.03a6.79,6.79,0,0,0-7.411,6.1l-.785,8.211a6.8,6.8,0,0,0,6.121,7.409l.558.052a6.8,6.8,0,0,0,6.574-3.452L-.03,7.474" transform="translate(369.95 -86.42) rotate(-180)" fill="#ff987f"/><path d="M-46.156,33.961s-1.622-14.679,1.133-17.782c2.738-3.086,13.5-13.72,13.5-13.72L-28.561,0s4.272,1.953-3.034,9.013-2.04,5.649-2.04,5.649l8.824-3.766,11.125-3.731,4.761-2.319S-6.311,3.33-5.421,3.522c2.6.558,1.186,2.493,1.186,2.493L-22.057,16.7l18.815-5.143s2.511-.227,3.069,1.029c.506,1.2-.262,1.464-.262,1.464l-20.158,11.14,9.974-1.482s2.459-.157,3.034,1.046c.645,1.325.854,1.656.854,1.656L-44.5,37.8l-1.657-3.835" transform="translate(169.325 -254.163) rotate(-180)" fill="#ff987f"/><path d="M-19.449,3.432-6.022.643S-3.092-.333-1.471.12A1.885,1.885,0,0,1-.041,2.386l-19.9,6.328.488-5.282" transform="translate(169.98 -270.64) rotate(-180)" fill="#ff987f"/><path d="M-46.319,0S-17.233,24.372-7.032,45.5C3.169,66.649,3.431,176.256-14.007,214.61s-33.132,135.984-33.132,156.9-59.289-13.947-59.289-13.947,12.206-95.886,13.95-132.5S-82.014,76.883-80.271,47.246-46.319,0-46.319,0" transform="translate(332.24 -138.124) rotate(-180)" fill="#fff"/><path d="M-49.417,0S-14.96,38.459-8.438,54.045C4.57,85.216,1.152,161.263-9.31,189.157s-12.206,33.124-12.206,33.124l.872-135.112L-25,59.275l7.847-4.358L-25,50.558-55.521,5.23l6.1-5.23" transform="translate(326.474 -135.683) rotate(-180)" fill="#d9e6f9"/><path d="M-104.871,0s-19.722,10.146-10.253,39.435c16.113,49.948,49.785,91.109,56.115,99.338,6.347,8.246,28.476,28.19,43.246,21.583l14.77-6.59L0,120.468l-9.783-.994-5.807-1.1S-36.044,85.931-53.133,54.341C-70.222,22.734-104.871,0-104.871,0" transform="translate(280.698 -163.264) rotate(-180)" fill="#fff"/><path d="M-79.063,16.519c13.95,24.407,41.851,74.094,51.442,76.709C-21.152,95.006-7.917,90.8,0,87.893l-.558,18.445-14.77,6.59c-14.77,6.607-36.9-13.337-43.246-21.583-5.179-6.747-28.7-35.565-45.9-73.222-2.6-23.605,12.5-24.163,25.407-1.6" transform="translate(281.134 -210.692) rotate(-180)" fill="#f0f6ff"/><path d="M0,12.2-30.516,0-32.26,13.075-2.616,26.151,0,12.2" transform="translate(384.61 -415.496) rotate(-180)" fill="#f0f6ff"/></g></g></g></svg>