<svg xmlns="http://www.w3.org/2000/svg" width="28" height="28" viewBox="0 0 28 28"><path d="M28,10.6a3.582,3.582,0,0,0-2.778-3.476V.82A.82.82,0,0,0,24.134.045l-12.5,4.313H5.644a46.915,46.915,0,0,0-4.99.819.82.82,0,0,0-.654.8v9.239a.82.82,0,0,0,.654.8c.327.068,2.729.562,4.169.748v7.376a3.883,3.883,0,0,0,7.766,0V17.173l11.545,3.983a.82.82,0,0,0,1.088-.776v-6.3A3.582,3.582,0,0,0,28,10.6ZM6.555,15.2V6H7.9v9.2ZM9.54,6h1.344v9.2H9.54Zm-7.9.653c1.072-.213,2.411-.461,3.273-.581V15.13c-.863-.119-2.2-.367-3.273-.581ZM8.706,26.359a2.23,2.23,0,0,1-2.242-2.212v-7.3h4.485v7.3A2.23,2.23,0,0,1,8.706,26.359Zm14.875-7.13L12.525,15.415V5.785L23.582,1.971Zm1.641-6.877V8.847a1.919,1.919,0,0,1,0,3.505Zm0,0" transform="translate(0 0)" fill="#01e9b5"/></svg>