<svg xmlns="http://www.w3.org/2000/svg" width="28" height="28" viewBox="0 0 28 28"><circle cx="1.094" cy="1.094" r="1.094" transform="translate(20.016 10.391)" fill="#01e9b5"/><path d="M23.625,2.188H22.2V1.094a1.094,1.094,0,0,0-2.187,0V2.188H15.039V1.094a1.094,1.094,0,0,0-2.187,0V2.188H7.93V1.094a1.094,1.094,0,0,0-2.187,0V2.188H4.375A4.38,4.38,0,0,0,0,6.563V23.625A4.38,4.38,0,0,0,4.375,28h8.367a1.094,1.094,0,0,0,0-2.187H4.375a2.19,2.19,0,0,1-2.187-2.187V6.563A2.19,2.19,0,0,1,4.375,4.375H5.742V5.469a1.094,1.094,0,0,0,2.188,0V4.375h4.922V5.469a1.094,1.094,0,0,0,2.188,0V4.375h4.977V5.469a1.094,1.094,0,0,0,2.188,0V4.375h1.422a2.19,2.19,0,0,1,2.188,2.188V12.8A1.094,1.094,0,0,0,28,12.8V6.563A4.38,4.38,0,0,0,23.625,2.188Z" fill="#01e9b5"/><path d="M6.617,13.234a6.617,6.617,0,1,1,6.618-6.618A6.625,6.625,0,0,1,6.617,13.234Zm0-11.047a4.429,4.429,0,1,0,4.43,4.429A4.434,4.434,0,0,0,6.617,2.188Z" transform="translate(14.766 14.766)" fill="#01e9b5"/><path d="M2.68,2.242H2.188V1.094A1.094,1.094,0,0,0,0,1.094V3.336A1.094,1.094,0,0,0,1.094,4.43H2.68a1.094,1.094,0,0,0,0-2.187Z" transform="translate(20.289 18.047)" fill="#01e9b5"/><circle cx="1.094" cy="1.094" r="1.094" transform="translate(15.258 10.391)" fill="#01e9b5"/><circle cx="1.094" cy="1.094" r="1.094" transform="translate(10.5 15.148)" fill="#01e9b5"/><circle cx="1.094" cy="1.094" r="1.094" transform="translate(5.742 10.391)" fill="#01e9b5"/><circle cx="1.094" cy="1.094" r="1.094" transform="translate(5.742 15.148)" fill="#01e9b5"/><circle cx="1.094" cy="1.094" r="1.094" transform="translate(5.742 19.906)" fill="#01e9b5"/><circle cx="1.094" cy="1.094" r="1.094" transform="translate(10.5 19.906)" fill="#01e9b5"/><circle cx="1.094" cy="1.094" r="1.094" transform="translate(10.5 10.391)" fill="#01e9b5"/></svg>