<svg xmlns="http://www.w3.org/2000/svg" width="30.037" height="28.932" viewBox="0 0 30.037 28.932"><path d="M-21.118,9.366v4.387a1.352,1.352,0,0,0,1.383,1.32h.035l6.351-.152a1.425,1.425,0,0,1,.913.3l6.012,4.723a1.428,1.428,0,0,0,1.946-.18,1.284,1.284,0,0,0,.315-.839v-2.5a1.352,1.352,0,0,1,1.383-1.32h1.4A1.352,1.352,0,0,0,0,13.786V1.32A1.352,1.352,0,0,0-1.383,0H-8.935" transform="translate(29.037 7.559)" fill="none" stroke="#01e9b5" stroke-miterlimit="10" stroke-width="2"/><g transform="translate(0 0)" fill="none" stroke-miterlimit="10"><path d="M0,1A1,1,0,0,1,1,0H20.118a1,1,0,0,1,1,1V14.081a1,1,0,0,1-1.024,1l-6.9-.165a1,1,0,0,0-.642.213L5.78,20.448a1,1,0,0,1-1.618-.786V16.106a1,1,0,0,0-1-1H1a1,1,0,0,1-1-1Z" stroke="none"/><path d="M 2.000001907348633 2.000003814697266 L 2.000001907348633 13.10562324523926 L 3.162652969360352 13.10562324523926 C 4.816862106323242 13.10562324523926 6.162652969360352 14.45141315460205 6.162652969360352 16.10562324523926 L 6.162652969360352 17.60446166992188 L 11.31564235687256 13.5564432144165 C 11.8417329788208 13.14315319061279 12.49990272521973 12.91554355621338 13.16891288757324 12.91554355621338 C 13.19269275665283 12.91554355621338 13.21662330627441 12.91583347320557 13.24074268341064 12.91640377044678 L 19.11784362792969 13.05715751647949 L 19.11784362792969 2.000003814697266 L 2.000001907348633 2.000003814697266 M 1.000001907348633 3.814697265625e-06 L 20.11784362792969 3.814697265625e-06 C 20.67013359069824 3.814697265625e-06 21.11784362792969 0.4477138519287109 21.11784362792969 1.000003814697266 L 21.11784362792969 14.08139324188232 C 21.11784362792969 14.63486003875732 20.66872406005859 15.08139610290527 20.11833953857422 15.08139610290527 C 20.11019134521484 15.08139610290527 20.10209274291992 15.08129978179932 20.09390258789063 15.08110332489014 L 13.19286346435547 14.91583347320557 C 13.18488502502441 14.91564178466797 13.17687225341797 14.91554641723633 13.16890811920166 14.91554641723633 C 12.94510269165039 14.91554641723633 12.72752666473389 14.99063301086426 12.55117321014404 15.12917327880859 L 5.780403137207031 20.44806289672852 C 5.59129810333252 20.59661674499512 5.376740455627441 20.66354751586914 5.167222023010254 20.66354751586914 C 4.649770736694336 20.66354751586914 4.162652969360352 20.2555980682373 4.162652969360352 19.66169357299805 L 4.162652969360352 16.10562324523926 C 4.162652969360352 15.55334281921387 3.714942932128906 15.10562324523926 3.162652969360352 15.10562324523926 L 1.000001907348633 15.10562324523926 C 0.4477119445800781 15.10562324523926 1.9073486328125e-06 14.65791320800781 1.9073486328125e-06 14.10562324523926 L 1.9073486328125e-06 1.000003814697266 C 1.9073486328125e-06 0.4477138519287109 0.4477119445800781 3.814697265625e-06 1.000001907348633 3.814697265625e-06 Z" stroke="none" fill="#01e9b5"/></g></svg>