<svg xmlns="http://www.w3.org/2000/svg" width="23.609" height="28.909" viewBox="0 0 23.609 28.909">
  <g id="financeiro" transform="translate(-5.293)">
    <path id="Fill_1" data-name="Fill 1" d="M3.012,4.351c-1.109-.434-1.429-.7-1.429-1.172,0-.38.294-.823,1.123-.823a3.176,3.176,0,0,1,1.3.285.415.415,0,0,0,.191.047.386.386,0,0,0,.361-.242l.2-.5a.309.309,0,0,0-.172-.4A7.964,7.964,0,0,0,3.246,1.2a.068.068,0,0,1-.064-.069L3.18.4A.41.41,0,0,0,2.761,0H2.4a.409.409,0,0,0-.418.4v.768c0,.059-.065.084-.089.09A2.135,2.135,0,0,0,.083,3.321c0,1.255,1.061,1.822,2.206,2.248.916.351,1.289.708,1.289,1.231,0,.569-.529.966-1.287.966A4.61,4.61,0,0,1,.76,7.361a.418.418,0,0,0-.177-.039.391.391,0,0,0-.37.251l-.192.51A.327.327,0,0,0,.193,8.5a6.928,6.928,0,0,0,1.625.442c.013,0,.076.024.076.08v.765a.41.41,0,0,0,.419.4h.373a.41.41,0,0,0,.419-.4v-.8a.077.077,0,0,1,.069-.085A2.234,2.234,0,0,0,5.091,6.717C5.091,5.621,4.469,4.914,3.012,4.351Z" transform="translate(16.545 3.818)" fill="#01e9b5"/>
    <g id="Group_6" data-name="Group 6">
      <path id="Fill_2" data-name="Fill 2" d="M8.909,17.818a8.909,8.909,0,1,1,8.909-8.909A8.919,8.919,0,0,1,8.909,17.818Zm0-15.909a7,7,0,1,0,7,7A7.009,7.009,0,0,0,8.91,1.909Z" transform="translate(10.182)" fill="#01e9b5"/>
      <path id="Fill_4" data-name="Fill 4" d="M20.079,3.3a21.283,21.283,0,0,1-6.7,2.3c-2.182.345-6.288-.487-6.288-1.469,0-.372,3.6.917,5.779.332,1.67-.449,1.433-2.023.524-2.231S7.2.069,4.94,0A22.617,22.617,0,0,0,1.248.584C.812.655.539.647.512,1.067.385,3.02.136,7.014,0,9.1c0,.044.058.636.543.22a2.511,2.511,0,0,1,1.965-.805c1.081.247,9.162,1.974,10.453,1.672,1.845-.432,7.07-3.553,8.072-4.522C22.586,4.16,21.379,2.572,20.079,3.3Z" transform="translate(6.195 17.779)" fill="none" stroke="#01e9b5" stroke-miterlimit="10" stroke-width="1.8"/>
    </g>
  </g>
</svg>
