<svg xmlns="http://www.w3.org/2000/svg" xmlns:xlink="http://www.w3.org/1999/xlink" width="45.865" height="39.901" viewBox="0 0 45.865 39.901"><defs><clipPath id="a"><rect width="45.865" height="39.902" fill="none"/></clipPath></defs><g transform="translate(0 0)" clip-path="url(#a)"><path d="M45.274,39.9H.58A.546.546,0,0,1,0,39.354V.548A.546.546,0,0,1,.58,0H4.006a.516.516,0,0,1,.365.15.525.525,0,0,1,.155.4V25.311l2.381-6.3a.619.619,0,0,1,.455-.373.549.549,0,0,1,.117-.012.588.588,0,0,1,.427.184l3.944,4.177L14.71,19.3a.588.588,0,0,1,.778-.138l1.144.722L18.795,12.2a.593.593,0,0,1,.422-.415.575.575,0,0,1,.147-.019.593.593,0,0,1,.421.179L24.6,16.907l2.876-4.2a.588.588,0,0,1,.486-.257.582.582,0,0,1,.229.047l1.751.743,4.472-5.309a.585.585,0,0,1,.762-.119l4.571,2.876,5.093-5.251a.592.592,0,0,1,.423-.179.567.567,0,0,1,.222.044.593.593,0,0,1,.367.552v7.879a.586.586,0,0,1,0,.224V35.733a.6.6,0,0,1-.01.067.61.61,0,0,1,.01.131v3.424A.546.546,0,0,1,45.274,39.9ZM1.181,1.193V38.711H44.673V36.527H3.969a.627.627,0,0,1-.624-.6V1.193ZM6.982,30.5h0L4.526,35.11v.226H44.673V15.566L42.682,18.1a.587.587,0,0,1-.463.226.6.6,0,0,1-.271-.067l-2.5-1.306L36.763,23.1a.589.589,0,0,1-.369.329.583.583,0,0,1-.488-.067l-3.292-2.113-3.176,3.927a.586.586,0,0,1-.458.22.58.58,0,0,1-.355-.121L23.535,21.4l-5.072,6.287a.589.589,0,0,1-.811.1l-2.987-2.235-3.288,5.489a.6.6,0,0,1-.51.288.573.573,0,0,1-.124-.014L6.982,30.5Zm.7-10.188h0L4.526,28.679v3.9L6.15,29.543a.615.615,0,0,1,.665-.3l3.775.824,3.4-5.685a.587.587,0,0,1,.391-.276.6.6,0,0,1,.114-.011.589.589,0,0,1,.352.117L17.9,26.5,22.978,20.2a.587.587,0,0,1,.459-.22.58.58,0,0,1,.356.121l5.09,3.877,3.149-3.893a.587.587,0,0,1,.775-.125l3.154,2.024,2.665-6.1a.6.6,0,0,1,.344-.321.58.58,0,0,1,.2-.034.587.587,0,0,1,.273.067l2.623,1.372,2.614-3.32V7.316l-4.414,4.55a.583.583,0,0,1-.422.178.589.589,0,0,1-.312-.09L34.985,9.095l-4.423,5.251a.586.586,0,0,1-.679.163l-1.708-.724-3.009,4.4a.589.589,0,0,1-.436.255l-.049,0a.588.588,0,0,1-.424-.179l-4.606-4.744-2.1,7.459a.589.589,0,0,1-.567.433.584.584,0,0,1-.313-.091l-1.362-.857-2.956,3.8a.6.6,0,0,1-.439.227h-.028a.6.6,0,0,1-.433-.184L7.681,20.314Z" transform="translate(0)" fill="#416888"/></g></svg>