<svg xmlns="http://www.w3.org/2000/svg" xmlns:xlink="http://www.w3.org/1999/xlink" width="34.445" height="39.91" viewBox="0 0 34.445 39.91"><defs><clipPath id="a"><rect width="34.445" height="39.91" fill="none"/></clipPath></defs><g transform="translate(0 0)" clip-path="url(#a)"><path d="M29.116,39.91H.564A.567.567,0,0,1,0,39.37V.539A.567.567,0,0,1,.564,0H22.373a.535.535,0,0,1,.388.165l4.873,5.1,1.2-1.209a3.289,3.289,0,1,1,4.631,4.67L29.627,12.58V39.37a.52.52,0,0,1-.141.379A.512.512,0,0,1,29.116,39.91ZM1.077,1.084V38.826H28.55V13.667l-9.808,9.893a.493.493,0,0,1-.205.134l-5.709,1.813a.547.547,0,0,1-.162.025.534.534,0,0,1-.382-.159.545.545,0,0,1-.132-.547l1.8-5.743a.552.552,0,0,1,.133-.222L24.772,8.126H22.36a.542.542,0,0,1-.543-.53V1.084Zm13.637,19.18-1.223,3.9,3.875-1.231-2.651-2.666ZM27.153,7.277,15.231,19.25l3.143,3.161,11.9-11.992Zm4-3.1a2.186,2.186,0,0,0-1.55.64L27.915,6.511l3.124,3.142L32.72,7.96a2.235,2.235,0,0,0-.01-3.129A2.187,2.187,0,0,0,31.149,4.18Zm-8.255-2.3V7.042h2.956l1.012-1.02Z" transform="translate(0)" fill="#416888"/><path d="M0,.542a.54.54,0,0,0,.539.542h18.6a.542.542,0,0,0,0-1.084H.539A.54.54,0,0,0,0,.542Z" transform="translate(4.742 32.506)" fill="#416888"/><path d="M.539,1.084H11.316a.542.542,0,0,0,0-1.084H.539a.542.542,0,0,0,0,1.084Z" transform="translate(4.742 27.901)" fill="#416888"/></g></svg>