<svg id="financeiro" xmlns="http://www.w3.org/2000/svg" width="28" height="28" viewBox="0 0 28 28">
  <path id="Path" d="M3.665,8.909H.955a.955.955,0,0,0,0,1.909H2.227v.955a.955.955,0,1,0,1.909,0v-1A2.7,2.7,0,0,0,3.665,5.41H2.7a.8.8,0,0,1,0-1.591H5.409a.955.955,0,0,0,0-1.91H4.136V.955a.955.955,0,1,0-1.909,0v1A2.7,2.7,0,0,0,2.7,7.318h.967a.8.8,0,0,1,0,1.591Z" transform="translate(10.818 7.636)" fill="#01e9b5"/>
  <path id="Shape" d="M14,28A14,14,0,1,1,28,14,14.016,14.016,0,0,1,14,28ZM14,1.909A12.091,12.091,0,1,0,26.091,14,12.105,12.105,0,0,0,14,1.909Z" fill="#01e9b5"/>
</svg>
