<svg xmlns="http://www.w3.org/2000/svg" xmlns:xlink="http://www.w3.org/1999/xlink" width="126.818" height="126.818" viewBox="0 0 126.818 126.818"><defs><filter id="a" x="0" y="0" width="126.818" height="126.818" filterUnits="userSpaceOnUse"><feOffset dx="10" dy="10" input="SourceAlpha"/><feGaussianBlur stdDeviation="10" result="b"/><feFlood flood-color="#416888" flood-opacity="0.102"/><feComposite operator="in" in2="b"/><feComposite in="SourceGraphic"/></filter></defs><g transform="translate(20 20)"><g transform="matrix(1, 0, 0, 1, -20, -20)" filter="url(#a)"><circle cx="33.409" cy="33.409" r="33.409" transform="translate(20 20)" fill="#fff"/></g><path d="M12.123,11.6V0h15.8V3.3a22.332,22.332,0,0,1-2.064,9.055c-2.064,4.67-4.836,7.24-7.628,11.579a18.65,18.65,0,0,0-2.847,10.131h9.323v-11.7a11.859,11.859,0,0,1,3.693-8.12q2.785-2.776,8.573-2.776h3.118V26.761H31.2V23.472h5.656V15.1A9.47,9.47,0,0,0,30.6,17.416a8.173,8.173,0,0,0-2.677,6.056v3.771l.009,10.175H12.123V34.065a23.631,23.631,0,0,1,5.039-13.572c2.829-3.781,3.792-4.774,5.805-9.026A16.334,16.334,0,0,0,24.707,3.3H15.384V14.242q-.266,6.71-3.965,9.692a12.245,12.245,0,0,1-8.331,2.827H0V11.6H8.863v3.327H3.233V23.3a9.4,9.4,0,0,0,6.227-2.317,8.452,8.452,0,0,0,2.663-6.056V11.6Z" transform="translate(13.364 14.7)" fill="#01e9b5"/></g></svg>