<svg xmlns="http://www.w3.org/2000/svg" width="29" height="29.232" viewBox="0 0 29 29.232"><g transform="translate(0.5 0.732)"><path d="M23.045,28H4.955A5.078,5.078,0,0,1,0,22.819V11.464A3.527,3.527,0,0,1,1.115,8.873L12.173.388a3,3,0,0,1,3.653,0L26.885,8.873A3.527,3.527,0,0,1,28,11.464V22.819A5.078,5.078,0,0,1,23.045,28ZM14,16.335a4.446,4.446,0,0,1,4.4,4.585v5.353h4.645a3.385,3.385,0,0,0,3.3-3.454V11.464a1.592,1.592,0,0,0-.537-1.3L15.836,2.482a3,3,0,0,0-3.666,0L2.23,10.168a1.783,1.783,0,0,0-.579,1.3V22.819a3.385,3.385,0,0,0,3.3,3.454H9.6V20.92A4.448,4.448,0,0,1,14,16.335Z" fill="#01e9b5" stroke="#01e9b5" stroke-miterlimit="10" stroke-width="1"/></g></svg>