<svg xmlns="http://www.w3.org/2000/svg" xmlns:xlink="http://www.w3.org/1999/xlink" width="27.479" height="24.69" viewBox="0 0 27.479 24.69"><defs><clipPath id="a"><rect width="27.479" height="24.69" fill="none"/></clipPath></defs><g transform="translate(0 0)" clip-path="url(#a)"><path d="M137.481,28.381a7.483,7.483,0,1,0-7.494-7.494A7.5,7.5,0,0,0,137.481,28.381Zm0-13.012a5.517,5.517,0,1,1-5.517,5.517A5.533,5.533,0,0,1,137.481,15.369Z" transform="translate(-123.745 -13.415)" fill="#01e9b5"/><path d="M27.7,349.34c0-5.172-3.9-8.414-9.1-8.414H9.4c-5.172,0-9.184,3.218-9.184,8.414ZM9.4,342.9h9.2a7.42,7.42,0,0,1,7.356,6.437H2.046A7.44,7.44,0,0,1,9.4,342.9Z" transform="translate(-0.218 -324.65)" fill="#01e9b5"/></g></svg>