<svg xmlns="http://www.w3.org/2000/svg" xmlns:xlink="http://www.w3.org/1999/xlink" width="10" height="10" viewBox="0 0 10 10"><defs><clipPath id="a"><rect width="10" height="10" fill="none"/></clipPath></defs><g clip-path="url(#a)"><path d="M2.637,10A2.636,2.636,0,0,1,.773,5.5L5.5.773A2.636,2.636,0,1,1,9.227,4.5l-.567.568A2.636,2.636,0,1,1,5.069,8.66L4.5,9.227A2.619,2.619,0,0,1,2.637,10Zm.689-6.224h0L1.187,5.913a2.05,2.05,0,1,0,2.9,2.9l.738-.737a2.674,2.674,0,0,1-.1-.713,2.608,2.608,0,0,1,.562-1.624L3.326,3.775ZM7.656,5.333V9.392a2.051,2.051,0,0,0,0-4.059Zm-.586,0a2.051,2.051,0,0,0,0,4.059ZM7.363.586a2.037,2.037,0,0,0-1.45.6L3.74,3.361,5.7,5.32a2.633,2.633,0,0,1,2.377-.495l.737-.738a2.051,2.051,0,0,0-1.45-3.5Z" fill="#fff"/></g></svg>