<svg xmlns="http://www.w3.org/2000/svg" xmlns:xlink="http://www.w3.org/1999/xlink" width="175.718" height="175.718" viewBox="0 0 175.718 175.718"><defs><filter id="a" x="0" y="0" width="175.718" height="175.718" filterUnits="userSpaceOnUse"><feOffset dx="10" dy="10" input="SourceAlpha"/><feGaussianBlur stdDeviation="10" result="b"/><feFlood flood-color="#416888" flood-opacity="0.102"/><feComposite operator="in" in2="b"/><feComposite in="SourceGraphic"/></filter></defs><g transform="translate(20 20)"><g transform="matrix(1, 0, 0, 1, -20, -20)" filter="url(#a)"><circle cx="57.859" cy="57.859" r="57.859" transform="translate(20 20)" fill="#fff"/></g><path d="M21,20.1V0H48.36V5.715A38.676,38.676,0,0,1,44.784,21.4c-3.575,8.088-8.376,12.539-13.211,20.054A32.3,32.3,0,0,0,26.642,59H42.789V38.728a20.539,20.539,0,0,1,6.4-14.063q4.823-4.807,14.848-4.807h5.4V46.346H54.037v-5.7h9.8v-14.5Q57.008,26.442,53,30.162A14.154,14.154,0,0,0,48.36,40.649v6.531L48.375,64.8H21V59q.4-12.382,8.726-23.505c4.9-6.548,6.568-8.267,10.054-15.632A28.288,28.288,0,0,0,42.789,5.715H26.642v18.95q-.461,11.621-6.867,16.784a21.207,21.207,0,0,1-14.427,4.9H0V20.1H15.349v5.761H5.6v14.5q6.792-.294,10.785-4.013A14.637,14.637,0,0,0,21,25.858V20.1Z" transform="translate(23.144 25.458)" fill="#01e9b5"/></g></svg>