<svg xmlns="http://www.w3.org/2000/svg" xmlns:xlink="http://www.w3.org/1999/xlink" width="10" height="10" viewBox="0 0 10 10"><defs><clipPath id="a"><rect width="10" height="10" fill="none"/></clipPath></defs><g transform="translate(0)" clip-path="url(#a)"><path d="M8.536,10a1.465,1.465,0,0,1-.293-2.9V6.758a.878.878,0,0,0-.31-.671.867.867,0,0,0-.568-.209.957.957,0,0,0-.151.013.921.921,0,0,0-.729.929V8.242A1.76,1.76,0,0,1,4.727,10a1.719,1.719,0,0,1-.18-.009,1.83,1.83,0,0,1-1.6-1.832V6.708L2.932,6.7l-.016-.006-.21-.084A5.5,5.5,0,0,1,.14,4.6.865.865,0,0,1,.11,3.7a.893.893,0,0,1,.137-.187,2.669,2.669,0,0,1-.1-1.451A2.975,2.975,0,0,1,.941.6L.952.587.868.5a.294.294,0,0,1,0-.415.293.293,0,0,1,.414,0l.586.586a.3.3,0,0,1,0,.415.293.293,0,0,1-.414,0L1.367,1l-.019.02A2.232,2.232,0,0,0,.775,3.249a.93.93,0,0,1,.108-.006.9.9,0,0,1,.748.419A3.683,3.683,0,0,0,3.243,4.93,3.681,3.681,0,0,0,4.855,3.662.9.9,0,0,1,5.6,3.243a.857.857,0,0,1,.107.006A2.232,2.232,0,0,0,5.136,1.02L5.117,1l-.086.086a.3.3,0,0,1-.208.085.291.291,0,0,1-.207-.086.3.3,0,0,1,0-.415L5.2.085a.293.293,0,0,1,.5.208A.291.291,0,0,1,5.618.5L5.531.586l.01.01a2.951,2.951,0,0,1,.8,1.469,2.676,2.676,0,0,1-.1,1.451.906.906,0,0,1,.137.187.863.863,0,0,1-.032.895A5.5,5.5,0,0,1,3.778,6.611l-.21.084-.01,0-.01,0-.013,0V8.158A1.253,1.253,0,0,0,4.6,9.408a1.149,1.149,0,0,0,.123.006A1.173,1.173,0,0,0,5.9,8.242V6.82A1.511,1.511,0,0,1,7.12,5.313a1.537,1.537,0,0,1,.24-.02A1.465,1.465,0,0,1,8.828,6.758V7.1A1.465,1.465,0,0,1,8.536,10Zm0-2.344a.879.879,0,1,0,.878.878A.88.88,0,0,0,8.536,7.656ZM.879,3.828a.292.292,0,0,0-.256.156.286.286,0,0,0,.01.3,4.9,4.9,0,0,0,2.29,1.786l.21.084a.294.294,0,0,0,.217,0l.211-.084A4.909,4.909,0,0,0,5.852,4.28a.285.285,0,0,0,.009-.3.292.292,0,0,0-.255-.155.315.315,0,0,0-.261.153A4.31,4.31,0,0,1,3.352,5.52a.3.3,0,0,1-.219,0A4.323,4.323,0,0,1,1.139,3.982.311.311,0,0,0,.879,3.828Z" transform="translate(0)" fill="#fff"/><circle cx="0.345" cy="0.345" r="0.345" transform="translate(8.276 8.276)" fill="#fff"/></g></svg>