<svg xmlns="http://www.w3.org/2000/svg" width="128" height="40" viewBox="0 0 128 40"><path d="M7.727,40H0V8.48C0,3.17,2.735,0,7.315,0h5.719V8.906h-3.3c-1.521,0-2.009.778-2.009,3.2V16.48h5.306v8.853H7.727V40Zm29,0h-7.9V16h7.9V40ZM24.882,40h-7.9V0h7.9Zm7.9-28a4.021,4.021,0,0,1-2.8-6.835A3.9,3.9,0,0,1,32.781,4a4,4,0,0,1,2.783,6.818A3.892,3.892,0,0,1,32.781,12Z" fill="#01e9b5"/><path d="M17.339,40h-4V24.656a4.668,4.668,0,0,0-9.337,0V40H0V24.647a8.675,8.675,0,0,1,15.339-5.526,8.674,8.674,0,0,1,15.338,5.526V40h-4V24.656a4.668,4.668,0,0,0-9.336,0V40Zm57.448,0a12,12,0,1,1,8.02-20.944V0h4.01V28.266A12.02,12.02,0,0,1,74.787,40Zm0-20a8,8,0,1,0,8.02,8A8.019,8.019,0,0,0,74.787,20ZM46.717,40A11.991,11.991,0,1,1,58.581,30H38.949a8.03,8.03,0,0,0,14.283,2.667H57.8A12.014,12.014,0,0,1,46.717,40Zm0-20a8.014,8.014,0,0,0-7.768,6H54.484A8.011,8.011,0,0,0,46.717,20Z" transform="translate(41.183)" fill="#416888"/></svg>