<svg xmlns="http://www.w3.org/2000/svg" width="60" height="54" viewBox="0 0 60 54"><path d="M18.144,16.747V0H41.791V4.762A31.27,31.27,0,0,1,38.7,17.829c-3.09,6.74-7.238,10.449-11.417,16.711a26.206,26.206,0,0,0-4.261,14.621H36.977V32.272A16.851,16.851,0,0,1,42.5,20.554q4.168-4.006,12.831-4.006H60V38.62H46.7V33.873h8.465V21.789q-5.9.245-9.363,3.344a11.587,11.587,0,0,0-4.007,8.739v5.443L41.8,54H18.144V49.161q.349-10.318,7.541-19.587c4.234-5.456,5.676-6.889,8.688-13.026a22.864,22.864,0,0,0,2.6-11.785H23.023V20.554q-.4,9.684-5.935,13.986A18.764,18.764,0,0,1,4.621,38.62H0V16.747H13.264v4.8H4.839V33.632q5.87-.245,9.32-3.344a11.978,11.978,0,0,0,3.985-8.739v-4.8Z" fill="#01e9b5"/></svg>