<svg xmlns="http://www.w3.org/2000/svg" xmlns:xlink="http://www.w3.org/1999/xlink" width="25.631" height="39.916" viewBox="0 0 25.631 39.916"><defs><clipPath id="a"><rect width="25.631" height="39.916" fill="none"/></clipPath></defs><g transform="translate(0 0)" clip-path="url(#a)"><path d="M12.815,39.916a13.222,13.222,0,0,1-9.043-3.281A12.255,12.255,0,0,1,0,27.329,18.685,18.685,0,0,1,5.842,13.875a1.551,1.551,0,0,0,.348-.368H6.159a.461.461,0,0,1-.324-.133.482.482,0,0,1-.143-.353V9.489a.5.5,0,0,1,.14-.364.494.494,0,0,1,.349-.149h.884L5.866,2.5a.535.535,0,0,1,.247-.554.5.5,0,0,1,.258-.071A.511.511,0,0,1,6.706,2l2.8,2.415L11.91.256A.508.508,0,0,1,12.347,0h.006a.517.517,0,0,1,.437.246L15.673,4.97l3.241-2.961a.512.512,0,0,1,.6-.066.525.525,0,0,1,.252.554l-1.2,6.478h.885a.493.493,0,0,1,.348.149.5.5,0,0,1,.14.364v3.533a.479.479,0,0,1-.143.353.46.46,0,0,1-.323.133h-.029a1.5,1.5,0,0,0,.346.368,18.685,18.685,0,0,1,5.842,13.454,12.259,12.259,0,0,1-3.772,9.31A13.23,13.23,0,0,1,12.815,39.916ZM7.487,13.507a5.155,5.155,0,0,1-.968,1.155A17.6,17.6,0,0,0,1.03,27.339a11.224,11.224,0,0,0,3.434,8.527,12.209,12.209,0,0,0,8.351,3.006,12.21,12.21,0,0,0,8.352-3.006A11.236,11.236,0,0,0,24.6,27.329a17.588,17.588,0,0,0-5.491-12.668,5.153,5.153,0,0,1-.967-1.155H7.487Zm-.765-3.486v2.441H18.909V10.022Zm.425-6.267.967,5.221h9.4l.954-5.152L15.9,6.165a.512.512,0,0,1-.344.134.5.5,0,0,1-.074-.005.513.513,0,0,1-.365-.242L12.365,1.531,10.085,5.478a.517.517,0,0,1-.357.252.5.5,0,0,1-.086.007.514.514,0,0,1-.334-.123Z" transform="translate(0 0)" fill="#416888"/><path d="M3.352,2.629a2.34,2.34,0,0,1,2.32,2.355.515.515,0,1,0,1.03,0A3.391,3.391,0,0,0,3.867,1.623V.523a.515.515,0,1,0-1.03,0v1.1a3.405,3.405,0,0,0,.515,6.763,2.356,2.356,0,0,1,0,4.711,2.338,2.338,0,0,1-2.32-2.356.519.519,0,0,0-.515-.523A.519.519,0,0,0,0,10.741,3.391,3.391,0,0,0,2.837,14.1v1.236a.515.515,0,1,0,1.03,0V14.1a3.405,3.405,0,0,0-.515-6.762,2.356,2.356,0,0,1,0-4.711Z" transform="translate(9.463 18.562)" fill="#416888"/></g></svg>