<svg xmlns="http://www.w3.org/2000/svg" xmlns:xlink="http://www.w3.org/1999/xlink" width="30" height="40" viewBox="0 0 30 40"><defs><clipPath id="a"><rect width="30" height="40" fill="none"/></clipPath></defs><g clip-path="url(#a)"><path d="M13.685,8H.572A.551.551,0,0,1,0,7.474V6.252A6.382,6.382,0,0,1,1.813,1.818,6.027,6.027,0,0,1,6.131,0H8.1a6.007,6.007,0,0,1,4.313,1.821,6.36,6.36,0,0,1,1.8,4.432V7.474a.541.541,0,0,1-.166.382A.521.521,0,0,1,13.685,8ZM6.131,1.1A4.967,4.967,0,0,0,2.576,2.6a5.258,5.258,0,0,0-1.5,3.654V6.9H13.131V6.252A5.233,5.233,0,0,0,11.65,2.6,4.946,4.946,0,0,0,8.1,1.1H6.131Z" transform="translate(5.526 17.6)" fill="#416888"/><path d="M4.342,8.8a4.4,4.4,0,0,1,0-8.8A4.377,4.377,0,0,1,8.684,4.4,4.377,4.377,0,0,1,4.342,8.8Zm0-7.7a3.3,3.3,0,0,0,0,6.592,3.3,3.3,0,0,0,0-6.592Z" transform="translate(7.895 7.2)" fill="#416888"/><path d="M29.455,40H.548A.547.547,0,0,1,0,39.46V.541A.546.546,0,0,1,.545,0H22.63a.539.539,0,0,1,.257.066l.007,0,.038.023L22.939.1,22.947.1l.014.01.014.011.017.016L23,.147a.109.109,0,0,1,.015.014l0,0,6.827,7.072,0,.005a.476.476,0,0,1,.059.075l0,.007a.538.538,0,0,1,.045.085l0,.005a.7.7,0,0,1,.029.095.47.47,0,0,1,.012.1V39.46A.544.544,0,0,1,29.455,40ZM1.091,1.086V38.914H28.909V8.145H22.618a.526.526,0,0,1-.527-.533V1.086Zm22.091.8v5.17h4.989Z" fill="#416888"/><path d="M19.2,0H.54C.242,0,0,.179,0,.4S.242.8.54.8H19.2c.3,0,.54-.179.54-.4S19.5,0,19.2,0Z" transform="translate(4.737 32.8)" fill="#416888"/><path d="M.538.8H11.3c.3,0,.538-.179.538-.4S11.6,0,11.3,0H.538C.241,0,0,.179,0,.4S.241.8.538.8Z" transform="translate(4.737 28)" fill="#416888"/></g></svg>